<?xml version="1.0" encoding="UTF-8" standalone="no"?>
<!DOCTYPE svg PUBLIC "-//W3C//DTD SVG 1.1//EN" "http://www.w3.org/Graphics/SVG/1.1/DTD/svg11.dtd">
<svg xmlns="http://www.w3.org/2000/svg" version="1.1" viewBox="0.00 0.00 66.00 65.00">
<path fill="#2c2b2c" d="
  M 52.23 22.20
  Q 56.03 21.47 57.92 24.31
  C 59.37 26.49 58.81 29.94 58.42 32.41
  Q 57.98 35.14 56.03 37.01
  Q 55.59 37.43 55.73 38.02
  Q 58.05 48.38 48.92 54.79
  Q 44.02 58.22 37.75 61.18
  Q 33.04 63.40 28.61 61.50
  Q 21.33 58.37 15.78 54.19
  Q 7.65 48.05 9.73 38.22
  C 9.94 37.25 9.36 36.67 8.67 36.12
  Q 8.17 35.72 7.94 35.13
  C 6.03 30.21 4.97 21.32 13.30 22.15
  Q 13.96 22.22 14.11 21.57
  Q 14.63 19.23 15.32 16.92
  C 21.01 -2.30 44.54 -2.14 50.14 16.93
  Q 50.81 19.23 51.29 21.57
  Q 51.45 22.35 52.23 22.20
  Z
  M 12.99 37.33
  C 8.34 49.27 21.86 55.31 30.16 59.06
  Q 32.54 60.14 34.72 59.26
  C 39.69 57.24 46.20 53.99 50.08 49.98
  C 54.00 45.91 54.11 41.40 52.14 36.23
  C 49.70 29.78 49.22 22.78 47.01 16.52
  C 42.24 2.95 26.38 1.16 19.46 14.25
  C 15.83 21.11 15.82 30.04 12.99 37.33
  Z
  M 11.30 33.54
  L 13.07 25.94
  Q 13.42 24.44 11.93 24.79
  L 11.15 24.97
  Q 9.66 25.32 9.55 26.85
  Q 9.36 29.65 9.86 32.45
  Q 9.99 33.21 10.54 33.76
  Q 11.12 34.33 11.30 33.54
  Z
  M 54.08 33.28
  A 0.80 0.80 0.0 0 0 55.65 33.16
  L 56.11 27.16
  A 0.80 0.80 0.0 0 0 56.00 26.69
  L 55.22 25.38
  A 0.80 0.80 0.0 0 0 54.59 24.99
  L 53.15 24.89
  A 0.80 0.80 0.0 0 0 52.31 25.87
  L 54.08 33.28
  Z"
/>
<path fill="#2c2b2c" d="
  M 41.51 37.02
  C 45.74 43.90 45.52 54.17 35.50 55.74
  C 22.33 57.79 18.10 47.16 24.24 36.94
  Q 24.57 36.41 23.98 36.20
  Q 23.25 35.94 22.46 35.77
  C 18.73 34.93 16.57 31.57 17.13 27.98
  C 17.88 23.16 23.11 21.03 27.34 22.54
  Q 29.57 23.34 31.78 24.35
  A 3.40 3.38 45.7 0 0 34.51 24.39
  C 36.67 23.47 38.94 22.07 41.32 22.11
  C 49.45 22.24 51.21 33.42 43.65 35.66
  Q 42.74 35.93 41.83 36.20
  Q 41.13 36.40 41.51 37.02
  Z
  M 28.19 33.84
  A 1.12 1.12 0.0 0 1 28.32 35.36
  C 24.14 40.83 20.69 51.10 30.73 53.02
  C 35.38 53.91 41.68 51.66 41.32 45.89
  Q 40.98 40.25 37.16 35.38
  A 1.14 1.14 0.0 0 1 37.93 33.54
  C 40.19 33.30 42.61 33.66 44.39 31.90
  C 46.38 29.94 45.81 26.56 43.35 25.34
  C 41.11 24.22 38.37 25.67 36.41 26.72
  C 32.25 28.94 29.47 25.94 25.57 25.07
  C 19.38 23.68 17.93 32.36 23.48 33.10
  Q 25.24 33.34 27.08 33.40
  Q 27.72 33.42 28.19 33.84
  Z"
/>
<path fill="#2c2b2c" d="
  M 29.42 29.18
  A 0.21 0.21 0.0 0 1 29.56 29.43
  L 29.52 29.58
  A 2.76 2.32 15.4 0 1 26.25 31.08
  L 25.88 30.98
  A 2.76 2.32 15.4 0 1 23.84 28.01
  L 23.88 27.87
  A 0.21 0.21 0.0 0 1 24.13 27.72
  L 29.42 29.18
  Z"
/>
<path fill="#2c2b2c" d="
  M 41.44 27.78
  A 0.15 0.15 0.0 0 1 41.62 27.89
  L 41.64 27.96
  A 2.80 2.43 -15.3 0 1 39.58 31.05
  L 39.24 31.14
  A 2.80 2.43 -15.3 0 1 35.90 29.54
  L 35.87 29.46
  A 0.15 0.15 0.0 0 1 35.98 29.27
  L 41.44 27.78
  Z"
/>
<ellipse fill="#2c2b2c" cx="0.00" cy="0.00" transform="translate(30.27,39.16) rotate(32.1)" rx="1.65" ry="1.38"/>
<ellipse fill="#2c2b2c" cx="0.00" cy="0.00" transform="translate(35.25,39.18) rotate(-31.1)" rx="1.60" ry="1.41"/>
<rect fill="#2c2b2c" x="-5.38" y="-1.35" transform="translate(32.76,46.83) rotate(-0.2)" width="10.76" height="2.70" rx="1.30"/>
</svg>
