<svg width="28" height="28" viewBox="0 0 28 28" fill="none" xmlns="http://www.w3.org/2000/svg">
<mask id="mask0_114_356" style="mask-type:alpha" maskUnits="userSpaceOnUse" x="0" y="0" width="28" height="28">
<circle cx="14.1117" cy="13.9999" r="13.6683" fill="white"/>
</mask>
<g mask="url(#mask0_114_356)">
<path d="M13.7744 -0.352051C7.92532 -0.352051 6.21469 -0.346015 5.88218 -0.318424C4.68185 -0.218621 3.93493 -0.0295768 3.12121 0.375671C2.49411 0.687152 1.99954 1.04821 1.51143 1.55434C0.622503 2.47736 0.0837559 3.61291 -0.11127 4.96273C-0.20609 5.61803 -0.233674 5.75168 -0.239277 9.09885C-0.241432 10.2146 -0.239277 11.683 -0.239277 13.6525C-0.239277 19.4984 -0.232812 21.2078 -0.204797 21.5397C-0.107822 22.7081 0.0753515 23.4431 0.463249 24.2472C1.20456 25.7862 2.62039 26.9416 4.28835 27.3727C4.86589 27.5215 5.50376 27.6034 6.32266 27.6422C6.66961 27.6573 10.2059 27.668 13.7444 27.668C17.2829 27.668 20.8214 27.6637 21.1597 27.6465C22.1079 27.6019 22.6585 27.5279 23.2673 27.3706C24.9461 26.9373 26.336 25.7992 27.0924 24.2385C27.4728 23.4539 27.6656 22.6908 27.7529 21.5835C27.7719 21.3421 27.7799 17.4929 27.7799 13.6488C27.7799 9.80416 27.7712 5.96206 27.7523 5.72063C27.6639 4.59542 27.4711 3.83882 27.0784 3.0391C26.7562 2.38445 26.3985 1.89557 25.8792 1.39569C24.9523 0.510179 23.8188 -0.0287146 22.468 -0.223579C21.8136 -0.318208 21.6832 -0.346231 18.3343 -0.352051H13.7744Z" fill="url(#paint0_radial_114_356)"/>
<path d="M13.7744 -0.352051C7.92532 -0.352051 6.21469 -0.346015 5.88218 -0.318424C4.68185 -0.218621 3.93493 -0.0295768 3.12121 0.375671C2.49411 0.687152 1.99954 1.04821 1.51143 1.55434C0.622503 2.47736 0.0837559 3.61291 -0.11127 4.96273C-0.20609 5.61803 -0.233674 5.75168 -0.239277 9.09885C-0.241432 10.2146 -0.239277 11.683 -0.239277 13.6525C-0.239277 19.4984 -0.232812 21.2078 -0.204797 21.5397C-0.107822 22.7081 0.0753515 23.4431 0.463249 24.2472C1.20456 25.7862 2.62039 26.9416 4.28835 27.3727C4.86589 27.5215 5.50376 27.6034 6.32266 27.6422C6.66961 27.6573 10.2059 27.668 13.7444 27.668C17.2829 27.668 20.8214 27.6637 21.1597 27.6465C22.1079 27.6019 22.6585 27.5279 23.2673 27.3706C24.9461 26.9373 26.336 25.7992 27.0924 24.2385C27.4728 23.4539 27.6656 22.6908 27.7529 21.5835C27.7719 21.3421 27.7799 17.4929 27.7799 13.6488C27.7799 9.80416 27.7712 5.96206 27.7523 5.72063C27.6639 4.59542 27.4711 3.83882 27.0784 3.0391C26.7562 2.38445 26.3985 1.89557 25.8792 1.39569C24.9523 0.510179 23.8188 -0.0287146 22.468 -0.223579C21.8136 -0.318208 21.6832 -0.346231 18.3343 -0.352051H13.7744Z" fill="url(#paint1_radial_114_356)"/>
<path d="M14.112 6.48242C12.0704 6.48242 11.8141 6.49135 11.0123 6.52784C10.2119 6.56449 9.66566 6.69119 9.18766 6.8771C8.69321 7.06911 8.27379 7.32596 7.85593 7.74397C7.43776 8.16182 7.18091 8.58124 6.98827 9.07552C6.8019 9.55367 6.67503 10.1001 6.63901 10.9001C6.60315 11.702 6.59375 11.9584 6.59375 14C6.59375 16.0417 6.60283 16.2971 6.63917 17.099C6.67597 17.8993 6.80268 18.4456 6.98843 18.9236C7.1806 19.418 7.43745 19.8374 7.85546 20.2553C8.27317 20.6734 8.69259 20.9309 9.18672 21.1229C9.66503 21.3088 10.2115 21.4355 11.0116 21.4722C11.8135 21.5087 12.0696 21.5176 14.1111 21.5176C16.1529 21.5176 16.4084 21.5087 17.2103 21.4722C18.0106 21.4355 18.5575 21.3088 19.0358 21.1229C19.5301 20.9309 19.9489 20.6734 20.3666 20.2553C20.7848 19.8374 21.0416 19.418 21.2342 18.9237C21.4191 18.4456 21.5459 17.8991 21.5835 17.0991C21.6195 16.2973 21.6289 16.0417 21.6289 14C21.6289 11.9584 21.6195 11.7021 21.5835 10.9003C21.5459 10.0999 21.4191 9.55367 21.2342 9.07568C21.0416 8.58124 20.7848 8.16182 20.3666 7.74397C19.9484 7.3258 19.5302 7.06895 19.0353 6.8771C18.5561 6.69119 18.0095 6.56449 17.2092 6.52784C16.4073 6.49135 16.152 6.48242 14.1097 6.48242H14.112ZM13.4376 7.83715C13.6378 7.83684 13.8611 7.83715 14.112 7.83715C16.1193 7.83715 16.3572 7.84436 17.1498 7.88038C17.8828 7.9139 18.2806 8.03637 18.5456 8.13927C18.8964 8.27552 19.1465 8.4384 19.4095 8.70152C19.6726 8.96464 19.8355 9.21522 19.9721 9.56604C20.075 9.83072 20.1976 10.2285 20.231 10.9615C20.267 11.754 20.2748 11.992 20.2748 13.9983C20.2748 16.0045 20.267 16.2426 20.231 17.0351C20.1974 17.768 20.075 18.1659 19.9721 18.4305C19.8358 18.7814 19.6726 19.0312 19.4095 19.2941C19.1464 19.5572 18.8966 19.7201 18.5456 19.8564C18.2809 19.9597 17.8828 20.0819 17.1498 20.1154C16.3573 20.1514 16.1193 20.1593 14.112 20.1593C12.1047 20.1593 11.8668 20.1514 11.0743 20.1154C10.3413 20.0816 9.9435 19.9591 9.67834 19.8562C9.32752 19.72 9.07693 19.5571 8.81381 19.294C8.55069 19.0308 8.38781 18.7809 8.25124 18.4299C8.14834 18.1652 8.02571 17.7674 7.99235 17.0345C7.95633 16.242 7.94912 16.0039 7.94912 13.9964C7.94912 11.9889 7.95633 11.7521 7.99235 10.9596C8.02587 10.2267 8.14834 9.82884 8.25124 9.56385C8.3875 9.21303 8.55069 8.96244 8.81381 8.69933C9.07693 8.43621 9.32752 8.27333 9.67834 8.13676C9.94334 8.03339 10.3413 7.91123 11.0743 7.87756C11.7678 7.84624 12.0365 7.83684 13.4376 7.83527V7.83715ZM18.1249 9.08539C17.6269 9.08539 17.2228 9.48899 17.2228 9.98718C17.2228 10.4852 17.6269 10.8893 18.1249 10.8893C18.623 10.8893 19.027 10.4852 19.027 9.98718C19.027 9.48914 18.623 9.08507 18.1249 9.08507V9.08539ZM14.112 10.1394C11.98 10.1394 10.2514 11.868 10.2514 14C10.2514 16.132 11.98 17.8598 14.112 17.8598C16.2441 17.8598 17.9721 16.132 17.9721 14C17.9721 11.868 16.2441 10.1394 14.112 10.1394ZM14.112 11.4941C15.4959 11.4941 16.6179 12.616 16.6179 14C16.6179 15.3839 15.4959 16.5059 14.112 16.5059C12.728 16.5059 11.6062 15.3839 11.6062 14C11.6062 12.616 12.728 11.4941 14.112 11.4941Z" fill="white"/>
</g>
<defs>
<radialGradient id="paint0_radial_114_356" cx="0" cy="0" r="1" gradientUnits="userSpaceOnUse" gradientTransform="translate(7.20264 29.8262) rotate(-90) scale(27.77 25.8283)">
<stop stop-color="#FFDD55"/>
<stop offset="0.1" stop-color="#FFDD55"/>
<stop offset="0.5" stop-color="#FF543E"/>
<stop offset="1" stop-color="#C837AB"/>
</radialGradient>
<radialGradient id="paint1_radial_114_356" cx="0" cy="0" r="1" gradientUnits="userSpaceOnUse" gradientTransform="translate(-4.93375 1.66647) rotate(78.6806) scale(12.4133 51.1682)">
<stop stop-color="#3771C8"/>
<stop offset="0.128" stop-color="#3771C8"/>
<stop offset="1" stop-color="#6600FF" stop-opacity="0"/>
</radialGradient>
</defs>
</svg>
