<svg width="40" height="40" viewBox="0 0 40 40" fill="none" xmlns="http://www.w3.org/2000/svg">
<g clip-path="url(#clip0_93_1390)">
<path d="M20 40C31.0457 40 40 31.0457 40 20C40 8.95431 31.0457 0 20 0C8.95431 0 0 8.95431 0 20C0 31.0457 8.95431 40 20 40Z" fill="url(#paint0_linear_93_1390)"/>
<path d="M13.5381 21.4621L15.9109 28.0297C15.9109 28.0297 16.2076 28.6442 16.5253 28.6442C16.8429 28.6442 21.5678 23.7289 21.5678 23.7289L26.8219 13.5806L13.6228 19.7667L13.5381 21.4621Z" fill="#C8DAEA"/>
<path d="M16.6842 23.1465L16.2287 27.9875C16.2287 27.9875 16.038 29.4708 17.521 27.9875C19.004 26.5041 20.4235 25.3603 20.4235 25.3603" fill="#A9C6D8"/>
<path d="M13.5813 21.6965L8.70034 20.1061C8.70034 20.1061 8.11701 19.8695 8.30484 19.3328C8.34351 19.2221 8.42151 19.128 8.65484 18.9661C9.73634 18.2123 28.6725 11.4061 28.6725 11.4061C28.6725 11.4061 29.2072 11.226 29.5225 11.3458C29.6005 11.37 29.6707 11.4144 29.7259 11.4746C29.7811 11.5348 29.8193 11.6085 29.8367 11.6883C29.8708 11.8293 29.885 11.9743 29.879 12.1191C29.8775 12.2445 29.8623 12.3606 29.8508 12.5428C29.7355 14.4036 26.2842 28.2916 26.2842 28.2916C26.2842 28.2916 26.0777 29.1043 25.3378 29.1321C25.156 29.138 24.9749 29.1072 24.8052 29.0416C24.6356 28.976 24.4809 28.8768 24.3503 28.7501C22.8985 27.5013 17.8805 24.129 16.7717 23.3873C16.7467 23.3703 16.7256 23.3481 16.7099 23.3222C16.6942 23.2963 16.6842 23.2674 16.6807 23.2373C16.6652 23.1591 16.7502 23.0623 16.7502 23.0623C16.7502 23.0623 25.4878 15.2956 25.7203 14.4803C25.7383 14.4171 25.6703 14.386 25.579 14.4136C24.9987 14.6271 14.9383 20.9803 13.828 21.6815C13.7481 21.7057 13.6636 21.7108 13.5813 21.6965Z" fill="white"/>
</g>
<defs>
<linearGradient id="paint0_linear_93_1390" x1="20" y1="40" x2="20" y2="0" gradientUnits="userSpaceOnUse">
<stop stop-color="#1D93D2"/>
<stop offset="1" stop-color="#38B0E3"/>
</linearGradient>
<clipPath id="clip0_93_1390">
<rect width="40" height="40" fill="white"/>
</clipPath>
</defs>
</svg>
