<?xml version="1.0" encoding="UTF-8" standalone="no"?>
<!DOCTYPE svg PUBLIC "-//W3C//DTD SVG 1.1//EN" "http://www.w3.org/Graphics/SVG/1.1/DTD/svg11.dtd">
<svg xmlns="http://www.w3.org/2000/svg" version="1.1" viewBox="0.00 0.00 128.00 127.00">
<g stroke-width="2.00" fill="none" stroke-linecap="butt">
<path stroke="#00f5d9" vector-effect="non-scaling-stroke" d="
  M 101.84 2.38
  L 101.39 25.55"
/>
<path stroke="#00e7df" vector-effect="non-scaling-stroke" d="
  M 101.39 25.55
  Q 101.32 25.57 101.24 25.58"
/>
<path stroke="#00e2e7" vector-effect="non-scaling-stroke" d="
  M 101.24 25.58
  L 76.04 25.71"
/>
<path stroke="#198e99" vector-effect="non-scaling-stroke" d="
  M 76.04 25.71
  L 76.01 0.20"
/>
<path stroke="#1981a2" vector-effect="non-scaling-stroke" d="
  M 76.04 25.71
  Q 75.93 25.64 75.83 25.58"
/>
<path stroke="#1977a1" vector-effect="non-scaling-stroke" d="
  M 75.83 25.58
  L 51.12 25.60
  Q 50.57 25.60 50.57 26.15
  L 50.59 50.75"
/>
<path stroke="#3a63a1" vector-effect="non-scaling-stroke" d="
  M 50.59 50.75
  Q 49.98 50.77 49.78 51.00"
/>
<path stroke="#5358a1" vector-effect="non-scaling-stroke" d="
  M 49.78 51.00
  L 26.03 50.95
  Q 25.53 50.95 25.53 51.45
  L 25.43 76.33"
/>
<path stroke="#6545a6" vector-effect="non-scaling-stroke" d="
  M 25.43 76.33
  L 0.00 76.47"
/>
<path stroke="#00eedb" vector-effect="non-scaling-stroke" d="
  M 124.61 25.56
  L 101.39 25.55"
/>
<path stroke="#00cbef" vector-effect="non-scaling-stroke" d="
  M 75.83 25.58
  L 75.81 50.92"
/>
<path stroke="#00b8ee" vector-effect="non-scaling-stroke" d="
  M 75.81 50.92
  Q 75.26 50.80 74.96 51.10"
/>
<path stroke="#21adee" vector-effect="non-scaling-stroke" d="
  M 74.96 51.10
  L 50.59 50.75"
/>
<path stroke="#00dae9" vector-effect="non-scaling-stroke" d="
  M 101.24 25.58
  L 101.30 48.64
  Q 101.30 49.14 101.06 49.57
  Q 100.75 50.14 100.80 50.94"
/>
<path stroke="#00c2ef" vector-effect="non-scaling-stroke" d="
  M 100.80 50.94
  L 75.81 50.92"
/>
<path stroke="#00d0e7" vector-effect="non-scaling-stroke" d="
  M 124.49 51.13
  L 101.63 51.15"
/>
<path stroke="#00c7e8" vector-effect="non-scaling-stroke" d="
  M 101.63 51.15
  Q 101.33 50.89 100.80 50.94"
/>
<path stroke="#21a3ee" vector-effect="non-scaling-stroke" d="
  M 74.96 51.10
  Q 76.09 52.01 75.89 55.50
  Q 75.61 60.40 75.91 76.41"
/>
<path stroke="#4a8ef3" vector-effect="non-scaling-stroke" d="
  M 75.91 76.41
  Q 63.75 76.37 51.45 76.44
  Q 51.05 76.44 51.04 76.44
  Q 50.90 76.35 50.78 76.03"
/>
<path stroke="#5b8dee" vector-effect="non-scaling-stroke" d="
  M 50.78 76.03
  Q 50.58 64.02 50.62 51.98
  Q 50.63 51.58 50.45 51.32
  Q 50.12 50.84 49.78 51.00"
/>
<path stroke="#00b8ee" vector-effect="non-scaling-stroke" d="
  M 101.63 51.15
  L 101.35 76.41"
/>
<path stroke="#00aaf3" vector-effect="non-scaling-stroke" d="
  M 101.35 76.41
  Q 100.24 75.89 100.20 76.57"
/>
<path stroke="#21a3ee" vector-effect="non-scaling-stroke" d="
  M 100.20 76.57
  L 75.91 76.41"
/>
<path stroke="#6383f3" vector-effect="non-scaling-stroke" d="
  M 50.78 76.03
  L 50.69 76.53"
/>
<path stroke="#7378f6" vector-effect="non-scaling-stroke" d="
  M 50.69 76.53
  Q 38.94 76.45 27.25 76.46
  Q 27.24 76.46 26.29 76.67
  Q 25.82 76.78 25.43 76.33"
/>
<path stroke="#00b4f3" vector-effect="non-scaling-stroke" d="
  M 124.60 76.35
  L 101.35 76.41"
/>
<path stroke="#4a8ef3" vector-effect="non-scaling-stroke" d="
  M 75.91 76.41
  L 75.93 100.74
  Q 75.93 101.51 76.70 101.50
  L 100.89 101.28"
/>
<path stroke="#2995f8" vector-effect="non-scaling-stroke" d="
  M 100.89 101.28
  Q 101.10 100.67 101.14 101.53"
/>
<path stroke="#2986fc" vector-effect="non-scaling-stroke" d="
  M 101.14 101.53
  Q 101.52 102.13 101.52 102.50
  Q 101.42 113.51 101.53 124.91"
/>
<path stroke="#6278fb" vector-effect="non-scaling-stroke" d="
  M 76.04 127.00
  L 76.05 102.41
  A 0.90 0.90 0.0 0 0 75.15 101.51
  L 50.63 101.53"
/>
<path stroke="#6278fb" vector-effect="non-scaling-stroke" d="
  M 50.63 101.53
  L 50.69 76.53"
/>
<path stroke="#8565fa" vector-effect="non-scaling-stroke" d="
  M 25.43 76.33
  L 25.38 100.89
  Q 25.38 101.38 25.88 101.38
  L 50.63 101.53"
/>
<path stroke="#8565fa" vector-effect="non-scaling-stroke" d="
  M 50.63 101.53
  L 50.54 126.79"
/>
<path stroke="#a655f7" vector-effect="non-scaling-stroke" d="
  M 25.42 126.76
  L 25.48 102.78
  Q 25.48 101.52 24.23 101.53
  L 0.00 101.64"
/>
<path stroke="#219ff3" vector-effect="non-scaling-stroke" d="
  M 100.20 76.57
  Q 101.04 76.57 100.89 77.41
  Q 100.82 77.80 100.91 78.18
  C 101.32 79.88 100.95 81.58 100.94 82.83
  Q 100.86 91.97 100.89 101.28"
/>
<path stroke="#0098fc" vector-effect="non-scaling-stroke" d="
  M 124.69 101.54
  L 101.14 101.53"
/>
</g>
<path fill="#00eedd" d="
  M 86.38 0.00
  L 90.97 0.00
  L 101.84 2.38
  L 101.39 25.55
  Q 101.32 25.57 101.24 25.58
  L 76.04 25.71
  L 76.01 0.20
  L 86.38 0.00
  Z"
/>
<path fill="#312d54" d="
  M 76.01 0.20
  L 76.04 25.71
  Q 75.93 25.64 75.83 25.58
  L 51.12 25.60
  Q 50.57 25.60 50.57 26.15
  L 50.59 50.75
  Q 49.98 50.77 49.78 51.00
  L 26.03 50.95
  Q 25.53 50.95 25.53 51.45
  L 25.43 76.33
  L 0.00 76.47
  L 0.00 11.75
  Q 1.49 4.53 7.07 1.70
  Q 9.92 0.26 16.16 0.23
  Q 46.07 0.10 76.01 0.20
  Z"
/>
<path fill="#00fcd5" d="
  M 101.84 2.38
  Q 118.79 9.35 124.61 25.56
  L 101.39 25.55
  L 101.84 2.38
  Z"
/>
<path fill="#00c1ed" d="
  M 75.83 25.58
  L 75.81 50.92
  Q 75.26 50.80 74.96 51.10
  L 50.59 50.75
  L 50.57 26.15
  Q 50.57 25.60 51.12 25.60
  L 75.83 25.58
  Z"
/>
<path fill="#00d5f0" d="
  M 75.83 25.58
  Q 75.93 25.64 76.04 25.71
  L 101.24 25.58
  L 101.30 48.64
  Q 101.30 49.14 101.06 49.57
  Q 100.75 50.14 100.80 50.94
  L 75.81 50.92
  L 75.83 25.58
  Z"
/>
<path fill="#00dfe1" d="
  M 101.24 25.58
  Q 101.32 25.57 101.39 25.55
  L 124.61 25.56
  Q 129.08 38.38 124.49 51.13
  L 101.63 51.15
  Q 101.33 50.89 100.80 50.94
  Q 100.75 50.14 101.06 49.57
  Q 101.30 49.14 101.30 48.64
  L 101.24 25.58
  Z"
/>
<path fill="#4298ee" d="
  M 50.59 50.75
  L 74.96 51.10
  Q 76.09 52.01 75.89 55.50
  Q 75.61 60.40 75.91 76.41
  Q 63.75 76.37 51.45 76.44
  Q 51.05 76.44 51.04 76.44
  Q 50.90 76.35 50.78 76.03
  Q 50.58 64.02 50.62 51.98
  Q 50.63 51.58 50.45 51.32
  Q 50.12 50.84 49.78 51.00
  Q 49.98 50.77 50.59 50.75
  Z"
/>
<path fill="#00aeee" d="
  M 75.81 50.92
  L 100.80 50.94
  Q 101.33 50.89 101.63 51.15
  L 101.35 76.41
  Q 100.24 75.89 100.20 76.57
  L 75.91 76.41
  Q 75.61 60.40 75.89 55.50
  Q 76.09 52.01 74.96 51.10
  Q 75.26 50.80 75.81 50.92
  Z"
/>
<path fill="#7482ee" d="
  M 49.78 51.00
  Q 50.12 50.84 50.45 51.32
  Q 50.63 51.58 50.62 51.98
  Q 50.58 64.02 50.78 76.03
  L 50.69 76.53
  Q 38.94 76.45 27.25 76.46
  Q 27.24 76.46 26.29 76.67
  Q 25.82 76.78 25.43 76.33
  L 25.53 51.45
  Q 25.53 50.95 26.03 50.95
  L 49.78 51.00
  Z"
/>
<path fill="#00c1ed" d="
  M 124.49 51.13
  Q 122.06 58.04 117.29 63.22
  A 0.55 0.55 0.0 0 0 117.29 63.97
  Q 122.12 69.21 124.60 76.35
  L 101.35 76.41
  L 101.63 51.15
  L 124.49 51.13
  Z"
/>
<path fill="#5283f8" d="
  M 50.78 76.03
  Q 50.90 76.35 51.04 76.44
  Q 51.05 76.44 51.45 76.44
  Q 63.75 76.37 75.91 76.41
  L 75.93 100.74
  Q 75.93 101.51 76.70 101.50
  L 100.89 101.28
  Q 101.10 100.67 101.14 101.53
  Q 101.52 102.13 101.52 102.50
  Q 101.42 113.51 101.53 124.91
  L 91.86 127.00
  L 76.04 127.00
  L 76.05 102.41
  A 0.90 0.90 0.0 0 0 75.15 101.51
  L 50.63 101.53
  L 50.69 76.53
  L 50.78 76.03
  Z"
/>
<path fill="#985df7" d="
  M 25.43 76.33
  L 25.38 100.89
  Q 25.38 101.38 25.88 101.38
  L 50.63 101.53
  L 50.54 126.79
  L 25.42 126.76
  L 25.48 102.78
  Q 25.48 101.52 24.23 101.53
  L 0.00 101.64
  L 0.00 76.47
  L 25.43 76.33
  Z"
/>
<path fill="#716dfd" d="
  M 25.43 76.33
  Q 25.82 76.78 26.29 76.67
  Q 27.24 76.46 27.25 76.46
  Q 38.94 76.45 50.69 76.53
  L 50.63 101.53
  L 25.88 101.38
  Q 25.38 101.38 25.38 100.89
  L 25.43 76.33
  Z"
/>
<path fill="#4298ee" d="
  M 100.20 76.57
  Q 101.04 76.57 100.89 77.41
  Q 100.82 77.80 100.91 78.18
  C 101.32 79.88 100.95 81.58 100.94 82.83
  Q 100.86 91.97 100.89 101.28
  L 76.70 101.50
  Q 75.93 101.51 75.93 100.74
  L 75.91 76.41
  L 100.20 76.57
  Z"
/>
<path fill="#00a6f8" d="
  M 101.35 76.41
  L 124.60 76.35
  Q 128.97 88.63 124.69 101.54
  L 101.14 101.53
  Q 101.10 100.67 100.89 101.28
  Q 100.86 91.97 100.94 82.83
  C 100.95 81.58 101.32 79.88 100.91 78.18
  Q 100.82 77.80 100.89 77.41
  Q 101.04 76.57 100.20 76.57
  Q 100.24 75.89 101.35 76.41
  Z"
/>
<path fill="#b44df6" d="
  M 25.42 126.76
  Q 20.51 126.82 15.55 126.77
  Q 9.58 126.71 6.74 125.16
  Q 1.31 122.21 0.00 115.04
  L 0.00 101.64
  L 24.23 101.53
  Q 25.48 101.52 25.48 102.78
  L 25.42 126.76
  Z"
/>
<path fill="#0089ff" d="
  M 124.69 101.54
  Q 118.43 118.34 101.53 124.91
  Q 101.42 113.51 101.52 102.50
  Q 101.52 102.13 101.14 101.53
  L 124.69 101.54
  Z"
/>
<path fill="#716dfd" d="
  M 50.63 101.53
  L 75.15 101.51
  A 0.90 0.90 0.0 0 1 76.05 102.41
  L 76.04 127.00
  Q 75.51 127.05 75.51 127.00
  L 58.36 127.00
  L 50.50 127.00
  Q 50.52 126.89 50.54 126.79
  L 50.63 101.53
  Z"
/>
</svg>
