<svg width="34" height="33" viewBox="0 0 34 33" fill="none" xmlns="http://www.w3.org/2000/svg">
<g clip-path="url(#clip0_438_320)">
<path d="M6.93871 11.2737C5.35336 10.748 3.41615 11.9184 3.40034 13.6797C3.38057 15.5561 3.32522 17.632 4.92243 18.8714C5.02786 18.9533 5.06475 19.0594 5.03313 19.1899C4.26088 22.2699 5.05158 24.8447 7.40522 26.9142C9.1632 28.4644 11.8424 29.9725 15.4427 31.4383C16.2887 31.7836 17.538 31.822 18.3801 31.4958C21.4928 30.2884 24.081 28.8763 26.1448 27.2596C28.8358 25.1517 29.7806 22.4758 28.9794 19.2321C28.9504 19.1119 28.982 19.0108 29.0743 18.929C30.0627 18.0362 30.5595 16.8121 30.5648 15.2568C30.5687 14.2591 30.8059 13.035 30.1022 12.2484C29.2087 11.2482 28.1848 10.9194 27.0303 11.2622C26.888 11.3032 26.8024 11.2533 26.7734 11.1126C26.4913 9.71328 26.1118 8.45979 25.6348 7.35212C22.128 -0.771256 11.8687 -0.713698 8.33429 7.39816C7.83351 8.54933 7.4632 9.78619 7.22336 11.1087C7.19437 11.2725 7.09948 11.3275 6.93871 11.2737Z" stroke="#88879C" stroke-width="2"/>
<path d="M19.1266 29.6885C20.9452 28.8341 22.6479 27.9068 24.2345 26.9066C26.6027 25.41 28.5597 22.6242 27.6543 19.9459C27.1127 18.3534 26.575 16.8531 26.235 15.1877C25.7158 12.6552 25.1531 10.4628 24.5469 8.61074C23.8853 6.59237 22.7322 5.0383 21.0876 3.94853C16.4739 0.886435 10.9627 3.78353 9.39316 8.69899C8.77641 10.6253 8.24401 12.7396 7.79595 15.0419C7.53897 16.3696 7.11199 17.7318 6.62571 19.0288C5.6413 21.6457 6.35292 24.186 8.5313 25.9895C10.0442 27.2429 12.3451 28.5527 15.4341 29.9188C16.7111 30.4828 17.909 30.2603 19.1266 29.6885Z" stroke="#88879C" stroke-width="2"/>
<path d="M4.80354 13.6413C4.76144 13.7107 4.74343 13.7914 4.75214 13.8715L5.08424 16.9259C5.09419 17.0144 5.13614 17.0965 5.20262 17.1578C5.26911 17.219 5.35582 17.2554 5.44734 17.2605C5.53886 17.2656 5.62927 17.239 5.70249 17.1854C5.77572 17.1319 5.82701 17.0549 5.84726 16.9681L6.74075 13.0503C6.75388 12.993 6.753 12.9336 6.7382 12.8766C6.7234 12.8197 6.69507 12.767 6.65549 12.7226C6.61592 12.6782 6.56618 12.6434 6.51028 12.6211C6.45437 12.5987 6.39384 12.5893 6.33354 12.5937L5.59424 12.6436C5.5309 12.648 5.46964 12.6675 5.41587 12.7002C5.3621 12.733 5.31745 12.7781 5.28586 12.8316L4.80354 13.6413Z" stroke="#88879C" stroke-width="2"/>
<path d="M27.9794 12.6053C27.4206 12.4722 27.1927 12.6807 27.2954 13.2307C27.5247 14.4586 27.8186 15.6763 28.1771 16.8838C28.3747 17.554 28.5843 17.5578 28.8057 16.8953C29.1351 15.9027 29.2471 14.8347 29.1417 13.6912C29.089 13.1386 28.7859 12.7971 28.2324 12.6667C28.1902 12.6564 28.1059 12.636 27.9794 12.6053Z" stroke="#88879C" stroke-width="2"/>
<path d="M12.5891 18.6604C11.241 20.9128 10.1973 23.9595 11.9803 26.2964C12.5759 27.0792 13.3508 27.6381 14.3049 27.9733C18.4047 29.4084 23.6747 27.4514 22.9038 22.463C22.6824 21.0381 22.208 19.7258 21.4805 18.5261C21.4687 18.5078 21.462 18.4868 21.4612 18.4652C21.4604 18.4437 21.4655 18.4223 21.4759 18.4032C21.4863 18.3841 21.5017 18.3681 21.5206 18.3566C21.5394 18.3452 21.5611 18.3388 21.5833 18.338C25.9203 18.15 26.5963 12.3405 22.2633 11.22C20.8835 10.8631 19.2982 11.7879 18.0924 12.3673C17.0012 12.893 15.6926 12.0987 14.7161 11.6421C13.024 10.8542 11.5124 10.9962 10.1814 12.068C7.32702 14.3665 9.08633 17.8469 12.431 18.338C12.6471 18.3687 12.6998 18.4762 12.5891 18.6604Z" stroke="#88879C" stroke-width="2"/>
<path d="M14.6332 17.279C14.7439 17.5885 14.7004 17.8802 14.5027 18.1539C13.6408 19.3536 13.0175 20.7069 12.6327 22.2136C11.0118 28.545 22.3543 28.5412 21.4846 22.8621C21.2131 21.1072 20.5252 19.4841 19.4208 17.9927C19.3429 17.8877 19.2963 17.7638 19.2863 17.6347C19.2763 17.5056 19.3033 17.3764 19.3643 17.2612C19.4252 17.1461 19.5178 17.0495 19.6317 16.9822C19.7457 16.9149 19.8765 16.8795 20.0099 16.8799C20.5133 16.8799 21.0299 16.8786 21.5597 16.8761C24.3746 16.8646 24.4813 12.824 21.6427 12.6168C20.6622 12.5477 19.6976 13.2729 18.7764 13.6183C17.5074 14.0903 16.1869 13.9445 15.0088 13.3382C13.8069 12.7204 12.4548 12.1947 11.2015 13.0581C10.0155 13.8715 9.94829 15.5714 11.1462 16.4118C12.0041 17.0104 13.1348 16.8722 14.135 16.9183C14.2454 16.9226 14.352 16.9593 14.4409 17.0236C14.5297 17.088 14.5968 17.177 14.6332 17.279Z" stroke="#88879C" stroke-width="2"/>
<path d="M15.0395 14.8576C14.1895 14.4701 13.3751 14.0902 12.4144 14.1938C12.394 14.1959 12.3743 14.2023 12.3567 14.2125C12.339 14.2226 12.3239 14.2364 12.3122 14.2528C12.3006 14.2692 12.2927 14.2879 12.2892 14.3075C12.2857 14.3271 12.2866 14.3472 12.2918 14.3665C12.6556 15.7735 13.5701 16.1648 15.0356 15.5407C15.1036 15.5122 15.1616 15.4652 15.2024 15.4052C15.2432 15.3452 15.2652 15.2749 15.2656 15.2027C15.266 15.1304 15.2449 15.0594 15.2048 14.9982C15.1646 14.937 15.1073 14.8882 15.0395 14.8576Z" stroke="#88879C" stroke-width="2"/>
<path d="M21.5787 14.1708C20.6022 14.1593 19.938 14.5238 19.0603 14.8116C18.9769 14.8384 18.9042 14.8896 18.8522 14.9582C18.8002 15.0268 18.7713 15.1095 18.7696 15.1951C18.7679 15.2806 18.7933 15.3649 18.8425 15.4363C18.8917 15.5078 18.9623 15.563 19.0445 15.5944C20.5179 16.1495 21.4166 15.7415 21.7408 14.3703C21.746 14.3466 21.7458 14.322 21.7402 14.2984C21.7345 14.2748 21.7236 14.2526 21.7081 14.2336C21.6926 14.2145 21.673 14.199 21.6506 14.1882C21.6283 14.1773 21.6037 14.1714 21.5787 14.1708Z" stroke="#88879C" stroke-width="2"/>
<path d="M16.3236 20.5147C16.4604 20.393 16.5308 20.2119 16.5194 20.0112C16.5079 19.8106 16.4156 19.6068 16.2626 19.4447C16.1868 19.3645 16.0984 19.2969 16.0025 19.2458C15.9066 19.1947 15.805 19.1612 15.7035 19.147C15.602 19.1329 15.5026 19.1385 15.411 19.1634C15.3195 19.1884 15.2374 19.2323 15.1697 19.2925C15.0329 19.4142 14.9624 19.5953 14.9739 19.7959C14.9853 19.9966 15.0777 20.2004 15.2307 20.3624C15.3065 20.4427 15.3948 20.5103 15.4907 20.5614C15.5867 20.6124 15.6883 20.646 15.7898 20.6602C15.8912 20.6743 15.9906 20.6687 16.0822 20.6438C16.1738 20.6188 16.2558 20.5749 16.3236 20.5147Z" stroke="#88879C" stroke-width="2"/>
<path d="M17.6648 20.4848C17.7306 20.5471 17.8109 20.5936 17.9012 20.6218C17.9916 20.6499 18.0901 20.6591 18.1912 20.6489C18.2923 20.6386 18.3941 20.6091 18.4906 20.5619C18.5871 20.5148 18.6765 20.451 18.7538 20.3742C18.9097 20.2191 19.0066 20.0203 19.0229 19.8216C19.0393 19.623 18.9739 19.4407 18.8411 19.3149C18.7753 19.2526 18.695 19.206 18.6046 19.1779C18.5143 19.1497 18.4158 19.1405 18.3147 19.1508C18.2136 19.1611 18.1118 19.1906 18.0153 19.2377C17.9188 19.2849 17.8293 19.3487 17.7521 19.4255C17.5961 19.5806 17.4993 19.7794 17.4829 19.978C17.4666 20.1767 17.532 20.359 17.6648 20.4848Z" stroke="#88879C" stroke-width="2"/>
<path d="M19.7954 23.7178C19.7954 23.5346 19.7204 23.3589 19.587 23.2294C19.4535 23.0999 19.2725 23.0271 19.0838 23.0271H14.9089C14.7202 23.0271 14.5392 23.0999 14.4057 23.2294C14.2722 23.3589 14.1973 23.5346 14.1973 23.7178V23.7715C14.1973 23.9547 14.2722 24.1304 14.4057 24.2599C14.5392 24.3894 14.7202 24.4622 14.9089 24.4622H19.0838C19.2725 24.4622 19.4535 24.3894 19.587 24.2599C19.7204 24.1304 19.7954 23.9547 19.7954 23.7715V23.7178Z" stroke="#88879C" stroke-width="2"/>
<path d="M15.8456 0H18.1979C26.8956 0.878721 33.2291 6.96837 34 15.3795V17.6665C33.747 20.3628 32.98 22.7495 31.6991 24.8267C28.7076 29.6898 24.1914 32.4142 18.1505 33H15.7902C7.15581 32.2364 0.798605 26.0009 0 17.6205V15.3297C0.790698 6.95302 7.21116 0.767442 15.8456 0ZM6.93837 11.2737C5.35302 10.748 3.41581 11.9184 3.4 13.6797C3.38023 15.556 3.32488 17.632 4.92209 18.8714C5.02752 18.9533 5.06442 19.0594 5.03279 19.1899C4.26054 22.2699 5.05124 24.8447 7.40488 26.9142C9.16287 28.4644 11.842 29.9724 15.4423 31.4383C16.2884 31.7836 17.5377 31.822 18.3798 31.4958C21.4925 30.2884 24.0807 28.8763 26.1444 27.2595C28.8354 25.1516 29.7803 22.4758 28.9791 19.2321C28.9501 19.1119 28.9817 19.0108 29.074 18.929C30.0623 18.0362 30.5591 16.8121 30.5644 15.2567C30.5684 14.2591 30.8056 13.035 30.1019 12.2484C29.2084 11.2481 28.1844 10.9194 27.03 11.2622C26.8877 11.3031 26.802 11.2533 26.773 11.1126C26.491 9.71326 26.1115 8.45977 25.6344 7.35209C22.1277 -0.771279 11.8684 -0.71372 8.33395 7.39814C7.83318 8.5493 7.46287 9.78616 7.22302 11.1087C7.19403 11.2724 7.09915 11.3274 6.93837 11.2737Z" fill="#110E39"/>
<path d="M7.22336 11.1087C7.4632 9.78619 7.83351 8.54933 8.33429 7.39816C11.8687 -0.713698 22.128 -0.771256 25.6348 7.35212C26.1118 8.45979 26.4913 9.71328 26.7734 11.1126C26.8024 11.2533 26.888 11.3032 27.0303 11.2622C28.1848 10.9194 29.2087 11.2482 30.1022 12.2484C30.8059 13.035 30.5687 14.2591 30.5648 15.2568C30.5595 16.8121 30.0627 18.0362 29.0743 18.929C28.982 19.0108 28.9504 19.1119 28.9794 19.2321C29.7806 22.4758 28.8358 25.1517 26.1448 27.2596C24.081 28.8763 21.4928 30.2884 18.3801 31.4958C17.538 31.822 16.2887 31.7836 15.4427 31.4383C11.8424 29.9725 9.1632 28.4644 7.40522 26.9142C5.05158 24.8447 4.26088 22.2699 5.03313 19.1899C5.06475 19.0594 5.02786 18.9533 4.92243 18.8714C3.32522 17.632 3.38057 15.5561 3.40034 13.6797C3.41615 11.9184 5.35336 10.748 6.93871 11.2737C7.09948 11.3275 7.19437 11.2725 7.22336 11.1087ZM19.1273 29.6885C20.9459 28.8341 22.6486 27.9068 24.2352 26.9065C26.6034 25.41 28.5603 22.6242 27.655 19.9458C27.1134 18.3534 26.5757 16.853 26.2357 15.1877C25.7165 12.6551 25.1537 10.4628 24.5475 8.61072C23.886 6.59235 22.7329 5.03828 21.0882 3.94851C16.4745 0.886418 10.9634 3.78351 9.39382 8.69898C8.77708 10.6253 8.24468 12.7396 7.79662 15.0419C7.53964 16.3696 7.11266 17.7318 6.62638 19.0287C5.64196 21.6457 6.35359 24.186 8.53196 25.9894C10.0448 27.2429 12.3458 28.5527 15.4348 29.9187C16.7117 30.4828 17.9096 30.2603 19.1273 29.6885ZM4.80382 13.6413C4.76173 13.7107 4.74371 13.7914 4.75243 13.8715L5.08452 16.926C5.09448 17.0144 5.13643 17.0966 5.20291 17.1578C5.26939 17.2191 5.3561 17.2555 5.44763 17.2605C5.53915 17.2656 5.62956 17.239 5.70278 17.1855C5.776 17.1319 5.8273 17.0549 5.84755 16.9682L6.74103 13.0504C6.75416 12.9931 6.75329 12.9336 6.73849 12.8767C6.72368 12.8198 6.69536 12.767 6.65578 12.7226C6.6162 12.6783 6.56647 12.6435 6.51056 12.6211C6.45466 12.5987 6.39413 12.5893 6.33382 12.5937L5.59452 12.6436C5.53118 12.648 5.46993 12.6675 5.41616 12.7003C5.36238 12.7331 5.31774 12.7782 5.28615 12.8317L4.80382 13.6413ZM27.9792 12.6053C27.4204 12.4722 27.1924 12.6807 27.2952 13.2307C27.5245 14.4586 27.8184 15.6763 28.1768 16.8837C28.3745 17.554 28.5841 17.5578 28.8055 16.8953C29.1349 15.9027 29.2469 14.8347 29.1415 13.6912C29.0888 13.1386 28.7857 12.7971 28.2322 12.6667C28.19 12.6564 28.1057 12.636 27.9792 12.6053Z" fill="white"/>
<path d="M19.1266 29.6885C17.909 30.2603 16.7111 30.4828 15.4341 29.9188C12.3451 28.5527 10.0442 27.2429 8.5313 25.9895C6.35292 24.186 5.6413 21.6457 6.62571 19.0288C7.11199 17.7318 7.53897 16.3696 7.79595 15.0419C8.24401 12.7396 8.77641 10.6253 9.39316 8.69899C10.9627 3.78353 16.4739 0.886435 21.0876 3.94853C22.7322 5.0383 23.8853 6.59237 24.5469 8.61074C25.1531 10.4628 25.7158 12.6552 26.235 15.1877C26.575 16.8531 27.1127 18.3534 27.6543 19.9459C28.5597 22.6242 26.6027 25.41 24.2345 26.9066C22.6479 27.9068 20.9452 28.8341 19.1266 29.6885ZM12.5876 18.6604C11.2394 20.9128 10.1957 23.9596 11.9787 26.2964C12.5744 27.0792 13.3493 27.6382 14.3034 27.9733C18.4032 29.4084 23.6732 27.4514 22.9022 22.4631C22.6808 21.0382 22.2064 19.7259 21.479 18.5261C21.4671 18.5078 21.4605 18.4868 21.4597 18.4653C21.4589 18.4437 21.4639 18.4223 21.4744 18.4032C21.4848 18.3842 21.5002 18.3681 21.519 18.3567C21.5379 18.3452 21.5595 18.3388 21.5818 18.3381C25.9187 18.15 26.5948 12.3405 22.2618 11.22C20.882 10.8632 19.2966 11.7879 18.0908 12.3674C16.9997 12.8931 15.6911 12.0988 14.7146 11.6421C13.0225 10.8542 11.5109 10.9962 10.1799 12.0681C7.32548 14.3666 9.08478 17.8469 12.4294 18.3381C12.6456 18.3688 12.6983 18.4762 12.5876 18.6604Z" fill="#110E39"/>
<path d="M12.429 18.338C9.08437 17.8469 7.32507 14.3665 10.1795 12.068C11.5105 10.9962 13.022 10.8542 14.7141 11.6421C15.6907 12.0987 16.9993 12.893 18.0904 12.3673C19.2962 11.7879 20.8816 10.8631 22.2614 11.22C26.5944 12.3405 25.9183 18.15 21.5813 18.338C21.5591 18.3388 21.5375 18.3452 21.5186 18.3566C21.4998 18.3681 21.4844 18.3841 21.4739 18.4032C21.4635 18.4223 21.4585 18.4437 21.4593 18.4652C21.4601 18.4868 21.4667 18.5078 21.4786 18.5261C22.206 19.7258 22.6804 21.0381 22.9018 22.463C23.6727 27.4514 18.4027 29.4084 14.303 27.9733C13.3489 27.6381 12.574 27.0792 11.9783 26.2964C10.1953 23.9595 11.239 20.9128 12.5872 18.6604C12.6979 18.4762 12.6451 18.3687 12.429 18.338ZM14.6311 17.279C14.7418 17.5885 14.6983 17.8801 14.5007 18.1538C13.6388 19.3536 13.0155 20.7069 12.6307 22.2136C11.0097 28.545 22.3523 28.5412 21.4825 22.8621C21.211 21.1072 20.5231 19.4841 19.4188 17.9927C19.3408 17.8877 19.2942 17.7638 19.2843 17.6347C19.2743 17.5056 19.3012 17.3763 19.3622 17.2612C19.4232 17.146 19.5157 17.0495 19.6297 16.9822C19.7436 16.9149 19.8745 16.8795 20.0079 16.8799C20.5113 16.8799 21.0279 16.8786 21.5576 16.8761C24.3725 16.8645 24.4793 12.824 21.6407 12.6168C20.6602 12.5477 19.6955 13.2729 18.7744 13.6183C17.5053 14.0902 16.1848 13.9444 15.0067 13.3381C13.8048 12.7204 12.4527 12.1947 11.1995 13.058C10.0134 13.8715 9.94623 15.5714 11.1441 16.4118C12.002 17.0104 13.1327 16.8722 14.133 16.9183C14.2434 16.9226 14.35 16.9593 14.4388 17.0236C14.5277 17.088 14.5947 17.1769 14.6311 17.279Z" fill="white"/>
<path d="M4.80354 13.6413L5.28586 12.8316C5.31745 12.7781 5.3621 12.733 5.41587 12.7002C5.46964 12.6675 5.5309 12.648 5.59424 12.6436L6.33354 12.5937C6.39384 12.5893 6.45437 12.5987 6.51028 12.6211C6.56618 12.6434 6.61592 12.6782 6.65549 12.7226C6.69507 12.767 6.7234 12.8197 6.7382 12.8766C6.753 12.9336 6.75388 12.993 6.74075 13.0503L5.84726 16.9681C5.82701 17.0549 5.77572 17.1319 5.70249 17.1854C5.62927 17.239 5.53886 17.2656 5.44734 17.2605C5.35582 17.2554 5.26911 17.219 5.20262 17.1578C5.13614 17.0965 5.09419 17.0144 5.08424 16.9259L4.75214 13.8715C4.74343 13.7914 4.76144 13.7107 4.80354 13.6413Z" fill="#110E39"/>
<path d="M14.6312 17.279C14.5948 17.177 14.5278 17.088 14.4389 17.0236C14.3501 16.9593 14.2435 16.9226 14.1331 16.9183C13.1328 16.8722 12.0021 17.0104 11.1442 16.4118C9.94634 15.5714 10.0135 13.8715 11.1996 13.0581C12.4528 12.1947 13.8049 12.7204 15.0068 13.3382C16.1849 13.9445 17.5054 14.0903 18.7745 13.6183C19.6956 13.2729 20.6603 12.5477 21.6408 12.6168C24.4794 12.824 24.3726 16.8646 21.5577 16.8761C21.028 16.8786 20.5114 16.8799 20.008 16.8799C19.8746 16.8795 19.7437 16.9149 19.6298 16.9822C19.5158 17.0495 19.4233 17.1461 19.3623 17.2612C19.3014 17.3764 19.2744 17.5056 19.2844 17.6347C19.2944 17.7638 19.3409 17.8877 19.4189 17.9927C20.5232 19.4841 21.2111 21.1072 21.4826 22.8621C22.3524 28.5412 11.0098 28.545 12.6308 22.2136C13.0156 20.7069 13.6389 19.3536 14.5008 18.1539C14.6984 17.8802 14.7419 17.5885 14.6312 17.279ZM15.0384 14.8577C14.1884 14.4702 13.374 14.0903 12.4133 14.1939C12.3929 14.196 12.3732 14.2023 12.3556 14.2125C12.3379 14.2227 12.3228 14.2365 12.3111 14.2529C12.2995 14.2693 12.2917 14.2879 12.2881 14.3075C12.2846 14.3272 12.2855 14.3473 12.2908 14.3665C12.6545 15.7735 13.569 16.1649 15.0345 15.5407C15.1026 15.5123 15.1605 15.4652 15.2013 15.4053C15.2421 15.3453 15.2641 15.275 15.2645 15.2027C15.2649 15.1305 15.2438 15.0595 15.2037 14.9983C15.1636 14.9371 15.1062 14.8882 15.0384 14.8577ZM21.5775 14.1708C20.601 14.1593 19.9368 14.5239 19.0591 14.8117C18.9757 14.8385 18.903 14.8897 18.851 14.9583C18.799 15.0269 18.7701 15.1096 18.7684 15.1951C18.7667 15.2807 18.7921 15.3649 18.8413 15.4364C18.8905 15.5078 18.961 15.563 19.0433 15.5945C20.5166 16.1496 21.4154 15.7415 21.7396 14.3704C21.7448 14.3467 21.7446 14.3221 21.739 14.2985C21.7333 14.2748 21.7223 14.2527 21.7069 14.2336C21.6914 14.2146 21.6718 14.1991 21.6494 14.1882C21.627 14.1774 21.6025 14.1714 21.5775 14.1708ZM16.323 20.5147C16.4599 20.393 16.5303 20.2119 16.5189 20.0113C16.5074 19.8106 16.415 19.6069 16.262 19.4448C16.1863 19.3645 16.0979 19.2969 16.002 19.2459C15.9061 19.1948 15.8044 19.1612 15.703 19.1471C15.6015 19.1329 15.5021 19.1385 15.4105 19.1635C15.3189 19.1884 15.2369 19.2323 15.1692 19.2926C15.0323 19.4143 14.9619 19.5954 14.9733 19.796C14.9848 19.9967 15.0772 20.2004 15.2302 20.3625C15.3059 20.4427 15.3943 20.5103 15.4902 20.5614C15.5862 20.6125 15.6878 20.6461 15.7892 20.6602C15.8907 20.6743 15.9901 20.6688 16.0817 20.6438C16.1733 20.6188 16.2553 20.575 16.323 20.5147ZM17.6645 20.4847C17.7303 20.547 17.8106 20.5936 17.9009 20.6218C17.9912 20.6499 18.0898 20.6591 18.1909 20.6488C18.292 20.6386 18.3937 20.609 18.4903 20.5619C18.5868 20.5148 18.6762 20.451 18.7534 20.3742C18.9094 20.219 19.0062 20.0203 19.0226 19.8216C19.039 19.6229 18.9736 19.4407 18.8407 19.3149C18.775 19.2526 18.6946 19.206 18.6043 19.1779C18.514 19.1497 18.4155 19.1405 18.3143 19.1508C18.2132 19.161 18.1115 19.1906 18.015 19.2377C17.9185 19.2848 17.829 19.3486 17.7518 19.4254C17.5958 19.5806 17.499 19.7794 17.4826 19.978C17.4662 20.1767 17.5317 20.3589 17.6645 20.4847ZM19.7945 23.7178C19.7945 23.5346 19.7195 23.359 19.586 23.2294C19.4526 23.0999 19.2716 23.0271 19.0828 23.0271H14.908C14.7192 23.0271 14.5382 23.0999 14.4048 23.2294C14.2713 23.359 14.1963 23.5346 14.1963 23.7178V23.7715C14.1963 23.9547 14.2713 24.1304 14.4048 24.2599C14.5382 24.3895 14.7192 24.4622 14.908 24.4622H19.0828C19.2716 24.4622 19.4526 24.3895 19.586 24.2599C19.7195 24.1304 19.7945 23.9547 19.7945 23.7715V23.7178Z" fill="#110E39"/>
<path d="M29.1417 13.6912C29.2471 14.8347 29.1351 15.9027 28.8057 16.8953C28.5843 17.5578 28.3747 17.554 28.1771 16.8838C27.8186 15.6763 27.5247 14.4586 27.2954 13.2307C27.1927 12.6807 27.4206 12.4722 27.9794 12.6053C28.1059 12.636 28.1902 12.6564 28.2324 12.6667C28.7859 12.7971 29.089 13.1386 29.1417 13.6912Z" fill="#110E39"/>
<path d="M12.4144 14.1938C13.3751 14.0902 14.1895 14.4701 15.0395 14.8576C15.1073 14.8882 15.1646 14.937 15.2048 14.9982C15.2449 15.0594 15.266 15.1304 15.2656 15.2027C15.2652 15.2749 15.2432 15.3452 15.2024 15.4052C15.1616 15.4652 15.1036 15.5122 15.0356 15.5407C13.5701 16.1648 12.6556 15.7735 12.2918 14.3665C12.2866 14.3472 12.2857 14.3271 12.2892 14.3075C12.2927 14.2879 12.3006 14.2692 12.3122 14.2528C12.3239 14.2364 12.339 14.2226 12.3567 14.2125C12.3743 14.2023 12.394 14.1959 12.4144 14.1938Z" fill="white"/>
<path d="M19.0603 14.8116C19.938 14.5238 20.6022 14.1593 21.5787 14.1708C21.6037 14.1714 21.6283 14.1773 21.6506 14.1882C21.673 14.199 21.6926 14.2145 21.7081 14.2336C21.7236 14.2526 21.7345 14.2748 21.7402 14.2984C21.7458 14.322 21.746 14.3466 21.7408 14.3703C21.4166 15.7415 20.5179 16.1495 19.0445 15.5944C18.9623 15.563 18.8917 15.5078 18.8425 15.4363C18.7933 15.3649 18.7679 15.2806 18.7696 15.1951C18.7713 15.1095 18.8002 15.0268 18.8522 14.9582C18.9042 14.8896 18.9769 14.8384 19.0603 14.8116Z" fill="white"/>
<path d="M15.2306 20.3624C15.5492 20.6999 16.0385 20.7681 16.3235 20.5146C16.6084 20.2612 16.5811 19.7822 16.2625 19.4447C15.9438 19.1072 15.4546 19.0391 15.1696 19.2925C14.8847 19.5459 14.912 20.0249 15.2306 20.3624Z" fill="white"/>
<path d="M17.752 19.4254C17.4272 19.7485 17.3881 20.2228 17.6647 20.4847C17.9413 20.7467 18.4289 20.6972 18.7537 20.3741C19.0785 20.0511 19.1176 19.5768 18.841 19.3148C18.5644 19.0529 18.0768 19.1024 17.752 19.4254Z" fill="white"/>
<path d="M19.0838 23.0271H14.9089C14.5159 23.0271 14.1973 23.3363 14.1973 23.7178V23.7715C14.1973 24.153 14.5159 24.4622 14.9089 24.4622H19.0838C19.4768 24.4622 19.7954 24.153 19.7954 23.7715V23.7178C19.7954 23.3363 19.4768 23.0271 19.0838 23.0271Z" fill="white"/>
</g>
<defs>
<clipPath id="clip0_438_320">
<rect width="34" height="33" fill="white"/>
</clipPath>
</defs>
</svg>
