<svg width="14" height="15" viewBox="0 0 14 15" fill="none" xmlns="http://www.w3.org/2000/svg">
<path d="M13.8337 7.50008C13.8337 6.54675 13.247 5.72008 12.3737 5.27341C12.6803 4.34675 12.507 3.34008 11.8337 2.66675C11.1603 1.99341 10.1537 1.82008 9.22699 2.12675C8.78699 1.25341 7.95366 0.666748 7.00033 0.666748C6.04699 0.666748 5.22033 1.25341 4.78033 2.12675C3.84699 1.82008 2.84033 1.99341 2.16699 2.66675C1.49366 3.34008 1.32699 4.34675 1.63366 5.27341C0.760326 5.72008 0.166992 6.54675 0.166992 7.50008C0.166992 8.45341 0.760326 9.28008 1.63366 9.72675C1.32699 10.6534 1.49366 11.6601 2.16699 12.3334C2.84033 13.0067 3.84699 13.1734 4.77366 12.8734C5.22033 13.7467 6.04699 14.3334 7.00033 14.3334C7.95366 14.3334 8.78699 13.7467 9.22699 12.8734C10.1537 13.1734 11.1603 13.0067 11.8337 12.3334C12.507 11.6601 12.6803 10.6534 12.3737 9.72675C13.247 9.28008 13.8337 8.45341 13.8337 7.50008ZM6.02699 10.3001L3.53366 7.80675L4.47366 6.86008L5.98033 8.36675L9.18033 4.88008L10.1603 5.78675L6.02699 10.3001Z" fill="#1D9BF0"/>
</svg>
