<svg width="40" height="40" viewBox="0 0 40 40" fill="none" xmlns="http://www.w3.org/2000/svg">
<circle cx="20" cy="20" r="20" fill="black"/>
<path d="M28.6471 9.95456C25.6965 9.07097 22.7502 8.15489 19.7986 7.25138C19.7553 7.23811 19.7116 7.23811 19.6676 7.25138C16.8383 8.11646 13.9373 9.00424 10.9648 9.91473C10.6011 10.0258 10.2321 10.0049 10.0791 9.594C9.92608 9.18312 10.1734 8.8865 10.5571 8.7691C13.5639 7.85162 16.5598 6.93799 19.5449 6.02819C19.6679 5.9906 19.7996 5.9906 19.9233 6.02819C23.0007 6.96594 26.1001 7.91242 29.2215 8.86763C29.7592 9.03219 29.7801 9.84451 29.2173 10.0133C29.0922 10.051 28.9021 10.0314 28.6471 9.95456Z" fill="white"/>
<path d="M26.9825 20.6416C28.6141 17.2568 30.2433 13.8703 31.87 10.4819C31.98 10.2534 32.023 10.0365 32.3018 9.93061C32.7284 9.76815 33.1267 10.069 33.1582 10.5123C33.1886 10.9379 33.306 11.3634 33.3468 11.7879C34.0019 18.6606 31.9842 25.5155 27.2623 30.6389C25.6237 32.4166 23.6962 33.9378 21.4797 35.2025C21.0157 35.4667 20.5392 35.7371 20.05 36.0138C19.9543 36.0676 19.8464 36.0959 19.7366 36.0959C19.6268 36.0959 19.5189 36.0676 19.4232 36.0138C19.0662 35.8126 18.6983 35.6071 18.3195 35.3975C12.7601 32.3201 8.68598 27.375 6.96073 21.238C6.13269 18.2934 5.83991 15.2884 6.08238 12.2229C6.13164 11.594 6.26266 10.9746 6.34127 10.3572C6.36328 10.1874 6.52575 10.0197 6.68087 9.94528C6.97226 9.80588 7.32653 9.91594 7.47432 10.2063C9.25827 13.7155 11.0454 17.202 12.8356 20.6658C12.841 20.6764 12.8491 20.6854 12.8591 20.6917C12.8691 20.698 12.8806 20.7014 12.8922 20.7014H26.8881C26.9079 20.7013 26.9272 20.6957 26.9439 20.6851C26.9606 20.6746 26.974 20.6595 26.9825 20.6416ZM18.1088 33.8724C18.1515 33.8983 18.1916 33.9262 18.2294 33.9563C18.2797 33.9961 18.2902 33.9877 18.2608 33.9311L7.33701 12.6086C7.29229 12.5213 7.26679 12.5265 7.2605 12.6244C7.05227 15.8862 7.46384 19.046 8.49522 22.1038C10.1681 27.0668 13.5829 31.1305 18.1088 33.8724ZM27.7518 21.7558C25.731 25.555 23.5718 29.5967 21.2743 33.8808C21.2512 33.9227 21.2603 33.9315 21.3015 33.907C26.4542 30.8338 30.0745 26.0501 31.5293 20.2171C32.1568 17.7002 32.3825 15.1913 32.2064 12.6904C32.2023 12.624 32.1855 12.6209 32.1561 12.681C31.0137 15.0533 29.8596 17.4539 28.6941 19.8828C28.358 20.5836 28.0439 21.208 27.7518 21.7558ZM26.2781 21.9592C26.281 21.9537 26.2825 21.9477 26.2823 21.9415C26.2821 21.9353 26.2804 21.9293 26.2772 21.9241C26.2741 21.9188 26.2696 21.9144 26.2642 21.9114C26.2589 21.9084 26.2528 21.9068 26.2467 21.9068H13.519C13.5128 21.9066 13.5066 21.908 13.5011 21.911C13.4956 21.9139 13.4909 21.9183 13.4877 21.9236C13.4844 21.9289 13.4825 21.935 13.4823 21.9412C13.4821 21.9475 13.4836 21.9537 13.4865 21.9592L19.7157 34.1177C19.7185 34.1237 19.723 34.1288 19.7286 34.1324C19.7342 34.136 19.7406 34.138 19.7473 34.1381C19.754 34.1382 19.7605 34.1365 19.7662 34.133C19.7719 34.1296 19.7766 34.1247 19.7796 34.1187L26.2781 21.9592Z" fill="white"/>
</svg>
