<svg width="40" height="40" viewBox="0 0 40 40" fill="none" xmlns="http://www.w3.org/2000/svg">
<circle cx="20" cy="20" r="20" fill="#1877F2"/>
<g clip-path="url(#clip0_499_281)">
<path d="M31.0873 22.9258C30.8498 23.087 30.5727 23.1821 30.2849 23.2012C29.9972 23.2202 29.7096 23.1625 29.4524 23.034C28.8487 22.698 28.5233 21.91 28.5233 20.8362V17.5454C28.5233 15.9656 27.8881 14.8416 26.8257 14.5365C25.0301 14.0189 23.6892 16.1858 23.1717 17.0008L19.9961 22.0645V15.8845C19.9608 14.4593 19.4903 13.6056 18.6004 13.3507C18.0123 13.1808 17.1302 13.2503 16.2716 14.5404L9.17146 25.7686C8.22676 23.988 7.73693 22.0073 7.74438 19.9981C7.74438 13.231 13.2331 7.72692 19.9961 7.72692C26.759 7.72692 32.2674 13.231 32.2674 19.9981V20.0328C32.2674 20.0328 32.2674 20.056 32.2674 20.0676C32.334 21.377 31.9028 22.4199 31.0912 22.9258H31.0873ZM35.0078 20.0019V19.9363C34.953 11.6898 28.241 5 19.9961 5C11.7512 5 5 11.7285 5 19.9981C5 28.2677 11.7277 35 19.9961 35C23.7883 34.9998 27.4363 33.5678 30.1895 30.9985C30.4567 30.7504 30.614 30.4086 30.6272 30.0471C30.6404 29.6856 30.5085 29.3335 30.2601 29.0672C30.1412 28.9377 29.9975 28.8325 29.8372 28.7579C29.6769 28.6833 29.5032 28.6406 29.3261 28.6323C29.149 28.6241 28.9721 28.6504 28.8053 28.7098C28.6386 28.7692 28.4855 28.8605 28.3547 28.9784C27.1694 30.0861 25.769 30.9464 24.2378 31.5077C22.7066 32.069 21.076 32.3196 19.444 32.2446C17.812 32.1696 16.2122 31.7704 14.7407 31.0711C13.2692 30.3717 11.9563 29.3866 10.8808 28.175L17.2713 18.0552V22.725C17.2713 24.9691 18.1534 25.6952 18.8944 25.9077C19.6354 26.1201 20.7684 25.9733 21.9564 24.073L25.4848 18.4453C25.5946 18.2638 25.7005 18.1093 25.7946 17.9741V20.8362C25.7946 22.9336 26.6492 24.6099 28.1469 25.4365C28.8279 25.7987 29.5953 25.9736 30.3685 25.9431C31.1418 25.9125 31.8925 25.6775 32.5418 25.2626C34.1885 24.2082 35.0863 22.3001 34.9922 20.0019H35.0078Z" fill="white"/>
</g>
<defs>
<clipPath id="clip0_499_281">
<rect width="30" height="30" fill="white" transform="translate(5 5)"/>
</clipPath>
</defs>
</svg>
