<svg width="1547" height="266" viewBox="0 0 1547 266" fill="none" xmlns="http://www.w3.org/2000/svg">
<path d="M227.853 159.033C223.213 161.868 217.8 162.384 213.676 160.064C208.521 156.971 205.428 150.012 205.428 140.475V111.349C205.428 97.4303 200.015 87.3779 190.736 84.8004C175.014 80.1608 163.157 99.4922 158.775 106.709L130.938 151.3V96.3992C130.68 83.7694 126.556 76.2946 118.824 73.9748C113.669 72.4283 105.936 73.2016 98.4612 84.5427L36.343 184.035C28.095 168.312 23.7132 150.785 23.7132 133C23.7132 72.9438 71.9128 24.2287 130.938 24.2287C189.963 24.2287 238.163 72.9438 238.163 133V133.258V133.516C238.678 145.114 235.07 154.393 227.853 159.033ZM261.876 133V132.742V132.484C261.618 59.5407 202.851 0 130.938 0C58.7674 0 0 59.5407 0 133C0 206.202 58.7674 266 130.938 266C164.188 266 195.634 253.37 219.862 230.43C224.76 225.791 225.017 218.316 220.378 213.419C215.996 208.521 208.521 208.264 203.624 212.645C203.624 212.645 203.624 212.645 203.366 212.903C183.777 231.461 157.486 242.029 130.422 242.029C98.719 242.029 70.3663 228.11 50.7771 205.944L106.709 116.246V157.744C106.709 177.591 114.442 184.035 120.886 185.839C127.329 187.643 137.124 186.355 147.692 169.601L178.364 119.855C179.395 118.308 180.169 116.762 181.2 115.731V140.99C181.2 159.548 188.674 174.498 201.562 181.715C213.161 188.417 227.853 187.643 239.967 180.169C254.917 170.374 262.907 153.362 261.876 133ZM444.364 87.6357C447.457 89.4399 450.293 93.8217 450.293 97.688C450.293 103.874 445.138 109.029 439.209 109.029C437.663 109.029 436.374 108.514 435.085 108.256C428.126 103.101 419.362 99.75 410.083 99.75C388.174 99.75 373.225 117.535 373.225 139.702C373.225 161.868 388.432 179.395 410.083 179.395C420.909 179.395 430.703 175.014 437.921 168.054C439.725 166.766 442.045 165.992 444.364 165.992C450.293 165.992 454.932 170.632 454.932 176.56C454.932 180.426 452.612 183.777 449.777 185.581C439.209 194.603 425.033 200.531 410.341 200.531C376.833 200.531 349.512 172.952 349.512 138.928C349.512 104.905 376.833 77.3256 410.341 77.3256C422.713 77.0678 434.57 80.9341 444.364 87.6357ZM505.709 113.411C528.649 113.411 547.723 132.742 547.723 156.713C547.723 180.426 528.391 200.789 505.709 200.789C481.738 200.789 461.891 180.684 461.891 156.713C461.891 132.742 481.738 113.411 505.709 113.411ZM505.452 179.395C515.504 179.395 524.01 169.858 524.01 156.971C524.01 144.083 515.504 135.835 505.452 135.835C494.626 135.835 485.605 143.826 485.605 156.971C485.605 169.601 494.626 179.395 505.452 179.395ZM562.157 187.386V126.556C562.157 119.855 567.312 114.442 574.014 114.442C580.457 114.442 585.87 119.855 585.87 126.556V187.386C585.87 194.087 580.457 199.5 574.014 199.5C567.57 199.5 562.157 193.829 562.157 187.386ZM560.353 91.5019C560.353 83.5116 566.539 77.3256 574.014 77.3256C581.746 77.3256 587.932 83.7694 587.932 91.5019C587.932 99.2345 581.746 105.421 574.014 105.421C566.281 105.163 560.353 98.9767 560.353 91.5019ZM631.234 154.393V187.386C631.234 194.087 625.822 199.5 619.378 199.5C612.934 199.5 607.521 194.087 607.521 187.386V123.721C607.521 118.566 611.645 114.442 616.8 114.442C621.955 114.442 625.822 118.824 625.822 123.721C635.358 114.7 643.864 113.411 651.855 113.411C675.568 113.411 686.136 131.196 686.136 151.558V187.386C686.136 194.087 680.723 199.5 674.279 199.5C667.835 199.5 662.422 194.087 662.422 187.386V154.393C662.422 144.083 661.134 135.32 646.184 135.32C635.616 135.32 631.234 144.083 631.234 154.393ZM762.946 167.023C760.11 167.023 758.306 165.734 756.76 163.93L729.18 134.031V187.386C729.18 194.087 723.767 199.5 717.324 199.5C710.88 199.5 705.467 194.087 705.467 187.386V81.7074C706.24 79.9031 708.045 78.6143 709.849 78.6143C711.911 78.6143 713.715 80.4186 715.004 81.7074L759.079 131.196C760.368 132.742 761.915 133.516 762.946 133.516C763.719 133.516 765.523 132.742 766.812 131.196L810.887 81.7074C812.176 80.4186 813.723 78.6143 816.043 78.6143C818.105 78.6143 819.909 79.9031 820.424 81.7074V187.386C820.424 194.087 815.269 199.5 808.568 199.5C802.124 199.5 796.711 194.087 796.711 187.386V134.031L769.132 163.93C767.07 165.734 765.265 167.023 762.946 167.023ZM876.872 179.395C887.44 179.395 896.461 169.858 896.461 156.971C896.461 144.083 887.182 135.578 876.872 135.578C866.562 135.578 858.056 144.341 858.056 156.971C858.056 169.343 866.304 179.395 876.872 179.395ZM902.132 190.221L901.616 187.386C896.977 196.407 882.285 200.531 873.006 200.531C850.839 200.531 834.343 180.426 834.343 156.455C834.343 132.742 851.097 113.153 874.294 113.153C878.161 113.153 891.564 114.184 901.874 126.298L902.389 123.463C902.389 118.308 906.256 114.184 911.411 114.184C916.566 114.184 920.69 118.566 920.69 123.463V189.963C920.69 195.118 916.566 199.242 911.411 199.242C905.998 199.5 902.132 195.118 902.132 190.221ZM985.901 135.32H983.324C968.374 136.093 965.539 144.599 965.539 154.393V187.386C965.539 194.087 960.126 199.5 953.682 199.5C947.238 199.5 941.825 194.087 941.825 187.386V123.721C941.825 118.566 945.95 114.442 951.105 114.442C956.26 114.442 960.126 118.824 960.126 123.721C968.889 115.473 976.107 113.669 983.324 113.411H985.643C991.314 113.411 996.469 118.308 996.469 124.494C996.727 130.165 991.572 135.32 985.901 135.32ZM1077.4 181.715C1078.43 183.519 1079.21 185.324 1079.21 187.386C1079.21 193.572 1073.54 199.242 1067.35 199.242C1063.23 199.242 1059.62 196.149 1056.78 192.541L1029.46 160.837V187.128C1029.46 193.829 1024.05 199.242 1017.6 199.242C1011.16 199.242 1005.75 193.829 1005.75 187.128V90.4709C1005.75 83.7694 1010.9 78.3566 1017.6 78.3566C1024.31 78.3566 1029.46 83.7694 1029.46 90.4709V150.785L1056.78 120.628C1059.62 117.535 1062.97 114.184 1067.09 114.184C1073.02 114.184 1078.43 119.597 1078.43 125.783C1078.43 127.587 1077.92 129.649 1076.89 131.196L1055.24 154.909L1077.4 181.715ZM1123.8 135.578C1117.35 135.578 1106.79 138.928 1106.79 148.981H1141.07C1140.81 138.928 1129.98 135.578 1123.8 135.578ZM1154.73 164.188H1106.79C1106.79 178.364 1120.45 180.684 1126.38 180.684C1130.76 180.684 1136.94 179.911 1141.84 177.591C1143.39 176.56 1145.71 175.787 1148.03 175.787C1153.18 175.787 1157.56 180.169 1157.56 185.581C1157.56 189.19 1155.24 192.283 1152.41 194.087C1145.19 199.5 1135.65 200.789 1126.63 200.789C1102.66 200.789 1082.82 187.901 1082.82 157.744C1082.82 134.031 1094.93 113.411 1123.28 113.411C1146.22 113.411 1163.49 128.36 1164.01 154.909C1164.01 159.806 1159.88 164.188 1154.73 164.188ZM1220.71 200.531H1214.27C1196.23 200.531 1185.66 192.541 1185.66 164.446V135.32H1179.47C1173.8 135.32 1168.9 130.165 1168.9 124.494C1168.9 118.308 1174.06 113.411 1179.47 113.411H1185.66V90.9865C1185.66 84.2849 1190.81 78.8721 1197.52 78.8721C1203.96 78.8721 1209.37 84.2849 1209.37 90.9865V113.411H1219.17C1224.84 113.411 1229.73 118.308 1229.73 124.494C1229.73 130.165 1224.58 135.32 1219.17 135.32H1209.37V159.806C1209.37 176.045 1210.15 179.395 1217.36 179.395H1220.71C1226.38 179.395 1231.28 184.035 1231.28 189.963C1231.28 195.634 1226.38 200.531 1220.71 200.531ZM1335.41 87.6357C1338.51 89.4399 1341.34 93.8217 1341.34 97.688C1341.34 103.874 1336.19 109.029 1330.26 109.029C1328.71 109.029 1327.42 108.514 1326.13 108.256C1319.17 103.101 1310.41 99.75 1301.13 99.75C1279.22 99.75 1264.27 117.535 1264.27 139.702C1264.27 161.868 1279.48 179.395 1301.13 179.395C1311.96 179.395 1321.75 175.014 1328.97 168.054C1330.77 166.766 1333.09 165.992 1335.41 165.992C1341.34 165.992 1345.98 170.632 1345.98 176.56C1345.98 180.426 1343.66 183.777 1340.83 185.581C1330.26 194.603 1316.08 200.531 1301.39 200.531C1267.88 200.531 1240.56 172.952 1240.56 138.928C1240.56 104.905 1267.88 77.3256 1301.39 77.3256C1313.76 77.0678 1325.88 80.9341 1335.41 87.6357ZM1395.47 179.395C1406.04 179.395 1415.06 169.858 1415.06 156.971C1415.06 144.083 1405.78 135.578 1395.47 135.578C1384.9 135.578 1376.65 144.341 1376.65 156.971C1376.65 169.343 1385.16 179.395 1395.47 179.395ZM1420.73 190.221L1420.21 187.386C1415.57 196.407 1400.88 200.531 1391.6 200.531C1369.44 200.531 1352.94 180.426 1352.94 156.455C1352.94 132.742 1369.69 113.153 1392.89 113.153C1396.76 113.153 1410.16 114.184 1420.47 126.298L1420.99 123.463C1420.99 118.308 1424.85 114.184 1430.01 114.184C1435.16 114.184 1439.29 118.566 1439.29 123.463V189.963C1439.29 195.118 1435.16 199.242 1430.01 199.242C1424.59 199.5 1420.73 195.118 1420.73 190.221ZM1503.98 179.395C1514.55 179.395 1522.8 169.343 1522.8 156.971C1522.8 144.083 1514.29 135.578 1503.98 135.578C1493.41 135.578 1484.39 144.083 1484.39 156.971C1484.39 169.858 1493.41 179.395 1503.98 179.395ZM1484.39 193.572V223.729C1484.39 230.43 1478.98 235.843 1472.54 235.843C1466.09 235.843 1460.68 230.43 1460.68 223.729V123.721C1460.68 118.566 1464.8 114.442 1469.96 114.442C1475.11 114.442 1478.98 118.824 1478.98 124.752C1487.74 115.731 1498.57 113.411 1506.82 113.411C1529.76 113.411 1546.77 132.742 1546.77 156.713C1546.77 180.426 1530.53 200.789 1508.11 200.789C1501.15 200.531 1490.84 198.469 1484.39 193.572Z" fill="white"/>
</svg>
