<svg xmlns="http://www.w3.org/2000/svg" viewBox="0 0 331.152 58.69">
    <defs>
        <linearGradient id="a" x1=".186" x2="1" y2="1" gradientUnits="objectBoundingBox">
            <stop offset="0" stop-color="#3100b5"></stop>
            <stop offset="1" stop-color="#8e64ff"></stop>
        </linearGradient>
    </defs>
    <g data-name="CoinJournal Dark">
        <path data-name="Union 1" d="M1032 652.156a18.8 18.8 0 0 1-11.85-15.031h21.326v-21.948h16.043v19.455A18.782 18.782 0 0 1 1032 652.156zm-14.4-19.89a18.77 18.77 0 0 1-18.766-18.775 18.77 18.77 0 0 1 18.766-18.774h19.448v37.55z" transform="translate(-998.834 -594.716)" style="fill:url(#a)"></path>
        <path data-name="Union 1" d="M171.739 50.962a2.7 2.7 0 0 1-1.62-1.861 2.708 2.708 0 0 1 1.039-1.887 3.45 3.45 0 0 1 1.959-.531 6.222 6.222 0 0 1 3.627 1.5l1.209.968a5.382 5.382 0 0 0 1.474-2.417 12.553 12.553 0 0 0 .412-3.482q0-.871-.025-2.129t-.072-3.288q-.049-2.031-.1-5.175t-.122-7.785q-.073-4.644-.12-11.123l-4.929-.534v-1.983h14.169v1.983l-4.448.531q-.049 3.047-.072 6.166t-.025 6.263v7.543q0 3.676-.121 6.141a27.627 27.627 0 0 1-.459 4.111 10.052 10.052 0 0 1-.943 2.757 9.348 9.348 0 0 1-1.62 2.127 8.774 8.774 0 0 1-2.926 1.91 9.693 9.693 0 0 1-3.7.7 6.726 6.726 0 0 1-2.587-.505zm-92.05-8.312a14.272 14.272 0 0 1-6.068-5.59 17.886 17.886 0 0 1-2.25-9.383 18.449 18.449 0 0 1 1.378-7.446 14.532 14.532 0 0 1 3.773-5.224 15.774 15.774 0 0 1 5.489-3.095 20.64 20.64 0 0 1 6.48-1.016 19.567 19.567 0 0 1 5.028.6 19.464 19.464 0 0 1 4.452 1.818l.193 7.5h-3.677l-1.4-6.335a7.682 7.682 0 0 0-3.485-.829 8.491 8.491 0 0 0-4.763 1.45 10.064 10.064 0 0 0-3.555 4.57 20.4 20.4 0 0 0-1.353 8.055 20.7 20.7 0 0 0 1.305 8 9.945 9.945 0 0 0 3.458 4.525 8.26 8.26 0 0 0 4.715 1.45 8.732 8.732 0 0 0 2.031-.241 12.6 12.6 0 0 0 2.031-.677l1.353-6.19h3.677l-.193 7.447a20.687 20.687 0 0 1-4.473 1.766 21.371 21.371 0 0 1-5.682.7 19.068 19.068 0 0 1-8.464-1.855zm27.274.1a10.762 10.762 0 0 1-4.255-4.4 13.785 13.785 0 0 1-1.5-6.552 12.56 12.56 0 0 1 1.619-6.481 11.466 11.466 0 0 1 4.425-4.3 12.691 12.691 0 0 1 6.239-1.548 12.884 12.884 0 0 1 6.213 1.5 11.3 11.3 0 0 1 4.425 4.279 12.648 12.648 0 0 1 1.642 6.54 13.763 13.763 0 0 1-1.5 6.577 10.8 10.8 0 0 1-4.255 4.376 12.967 12.967 0 0 1-6.528 1.572 12.969 12.969 0 0 1-6.525-1.572zm3.435-18.352q-1.016 2.369-1.016 7.544a20.35 20.35 0 0 0 1.016 7.5 3.307 3.307 0 0 0 3.095 2.37q2.03 0 3.047-2.37a20.387 20.387 0 0 0 1.015-7.5 20.569 20.569 0 0 0-1.015-7.544q-1.017-2.369-3.047-2.37a3.307 3.307 0 0 0-3.096 2.361zm187.025 18.3a5.434 5.434 0 0 1-1.91-4.521 5.413 5.413 0 0 1 .653-2.612 7.108 7.108 0 0 1 2.393-2.37 23.567 23.567 0 0 1 4.981-2.321q1.112-.385 2.563-.822t2.9-.772v-1.215q0-3.53-1.064-4.692a4.535 4.535 0 0 0-3.482-1.161c-.355 0-.749.017-1.184.048a8.568 8.568 0 0 0-1.427.242l-.919 3.144q-.677 2.319-2.514 2.321a2.038 2.038 0 0 1-2.273-1.984 7.056 7.056 0 0 1 3.216-4.376 11.318 11.318 0 0 1 6.215-1.62q3.819 0 5.658 1.91t1.837 6.5v10.3a3.8 3.8 0 0 0 .484 2.2 1.5 1.5 0 0 0 1.258.653 1.875 1.875 0 0 0 1.063-.29 3.66 3.66 0 0 0 .822-.774l.968 1.064a5.3 5.3 0 0 1-1.91 1.958 4.793 4.793 0 0 1-2.3.557 4.249 4.249 0 0 1-2.9-1.015 4.47 4.47 0 0 1-1.449-2.709 23.483 23.483 0 0 1-3.484 2.9 6.552 6.552 0 0 1-3.626.967 7.1 7.1 0 0 1-4.569-1.515zm9.115-10.881q-1.208.412-1.982.7a11.149 11.149 0 0 0-3.094 1.693 4.458 4.458 0 0 0-1.329 1.693 4.32 4.32 0 0 0-.315 1.547 3.2 3.2 0 0 0 1.112 2.757 4.51 4.51 0 0 0 2.757.822 4.827 4.827 0 0 0 1.378-.193 7.035 7.035 0 0 0 1.572-.75q.918-.556 2.37-1.62v-7.4q-1.26.335-2.469.746zm-85.014 10.44q-1.692-1.959-1.644-6.747l.145-12.041-3.434-.725v-1.74l7.108-.678.485.484-.242 6.77v7.495q0 3.146.966 4.426a3.407 3.407 0 0 0 2.9 1.282q3.384 0 6.77-3.143l.146-14.219-3.433-.676v-1.741l7.012-.678.483.484-.144 6.77v13.589l3.288.678v1.74l-6.722.387-.484-4.3a12.675 12.675 0 0 1-4.134 3.458 9.9 9.9 0 0 1-4.426 1.088 5.817 5.817 0 0 1-4.64-1.963zm-24.3.629a10.386 10.386 0 0 1-4.136-4.013 12.814 12.814 0 0 1-1.6-6.649 13.183 13.183 0 0 1 1.6-6.746 10.653 10.653 0 0 1 4.136-4.111 11.046 11.046 0 0 1 10.687 0 10.822 10.822 0 0 1 4.158 4.111 13.02 13.02 0 0 1 1.62 6.746 12.657 12.657 0 0 1-1.62 6.649 10.551 10.551 0 0 1-4.158 4.013 11.4 11.4 0 0 1-10.687 0zm.531-18.111q-1.667 2.565-1.668 7.448 0 4.837 1.668 7.326a5.438 5.438 0 0 0 4.812 2.49 5.5 5.5 0 0 0 4.836-2.49q1.691-2.489 1.692-7.326 0-4.885-1.692-7.448a5.458 5.458 0 0 0-4.836-2.563 5.4 5.4 0 0 0-4.811 2.564zm121.4 18.812V41.85l3.869-.678q.047-1.982.073-3.893t.023-3.844V12.203l-3.965-.484v-1.692l7.549-2.177.677.387-.193 6.867v18.329q0 1.934.024 3.868t.073 3.869l3.868.678v1.74zm-38.492 0V41.85l3.578-.678q.048-1.788.072-3.941t.024-3.8v-4.11q0-3.338-.943-4.6a3.591 3.591 0 0 0-3.07-1.257 7.891 7.891 0 0 0-3.192.677 14.429 14.429 0 0 0-3.385 2.225v7.061q0 1.595.024 3.747t.073 3.989l3.336.678v1.74h-11.209V41.85l3.578-.678q.047-1.837.072-3.964t.024-3.772v-2.324q0-1.983-.024-3.289t-.12-2.756l-3.821-.436v-1.693l6.77-2.949.725.484.387 3.869a15.007 15.007 0 0 1 4.111-3.144 9.809 9.809 0 0 1 4.545-1.208 5.379 5.379 0 0 1 4.668 2.1q1.523 2.1 1.523 6.842v4.5q0 1.644.024 3.772t.073 3.964l3.384.678v1.74zm-35.06 0V41.85l3.482-.629q.048-1.838.073-3.99t.025-3.8v-2.319q0-1.983-.025-3.289t-.121-2.756l-3.82-.436v-1.693l6.77-2.949.725.484.532 5.707a11.9 11.9 0 0 1 3.127-4.548 5.91 5.91 0 0 1 3.844-1.644 4.594 4.594 0 0 1 2.079.484 3.08 3.08 0 0 1 1.4 1.305q0 3.531-2.853 3.53a3.843 3.843 0 0 1-1.548-.314 5.51 5.51 0 0 1-1.4-.9l-.581-.532a9.355 9.355 0 0 0-2.418 2.612 15.01 15.01 0 0 0-1.6 3.627v3.627q0 1.595.023 3.724t.073 3.964l3.965.726v1.74zm-87.191 0v-2.272l2.515-.532q.047-1.789.048-3.8V28.35a6.2 6.2 0 0 0-.628-3.264 2.265 2.265 0 0 0-2.032-.944 7.07 7.07 0 0 0-4.158 1.741v11.1q0 2.055.048 3.844l2.273.484v2.272h-12.714v-2.268l2.607-.58q.046-1.741.049-3.772v-6.335c0-1.321-.009-2.346-.025-3.071s-.056-1.572-.122-2.538l-2.95-.436v-1.886l9.527-3.24.871.532.289 3.481a11.866 11.866 0 0 1 3.753-3.12 9.1 9.1 0 0 1 3.989-.895 6.539 6.539 0 0 1 5.054 2.079q1.911 2.08 1.91 6.239v9.261q0 2.008.049 3.8l2.418.484v2.272zm-29.837 0v-2.272l2.612-.58q.047-1.741.048-3.772v-5.851q0-1.983-.025-3.314t-.12-2.78l-3-.436v-1.885l10.155-3.24.823.532-.145 7.012v9.987q0 2.055.048 3.844l2.417.484v2.272zm3.531-28.8a3.52 3.52 0 0 1-1.21-2.734 3.57 3.57 0 0 1 1.21-2.78 4.411 4.411 0 0 1 5.8 0 3.575 3.575 0 0 1 1.208 2.78 3.525 3.525 0 0 1-1.208 2.734 4.413 4.413 0 0 1-5.8 0z"></path>
    </g>
</svg>