<svg width="14" height="14" viewBox="0 0 14 14" fill="none" xmlns="http://www.w3.org/2000/svg">
<path d="M0.166992 5.66659C0.166992 2.71992 2.55632 0.333252 5.50366 0.333252H8.41433C11.4077 0.333252 13.8337 2.75992 13.8337 5.75325C13.8337 7.72659 12.7623 9.53992 11.0363 10.4933L5.66699 13.4666V11.0066H5.62233C2.62899 11.0733 0.166992 8.66659 0.166992 5.66659ZM5.50366 1.66659C3.29233 1.66659 1.50033 3.45992 1.50033 5.66659C1.50033 7.91325 3.34699 9.71992 5.59233 9.67325L5.82633 9.66659H7.00033V11.1999L10.3917 9.32659C11.6923 8.60659 12.5003 7.23992 12.5003 5.75325C12.5003 3.49325 10.671 1.66659 8.41433 1.66659H5.50366Z" fill="#536471"/>
</svg>
