<svg width="150" height="61" viewBox="0 0 150 61" fill="none" xmlns="http://www.w3.org/2000/svg">
<g clip-path="url(#clip0_405_295)">
<path d="M7.49219 53.0001V7.90918H17.4431V26.5136H37.6436V7.90918H47.5716V53.0001H37.6436V34.3737H17.4431V53.0001H7.49219ZM70.2468 53.6606C66.677 53.6606 63.5898 52.934 60.9853 51.4809C58.3961 50.0131 56.3967 47.9729 54.9871 45.3602C53.5777 42.7328 52.8729 39.6871 52.8729 36.2231C52.8729 32.7297 53.5777 29.6767 54.9871 27.064C56.3967 24.4367 58.3961 22.3964 60.9853 20.9433C63.5898 19.4755 66.677 18.7416 70.2468 18.7416C73.8165 18.7416 76.896 19.4755 79.4852 20.9433C82.0898 22.3964 84.0968 24.4367 85.5064 27.064C86.9158 29.6767 87.6206 32.7297 87.6206 36.2231C87.6206 39.6871 86.9158 42.7328 85.5064 45.3602C84.0968 47.9729 82.0898 50.0131 79.4852 51.4809C76.896 52.934 73.8165 53.6606 70.2468 53.6606ZM70.2927 46.395C71.9168 46.395 73.2727 45.9546 74.3604 45.074C75.4481 44.1786 76.2678 42.9603 76.8194 41.4191C77.3863 39.8779 77.6697 38.1239 77.6697 36.1571C77.6697 34.1902 77.3863 32.4362 76.8194 30.895C76.2678 29.3538 75.4481 28.1355 74.3604 27.2402C73.2727 26.3448 71.9168 25.8971 70.2927 25.8971C68.6533 25.8971 67.2745 26.3448 66.1561 27.2402C65.053 28.1355 64.2179 29.3538 63.6512 30.895C63.0995 32.4362 62.8237 34.1902 62.8237 36.1571C62.8237 38.1239 63.0995 39.8779 63.6512 41.4191C64.2179 42.9603 65.053 44.1786 66.1561 45.074C67.2745 45.9546 68.6533 46.395 70.2927 46.395ZM102.482 7.90918V53.0001H92.6922V7.90918H102.482ZM122.037 53.5505C119.357 53.5505 116.928 52.89 114.753 51.569C112.592 50.2333 110.876 48.2738 109.605 45.6904C108.348 43.0924 107.72 39.9073 107.72 36.135C107.72 32.26 108.371 29.0382 109.674 26.4696C110.976 23.8862 112.707 21.9561 114.868 20.6791C117.043 19.3874 119.426 18.7416 122.014 18.7416C123.991 18.7416 125.639 19.0645 126.956 19.7103C128.289 20.3415 129.361 21.1341 130.173 22.0882C131.001 23.0276 131.629 23.9523 132.058 24.8623H132.356V7.90918H142.123V53.0001H132.471V47.5839H132.058C131.598 48.5233 130.946 49.4554 130.104 50.3801C129.277 51.2901 128.197 52.046 126.864 52.6478C125.546 53.2496 123.937 53.5505 122.037 53.5505ZM125.14 46.0867C126.718 46.0867 128.051 45.6758 129.138 44.8538C130.242 44.0171 131.085 42.8502 131.666 41.3531C132.265 39.8559 132.563 38.1019 132.563 36.091C132.563 34.0801 132.272 32.3334 131.689 30.851C131.108 29.3685 130.265 28.2236 129.161 27.4163C128.059 26.609 126.718 26.2054 125.14 26.2054C123.531 26.2054 122.175 26.6237 121.072 27.4603C119.97 28.297 119.135 29.4565 118.568 30.939C118.001 32.4215 117.717 34.1388 117.717 36.091C117.717 38.0579 118.001 39.7972 118.568 41.309C119.149 42.8062 119.984 43.9805 121.072 44.8318C122.175 45.6684 123.531 46.0867 125.14 46.0867Z" fill="#8824AF"/>
<path d="M7.49219 53.0001V7.90918H17.4431V26.5136H37.6436V7.90918H47.5716V53.0001H37.6436V34.3737H17.4431V53.0001H7.49219ZM70.2468 53.6606C66.677 53.6606 63.5898 52.934 60.9853 51.4809C58.3961 50.0131 56.3967 47.9729 54.9871 45.3602C53.5777 42.7328 52.8729 39.6871 52.8729 36.2231C52.8729 32.7297 53.5777 29.6767 54.9871 27.064C56.3967 24.4367 58.3961 22.3964 60.9853 20.9433C63.5898 19.4755 66.677 18.7416 70.2468 18.7416C73.8165 18.7416 76.896 19.4755 79.4852 20.9433C82.0898 22.3964 84.0968 24.4367 85.5064 27.064C86.9158 29.6767 87.6206 32.7297 87.6206 36.2231C87.6206 39.6871 86.9158 42.7328 85.5064 45.3602C84.0968 47.9729 82.0898 50.0131 79.4852 51.4809C76.896 52.934 73.8165 53.6606 70.2468 53.6606ZM70.2927 46.395C71.9168 46.395 73.2727 45.9546 74.3604 45.074C75.4481 44.1786 76.2678 42.9603 76.8194 41.4191C77.3863 39.8779 77.6697 38.1239 77.6697 36.1571C77.6697 34.1902 77.3863 32.4362 76.8194 30.895C76.2678 29.3538 75.4481 28.1355 74.3604 27.2402C73.2727 26.3448 71.9168 25.8971 70.2927 25.8971C68.6533 25.8971 67.2745 26.3448 66.1561 27.2402C65.053 28.1355 64.2179 29.3538 63.6512 30.895C63.0995 32.4362 62.8237 34.1902 62.8237 36.1571C62.8237 38.1239 63.0995 39.8779 63.6512 41.4191C64.2179 42.9603 65.053 44.1786 66.1561 45.074C67.2745 45.9546 68.6533 46.395 70.2927 46.395ZM102.482 7.90918V53.0001H92.6922V7.90918H102.482ZM122.037 53.5505C119.357 53.5505 116.928 52.89 114.753 51.569C112.592 50.2333 110.876 48.2738 109.605 45.6904C108.348 43.0924 107.72 39.9073 107.72 36.135C107.72 32.26 108.371 29.0382 109.674 26.4696C110.976 23.8862 112.707 21.9561 114.868 20.6791C117.043 19.3874 119.426 18.7416 122.014 18.7416C123.991 18.7416 125.639 19.0645 126.956 19.7103C128.289 20.3415 129.361 21.1341 130.173 22.0882C131.001 23.0276 131.629 23.9523 132.058 24.8623H132.356V7.90918H142.123V53.0001H132.471V47.5839H132.058C131.598 48.5233 130.946 49.4554 130.104 50.3801C129.277 51.2901 128.197 52.046 126.864 52.6478C125.546 53.2496 123.937 53.5505 122.037 53.5505ZM125.14 46.0867C126.718 46.0867 128.051 45.6758 129.138 44.8538C130.242 44.0171 131.085 42.8502 131.666 41.3531C132.265 39.8559 132.563 38.1019 132.563 36.091C132.563 34.0801 132.272 32.3334 131.689 30.851C131.108 29.3685 130.265 28.2236 129.161 27.4163C128.059 26.609 126.718 26.2054 125.14 26.2054C123.531 26.2054 122.175 26.6237 121.072 27.4603C119.97 28.297 119.135 29.4565 118.568 30.939C118.001 32.4215 117.717 34.1388 117.717 36.091C117.717 38.0579 118.001 39.7972 118.568 41.309C119.149 42.8062 119.984 43.9805 121.072 44.8318C122.175 45.6684 123.531 46.0867 125.14 46.0867Z" fill="white" fill-opacity="0.2"/>
<path d="M7.49219 53.0001V7.90918H17.4431V26.5136H37.6436V7.90918H47.5716V53.0001H37.6436V34.3737H17.4431V53.0001H7.49219ZM70.2468 53.6606C66.677 53.6606 63.5898 52.934 60.9853 51.4809C58.3961 50.0131 56.3967 47.9729 54.9871 45.3602C53.5777 42.7328 52.8729 39.6871 52.8729 36.2231C52.8729 32.7297 53.5777 29.6767 54.9871 27.064C56.3967 24.4367 58.3961 22.3964 60.9853 20.9433C63.5898 19.4755 66.677 18.7416 70.2468 18.7416C73.8165 18.7416 76.896 19.4755 79.4852 20.9433C82.0898 22.3964 84.0968 24.4367 85.5064 27.064C86.9158 29.6767 87.6206 32.7297 87.6206 36.2231C87.6206 39.6871 86.9158 42.7328 85.5064 45.3602C84.0968 47.9729 82.0898 50.0131 79.4852 51.4809C76.896 52.934 73.8165 53.6606 70.2468 53.6606ZM70.2927 46.395C71.9168 46.395 73.2727 45.9546 74.3604 45.074C75.4481 44.1786 76.2678 42.9603 76.8194 41.4191C77.3863 39.8779 77.6697 38.1239 77.6697 36.1571C77.6697 34.1902 77.3863 32.4362 76.8194 30.895C76.2678 29.3538 75.4481 28.1355 74.3604 27.2402C73.2727 26.3448 71.9168 25.8971 70.2927 25.8971C68.6533 25.8971 67.2745 26.3448 66.1561 27.2402C65.053 28.1355 64.2179 29.3538 63.6512 30.895C63.0995 32.4362 62.8237 34.1902 62.8237 36.1571C62.8237 38.1239 63.0995 39.8779 63.6512 41.4191C64.2179 42.9603 65.053 44.1786 66.1561 45.074C67.2745 45.9546 68.6533 46.395 70.2927 46.395ZM102.482 7.90918V53.0001H92.6922V7.90918H102.482ZM122.037 53.5505C119.357 53.5505 116.928 52.89 114.753 51.569C112.592 50.2333 110.876 48.2738 109.605 45.6904C108.348 43.0924 107.72 39.9073 107.72 36.135C107.72 32.26 108.371 29.0382 109.674 26.4696C110.976 23.8862 112.707 21.9561 114.868 20.6791C117.043 19.3874 119.426 18.7416 122.014 18.7416C123.991 18.7416 125.639 19.0645 126.956 19.7103C128.289 20.3415 129.361 21.1341 130.173 22.0882C131.001 23.0276 131.629 23.9523 132.058 24.8623H132.356V7.90918H142.123V53.0001H132.471V47.5839H132.058C131.598 48.5233 130.946 49.4554 130.104 50.3801C129.277 51.2901 128.197 52.046 126.864 52.6478C125.546 53.2496 123.937 53.5505 122.037 53.5505ZM125.14 46.0867C126.718 46.0867 128.051 45.6758 129.138 44.8538C130.242 44.0171 131.085 42.8502 131.666 41.3531C132.265 39.8559 132.563 38.1019 132.563 36.091C132.563 34.0801 132.272 32.3334 131.689 30.851C131.108 29.3685 130.265 28.2236 129.161 27.4163C128.059 26.609 126.718 26.2054 125.14 26.2054C123.531 26.2054 122.175 26.6237 121.072 27.4603C119.97 28.297 119.135 29.4565 118.568 30.939C118.001 32.4215 117.717 34.1388 117.717 36.091C117.717 38.0579 118.001 39.7972 118.568 41.309C119.149 42.8062 119.984 43.9805 121.072 44.8318C122.175 45.6684 123.531 46.0867 125.14 46.0867Z" fill="#8824AF"/>
<path d="M7.49219 53.0001V7.90918H17.4431V26.5136H37.6436V7.90918H47.5716V53.0001H37.6436V34.3737H17.4431V53.0001H7.49219ZM70.2468 53.6606C66.677 53.6606 63.5898 52.934 60.9853 51.4809C58.3961 50.0131 56.3967 47.9729 54.9871 45.3602C53.5777 42.7328 52.8729 39.6871 52.8729 36.2231C52.8729 32.7297 53.5777 29.6767 54.9871 27.064C56.3967 24.4367 58.3961 22.3964 60.9853 20.9433C63.5898 19.4755 66.677 18.7416 70.2468 18.7416C73.8165 18.7416 76.896 19.4755 79.4852 20.9433C82.0898 22.3964 84.0968 24.4367 85.5064 27.064C86.9158 29.6767 87.6206 32.7297 87.6206 36.2231C87.6206 39.6871 86.9158 42.7328 85.5064 45.3602C84.0968 47.9729 82.0898 50.0131 79.4852 51.4809C76.896 52.934 73.8165 53.6606 70.2468 53.6606ZM70.2927 46.395C71.9168 46.395 73.2727 45.9546 74.3604 45.074C75.4481 44.1786 76.2678 42.9603 76.8194 41.4191C77.3863 39.8779 77.6697 38.1239 77.6697 36.1571C77.6697 34.1902 77.3863 32.4362 76.8194 30.895C76.2678 29.3538 75.4481 28.1355 74.3604 27.2402C73.2727 26.3448 71.9168 25.8971 70.2927 25.8971C68.6533 25.8971 67.2745 26.3448 66.1561 27.2402C65.053 28.1355 64.2179 29.3538 63.6512 30.895C63.0995 32.4362 62.8237 34.1902 62.8237 36.1571C62.8237 38.1239 63.0995 39.8779 63.6512 41.4191C64.2179 42.9603 65.053 44.1786 66.1561 45.074C67.2745 45.9546 68.6533 46.395 70.2927 46.395ZM102.482 7.90918V53.0001H92.6922V7.90918H102.482ZM122.037 53.5505C119.357 53.5505 116.928 52.89 114.753 51.569C112.592 50.2333 110.876 48.2738 109.605 45.6904C108.348 43.0924 107.72 39.9073 107.72 36.135C107.72 32.26 108.371 29.0382 109.674 26.4696C110.976 23.8862 112.707 21.9561 114.868 20.6791C117.043 19.3874 119.426 18.7416 122.014 18.7416C123.991 18.7416 125.639 19.0645 126.956 19.7103C128.289 20.3415 129.361 21.1341 130.173 22.0882C131.001 23.0276 131.629 23.9523 132.058 24.8623H132.356V7.90918H142.123V53.0001H132.471V47.5839H132.058C131.598 48.5233 130.946 49.4554 130.104 50.3801C129.277 51.2901 128.197 52.046 126.864 52.6478C125.546 53.2496 123.937 53.5505 122.037 53.5505ZM125.14 46.0867C126.718 46.0867 128.051 45.6758 129.138 44.8538C130.242 44.0171 131.085 42.8502 131.666 41.3531C132.265 39.8559 132.563 38.1019 132.563 36.091C132.563 34.0801 132.272 32.3334 131.689 30.851C131.108 29.3685 130.265 28.2236 129.161 27.4163C128.059 26.609 126.718 26.2054 125.14 26.2054C123.531 26.2054 122.175 26.6237 121.072 27.4603C119.97 28.297 119.135 29.4565 118.568 30.939C118.001 32.4215 117.717 34.1388 117.717 36.091C117.717 38.0579 118.001 39.7972 118.568 41.309C119.149 42.8062 119.984 43.9805 121.072 44.8318C122.175 45.6684 123.531 46.0867 125.14 46.0867Z" fill="#38B0E3"/>
<mask id="mask0_405_295" style="mask-type:luminance" maskUnits="userSpaceOnUse" x="-1" y="0" width="151" height="61">
<path d="M149.531 0H-0.775391V61H149.531V0Z" fill="white"/>
<path d="M7.49219 53.0001V7.90918H17.4431V26.5136H37.6436V7.90918H47.5716V53.0001H37.6436V34.3737H17.4431V53.0001H7.49219ZM70.2468 53.6606C66.677 53.6606 63.5898 52.934 60.9853 51.4809C58.3961 50.0131 56.3967 47.9729 54.9871 45.3602C53.5777 42.7328 52.8729 39.6871 52.8729 36.2231C52.8729 32.7297 53.5777 29.6767 54.9871 27.064C56.3967 24.4367 58.3961 22.3964 60.9853 20.9433C63.5898 19.4755 66.677 18.7416 70.2468 18.7416C73.8165 18.7416 76.896 19.4755 79.4852 20.9433C82.0898 22.3964 84.0968 24.4367 85.5064 27.064C86.9158 29.6767 87.6206 32.7297 87.6206 36.2231C87.6206 39.6871 86.9158 42.7328 85.5064 45.3602C84.0968 47.9729 82.0898 50.0131 79.4852 51.4809C76.896 52.934 73.8165 53.6606 70.2468 53.6606ZM70.2927 46.395C71.9168 46.395 73.2727 45.9546 74.3604 45.074C75.4481 44.1786 76.2678 42.9603 76.8194 41.4191C77.3863 39.8779 77.6697 38.1239 77.6697 36.1571C77.6697 34.1902 77.3863 32.4362 76.8194 30.895C76.2678 29.3538 75.4481 28.1355 74.3604 27.2402C73.2727 26.3448 71.9168 25.8971 70.2927 25.8971C68.6533 25.8971 67.2745 26.3448 66.1561 27.2402C65.053 28.1355 64.2179 29.3538 63.6512 30.895C63.0995 32.4362 62.8237 34.1902 62.8237 36.1571C62.8237 38.1239 63.0995 39.8779 63.6512 41.4191C64.2179 42.9603 65.053 44.1786 66.1561 45.074C67.2745 45.9546 68.6533 46.395 70.2927 46.395ZM102.482 7.90918V53.0001H92.6922V7.90918H102.482ZM122.037 53.5505C119.357 53.5505 116.928 52.89 114.753 51.569C112.592 50.2333 110.876 48.2738 109.605 45.6904C108.348 43.0924 107.72 39.9073 107.72 36.135C107.72 32.26 108.371 29.0382 109.674 26.4696C110.976 23.8862 112.707 21.9561 114.868 20.6791C117.043 19.3874 119.426 18.7416 122.014 18.7416C123.991 18.7416 125.639 19.0645 126.956 19.7103C128.289 20.3415 129.361 21.1341 130.173 22.0882C131.001 23.0276 131.629 23.9523 132.058 24.8623H132.356V7.90918H142.123V53.0001H132.471V47.5839H132.058C131.598 48.5233 130.946 49.4554 130.104 50.3801C129.277 51.2901 128.197 52.046 126.864 52.6478C125.546 53.2496 123.937 53.5505 122.037 53.5505ZM125.14 46.0867C126.718 46.0867 128.051 45.6758 129.138 44.8538C130.242 44.0171 131.085 42.8502 131.666 41.3531C132.265 39.8559 132.563 38.1019 132.563 36.091C132.563 34.0801 132.272 32.3334 131.689 30.851C131.108 29.3685 130.265 28.2236 129.161 27.4163C128.059 26.609 126.718 26.2054 125.14 26.2054C123.531 26.2054 122.175 26.6237 121.072 27.4603C119.97 28.297 119.135 29.4565 118.568 30.939C118.001 32.4215 117.717 34.1388 117.717 36.091C117.717 38.0579 118.001 39.7972 118.568 41.309C119.149 42.8062 119.984 43.9805 121.072 44.8318C122.175 45.6684 123.531 46.0867 125.14 46.0867Z" fill="black"/>
</mask>
<g mask="url(#mask0_405_295)">
<path d="M7.49211 53.0001H0.185547V60.0001H7.49211V53.0001ZM7.49211 7.90918V0.90918H0.185547V7.90918H7.49211ZM17.443 7.90918H24.7496V0.90918H17.443V7.90918ZM17.443 26.5136H10.1364V33.5136H17.443V26.5136ZM37.6436 26.5136V33.5136H44.9501V26.5136H37.6436ZM37.6436 7.90918V0.90918H30.337V7.90918H37.6436ZM47.5715 7.90918H54.8781V0.90918H47.5715V7.90918ZM47.5715 53.0001V60.0001H54.8781V53.0001H47.5715ZM37.6436 53.0001H30.337V60.0001H37.6436V53.0001ZM37.6436 34.3737H44.9501V27.3737H37.6436V34.3737ZM17.443 34.3737V27.3737H10.1364V34.3737H17.443ZM17.443 53.0001V60.0001H24.7496V53.0001H17.443ZM14.7987 53.0001V7.90918H0.185547V53.0001H14.7987ZM7.49211 14.9092H17.443V0.90918H7.49211V14.9092ZM10.1364 7.90918V26.5136H24.7496V7.90918H10.1364ZM17.443 33.5136H37.6436V19.5136H17.443V33.5136ZM44.9501 26.5136V7.90918H30.337V26.5136H44.9501ZM37.6436 14.9092H47.5715V0.90918H37.6436V14.9092ZM40.2649 7.90918V53.0001H54.8781V7.90918H40.2649ZM47.5715 46.0001H37.6436V60.0001H47.5715V46.0001ZM44.9501 53.0001V34.3737H30.337V53.0001H44.9501ZM37.6436 27.3737H17.443V41.3737H37.6436V27.3737ZM10.1364 34.3737V53.0001H24.7496V34.3737H10.1364ZM17.443 46.0001H7.49211V60.0001H17.443V46.0001ZM60.9852 51.4809L57.2644 57.5053L57.2862 57.5177L57.3083 57.53L60.9852 51.4809ZM54.9871 45.3602L48.4886 48.56L48.4925 48.5672L48.4962 48.5742L54.9871 45.3602ZM54.9871 27.064L61.4779 30.2781L61.4818 30.271L61.4856 30.2639L54.9871 27.064ZM60.9852 20.9433L64.6784 26.9832L64.6898 26.9768L60.9852 20.9433ZM79.4852 20.9433L75.7643 26.9676L75.7863 26.98L75.8082 26.9923L79.4852 20.9433ZM85.5063 27.064L79.0077 30.2639L79.0116 30.271L79.0154 30.2781L85.5063 27.064ZM85.5063 45.3602L91.9971 48.5742L92.0009 48.5672L92.0048 48.5601L85.5063 45.3602ZM79.4852 51.4809L83.1783 57.5209L83.1897 57.5145L79.4852 51.4809ZM74.3603 45.074L79.0764 50.4205L79.0992 50.4021L79.1218 50.3835L74.3603 45.074ZM76.8193 41.4191L69.928 39.0927L69.9177 39.1207L69.9077 39.1489L76.8193 41.4191ZM76.8193 30.895L69.9077 33.1653L69.9177 33.1934L69.928 33.2214L76.8193 30.895ZM66.156 27.2402L61.4709 21.8686L61.4518 21.8839L61.4329 21.8993L66.156 27.2402ZM63.6511 30.895L56.7598 28.5685L56.7495 28.5966L56.7394 28.6247L63.6511 30.895ZM63.6511 41.4191L56.7394 43.6894L56.7495 43.7175L56.7598 43.7456L63.6511 41.4191ZM66.156 45.074L61.4329 50.4149L61.4745 50.4486L61.5166 50.4817L66.156 45.074ZM70.2466 46.6606C67.7292 46.6606 65.9601 46.156 64.6622 45.4319L57.3083 57.53C61.2195 59.7121 65.6247 60.6606 70.2466 60.6606V46.6606ZM64.706 45.4566C63.3223 44.6721 62.2713 43.6167 61.4779 42.1461L48.4962 48.5742C50.5219 52.3291 53.4697 55.3541 57.2644 57.5053L64.706 45.4566ZM61.4856 42.1603C60.6917 40.6805 60.1794 38.766 60.1794 36.2231H45.5663C45.5663 40.6082 46.4634 44.7852 48.4886 48.56L61.4856 42.1603ZM60.1794 36.2231C60.1794 33.6391 60.6964 31.7268 61.4779 30.2781L48.4962 23.85C46.4587 27.6266 45.5663 31.8204 45.5663 36.2231H60.1794ZM61.4856 30.2639C62.279 28.7849 63.3212 27.7449 64.6784 26.9832L57.2921 14.9033C53.4707 17.0479 50.5142 20.0884 48.4886 23.8642L61.4856 30.2639ZM64.6898 26.9768C65.9827 26.2482 67.7416 25.7416 70.2466 25.7416V11.7416C65.6123 11.7416 61.1968 12.7027 57.2806 14.9097L64.6898 26.9768ZM70.2466 25.7416C72.7532 25.7416 74.496 26.2486 75.7643 26.9676L83.206 14.9189C79.2958 12.7023 74.8797 11.7416 70.2466 11.7416V25.7416ZM75.8082 26.9923C77.1787 27.7569 78.2202 28.7958 79.0077 30.2639L92.0048 23.8642C89.9733 20.0775 87.0007 17.0359 83.1621 14.8942L75.8082 26.9923ZM79.0154 30.2781C79.7969 31.7268 80.3139 33.6391 80.3139 36.2231H94.9271C94.9271 31.8204 94.0346 27.6266 91.9971 23.85L79.0154 30.2781ZM80.3139 36.2231C80.3139 38.766 79.8016 40.6805 79.0077 42.1603L92.0048 48.5601C94.0299 44.7852 94.9271 40.6082 94.9271 36.2231H80.3139ZM79.0154 42.1461C78.2279 43.6058 77.1776 44.6601 75.7806 45.4474L83.1897 57.5145C87.0018 55.3662 89.9656 52.3399 91.9971 48.5742L79.0154 42.1461ZM75.792 45.441C74.5187 46.1556 72.7656 46.6606 70.2466 46.6606V60.6606C74.8673 60.6606 79.2732 59.7125 83.1783 57.5209L75.792 45.441ZM70.2926 53.395C73.3862 53.395 76.4861 52.5177 79.0764 50.4205L69.6442 39.7274C69.8033 39.5986 69.9975 39.4952 70.1819 39.4353C70.3535 39.3795 70.4126 39.395 70.2926 39.395V53.395ZM79.1218 50.3835C81.3651 48.537 82.8366 46.1886 83.731 43.6894L69.9077 39.1489C69.8002 39.4492 69.7027 39.6174 69.6496 39.6963C69.6001 39.7699 69.5804 39.7797 69.5988 39.7645L79.1218 50.3835ZM83.7105 43.7456C84.6018 41.3224 84.9762 38.7598 84.9762 36.1571H70.3631C70.3631 37.4881 70.1705 38.4335 69.928 39.0927L83.7105 43.7456ZM84.9762 36.1571C84.9762 33.5543 84.6018 30.9917 83.7105 28.5685L69.928 33.2214C70.1705 33.8806 70.3631 34.8261 70.3631 36.1571H84.9762ZM83.731 28.6247C82.8366 26.1255 81.3651 23.7772 79.1218 21.9306L69.5988 32.5497C69.5804 32.5344 69.6001 32.5442 69.6496 32.6178C69.7027 32.6967 69.8002 32.8649 69.9077 33.1653L83.731 28.6247ZM79.1218 21.9306C76.5332 19.7999 73.4173 18.8971 70.2926 18.8971V32.8971C70.4004 32.8971 70.329 32.911 70.1469 32.8509C69.9522 32.7866 69.7552 32.6783 69.5988 32.5497L79.1218 21.9306ZM70.2926 18.8971C67.1678 18.8971 64.068 19.7896 61.4709 21.8686L70.8411 32.6117C70.7088 32.7175 70.54 32.8087 70.3741 32.8625C70.2195 32.9127 70.1713 32.8971 70.2926 32.8971V18.8971ZM61.4329 21.8993C59.1759 23.7312 57.6795 26.0682 56.7598 28.5685L70.5423 33.2214C70.6528 32.9211 70.7531 32.7505 70.8101 32.6675C70.8634 32.5896 70.8889 32.5731 70.8791 32.581L61.4329 21.8993ZM56.7394 28.6247C55.8786 31.0301 55.5171 33.5727 55.5171 36.1571H70.1302C70.1302 34.8077 70.3203 33.8423 70.5627 33.1653L56.7394 28.6247ZM55.5171 36.1571C55.5171 38.7414 55.8786 41.2841 56.7394 43.6894L70.5627 39.1489C70.3203 38.4718 70.1302 37.5064 70.1302 36.1571H55.5171ZM56.7598 43.7456C57.6795 46.246 59.1759 48.5829 61.4329 50.4149L70.8791 39.7331C70.8889 39.741 70.8634 39.7245 70.8101 39.6466C70.7531 39.5636 70.6528 39.393 70.5423 39.0927L56.7598 43.7456ZM61.5166 50.4817C64.1145 52.5275 67.1982 53.395 70.2926 53.395V39.395C70.1591 39.395 70.1954 39.3779 70.3395 39.4239C70.4951 39.4736 70.6609 39.5602 70.7954 39.6662L61.5166 50.4817ZM102.482 7.90918H109.789V0.90918H102.482V7.90918ZM102.482 53.0001V60.0001H109.789V53.0001H102.482ZM92.6921 53.0001H85.3855V60.0001H92.6921V53.0001ZM92.6921 7.90918V0.90918H85.3855V7.90918H92.6921ZM95.1755 7.90918V53.0001H109.789V7.90918H95.1755ZM102.482 46.0001H92.6921V60.0001H102.482V46.0001ZM99.9987 53.0001V7.90918H85.3855V53.0001H99.9987ZM92.6921 14.9092H102.482V0.90918H92.6921V14.9092ZM114.753 51.569L110.79 57.4505L110.816 57.4661L110.841 57.4815L114.753 51.569ZM109.605 45.6904L102.975 48.6329L102.985 48.6546L102.996 48.6762L109.605 45.6904ZM109.674 26.4696L116.246 29.5279L116.25 29.5209L116.253 29.5138L109.674 26.4696ZM114.868 20.6791L118.705 26.6363L118.716 26.6291L114.868 20.6791ZM126.956 19.7103L123.628 25.9421L123.673 25.9642L123.718 25.9857L126.956 19.7103ZM130.173 22.0882L124.51 26.5117L124.549 26.5573L124.588 26.6023L130.173 22.0882ZM132.058 24.8623L125.398 27.7434L127.34 31.8623H132.058V24.8623ZM132.356 24.8623V31.8623H139.663V24.8623H132.356ZM132.356 7.90918V0.90918H125.05V7.90918H132.356ZM142.123 7.90918H149.43V0.90918H142.123V7.90918ZM142.123 53.0001V60.0001H149.43V53.0001H142.123ZM132.471 53.0001H125.165V60.0001H132.471V53.0001ZM132.471 47.5839H139.778V40.5839H132.471V47.5839ZM132.058 47.5839V40.5839H127.413L125.441 44.6129L132.058 47.5839ZM130.104 50.3801L124.6 45.7765L124.595 45.7826L130.104 50.3801ZM126.864 52.6478L123.749 46.3157L123.735 46.3224L123.719 46.3292L126.864 52.6478ZM129.138 44.8538L133.663 50.35L133.674 50.3421L129.138 44.8538ZM131.666 41.3531L124.842 38.8531L124.831 38.8812L124.82 38.9093L131.666 41.3531ZM118.568 41.309L111.691 43.6756L111.706 43.7143L111.72 43.7528L118.568 41.309ZM121.072 44.8318L116.45 50.2529L116.493 50.2868L116.538 50.3201L121.072 44.8318ZM122.037 46.5505C120.681 46.5505 119.62 46.2372 118.664 45.6565L110.841 57.4815C114.236 59.5428 118.031 60.5505 122.037 60.5505V46.5505ZM118.715 45.6875C117.875 45.1683 116.997 44.2971 116.213 42.7047L102.996 48.6762C104.756 52.2504 107.31 55.2983 110.79 57.4505L118.715 45.6875ZM116.234 42.7479C115.542 41.3158 115.027 39.1992 115.027 36.135H100.414C100.414 40.6154 101.155 44.869 102.975 48.6329L116.234 42.7479ZM115.027 36.135C115.027 32.9609 115.567 30.8663 116.246 29.5279L103.101 23.4112C101.175 27.2102 100.414 31.5592 100.414 36.135H115.027ZM116.253 29.5138C117.061 27.9128 117.928 27.0949 118.705 26.6363L111.031 14.7218C107.486 16.8173 104.892 19.8597 103.094 23.4253L116.253 29.5138ZM118.716 26.6291C119.722 26.0322 120.768 25.7416 122.014 25.7416V11.7416C118.082 11.7416 114.364 12.7426 111.019 14.729L118.716 26.6291ZM122.014 25.7416C122.594 25.7416 123.001 25.7894 123.267 25.8416C123.529 25.893 123.631 25.9437 123.628 25.9421L130.283 13.4786C127.65 12.1874 124.776 11.7416 122.014 11.7416V25.7416ZM123.718 25.9857C124.26 26.2423 124.455 26.4469 124.51 26.5117L135.835 17.6646C134.266 15.8213 132.317 14.4406 130.193 13.435L123.718 25.9857ZM124.588 26.6023C125.077 27.1566 125.302 27.54 125.398 27.7434L138.716 21.9812C137.954 20.3646 136.924 18.8985 135.757 17.5741L124.588 26.6023ZM132.058 31.8623H132.356V17.8623H132.058V31.8623ZM139.663 24.8623V7.90918H125.05V24.8623H139.663ZM132.356 14.9092H142.123V0.90918H132.356V14.9092ZM134.817 7.90918V53.0001H149.43V7.90918H134.817ZM142.123 46.0001H132.471V60.0001H142.123V46.0001ZM139.778 53.0001V47.5839H125.165V53.0001H139.778ZM132.471 40.5839H132.058V54.5839H132.471V40.5839ZM125.441 44.6129C125.318 44.8646 125.074 45.2563 124.6 45.7765L135.608 54.9837C136.82 53.6544 137.877 52.182 138.673 50.5549L125.441 44.6129ZM124.595 45.7826C124.534 45.8484 124.32 46.0577 123.749 46.3157L129.979 58.9799C132.072 58.0344 134.019 56.7319 135.614 54.9775L124.595 45.7826ZM123.719 46.3292C123.633 46.3684 123.165 46.5505 122.037 46.5505V60.5505C124.711 60.5505 127.459 60.1308 130.008 58.9665L123.719 46.3292ZM125.14 53.0867C128.12 53.0867 131.11 52.2795 133.663 50.35L124.613 39.3576C124.761 39.2465 124.932 39.1623 125.085 39.1151C125.227 39.0713 125.265 39.0867 125.14 39.0867V53.0867ZM133.674 50.3421C136.003 48.5756 137.552 46.268 138.514 43.7968L124.82 38.9093C124.715 39.1808 124.626 39.3183 124.589 39.3685C124.557 39.4132 124.56 39.3987 124.604 39.3655L133.674 50.3421ZM138.492 43.853C139.477 41.3834 139.87 38.7474 139.87 36.091H125.256C125.256 37.4564 125.052 38.3285 124.842 38.8531L138.492 43.853ZM139.87 36.091C139.87 33.4552 139.491 30.8369 138.528 28.386L124.851 33.3159C125.053 33.83 125.256 34.705 125.256 36.091H139.87ZM138.528 28.386C137.557 25.9126 135.981 23.5982 133.597 21.8536L124.726 32.979C124.657 32.9282 124.633 32.8921 124.65 32.9143C124.671 32.9427 124.75 33.0596 124.851 33.3159L138.528 28.386ZM133.597 21.8536C131.048 19.9887 128.091 19.2054 125.14 19.2054V33.2054C125.276 33.2054 125.259 33.2221 125.138 33.186C125.08 33.1686 125.01 33.142 124.933 33.104C124.857 33.066 124.787 33.0229 124.726 32.979L133.597 21.8536ZM125.14 19.2054C122.133 19.2054 119.113 20.0184 116.538 21.972L125.607 32.9486C125.465 33.0569 125.3 33.1377 125.156 33.1821C125.024 33.223 124.999 33.2054 125.14 33.2054V19.2054ZM116.538 21.972C114.208 23.739 112.657 26.0466 111.707 28.5311L125.428 33.3469C125.525 33.0944 125.605 32.9718 125.633 32.9325C125.657 32.8987 125.65 32.9165 125.607 32.9486L116.538 21.972ZM111.707 28.5311C110.784 30.9431 110.411 33.5045 110.411 36.091H125.024C125.024 34.7731 125.217 33.8999 125.428 33.3469L111.707 28.5311ZM110.411 36.091C110.411 38.6898 110.784 41.2558 111.691 43.6756L125.443 38.9425C125.218 38.3386 125.024 37.426 125.024 36.091H110.411ZM111.72 43.7528C112.67 46.1947 114.185 48.4799 116.45 50.2529L125.695 39.4107C125.724 39.4338 125.713 39.4338 125.669 39.3715C125.621 39.3041 125.525 39.1498 125.414 38.8653L111.72 43.7528ZM116.538 50.3201C119.113 52.2737 122.133 53.0867 125.14 53.0867V39.0867C124.999 39.0867 125.024 39.0691 125.156 39.11C125.3 39.1544 125.465 39.2352 125.607 39.3435L116.538 50.3201Z" fill="white"/>
</g>
</g>
<defs>
<clipPath id="clip0_405_295">
<rect width="150" height="61" fill="white"/>
</clipPath>
</defs>
</svg>
