<svg width="141" height="60" viewBox="0 0 141 60" fill="none" xmlns="http://www.w3.org/2000/svg">
<g clip-path="url(#clip0_405_276)">
<path d="M7.17773 52.0001V6.90918H37.5613V14.7693H16.7111V25.5136H35.9981V33.3737H16.7111V44.14H37.6493V52.0001H7.17773ZM53.368 52.6386C51.2103 52.6386 49.2875 52.2643 47.5995 51.5157C45.9115 50.7525 44.5758 49.6296 43.5924 48.1471C42.6236 46.65 42.1393 44.7858 42.1393 42.5548C42.1393 40.676 42.4842 39.0981 43.1741 37.8211C43.8639 36.5441 44.8033 35.5167 45.9923 34.7387C47.1812 33.9608 48.5316 33.3737 50.0434 32.9774C51.5699 32.5811 53.1698 32.3022 54.8431 32.1407C56.81 31.9352 58.3952 31.7444 59.5988 31.5683C60.8024 31.3775 61.6757 31.0986 62.2188 30.7316C62.7619 30.3647 63.0334 29.8216 63.0334 29.1024V28.9703C63.0334 27.5759 62.5931 26.497 61.7124 25.7338C60.8464 24.9705 59.6135 24.5889 58.0136 24.5889C56.3256 24.5889 54.9825 24.9632 53.9844 25.7117C52.9863 26.4456 52.3258 27.3704 52.0029 28.4859L43.3282 27.7813C43.7685 25.7264 44.6345 23.9504 45.9262 22.4532C47.2179 20.9414 48.8838 19.7818 50.9241 18.9745C52.979 18.1526 55.3568 17.7416 58.0576 17.7416C59.9364 17.7416 61.7344 17.9617 63.4518 18.4021C65.1838 18.8424 66.7176 19.525 68.0533 20.4497C69.4037 21.3744 70.4679 22.5633 71.2458 24.0164C72.0237 25.4549 72.4127 27.1795 72.4127 29.1904V52.0001H63.5178V47.3105H63.2536C62.7105 48.3673 61.984 49.2993 61.0739 50.1066C60.1639 50.8992 59.0704 51.5231 57.7934 51.9781C56.5164 52.4184 55.0413 52.6386 53.368 52.6386ZM56.054 46.1656C57.4338 46.1656 58.6521 45.894 59.7089 45.351C60.7657 44.7932 61.595 44.0446 62.1968 43.1052C62.7986 42.1658 63.0995 41.1017 63.0995 39.9127V36.324C62.8059 36.5148 62.4023 36.6909 61.8886 36.8524C61.3895 36.9992 60.8244 37.1386 60.1933 37.2707C59.5621 37.3881 58.9309 37.4982 58.2998 37.601C57.6686 37.689 57.0962 37.7697 56.5825 37.8431C55.4816 38.0046 54.5202 38.2615 53.6982 38.6137C52.8763 38.966 52.2378 39.443 51.7827 40.0448C51.3277 40.632 51.1002 41.3659 51.1002 42.2465C51.1002 43.5235 51.5626 44.4996 52.4873 45.1748C53.4267 45.8353 54.6156 46.1656 56.054 46.1656ZM78.4493 52.0001V18.1819H87.5424V24.0825H87.8947C88.5111 21.9835 89.5459 20.3983 90.9991 19.3268C92.4522 18.2406 94.1255 17.6975 96.0189 17.6975C96.4886 17.6975 96.995 17.7269 97.5381 17.7856C98.0812 17.8443 98.5582 17.9251 98.9692 18.0278V26.3502C98.5289 26.2181 97.9197 26.1007 97.1418 25.998C96.3639 25.8952 95.652 25.8439 95.0062 25.8439C93.6264 25.8439 92.3935 26.1447 91.3073 26.7465C90.2358 27.3337 89.3845 28.1556 88.7533 29.2125C88.1368 30.2693 87.8286 31.4876 87.8286 32.8673V52.0001H78.4493ZM111.958 32.449V52.0001H102.578V18.1819H111.518V24.1485H111.914C112.662 22.1817 113.917 20.6258 115.679 19.4809C117.44 18.3214 119.576 17.7416 122.086 17.7416C124.434 17.7416 126.482 18.2553 128.228 19.2828C129.975 20.3102 131.333 21.778 132.302 23.6862C133.27 25.5796 133.755 27.8401 133.755 30.4674V52.0001H124.375V32.1407C124.39 30.0711 123.862 28.4565 122.79 27.297C121.719 26.1227 120.244 25.5356 118.365 25.5356C117.102 25.5356 115.987 25.8072 115.018 26.3502C114.064 26.8933 113.316 27.6859 112.772 28.7281C112.244 29.7555 111.973 30.9958 111.958 32.449Z" fill="#8824AF"/>
<path d="M7.17773 52.0001V6.90918H37.5613V14.7693H16.7111V25.5136H35.9981V33.3737H16.7111V44.14H37.6493V52.0001H7.17773ZM53.368 52.6386C51.2103 52.6386 49.2875 52.2643 47.5995 51.5157C45.9115 50.7525 44.5758 49.6296 43.5924 48.1471C42.6236 46.65 42.1393 44.7858 42.1393 42.5548C42.1393 40.676 42.4842 39.0981 43.1741 37.8211C43.8639 36.5441 44.8033 35.5167 45.9923 34.7387C47.1812 33.9608 48.5316 33.3737 50.0434 32.9774C51.5699 32.5811 53.1698 32.3022 54.8431 32.1407C56.81 31.9352 58.3952 31.7444 59.5988 31.5683C60.8024 31.3775 61.6757 31.0986 62.2188 30.7316C62.7619 30.3647 63.0334 29.8216 63.0334 29.1024V28.9703C63.0334 27.5759 62.5931 26.497 61.7124 25.7338C60.8464 24.9705 59.6135 24.5889 58.0136 24.5889C56.3256 24.5889 54.9825 24.9632 53.9844 25.7117C52.9863 26.4456 52.3258 27.3704 52.0029 28.4859L43.3282 27.7813C43.7685 25.7264 44.6345 23.9504 45.9262 22.4532C47.2179 20.9414 48.8838 19.7818 50.9241 18.9745C52.979 18.1526 55.3568 17.7416 58.0576 17.7416C59.9364 17.7416 61.7344 17.9617 63.4518 18.4021C65.1838 18.8424 66.7176 19.525 68.0533 20.4497C69.4037 21.3744 70.4679 22.5633 71.2458 24.0164C72.0237 25.4549 72.4127 27.1795 72.4127 29.1904V52.0001H63.5178V47.3105H63.2536C62.7105 48.3673 61.984 49.2993 61.0739 50.1066C60.1639 50.8992 59.0704 51.5231 57.7934 51.9781C56.5164 52.4184 55.0413 52.6386 53.368 52.6386ZM56.054 46.1656C57.4338 46.1656 58.6521 45.894 59.7089 45.351C60.7657 44.7932 61.595 44.0446 62.1968 43.1052C62.7986 42.1658 63.0995 41.1017 63.0995 39.9127V36.324C62.8059 36.5148 62.4023 36.6909 61.8886 36.8524C61.3895 36.9992 60.8244 37.1386 60.1933 37.2707C59.5621 37.3881 58.9309 37.4982 58.2998 37.601C57.6686 37.689 57.0962 37.7697 56.5825 37.8431C55.4816 38.0046 54.5202 38.2615 53.6982 38.6137C52.8763 38.966 52.2378 39.443 51.7827 40.0448C51.3277 40.632 51.1002 41.3659 51.1002 42.2465C51.1002 43.5235 51.5626 44.4996 52.4873 45.1748C53.4267 45.8353 54.6156 46.1656 56.054 46.1656ZM78.4493 52.0001V18.1819H87.5424V24.0825H87.8947C88.5111 21.9835 89.5459 20.3983 90.9991 19.3268C92.4522 18.2406 94.1255 17.6975 96.0189 17.6975C96.4886 17.6975 96.995 17.7269 97.5381 17.7856C98.0812 17.8443 98.5582 17.9251 98.9692 18.0278V26.3502C98.5289 26.2181 97.9197 26.1007 97.1418 25.998C96.3639 25.8952 95.652 25.8439 95.0062 25.8439C93.6264 25.8439 92.3935 26.1447 91.3073 26.7465C90.2358 27.3337 89.3845 28.1556 88.7533 29.2125C88.1368 30.2693 87.8286 31.4876 87.8286 32.8673V52.0001H78.4493ZM111.958 32.449V52.0001H102.578V18.1819H111.518V24.1485H111.914C112.662 22.1817 113.917 20.6258 115.679 19.4809C117.44 18.3214 119.576 17.7416 122.086 17.7416C124.434 17.7416 126.482 18.2553 128.228 19.2828C129.975 20.3102 131.333 21.778 132.302 23.6862C133.27 25.5796 133.755 27.8401 133.755 30.4674V52.0001H124.375V32.1407C124.39 30.0711 123.862 28.4565 122.79 27.297C121.719 26.1227 120.244 25.5356 118.365 25.5356C117.102 25.5356 115.987 25.8072 115.018 26.3502C114.064 26.8933 113.316 27.6859 112.772 28.7281C112.244 29.7555 111.973 30.9958 111.958 32.449Z" fill="white" fill-opacity="0.2"/>
<path d="M7.17773 52.0001V6.90918H37.5613V14.7693H16.7111V25.5136H35.9981V33.3737H16.7111V44.14H37.6493V52.0001H7.17773ZM53.368 52.6386C51.2103 52.6386 49.2875 52.2643 47.5995 51.5157C45.9115 50.7525 44.5758 49.6296 43.5924 48.1471C42.6236 46.65 42.1393 44.7858 42.1393 42.5548C42.1393 40.676 42.4842 39.0981 43.1741 37.8211C43.8639 36.5441 44.8033 35.5167 45.9923 34.7387C47.1812 33.9608 48.5316 33.3737 50.0434 32.9774C51.5699 32.5811 53.1698 32.3022 54.8431 32.1407C56.81 31.9352 58.3952 31.7444 59.5988 31.5683C60.8024 31.3775 61.6757 31.0986 62.2188 30.7316C62.7619 30.3647 63.0334 29.8216 63.0334 29.1024V28.9703C63.0334 27.5759 62.5931 26.497 61.7124 25.7338C60.8464 24.9705 59.6135 24.5889 58.0136 24.5889C56.3256 24.5889 54.9825 24.9632 53.9844 25.7117C52.9863 26.4456 52.3258 27.3704 52.0029 28.4859L43.3282 27.7813C43.7685 25.7264 44.6345 23.9504 45.9262 22.4532C47.2179 20.9414 48.8838 19.7818 50.9241 18.9745C52.979 18.1526 55.3568 17.7416 58.0576 17.7416C59.9364 17.7416 61.7344 17.9617 63.4518 18.4021C65.1838 18.8424 66.7176 19.525 68.0533 20.4497C69.4037 21.3744 70.4679 22.5633 71.2458 24.0164C72.0237 25.4549 72.4127 27.1795 72.4127 29.1904V52.0001H63.5178V47.3105H63.2536C62.7105 48.3673 61.984 49.2993 61.0739 50.1066C60.1639 50.8992 59.0704 51.5231 57.7934 51.9781C56.5164 52.4184 55.0413 52.6386 53.368 52.6386ZM56.054 46.1656C57.4338 46.1656 58.6521 45.894 59.7089 45.351C60.7657 44.7932 61.595 44.0446 62.1968 43.1052C62.7986 42.1658 63.0995 41.1017 63.0995 39.9127V36.324C62.8059 36.5148 62.4023 36.6909 61.8886 36.8524C61.3895 36.9992 60.8244 37.1386 60.1933 37.2707C59.5621 37.3881 58.9309 37.4982 58.2998 37.601C57.6686 37.689 57.0962 37.7697 56.5825 37.8431C55.4816 38.0046 54.5202 38.2615 53.6982 38.6137C52.8763 38.966 52.2378 39.443 51.7827 40.0448C51.3277 40.632 51.1002 41.3659 51.1002 42.2465C51.1002 43.5235 51.5626 44.4996 52.4873 45.1748C53.4267 45.8353 54.6156 46.1656 56.054 46.1656ZM78.4493 52.0001V18.1819H87.5424V24.0825H87.8947C88.5111 21.9835 89.5459 20.3983 90.9991 19.3268C92.4522 18.2406 94.1255 17.6975 96.0189 17.6975C96.4886 17.6975 96.995 17.7269 97.5381 17.7856C98.0812 17.8443 98.5582 17.9251 98.9692 18.0278V26.3502C98.5289 26.2181 97.9197 26.1007 97.1418 25.998C96.3639 25.8952 95.652 25.8439 95.0062 25.8439C93.6264 25.8439 92.3935 26.1447 91.3073 26.7465C90.2358 27.3337 89.3845 28.1556 88.7533 29.2125C88.1368 30.2693 87.8286 31.4876 87.8286 32.8673V52.0001H78.4493ZM111.958 32.449V52.0001H102.578V18.1819H111.518V24.1485H111.914C112.662 22.1817 113.917 20.6258 115.679 19.4809C117.44 18.3214 119.576 17.7416 122.086 17.7416C124.434 17.7416 126.482 18.2553 128.228 19.2828C129.975 20.3102 131.333 21.778 132.302 23.6862C133.27 25.5796 133.755 27.8401 133.755 30.4674V52.0001H124.375V32.1407C124.39 30.0711 123.862 28.4565 122.79 27.297C121.719 26.1227 120.244 25.5356 118.365 25.5356C117.102 25.5356 115.987 25.8072 115.018 26.3502C114.064 26.8933 113.316 27.6859 112.772 28.7281C112.244 29.7555 111.973 30.9958 111.958 32.449Z" fill="#8824AF"/>
<path d="M7.17773 52.0001V6.90918H37.5613V14.7693H16.7111V25.5136H35.9981V33.3737H16.7111V44.14H37.6493V52.0001H7.17773ZM53.368 52.6386C51.2103 52.6386 49.2875 52.2643 47.5995 51.5157C45.9115 50.7525 44.5758 49.6296 43.5924 48.1471C42.6236 46.65 42.1393 44.7858 42.1393 42.5548C42.1393 40.676 42.4842 39.0981 43.1741 37.8211C43.8639 36.5441 44.8033 35.5167 45.9923 34.7387C47.1812 33.9608 48.5316 33.3737 50.0434 32.9774C51.5699 32.5811 53.1698 32.3022 54.8431 32.1407C56.81 31.9352 58.3952 31.7444 59.5988 31.5683C60.8024 31.3775 61.6757 31.0986 62.2188 30.7316C62.7619 30.3647 63.0334 29.8216 63.0334 29.1024V28.9703C63.0334 27.5759 62.5931 26.497 61.7124 25.7338C60.8464 24.9705 59.6135 24.5889 58.0136 24.5889C56.3256 24.5889 54.9825 24.9632 53.9844 25.7117C52.9863 26.4456 52.3258 27.3704 52.0029 28.4859L43.3282 27.7813C43.7685 25.7264 44.6345 23.9504 45.9262 22.4532C47.2179 20.9414 48.8838 19.7818 50.9241 18.9745C52.979 18.1526 55.3568 17.7416 58.0576 17.7416C59.9364 17.7416 61.7344 17.9617 63.4518 18.4021C65.1838 18.8424 66.7176 19.525 68.0533 20.4497C69.4037 21.3744 70.4679 22.5633 71.2458 24.0164C72.0237 25.4549 72.4127 27.1795 72.4127 29.1904V52.0001H63.5178V47.3105H63.2536C62.7105 48.3673 61.984 49.2993 61.0739 50.1066C60.1639 50.8992 59.0704 51.5231 57.7934 51.9781C56.5164 52.4184 55.0413 52.6386 53.368 52.6386ZM56.054 46.1656C57.4338 46.1656 58.6521 45.894 59.7089 45.351C60.7657 44.7932 61.595 44.0446 62.1968 43.1052C62.7986 42.1658 63.0995 41.1017 63.0995 39.9127V36.324C62.8059 36.5148 62.4023 36.6909 61.8886 36.8524C61.3895 36.9992 60.8244 37.1386 60.1933 37.2707C59.5621 37.3881 58.9309 37.4982 58.2998 37.601C57.6686 37.689 57.0962 37.7697 56.5825 37.8431C55.4816 38.0046 54.5202 38.2615 53.6982 38.6137C52.8763 38.966 52.2378 39.443 51.7827 40.0448C51.3277 40.632 51.1002 41.3659 51.1002 42.2465C51.1002 43.5235 51.5626 44.4996 52.4873 45.1748C53.4267 45.8353 54.6156 46.1656 56.054 46.1656ZM78.4493 52.0001V18.1819H87.5424V24.0825H87.8947C88.5111 21.9835 89.5459 20.3983 90.9991 19.3268C92.4522 18.2406 94.1255 17.6975 96.0189 17.6975C96.4886 17.6975 96.995 17.7269 97.5381 17.7856C98.0812 17.8443 98.5582 17.9251 98.9692 18.0278V26.3502C98.5289 26.2181 97.9197 26.1007 97.1418 25.998C96.3639 25.8952 95.652 25.8439 95.0062 25.8439C93.6264 25.8439 92.3935 26.1447 91.3073 26.7465C90.2358 27.3337 89.3845 28.1556 88.7533 29.2125C88.1368 30.2693 87.8286 31.4876 87.8286 32.8673V52.0001H78.4493ZM111.958 32.449V52.0001H102.578V18.1819H111.518V24.1485H111.914C112.662 22.1817 113.917 20.6258 115.679 19.4809C117.44 18.3214 119.576 17.7416 122.086 17.7416C124.434 17.7416 126.482 18.2553 128.228 19.2828C129.975 20.3102 131.333 21.778 132.302 23.6862C133.27 25.5796 133.755 27.8401 133.755 30.4674V52.0001H124.375V32.1407C124.39 30.0711 123.862 28.4565 122.79 27.297C121.719 26.1227 120.244 25.5356 118.365 25.5356C117.102 25.5356 115.987 25.8072 115.018 26.3502C114.064 26.8933 113.316 27.6859 112.772 28.7281C112.244 29.7555 111.973 30.9958 111.958 32.449Z" fill="#1CBEC0"/>
<mask id="mask0_405_276" style="mask-type:luminance" maskUnits="userSpaceOnUse" x="-1" y="-1" width="143" height="61">
<path d="M141.258 -1H-0.742188V60H141.258V-1Z" fill="white"/>
<path d="M7.17773 52.0001V6.90918H37.5613V14.7693H16.7111V25.5136H35.9981V33.3737H16.7111V44.14H37.6493V52.0001H7.17773ZM53.368 52.6386C51.2103 52.6386 49.2875 52.2643 47.5995 51.5157C45.9115 50.7525 44.5758 49.6296 43.5924 48.1471C42.6236 46.65 42.1393 44.7858 42.1393 42.5548C42.1393 40.676 42.4842 39.0981 43.1741 37.8211C43.8639 36.5441 44.8033 35.5167 45.9923 34.7387C47.1812 33.9608 48.5316 33.3737 50.0434 32.9774C51.5699 32.5811 53.1698 32.3022 54.8431 32.1407C56.81 31.9352 58.3952 31.7444 59.5988 31.5683C60.8024 31.3775 61.6757 31.0986 62.2188 30.7316C62.7619 30.3647 63.0334 29.8216 63.0334 29.1024V28.9703C63.0334 27.5759 62.5931 26.497 61.7124 25.7338C60.8464 24.9705 59.6135 24.5889 58.0136 24.5889C56.3256 24.5889 54.9825 24.9632 53.9844 25.7117C52.9863 26.4456 52.3258 27.3704 52.0029 28.4859L43.3282 27.7813C43.7685 25.7264 44.6345 23.9504 45.9262 22.4532C47.2179 20.9414 48.8838 19.7818 50.9241 18.9745C52.979 18.1526 55.3568 17.7416 58.0576 17.7416C59.9364 17.7416 61.7344 17.9617 63.4518 18.4021C65.1838 18.8424 66.7176 19.525 68.0533 20.4497C69.4037 21.3744 70.4679 22.5633 71.2458 24.0164C72.0237 25.4549 72.4127 27.1795 72.4127 29.1904V52.0001H63.5178V47.3105H63.2536C62.7105 48.3673 61.984 49.2993 61.0739 50.1066C60.1639 50.8992 59.0704 51.5231 57.7934 51.9781C56.5164 52.4184 55.0413 52.6386 53.368 52.6386ZM56.054 46.1656C57.4338 46.1656 58.6521 45.894 59.7089 45.351C60.7657 44.7932 61.595 44.0446 62.1968 43.1052C62.7986 42.1658 63.0995 41.1017 63.0995 39.9127V36.324C62.8059 36.5148 62.4023 36.6909 61.8886 36.8524C61.3895 36.9992 60.8244 37.1386 60.1933 37.2707C59.5621 37.3881 58.9309 37.4982 58.2998 37.601C57.6686 37.689 57.0962 37.7697 56.5825 37.8431C55.4816 38.0046 54.5202 38.2615 53.6982 38.6137C52.8763 38.966 52.2378 39.443 51.7827 40.0448C51.3277 40.632 51.1002 41.3659 51.1002 42.2465C51.1002 43.5235 51.5626 44.4996 52.4873 45.1748C53.4267 45.8353 54.6156 46.1656 56.054 46.1656ZM78.4493 52.0001V18.1819H87.5424V24.0825H87.8947C88.5111 21.9835 89.5459 20.3983 90.9991 19.3268C92.4522 18.2406 94.1255 17.6975 96.0189 17.6975C96.4886 17.6975 96.995 17.7269 97.5381 17.7856C98.0812 17.8443 98.5582 17.9251 98.9692 18.0278V26.3502C98.5289 26.2181 97.9197 26.1007 97.1418 25.998C96.3639 25.8952 95.652 25.8439 95.0062 25.8439C93.6264 25.8439 92.3935 26.1447 91.3073 26.7465C90.2358 27.3337 89.3845 28.1556 88.7533 29.2125C88.1368 30.2693 87.8286 31.4876 87.8286 32.8673V52.0001H78.4493ZM111.958 32.449V52.0001H102.578V18.1819H111.518V24.1485H111.914C112.662 22.1817 113.917 20.6258 115.679 19.4809C117.44 18.3214 119.576 17.7416 122.086 17.7416C124.434 17.7416 126.482 18.2553 128.228 19.2828C129.975 20.3102 131.333 21.778 132.302 23.6862C133.27 25.5796 133.755 27.8401 133.755 30.4674V52.0001H124.375V32.1407C124.39 30.0711 123.862 28.4565 122.79 27.297C121.719 26.1227 120.244 25.5356 118.365 25.5356C117.102 25.5356 115.987 25.8072 115.018 26.3502C114.064 26.8933 113.316 27.6859 112.772 28.7281C112.244 29.7555 111.973 30.9958 111.958 32.449Z" fill="black"/>
</mask>
<g mask="url(#mask0_405_276)">
<path d="M7.17773 52.0001H0.177734V59.0001H7.17773V52.0001ZM7.17773 6.90918V-0.0908203H0.177734V6.90918H7.17773ZM37.5613 6.90918H44.5613V-0.0908203H37.5613V6.90918ZM37.5613 14.7693V21.7693H44.5613V14.7693H37.5613ZM16.7111 14.7693V7.76926H9.71111V14.7693H16.7111ZM16.7111 25.5136H9.71111V32.5136H16.7111V25.5136ZM35.9981 25.5136H42.9981V18.5136H35.9981V25.5136ZM35.9981 33.3737V40.3737H42.9981V33.3737H35.9981ZM16.7111 33.3737V26.3737H9.71111V33.3737H16.7111ZM16.7111 44.14H9.71111V51.14H16.7111V44.14ZM37.6493 44.14H44.6493V37.14H37.6493V44.14ZM37.6493 52.0001V59.0001H44.6493V52.0001H37.6493ZM14.1777 52.0001V6.90918H0.177734V52.0001H14.1777ZM7.17773 13.9092H37.5613V-0.0908203H7.17773V13.9092ZM30.5613 6.90918V14.7693H44.5613V6.90918H30.5613ZM37.5613 7.76926H16.7111V21.7693H37.5613V7.76926ZM9.71111 14.7693V25.5136H23.7111V14.7693H9.71111ZM16.7111 32.5136H35.9981V18.5136H16.7111V32.5136ZM28.9981 25.5136V33.3737H42.9981V25.5136H28.9981ZM35.9981 26.3737H16.7111V40.3737H35.9981V26.3737ZM9.71111 33.3737V44.14H23.7111V33.3737H9.71111ZM16.7111 51.14H37.6493V37.14H16.7111V51.14ZM30.6493 44.14V52.0001H44.6493V44.14H30.6493ZM37.6493 45.0001H7.17773V59.0001H37.6493V45.0001ZM47.5995 51.5157L44.7154 57.894L44.7385 57.9044L44.7617 57.9147L47.5995 51.5157ZM43.5924 48.1471L37.7154 51.9499L37.7371 51.9834L37.7592 52.0167L43.5924 48.1471ZM50.0434 32.9774L48.2844 26.202L48.2764 26.2041L48.2684 26.2061L50.0434 32.9774ZM54.8431 32.1407L55.5154 39.1084L55.543 39.1057L55.5705 39.1028L54.8431 32.1407ZM59.5988 31.5683L60.6124 38.4945L60.6537 38.4885L60.6949 38.4819L59.5988 31.5683ZM61.7124 25.7338L57.084 30.9852L57.1059 31.0045L57.1279 31.0236L61.7124 25.7338ZM53.9844 25.7117L58.1312 31.3513L58.1579 31.3317L58.1844 31.3117L53.9844 25.7117ZM52.0029 28.4859L51.4362 35.4629L57.1366 35.9259L58.7269 30.4323L52.0029 28.4859ZM43.3282 27.7813L36.4836 26.3146L34.8125 34.1128L42.7615 34.7584L43.3282 27.7813ZM45.9262 22.4532L51.2263 27.0259L51.2373 27.0131L51.2483 27.0002L45.9262 22.4532ZM50.9241 18.9745L53.4996 25.4835L53.5117 25.4787L53.5238 25.4739L50.9241 18.9745ZM63.4518 18.4021L61.7131 25.1827L61.7201 25.1845L61.727 25.1863L63.4518 18.4021ZM68.0533 20.4497L64.0689 26.205L64.0836 26.2152L64.0983 26.2253L68.0533 20.4497ZM71.2458 24.0164L65.0745 27.3203L65.0815 27.3333L65.0886 27.3464L71.2458 24.0164ZM72.4127 52.0001V59.0001H79.4127V52.0001H72.4127ZM63.5178 52.0001H56.5178V59.0001H63.5178V52.0001ZM63.5178 47.3105H70.5178V40.3105H63.5178V47.3105ZM63.2536 47.3105V40.3105H58.9806L57.0276 44.111L63.2536 47.3105ZM61.0739 50.1066L65.6714 55.3852L65.6954 55.3643L65.7192 55.3432L61.0739 50.1066ZM57.7934 51.9781L60.0753 58.5957L60.1092 58.584L60.1429 58.572L57.7934 51.9781ZM59.7089 45.351L62.9084 51.577L62.9424 51.5595L62.9762 51.5416L59.7089 45.351ZM63.0995 36.324H70.0995V23.4252L59.2846 30.4549L63.0995 36.324ZM61.8886 36.8524L63.8637 43.5679L63.9257 43.5497L63.9874 43.5303L61.8886 36.8524ZM60.1933 37.2707L61.4736 44.1526L61.5506 44.1383L61.6273 44.1222L60.1933 37.2707ZM58.2998 37.601L59.2672 44.5338L59.346 44.5228L59.4245 44.51L58.2998 37.601ZM56.5825 37.8431L55.5925 30.9135L55.5796 30.9153L55.5667 30.9172L56.5825 37.8431ZM51.7827 40.0448L57.3156 44.3329L57.3412 44.2999L57.3664 44.2666L51.7827 40.0448ZM52.4873 45.1748L48.3594 50.8282L48.4099 50.8651L48.461 50.901L52.4873 45.1748ZM53.368 45.6386C52.0247 45.6386 51.0937 45.4079 50.4373 45.1168L44.7617 57.9147C47.4812 59.1207 50.3959 59.6386 53.368 59.6386V45.6386ZM50.4836 45.1375C49.9429 44.893 49.6505 44.6165 49.4256 44.2776L37.7592 52.0167C39.5012 54.6427 41.8802 56.6119 44.7154 57.894L50.4836 45.1375ZM49.4694 44.3444C49.398 44.2341 49.1393 43.7748 49.1393 42.5548H35.1393C35.1393 45.7969 35.8493 49.0658 37.7154 51.9499L49.4694 44.3444ZM49.1393 42.5548C49.1393 42.0387 49.1871 41.6832 49.2365 41.4572C49.2847 41.2366 49.3318 41.1501 49.3328 41.1483L37.0153 34.494C35.6344 37.0501 35.1393 39.8466 35.1393 42.5548H49.1393ZM49.3328 41.1483C49.4821 40.872 49.6312 40.723 49.825 40.5962L42.1596 28.8812C39.9754 30.3104 38.2458 32.2163 37.0153 34.494L49.3328 41.1483ZM49.825 40.5962C50.3218 40.2711 50.9646 39.9724 51.8184 39.7486L48.2684 26.2061C46.0985 26.775 44.0405 27.6505 42.1596 28.8812L49.825 40.5962ZM51.8024 39.7528C52.9498 39.4549 54.185 39.2367 55.5154 39.1084L54.1708 25.1731C52.1547 25.3676 50.19 25.7073 48.2844 26.202L51.8024 39.7528ZM55.5705 39.1028C57.582 38.8927 59.2737 38.6904 60.6124 38.4945L58.5852 24.6421C57.5167 24.7984 56.038 24.9778 54.1157 25.1786L55.5705 39.1028ZM60.6949 38.4819C62.1865 38.2455 64.2982 37.7747 66.1378 36.5318L58.2998 24.9315C58.5391 24.7698 58.7326 24.6727 58.8455 24.6212C58.9601 24.5689 59.0265 24.5479 59.0271 24.5477C59.0292 24.5471 58.9884 24.5601 58.8955 24.5811C58.8036 24.6019 58.6744 24.6274 58.5027 24.6546L60.6949 38.4819ZM66.1378 36.5318C68.8182 34.7207 70.0334 31.8802 70.0334 29.1024H56.0335C56.0335 28.5745 56.1367 27.7828 56.5688 26.9186C57.0136 26.0289 57.6558 25.3666 58.2998 24.9315L66.1378 36.5318ZM70.0334 29.1024V28.9703H56.0335V29.1024H70.0334ZM70.0334 28.9703C70.0334 25.9833 69.0141 22.7988 66.2969 20.4439L57.1279 31.0236C56.7373 30.685 56.4178 30.2396 56.2223 29.7606C56.0393 29.3125 56.0335 29.0056 56.0335 28.9703H70.0334ZM66.3408 20.4823C63.7766 18.2223 60.6599 17.5889 58.0136 17.5889V31.5889C58.2727 31.5889 58.2603 31.6215 58.0684 31.5621C57.8522 31.4952 57.4761 31.3308 57.084 30.9852L66.3408 20.4823ZM58.0136 17.5889C55.3391 17.5889 52.3578 18.1817 49.7844 20.1117L58.1844 31.3117C58.0527 31.4105 57.9288 31.4822 57.8249 31.5321C57.7222 31.5813 57.6495 31.6043 57.6195 31.6126C57.5666 31.6274 57.6761 31.5889 58.0136 31.5889V17.5889ZM49.8377 20.0722C47.6858 21.6545 46.0603 23.8404 45.279 26.5395L58.7269 30.4323C58.6731 30.618 58.5767 30.8283 58.4366 31.0244C58.2997 31.2161 58.1748 31.3192 58.1312 31.3513L49.8377 20.0722ZM52.5696 21.5089L43.8949 20.8043L42.7615 34.7584L51.4362 35.4629L52.5696 21.5089ZM50.1728 29.2481C50.383 28.2671 50.7502 27.5777 51.2263 27.0259L40.6261 17.8806C38.5189 20.323 37.1541 23.1857 36.4836 26.3146L50.1728 29.2481ZM51.2483 27.0002C51.7237 26.4438 52.4093 25.9149 53.4996 25.4835L48.3486 12.4655C45.3584 13.6487 42.712 15.439 40.6041 17.9062L51.2483 27.0002ZM53.5238 25.4739C54.5917 25.0467 56.0568 24.7416 58.0576 24.7416V10.7416C54.6569 10.7416 51.3663 11.2584 48.3243 12.4752L53.5238 25.4739ZM58.0576 24.7416C59.3849 24.7416 60.5967 24.8965 61.7131 25.1827L65.1904 11.6214C62.8721 11.027 60.4879 10.7416 58.0576 10.7416V24.7416ZM61.727 25.1863C62.7313 25.4416 63.4844 25.8004 64.0689 26.205L72.0378 14.6943C69.9509 13.2495 67.6363 12.2432 65.1766 11.6179L61.727 25.1863ZM64.0983 26.2253C64.5156 26.511 64.8225 26.8495 65.0745 27.3203L77.4171 20.7126C76.1132 18.2771 74.2918 16.2377 72.0084 14.674L64.0983 26.2253ZM65.0886 27.3464C65.2002 27.5527 65.4127 28.0785 65.4127 29.1904H79.4127C79.4127 26.2806 78.8473 23.357 77.403 20.6865L65.0886 27.3464ZM65.4127 29.1904V52.0001H79.4127V29.1904H65.4127ZM72.4127 45.0001H63.5178V59.0001H72.4127V45.0001ZM70.5178 52.0001V47.3105H56.5178V52.0001H70.5178ZM63.5178 40.3105H63.2536V54.3105H63.5178V40.3105ZM57.0276 44.111C56.8903 44.3782 56.7059 44.6241 56.4286 44.8701L65.7192 55.3432C67.262 53.9746 68.5308 52.3563 69.4796 50.51L57.0276 44.111ZM56.4765 44.8281C56.3033 44.9789 55.9971 45.187 55.4438 45.3842L60.1429 58.572C62.1437 57.8591 64.0245 56.8196 65.6714 55.3852L56.4765 44.8281ZM55.5115 45.3605C55.12 45.4955 54.4428 45.6386 53.368 45.6386V59.6386C55.6397 59.6386 57.9128 59.3414 60.0753 58.5957L55.5115 45.3605ZM56.054 53.1656C58.3669 53.1656 60.7134 52.7049 62.9084 51.577L56.5094 39.1249C56.5379 39.1103 56.5358 39.1171 56.4797 39.1296C56.4198 39.1429 56.2847 39.1656 56.054 39.1656V53.1656ZM62.9762 51.5416C65.0239 50.4609 66.7906 48.9112 68.091 46.8812L56.3026 39.3292C56.3384 39.2733 56.3857 39.2178 56.4331 39.175C56.4786 39.134 56.4917 39.1338 56.4416 39.1603L62.9762 51.5416ZM68.091 46.8812C69.4629 44.7397 70.0995 42.3481 70.0995 39.9127H56.0995C56.0995 39.9142 56.0994 39.8937 56.1047 39.8544C56.11 39.8148 56.12 39.7614 56.1379 39.6979C56.1763 39.5624 56.2358 39.4334 56.3026 39.3292L68.091 46.8812ZM70.0995 39.9127V36.324H56.0995V39.9127H70.0995ZM59.2846 30.4549C59.5305 30.295 59.7116 30.212 59.777 30.1834C59.8476 30.1526 59.8588 30.1527 59.7898 30.1744L63.9874 43.5303C64.8191 43.2689 65.8835 42.8632 66.9144 42.1931L59.2846 30.4549ZM59.9134 30.1368C59.629 30.2205 59.2494 30.3166 58.7592 30.4192L61.6273 44.1222C62.3995 43.9606 63.15 43.7779 63.8637 43.5679L59.9134 30.1368ZM58.9129 30.3888C58.3333 30.4966 57.754 30.5976 57.1751 30.6919L59.4245 44.51C60.1078 44.3988 60.7909 44.2796 61.4736 44.1526L58.9129 30.3888ZM57.3324 30.6681C56.6953 30.757 56.1152 30.8388 55.5925 30.9135L57.5724 44.7728C58.0771 44.7007 58.6419 44.621 59.2672 44.5338L57.3324 30.6681ZM55.5667 30.9172C54.0057 31.1462 52.4356 31.5391 50.9408 32.1797L56.4557 45.0478C56.6048 44.9838 56.9575 44.863 57.5983 44.769L55.5667 30.9172ZM50.9408 32.1797C49.2085 32.9221 47.5133 34.0849 46.1991 35.8231L57.3664 44.2666C56.9622 44.8012 56.544 45.0099 56.4557 45.0478L50.9408 32.1797ZM46.2498 35.7568C44.6758 37.7879 44.1002 40.1121 44.1002 42.2465H58.1002C58.1002 42.4083 58.0791 42.7142 57.9569 43.1083C57.8309 43.5149 57.6199 43.9403 57.3156 44.3329L46.2498 35.7568ZM44.1002 42.2465C44.1002 45.4608 45.4021 48.6689 48.3594 50.8282L56.6151 39.5214C57.0371 39.8295 57.4744 40.3092 57.7731 40.9398C58.0594 41.544 58.1002 42.0358 58.1002 42.2465H44.1002ZM48.461 50.901C50.8474 52.5789 53.5409 53.1656 56.054 53.1656V39.1656C55.866 39.1656 55.8504 39.1436 55.957 39.1733C56.0754 39.2062 56.2819 39.2858 56.5135 39.4486L48.461 50.901ZM78.4493 52.0001H71.4493V59.0001H78.4493V52.0001ZM78.4493 18.1819V11.1819H71.4493V18.1819H78.4493ZM87.5424 18.1819H94.5424V11.1819H87.5424V18.1819ZM87.5424 24.0825H80.5424V31.0825H87.5424V24.0825ZM87.8947 24.0825V31.0825H93.1344L94.611 26.0551L87.8947 24.0825ZM90.9991 19.3268L95.1534 24.9608L95.1717 24.9472L95.19 24.9336L90.9991 19.3268ZM98.9692 18.0278H105.969V12.5623L100.667 11.2368L98.9692 18.0278ZM98.9692 26.3502L96.9578 33.055L105.969 35.7585V26.3502H98.9692ZM91.3073 26.7465L94.671 32.8854L94.6854 32.8775L94.6998 32.8695L91.3073 26.7465ZM88.7533 29.2125L82.7435 25.6233L82.725 25.6542L82.7069 25.6854L88.7533 29.2125ZM87.8286 52.0001V59.0001H94.8286V52.0001H87.8286ZM85.4493 52.0001V18.1819H71.4493V52.0001H85.4493ZM78.4493 25.1819H87.5424V11.1819H78.4493V25.1819ZM80.5424 18.1819V24.0825H94.5424V18.1819H80.5424ZM87.5424 31.0825H87.8947V17.0825H87.5424V31.0825ZM94.611 26.0551C94.7557 25.5622 94.9042 25.2845 94.9948 25.1457C95.0779 25.0183 95.1315 24.9769 95.1534 24.9608L86.8447 13.6928C83.9174 15.8514 82.1322 18.8623 81.1783 22.1099L94.611 26.0551ZM95.19 24.9336C95.3777 24.7933 95.5656 24.6975 96.0189 24.6975V10.6975C92.6854 10.6975 89.5267 11.688 86.8081 13.72L95.19 24.9336ZM96.0189 24.6975C96.2008 24.6975 96.4534 24.7091 96.7858 24.7451L98.2905 10.8261C97.5367 10.7447 96.7765 10.6975 96.0189 10.6975V24.6975ZM96.7858 24.7451C97.0963 24.7786 97.2453 24.8123 97.2715 24.8188L100.667 11.2368C99.8712 11.0379 99.0662 10.91 98.2905 10.8261L96.7858 24.7451ZM91.9692 18.0278V26.3502H105.969V18.0278H91.9692ZM100.981 19.6455C100.019 19.3569 98.9871 19.1809 98.0584 19.0582L96.2252 32.9377C96.5113 32.9755 96.7179 33.0097 96.8571 33.0365C97.0043 33.0649 97.0257 33.0754 96.9578 33.055L100.981 19.6455ZM98.0584 19.0582C97.0386 18.9236 96.0153 18.8439 95.0062 18.8439V32.8439C95.2887 32.8439 95.6891 32.8669 96.2252 32.9377L98.0584 19.0582ZM95.0062 18.8439C92.5742 18.8439 90.1509 19.3846 87.9148 20.6235L94.6998 32.8695C94.686 32.8772 94.6815 32.876 94.7063 32.8699C94.7346 32.863 94.8273 32.8439 95.0062 32.8439V18.8439ZM87.9436 20.6077C85.7701 21.7986 84.0089 23.5045 82.7435 25.6233L94.7631 32.8016C94.7702 32.7899 94.7707 32.7906 94.7632 32.8C94.7557 32.8096 94.7436 32.8235 94.7273 32.8392C94.7111 32.8549 94.6954 32.8677 94.6826 32.8771C94.67 32.8864 94.6649 32.8887 94.671 32.8854L87.9436 20.6077ZM82.7069 25.6854C81.3892 27.9442 80.8286 30.4097 80.8286 32.8673H94.8286C94.8286 32.7004 94.8469 32.6318 94.8459 32.6358C94.8457 32.6367 94.8423 32.6496 94.8336 32.6711C94.8248 32.6927 94.8133 32.7164 94.7998 32.7396L82.7069 25.6854ZM80.8286 32.8673V52.0001H94.8286V32.8673H80.8286ZM87.8286 45.0001H78.4493V59.0001H87.8286V45.0001ZM111.958 32.449L104.958 32.3783L104.958 32.4136V32.449H111.958ZM111.958 52.0001V59.0001H118.958V52.0001H111.958ZM102.578 52.0001H95.5785V59.0001H102.578V52.0001ZM102.578 18.1819V11.1819H95.5785V18.1819H102.578ZM111.518 18.1819H118.518V11.1819H111.518V18.1819ZM111.518 24.1485H104.517V31.1485H111.518V24.1485ZM111.914 24.1485V31.1485H116.739L118.456 26.6385L111.914 24.1485ZM115.679 19.4809L119.494 25.35L119.511 25.3389L119.528 25.3277L115.679 19.4809ZM132.302 23.6862L126.06 26.855L126.065 26.8648L126.07 26.8745L132.302 23.6862ZM133.755 52.0001V59.0001H140.755V52.0001H133.755ZM124.375 52.0001H117.375V59.0001H124.375V52.0001ZM124.375 32.1407L117.376 32.0911L117.375 32.1159V32.1407H124.375ZM122.79 27.297L117.619 32.0153L117.634 32.0315L117.649 32.0476L122.79 27.297ZM115.018 26.3502L111.595 20.2443L111.575 20.2555L111.555 20.2668L115.018 26.3502ZM112.772 28.7281L106.565 25.4931L106.556 25.5099L106.547 25.5266L112.772 28.7281ZM104.958 32.449V52.0001H118.958V32.449H104.958ZM111.958 45.0001H102.578V59.0001H111.958V45.0001ZM109.579 52.0001V18.1819H95.5785V52.0001H109.579ZM102.578 25.1819H111.518V11.1819H102.578V25.1819ZM104.517 18.1819V24.1485H118.518V18.1819H104.517ZM111.518 31.1485H111.914V17.1485H111.518V31.1485ZM118.456 26.6385C118.678 26.056 118.979 25.6846 119.494 25.35L111.864 13.6118C108.856 15.567 106.647 18.3074 105.371 21.6586L118.456 26.6385ZM119.528 25.3277C119.944 25.0537 120.679 24.7416 122.086 24.7416V10.7416C118.472 10.7416 114.936 11.589 111.83 13.6342L119.528 25.3277ZM122.086 24.7416C123.387 24.7416 124.169 25.0163 124.679 25.3163L131.778 13.2492C128.794 11.4943 125.481 10.7416 122.086 10.7416V24.7416ZM124.679 25.3163C125.207 25.6269 125.661 26.0693 126.06 26.855L138.543 20.5173C137.005 17.4867 134.743 14.9935 131.778 13.2492L124.679 25.3163ZM126.07 26.8745C126.429 27.5757 126.755 28.6924 126.755 30.4674H140.755C140.755 26.9877 140.112 23.5836 138.533 20.4978L126.07 26.8745ZM126.755 30.4674V52.0001H140.755V30.4674H126.755ZM133.755 45.0001H124.375V59.0001H133.755V45.0001ZM131.375 52.0001V32.1407H117.375V52.0001H131.375ZM131.375 32.1904C131.399 28.9116 130.547 25.377 127.931 22.5463L117.649 32.0476C117.559 31.9499 117.485 31.8467 117.428 31.7491C117.373 31.6528 117.346 31.5825 117.337 31.5549C117.322 31.5063 117.379 31.6532 117.376 32.0911L131.375 32.1904ZM127.961 22.5786C125.321 19.6854 121.821 18.5356 118.365 18.5356V32.5356C118.577 32.5356 118.514 32.5682 118.292 32.4797C118.182 32.436 118.056 32.3716 117.929 32.2835C117.802 32.1954 117.698 32.1013 117.619 32.0153L127.961 22.5786ZM118.365 18.5356C116.07 18.5356 113.746 19.0388 111.595 20.2443L118.441 32.4562C118.4 32.4795 118.359 32.4987 118.32 32.5136C118.283 32.5283 118.254 32.5366 118.237 32.5407C118.202 32.5492 118.237 32.5356 118.365 32.5356V18.5356ZM111.555 20.2668C109.348 21.5232 107.684 23.3453 106.565 25.4931L118.98 31.9631C118.976 31.9705 118.933 32.05 118.83 32.1584C118.725 32.2695 118.602 32.3648 118.481 32.4337L111.555 20.2668ZM106.547 25.5266C105.409 27.7405 104.981 30.1094 104.958 32.3783L118.957 32.5197C118.964 31.8823 119.079 31.7706 118.997 31.9295L106.547 25.5266Z" fill="white"/>
</g>
</g>
<defs>
<clipPath id="clip0_405_276">
<rect width="141" height="60" fill="white"/>
</clipPath>
</defs>
</svg>
