<svg width="126" height="72" viewBox="0 0 126 72" fill="none" xmlns="http://www.w3.org/2000/svg">
<g clip-path="url(#clip0_405_286)">
<path d="M7.17773 52.0001V6.90918H25.2317C28.549 6.90918 31.3158 7.40089 33.5321 8.38432C35.7485 9.36775 37.4145 10.7328 38.53 12.4795C39.6456 14.2115 40.2033 16.2077 40.2033 18.4681C40.2033 20.2295 39.851 21.778 39.1465 23.1137C38.442 24.4348 37.4732 25.5209 36.2402 26.3723C35.022 27.2089 33.6276 27.8034 32.057 28.1556V28.596C33.7743 28.6694 35.3816 29.1537 36.8787 30.0491C38.3906 30.9445 39.6162 32.1994 40.5556 33.814C41.495 35.4139 41.9647 37.3221 41.9647 39.5385C41.9647 41.931 41.3702 44.0666 40.1813 45.9454C39.0071 47.8095 37.2677 49.2847 34.9633 50.3708C32.6588 51.457 29.8186 52.0001 26.4427 52.0001H7.17773ZM16.7111 44.2061H24.4831C27.1399 44.2061 29.0774 43.6997 30.2956 42.6869C31.5139 41.6594 32.1231 40.2944 32.1231 38.5917C32.1231 37.3441 31.8222 36.2432 31.2204 35.2892C30.6186 34.3351 29.7599 33.5865 28.6444 33.0434C27.5435 32.5003 26.2298 32.2288 24.7033 32.2288H16.7111V44.2061ZM16.7111 25.7778H23.7786C25.0849 25.7778 26.2445 25.5503 27.2573 25.0953C28.2848 24.6256 29.092 23.9651 29.6792 23.1137C30.281 22.2624 30.5819 21.2423 30.5819 20.0534C30.5819 18.4241 30.0021 17.1104 28.8425 16.1123C27.6976 15.1142 26.0684 14.6151 23.9547 14.6151H16.7111V25.7778ZM68.4386 37.601V18.1819H77.8179V52.0001H68.8129V45.8573H68.4607C67.6974 47.8389 66.4277 49.4314 64.6517 50.635C62.8903 51.8386 60.74 52.4404 58.2007 52.4404C55.9403 52.4404 53.9514 51.9267 52.2341 50.8992C50.5168 49.8718 49.1737 48.4113 48.205 46.5179C47.2509 44.6244 46.7665 42.3566 46.7518 39.7146V18.1819H56.1311V38.0413C56.1458 40.0375 56.6815 41.6154 57.7383 42.775C58.7952 43.9345 60.2116 44.5143 61.9876 44.5143C63.1178 44.5143 64.1747 44.2574 65.1581 43.7437C66.1415 43.2153 66.9341 42.4374 67.5359 41.4099C68.1524 40.3824 68.4533 39.1128 68.4386 37.601ZM89.8707 64.6819C88.6818 64.6819 87.5662 64.5865 86.5241 64.3957C85.4966 64.2196 84.6453 63.9921 83.9701 63.7132L86.0838 56.7117C87.1846 57.0493 88.1754 57.2328 89.0561 57.2622C89.9514 57.2915 90.722 57.086 91.3678 56.6457C92.0284 56.2054 92.5641 55.4568 92.9751 54.4L93.5255 52.9689L81.3941 18.1819H91.2578L98.2592 43.0171H98.6115L105.679 18.1819H115.609L102.464 55.6549C101.833 57.475 100.975 59.0602 99.8884 60.4106C98.8169 61.7757 97.4592 62.8251 95.8153 63.559C94.1713 64.3076 92.1898 64.6819 89.8707 64.6819Z" fill="#8824AF"/>
<path d="M7.17773 52.0001V6.90918H25.2317C28.549 6.90918 31.3158 7.40089 33.5321 8.38432C35.7485 9.36775 37.4145 10.7328 38.53 12.4795C39.6456 14.2115 40.2033 16.2077 40.2033 18.4681C40.2033 20.2295 39.851 21.778 39.1465 23.1137C38.442 24.4348 37.4732 25.5209 36.2402 26.3723C35.022 27.2089 33.6276 27.8034 32.057 28.1556V28.596C33.7743 28.6694 35.3816 29.1537 36.8787 30.0491C38.3906 30.9445 39.6162 32.1994 40.5556 33.814C41.495 35.4139 41.9647 37.3221 41.9647 39.5385C41.9647 41.931 41.3702 44.0666 40.1813 45.9454C39.0071 47.8095 37.2677 49.2847 34.9633 50.3708C32.6588 51.457 29.8186 52.0001 26.4427 52.0001H7.17773ZM16.7111 44.2061H24.4831C27.1399 44.2061 29.0774 43.6997 30.2956 42.6869C31.5139 41.6594 32.1231 40.2944 32.1231 38.5917C32.1231 37.3441 31.8222 36.2432 31.2204 35.2892C30.6186 34.3351 29.7599 33.5865 28.6444 33.0434C27.5435 32.5003 26.2298 32.2288 24.7033 32.2288H16.7111V44.2061ZM16.7111 25.7778H23.7786C25.0849 25.7778 26.2445 25.5503 27.2573 25.0953C28.2848 24.6256 29.092 23.9651 29.6792 23.1137C30.281 22.2624 30.5819 21.2423 30.5819 20.0534C30.5819 18.4241 30.0021 17.1104 28.8425 16.1123C27.6976 15.1142 26.0684 14.6151 23.9547 14.6151H16.7111V25.7778ZM68.4386 37.601V18.1819H77.8179V52.0001H68.8129V45.8573H68.4607C67.6974 47.8389 66.4277 49.4314 64.6517 50.635C62.8903 51.8386 60.74 52.4404 58.2007 52.4404C55.9403 52.4404 53.9514 51.9267 52.2341 50.8992C50.5168 49.8718 49.1737 48.4113 48.205 46.5179C47.2509 44.6244 46.7665 42.3566 46.7518 39.7146V18.1819H56.1311V38.0413C56.1458 40.0375 56.6815 41.6154 57.7383 42.775C58.7952 43.9345 60.2116 44.5143 61.9876 44.5143C63.1178 44.5143 64.1747 44.2574 65.1581 43.7437C66.1415 43.2153 66.9341 42.4374 67.5359 41.4099C68.1524 40.3824 68.4533 39.1128 68.4386 37.601ZM89.8707 64.6819C88.6818 64.6819 87.5662 64.5865 86.5241 64.3957C85.4966 64.2196 84.6453 63.9921 83.9701 63.7132L86.0838 56.7117C87.1846 57.0493 88.1754 57.2328 89.0561 57.2622C89.9514 57.2915 90.722 57.086 91.3678 56.6457C92.0284 56.2054 92.5641 55.4568 92.9751 54.4L93.5255 52.9689L81.3941 18.1819H91.2578L98.2592 43.0171H98.6115L105.679 18.1819H115.609L102.464 55.6549C101.833 57.475 100.975 59.0602 99.8884 60.4106C98.8169 61.7757 97.4592 62.8251 95.8153 63.559C94.1713 64.3076 92.1898 64.6819 89.8707 64.6819Z" fill="white" fill-opacity="0.2"/>
<path d="M7.17773 52.0001V6.90918H25.2317C28.549 6.90918 31.3158 7.40089 33.5321 8.38432C35.7485 9.36775 37.4145 10.7328 38.53 12.4795C39.6456 14.2115 40.2033 16.2077 40.2033 18.4681C40.2033 20.2295 39.851 21.778 39.1465 23.1137C38.442 24.4348 37.4732 25.5209 36.2402 26.3723C35.022 27.2089 33.6276 27.8034 32.057 28.1556V28.596C33.7743 28.6694 35.3816 29.1537 36.8787 30.0491C38.3906 30.9445 39.6162 32.1994 40.5556 33.814C41.495 35.4139 41.9647 37.3221 41.9647 39.5385C41.9647 41.931 41.3702 44.0666 40.1813 45.9454C39.0071 47.8095 37.2677 49.2847 34.9633 50.3708C32.6588 51.457 29.8186 52.0001 26.4427 52.0001H7.17773ZM16.7111 44.2061H24.4831C27.1399 44.2061 29.0774 43.6997 30.2956 42.6869C31.5139 41.6594 32.1231 40.2944 32.1231 38.5917C32.1231 37.3441 31.8222 36.2432 31.2204 35.2892C30.6186 34.3351 29.7599 33.5865 28.6444 33.0434C27.5435 32.5003 26.2298 32.2288 24.7033 32.2288H16.7111V44.2061ZM16.7111 25.7778H23.7786C25.0849 25.7778 26.2445 25.5503 27.2573 25.0953C28.2848 24.6256 29.092 23.9651 29.6792 23.1137C30.281 22.2624 30.5819 21.2423 30.5819 20.0534C30.5819 18.4241 30.0021 17.1104 28.8425 16.1123C27.6976 15.1142 26.0684 14.6151 23.9547 14.6151H16.7111V25.7778ZM68.4386 37.601V18.1819H77.8179V52.0001H68.8129V45.8573H68.4607C67.6974 47.8389 66.4277 49.4314 64.6517 50.635C62.8903 51.8386 60.74 52.4404 58.2007 52.4404C55.9403 52.4404 53.9514 51.9267 52.2341 50.8992C50.5168 49.8718 49.1737 48.4113 48.205 46.5179C47.2509 44.6244 46.7665 42.3566 46.7518 39.7146V18.1819H56.1311V38.0413C56.1458 40.0375 56.6815 41.6154 57.7383 42.775C58.7952 43.9345 60.2116 44.5143 61.9876 44.5143C63.1178 44.5143 64.1747 44.2574 65.1581 43.7437C66.1415 43.2153 66.9341 42.4374 67.5359 41.4099C68.1524 40.3824 68.4533 39.1128 68.4386 37.601ZM89.8707 64.6819C88.6818 64.6819 87.5662 64.5865 86.5241 64.3957C85.4966 64.2196 84.6453 63.9921 83.9701 63.7132L86.0838 56.7117C87.1846 57.0493 88.1754 57.2328 89.0561 57.2622C89.9514 57.2915 90.722 57.086 91.3678 56.6457C92.0284 56.2054 92.5641 55.4568 92.9751 54.4L93.5255 52.9689L81.3941 18.1819H91.2578L98.2592 43.0171H98.6115L105.679 18.1819H115.609L102.464 55.6549C101.833 57.475 100.975 59.0602 99.8884 60.4106C98.8169 61.7757 97.4592 62.8251 95.8153 63.559C94.1713 64.3076 92.1898 64.6819 89.8707 64.6819Z" fill="#75D6FF"/>
<mask id="mask0_405_286" style="mask-type:luminance" maskUnits="userSpaceOnUse" x="-1" y="-1" width="128" height="73">
<path d="M126.258 -1H-0.742188V72H126.258V-1Z" fill="white"/>
<path d="M7.17773 52.0001V6.90918H25.2317C28.549 6.90918 31.3158 7.40089 33.5321 8.38432C35.7485 9.36775 37.4145 10.7328 38.53 12.4795C39.6456 14.2115 40.2033 16.2077 40.2033 18.4681C40.2033 20.2295 39.851 21.778 39.1465 23.1137C38.442 24.4348 37.4732 25.5209 36.2402 26.3723C35.022 27.2089 33.6276 27.8034 32.057 28.1556V28.596C33.7743 28.6694 35.3816 29.1537 36.8787 30.0491C38.3906 30.9445 39.6162 32.1994 40.5556 33.814C41.495 35.4139 41.9647 37.3221 41.9647 39.5385C41.9647 41.931 41.3702 44.0666 40.1813 45.9454C39.0071 47.8095 37.2677 49.2847 34.9633 50.3708C32.6588 51.457 29.8186 52.0001 26.4427 52.0001H7.17773ZM16.7111 44.2061H24.4831C27.1399 44.2061 29.0774 43.6997 30.2956 42.6869C31.5139 41.6594 32.1231 40.2944 32.1231 38.5917C32.1231 37.3441 31.8222 36.2432 31.2204 35.2892C30.6186 34.3351 29.7599 33.5865 28.6444 33.0434C27.5435 32.5003 26.2298 32.2288 24.7033 32.2288H16.7111V44.2061ZM16.7111 25.7778H23.7786C25.0849 25.7778 26.2445 25.5503 27.2573 25.0953C28.2848 24.6256 29.092 23.9651 29.6792 23.1137C30.281 22.2624 30.5819 21.2423 30.5819 20.0534C30.5819 18.4241 30.0021 17.1104 28.8425 16.1123C27.6976 15.1142 26.0684 14.6151 23.9547 14.6151H16.7111V25.7778ZM68.4386 37.601V18.1819H77.8179V52.0001H68.8129V45.8573H68.4607C67.6974 47.8389 66.4277 49.4314 64.6517 50.635C62.8903 51.8386 60.74 52.4404 58.2007 52.4404C55.9403 52.4404 53.9514 51.9267 52.2341 50.8992C50.5168 49.8718 49.1737 48.4113 48.205 46.5179C47.2509 44.6244 46.7665 42.3566 46.7518 39.7146V18.1819H56.1311V38.0413C56.1458 40.0375 56.6815 41.6154 57.7383 42.775C58.7952 43.9345 60.2116 44.5143 61.9876 44.5143C63.1178 44.5143 64.1747 44.2574 65.1581 43.7437C66.1415 43.2153 66.9341 42.4374 67.5359 41.4099C68.1524 40.3824 68.4533 39.1128 68.4386 37.601ZM89.8707 64.6819C88.6818 64.6819 87.5662 64.5865 86.5241 64.3957C85.4966 64.2196 84.6453 63.9921 83.9701 63.7132L86.0838 56.7117C87.1846 57.0493 88.1754 57.2328 89.0561 57.2622C89.9514 57.2915 90.722 57.086 91.3678 56.6457C92.0284 56.2054 92.5641 55.4568 92.9751 54.4L93.5255 52.9689L81.3941 18.1819H91.2578L98.2592 43.0171H98.6115L105.679 18.1819H115.609L102.464 55.6549C101.833 57.475 100.975 59.0602 99.8884 60.4106C98.8169 61.7757 97.4592 62.8251 95.8153 63.559C94.1713 64.3076 92.1898 64.6819 89.8707 64.6819Z" fill="black"/>
</mask>
<g mask="url(#mask0_405_286)">
<path d="M7.17773 52.0001H0.177734V59.0001H7.17773V52.0001ZM7.17773 6.90918V-0.0908203H0.177734V6.90918H7.17773ZM38.53 12.4795L32.6305 16.2472L32.6377 16.2586L32.645 16.2698L38.53 12.4795ZM39.1465 23.1137L45.323 26.4079L45.3305 26.3937L45.338 26.3796L39.1465 23.1137ZM36.2402 26.3723L40.203 32.1426L40.2103 32.1376L40.2176 32.1325L36.2402 26.3723ZM32.057 28.1556L30.525 21.3253L25.057 22.5518V28.1556H32.057ZM32.057 28.596H25.057V35.3032L31.7581 35.5896L32.057 28.596ZM36.8787 30.0491L33.2859 36.0567L33.2988 36.0644L33.3117 36.0721L36.8787 30.0491ZM40.5556 33.814L34.5051 37.3343L34.5122 37.3463L34.5192 37.3583L40.5556 33.814ZM40.1813 45.9454L34.2662 42.2022L34.2623 42.2084L34.2584 42.2145L40.1813 45.9454ZM16.7111 44.2061H9.71111V51.2061H16.7111V44.2061ZM30.2956 42.6869L34.7706 48.0697L34.7896 48.0539L34.8086 48.0379L30.2956 42.6869ZM28.6444 33.0434L25.5474 39.3211L25.5638 39.3292L25.5803 39.3372L28.6444 33.0434ZM16.7111 32.2288V25.2288H9.71111V32.2288H16.7111ZM16.7111 25.7778H9.71111V32.7778H16.7111V25.7778ZM27.2573 25.0953L30.126 31.4804L30.1468 31.4711L30.1676 31.4616L27.2573 25.0953ZM29.6792 23.1137L23.9631 19.0731L23.9397 19.1062L23.9167 19.1396L29.6792 23.1137ZM28.8425 16.1123L24.2426 21.3887L24.2592 21.4032L24.2759 21.4176L28.8425 16.1123ZM16.7111 14.6151V7.61514H9.71111V14.6151H16.7111ZM14.1777 52.0001V6.90918H0.177734V52.0001H14.1777ZM7.17773 13.9092H25.2317V-0.0908203H7.17773V13.9092ZM25.2317 13.9092C27.9094 13.9092 29.6354 14.3134 30.6931 14.7827L36.3712 1.9859C32.9961 0.488349 29.1885 -0.0908203 25.2317 -0.0908203V13.9092ZM30.6931 14.7827C31.8715 15.3056 32.3736 15.8449 32.6305 16.2472L44.4295 8.71174C42.4554 5.62067 39.6256 3.42991 36.3712 1.9859L30.6931 14.7827ZM32.645 16.2698C32.9625 16.7628 33.2033 17.4163 33.2033 18.4681H47.2033C47.2033 14.9991 46.3286 11.6603 44.415 8.68915L32.645 16.2698ZM33.2033 18.4681C33.2033 19.2811 33.0466 19.6744 32.955 19.8479L45.338 26.3796C46.6555 23.8817 47.2033 21.1779 47.2033 18.4681H33.2033ZM32.97 19.8196C32.7916 20.1541 32.5773 20.3949 32.2629 20.612L40.2176 32.1325C42.3691 30.6469 44.0923 28.7154 45.323 26.4079L32.97 19.8196ZM32.2775 20.6019C31.8576 20.8903 31.3031 21.1508 30.525 21.3253L33.589 34.9859C35.952 34.4559 38.1863 33.5275 40.203 32.1426L32.2775 20.6019ZM25.057 28.1556V28.596H39.057V28.1556H25.057ZM31.7581 35.5896C32.2947 35.6125 32.7722 35.7495 33.2859 36.0567L40.4715 24.0415C37.991 22.558 35.254 21.7262 32.3559 21.6024L31.7581 35.5896ZM33.3117 36.0721C33.7307 36.3202 34.1273 36.6848 34.5051 37.3343L46.606 30.2938C45.1051 27.7141 43.0504 25.5687 40.4458 24.0261L33.3117 36.0721ZM34.5192 37.3583C34.7148 37.6915 34.9647 38.3247 34.9647 39.5385H48.9647C48.9647 36.3194 48.2751 33.1363 46.592 30.2697L34.5192 37.3583ZM34.9647 39.5385C34.9647 40.7108 34.6923 41.5289 34.2662 42.2022L46.0964 49.6886C48.0482 46.6043 48.9647 43.1511 48.9647 39.5385H34.9647ZM34.2584 42.2145C33.9014 42.7813 33.2688 43.4309 31.9788 44.0389L37.9477 56.7027C41.2667 55.1384 44.1127 52.8377 46.1041 49.6763L34.2584 42.2145ZM31.9788 44.0389C30.8595 44.5665 29.1069 45.0001 26.4427 45.0001V59.0001C30.5303 59.0001 34.4581 58.3475 37.9477 56.7027L31.9788 44.0389ZM26.4427 45.0001H7.17773V59.0001H26.4427V45.0001ZM16.7111 51.2061H24.4831V37.2061H16.7111V51.2061ZM24.4831 51.2061C27.7575 51.2061 31.6884 50.6321 34.7706 48.0697L25.8207 37.304C26.1801 37.0053 26.3889 36.9936 26.1587 37.0538C25.9206 37.116 25.3959 37.2061 24.4831 37.2061V51.2061ZM34.8086 48.0379C37.7227 45.5802 39.1231 42.1967 39.1231 38.5917H25.1231C25.1231 38.5965 25.1257 38.3718 25.2738 38.04C25.4275 37.6955 25.6396 37.4566 25.7827 37.3359L34.8086 48.0379ZM39.1231 38.5917C39.1231 36.1672 38.5214 33.7432 37.1409 31.5546L25.2998 39.0237C25.2273 38.9087 25.1748 38.7849 25.1451 38.676C25.1166 38.5719 25.1231 38.5339 25.1231 38.5917H39.1231ZM37.1409 31.5546C35.7753 29.3896 33.8748 27.8043 31.7084 26.7497L25.5803 39.3372C25.6325 39.3626 25.6 39.3539 25.5251 39.2886C25.4467 39.2203 25.3654 39.1278 25.2998 39.0237L37.1409 31.5546ZM31.7413 26.7658C29.4715 25.646 27.0481 25.2288 24.7033 25.2288V39.2288C25.4115 39.2288 25.6155 39.3547 25.5474 39.3211L31.7413 26.7658ZM24.7033 25.2288H16.7111V39.2288H24.7033V25.2288ZM9.71111 32.2288V44.2061H23.7111V32.2288H9.71111ZM16.7111 32.7778H23.7786V18.7778H16.7111V32.7778ZM23.7786 32.7778C25.9012 32.7778 28.0659 32.406 30.126 31.4804L24.3886 18.7101C24.4231 18.6946 24.2687 18.7778 23.7786 18.7778V32.7778ZM30.1676 31.4616C32.2346 30.5167 34.0717 29.0744 35.4417 27.0879L23.9167 19.1396C23.9996 19.0193 24.0999 18.9124 24.2007 18.8299C24.2985 18.7499 24.3597 18.7231 24.347 18.7289L30.1676 31.4616ZM35.3952 27.1544C36.9463 24.9601 37.5819 22.4788 37.5819 20.0534H23.5819C23.5819 20.0553 23.5821 19.9334 23.6422 19.7298C23.7046 19.518 23.8116 19.2875 23.9631 19.0731L35.3952 27.1544ZM37.5819 20.0534C37.5819 16.5361 36.224 13.2299 33.4091 10.807L24.2759 21.4176C24.1192 21.2827 23.9008 21.0301 23.743 20.6725C23.5903 20.3265 23.5819 20.0812 23.5819 20.0534H37.5819ZM33.4425 10.8359C30.6004 8.35819 27.0993 7.61514 23.9547 7.61514V21.6152C24.4765 21.6152 24.6987 21.6785 24.7118 21.6825C24.7131 21.6829 24.6592 21.6664 24.5685 21.6175C24.4759 21.5675 24.3619 21.4928 24.2426 21.3887L33.4425 10.8359ZM23.9547 7.61514H16.7111V21.6152H23.9547V7.61514ZM9.71111 14.6151V25.7778H23.7111V14.6151H9.71111ZM68.4386 37.601H61.4386V37.6349L61.439 37.6689L68.4386 37.601ZM68.4386 18.1819V11.1819H61.4386V18.1819H68.4386ZM77.8179 18.1819H84.8179V11.1819H77.8179V18.1819ZM77.8179 52.0001V59.0001H84.8179V52.0001H77.8179ZM68.8129 52.0001H61.8129V59.0001H68.8129V52.0001ZM68.8129 45.8573H75.8129V38.8573H68.8129V45.8573ZM68.4606 45.8573V38.8573H63.6556L61.9285 43.3412L68.4606 45.8573ZM64.6517 50.635L60.7247 44.8403L60.7135 44.8479L60.7024 44.8555L64.6517 50.635ZM48.205 46.5179L41.9537 49.6677L41.9634 49.687L41.9732 49.7062L48.205 46.5179ZM46.7518 39.7146H39.7518V39.734L39.752 39.7535L46.7518 39.7146ZM46.7518 18.1819V11.1819H39.7518V18.1819H46.7518ZM56.1311 18.1819H63.1311V11.1819H56.1311V18.1819ZM56.1311 38.0413H49.1311V38.067L49.1313 38.0928L56.1311 38.0413ZM65.1581 43.7437L68.3992 49.9481L68.4354 49.9293L68.4713 49.91L65.1581 43.7437ZM67.5359 41.4099L61.5335 37.8084L61.5144 37.8402L61.4958 37.8721L67.5359 41.4099ZM75.4386 37.601V18.1819H61.4386V37.601H75.4386ZM68.4386 25.1819H77.8179V11.1819H68.4386V25.1819ZM70.8179 18.1819V52.0001H84.8179V18.1819H70.8179ZM77.8179 45.0001H68.8129V59.0001H77.8179V45.0001ZM75.8129 52.0001V45.8573H61.8129V52.0001H75.8129ZM68.8129 38.8573H68.4606V52.8573H68.8129V38.8573ZM61.9285 43.3412C61.6844 43.975 61.3313 44.4293 60.7247 44.8403L68.5787 56.4298C71.5242 54.4336 73.7104 51.7028 74.9928 48.3734L61.9285 43.3412ZM60.7024 44.8555C60.3117 45.1225 59.6043 45.4404 58.2007 45.4404V59.4404C61.8757 59.4404 65.469 58.5548 68.601 56.4146L60.7024 44.8555ZM58.2007 45.4404C57.0384 45.4404 56.3238 45.1889 55.828 44.8923L48.6402 56.9062C51.579 58.6645 54.8422 59.4404 58.2007 59.4404V45.4404ZM55.828 44.8923C55.3084 44.5814 54.847 44.1314 54.4367 43.3295L41.9732 49.7062C43.5005 52.6912 45.7251 55.1622 48.6402 56.9062L55.828 44.8923ZM54.4562 43.368C54.0934 42.6479 53.7619 41.4969 53.7517 39.6757L39.752 39.7535C39.7712 43.2164 40.4084 46.6009 41.9537 49.6677L54.4562 43.368ZM53.7518 39.7146V18.1819H39.7518V39.7146H53.7518ZM46.7518 25.1819H56.1311V11.1819H46.7518V25.1819ZM49.1311 18.1819V38.0413H63.1311V18.1819H49.1311ZM49.1313 38.0928C49.1551 41.3296 50.0544 44.7359 52.5647 47.4902L62.912 38.0597C62.9847 38.1395 63.0462 38.2247 63.094 38.3068C63.1412 38.3879 63.1642 38.4474 63.1723 38.4713C63.1871 38.5151 63.1338 38.3833 63.1309 37.9898L49.1313 38.0928ZM52.5647 47.4902C55.13 50.3049 58.53 51.5143 61.9876 51.5143V37.5143C61.8649 37.5143 61.9878 37.4959 62.245 37.6012C62.5224 37.7147 62.759 37.8919 62.912 38.0597L52.5647 47.4902ZM61.9876 51.5143C64.2247 51.5143 66.3961 50.9945 68.3992 49.9481L61.917 37.5393C61.9156 37.54 61.9213 37.5369 61.9334 37.5324C61.9456 37.5278 61.9598 37.5233 61.9747 37.5197C61.9894 37.5161 62.0002 37.5145 62.005 37.5139C62.0097 37.5134 62.0045 37.5143 61.9876 37.5143V51.5143ZM68.4713 49.91C70.6641 48.7318 72.3692 47.0083 73.5761 44.9477L61.4958 37.8721C61.4852 37.89 61.5108 37.8428 61.5868 37.7682C61.6651 37.6914 61.757 37.6247 61.8449 37.5775L68.4713 49.91ZM73.5384 45.0114C74.973 42.6204 75.4623 40.0016 75.4383 37.533L61.439 37.6689C61.4417 37.9458 61.4138 38.068 61.4126 38.0728C61.4124 38.074 61.4188 38.0468 61.4384 37.9977C61.4582 37.9481 61.4888 37.8829 61.5335 37.8084L73.5384 45.0114ZM86.5241 64.3957L87.7848 57.5102L87.7459 57.503L87.7068 57.4963L86.5241 64.3957ZM83.9701 63.7132L77.2688 61.6901L75.4359 67.7618L81.2978 70.183L83.9701 63.7132ZM86.0838 56.7117L88.1361 50.0194L81.4144 47.958L79.3825 54.6887L86.0838 56.7117ZM89.0561 57.2622L88.8229 64.2583L88.8267 64.2584L89.0561 57.2622ZM91.3678 56.6457L87.4849 50.8213L87.4546 50.8416L87.4245 50.8621L91.3678 56.6457ZM92.9751 54.4L99.4991 56.9371L99.5038 56.925L99.5085 56.9128L92.9751 54.4ZM93.5255 52.9689L100.059 55.4817L100.98 53.0867L100.135 50.6639L93.5255 52.9689ZM81.3941 18.1819V11.1819H71.5395L74.7845 20.4869L81.3941 18.1819ZM91.2578 18.1819L97.9951 16.2825L96.5572 11.1819H91.2578V18.1819ZM98.2592 43.0171L91.5218 44.9165L92.9597 50.0171H98.2592V43.0171ZM98.6114 43.0171V50.0171H103.897L105.344 44.9331L98.6114 43.0171ZM105.679 18.1819V11.1819H100.393L98.9462 16.266L105.679 18.1819ZM115.609 18.1819L122.214 20.4989L125.482 11.1819H115.609V18.1819ZM102.464 55.6549L95.859 53.338L95.8549 53.3497L95.8508 53.3615L102.464 55.6549ZM99.8884 60.4106L94.4339 56.0233L94.4079 56.0557L94.3822 56.0885L99.8884 60.4106ZM95.8153 63.559L92.9617 57.1671L92.938 57.1777L92.9144 57.1884L95.8153 63.559ZM89.8707 57.6819C89.0542 57.6819 88.3642 57.6163 87.7848 57.5102L85.2634 71.2812C86.7682 71.5568 88.3093 71.6819 89.8707 71.6819V57.6819ZM87.7068 57.4963C87.3665 57.438 87.1088 57.3801 86.9223 57.3303C86.8303 57.3057 86.7616 57.2847 86.7135 57.2687C86.6898 57.2608 86.6721 57.2545 86.66 57.2501C86.648 57.2456 86.6423 57.2433 86.6424 57.2433L81.2978 70.183C82.6072 70.7239 84.0004 71.0652 85.3413 71.2951L87.7068 57.4963ZM90.6714 65.7362L92.785 58.7348L79.3825 54.6887L77.2688 61.6901L90.6714 65.7362ZM84.0314 63.4041C85.553 63.8707 87.1698 64.2032 88.8229 64.2583L89.2893 50.2661C89.1809 50.2624 88.8162 50.2279 88.1361 50.0194L84.0314 63.4041ZM88.8267 64.2584C90.9809 64.329 93.2642 63.825 95.3112 62.4293L87.4245 50.8621C87.7677 50.6281 88.1395 50.4631 88.5019 50.3664C88.8551 50.2722 89.1309 50.2609 89.2854 50.2659L88.8267 64.2584ZM95.2507 62.47C97.5218 60.956 98.7813 58.7828 99.4991 56.9371L86.4511 51.8628C86.3469 52.1308 86.5349 51.4547 87.4849 50.8213L95.2507 62.47ZM99.5085 56.9128L100.059 55.4817L86.9921 50.456L86.4417 51.8871L99.5085 56.9128ZM100.135 50.6639L88.0037 15.8769L74.7845 20.4869L86.9159 55.2738L100.135 50.6639ZM81.3941 25.1819H91.2578V11.1819H81.3941V25.1819ZM84.5204 20.0813L91.5218 44.9165L104.997 41.1178L97.9951 16.2825L84.5204 20.0813ZM98.2592 50.0171H98.6114V36.0171H98.2592V50.0171ZM105.344 44.9331L112.412 20.0979L98.9462 16.266L91.8788 41.1012L105.344 44.9331ZM105.679 25.1819H115.609V11.1819H105.679V25.1819ZM109.003 15.865L95.859 53.338L109.07 57.9719L122.214 20.4989L109.003 15.865ZM95.8508 53.3615C95.4538 54.5065 94.9634 55.3651 94.4339 56.0233L105.343 64.7979C106.986 62.7554 108.213 60.4435 109.078 57.9484L95.8508 53.3615ZM94.3822 56.0885C94.0402 56.5241 93.6066 56.8792 92.9617 57.1671L98.6688 69.951C101.312 68.7711 103.594 67.0272 105.395 64.7327L94.3822 56.0885ZM92.9144 57.1884C92.401 57.4222 91.4624 57.6819 89.8707 57.6819V71.6819C92.9172 71.6819 95.9417 71.1931 98.7162 69.9297L92.9144 57.1884Z" fill="white"/>
</g>
</g>
<defs>
<clipPath id="clip0_405_286">
<rect width="126" height="72" fill="white"/>
</clipPath>
</defs>
</svg>
