<svg width="26" height="26" viewBox="0 0 26 26" fill="none" xmlns="http://www.w3.org/2000/svg">
<path d="M20.5754 8.88002C21.5733 8.68535 22.3205 8.96668 22.8169 9.72402C23.3881 10.596 23.1675 11.976 23.0138 12.964C22.8983 13.692 22.5844 14.3053 22.0723 14.804C21.9568 14.916 21.9174 15.0507 21.9541 15.208C22.5634 17.9707 21.6692 20.2067 19.2714 21.916C17.9845 22.8307 16.5178 23.6827 14.8711 24.472C13.6341 25.064 12.4339 25.1067 11.2705 24.6C9.35859 23.7654 7.67384 22.7907 6.21627 21.676C4.08112 20.0387 3.28667 17.9094 3.83293 15.288C3.91566 14.9 3.68718 14.668 3.41536 14.448C3.28404 14.3413 3.18819 14.2094 3.12778 14.052C2.37536 12.084 1.95778 8.52802 5.2393 8.86002C5.41263 8.87868 5.51899 8.80135 5.55839 8.62802C5.69495 8.00402 5.85384 7.38402 6.03505 6.76802C8.27657 -0.919983 17.546 -0.855983 19.752 6.77202C19.928 7.38535 20.079 8.00402 20.2051 8.62802C20.2471 8.83602 20.3705 8.92002 20.5754 8.88002ZM5.11718 14.932C3.28536 19.708 8.61142 22.124 11.8811 23.624C12.5062 23.912 13.105 23.9387 13.6775 23.704C15.6354 22.896 18.1999 21.596 19.7284 19.992C21.2726 18.364 21.316 16.56 20.5399 14.492C19.5787 11.912 19.3896 9.11202 18.519 6.60802C16.6399 1.18002 10.392 0.464017 7.66596 5.70002C6.23596 8.44402 6.23202 12.016 5.11718 14.932ZM4.45142 13.416L5.14869 10.376C5.24061 9.97602 5.09091 9.82268 4.6996 9.91602L4.39233 9.98802C4.00101 10.0814 3.79091 10.332 3.76202 10.74C3.71213 11.4867 3.75283 12.2334 3.88415 12.98C3.91829 13.1827 4.00758 13.3574 4.15202 13.504C4.30435 13.656 4.40415 13.6267 4.45142 13.416ZM21.3041 13.312C21.3228 13.3846 21.3659 13.4483 21.426 13.4918C21.4862 13.5354 21.5595 13.5562 21.6331 13.5504C21.7068 13.5447 21.7761 13.5129 21.8291 13.4606C21.882 13.4082 21.9151 13.3386 21.9226 13.264L22.1038 10.864C22.1088 10.7983 22.0937 10.7327 22.0605 10.676L21.7532 10.152C21.7273 10.1076 21.6912 10.0702 21.648 10.0431C21.6048 10.0159 21.5557 9.99977 21.5051 9.99602L20.9378 9.95602C20.8884 9.95218 20.8388 9.96021 20.7931 9.97947C20.7473 9.99872 20.7067 10.0287 20.6744 10.0668C20.6422 10.105 20.6193 10.1504 20.6076 10.1992C20.5958 10.2481 20.5956 10.2991 20.6069 10.348L21.3041 13.312Z" fill="#302C2C" fill-opacity="0.5"/>
<path d="M16.3517 14.808C18.0181 17.56 17.9314 21.668 13.9841 22.296C8.79595 23.116 7.12959 18.864 9.54838 14.776C9.63504 14.6347 9.6009 14.536 9.44595 14.48C9.25423 14.4107 9.05464 14.3534 8.84716 14.308C7.37777 13.972 6.52686 12.628 6.74747 11.192C7.04292 9.26404 9.10322 8.41204 10.7696 9.01604C11.3552 9.22938 11.9383 9.47071 12.5187 9.74004C12.6875 9.81827 12.8703 9.86009 13.0554 9.86285C13.2406 9.8656 13.424 9.82923 13.5941 9.75604C14.445 9.38804 15.3393 8.82804 16.2769 8.84404C19.4796 8.89604 20.1729 13.368 17.1947 14.264C16.9557 14.336 16.7168 14.408 16.4778 14.48C16.2939 14.5334 16.2519 14.6427 16.3517 14.808ZM11.1044 13.536C11.187 13.6121 11.2383 13.717 11.2478 13.8298C11.2573 13.9426 11.2243 14.0549 11.1556 14.144C9.50898 16.332 8.14989 20.44 12.105 21.208C13.9369 21.564 16.4187 20.664 16.2769 18.356C16.1876 16.852 15.6413 15.4507 14.6381 14.152C14.5884 14.0882 14.5564 14.0119 14.5455 13.9312C14.5346 13.8506 14.5452 13.7684 14.5761 13.6933C14.6071 13.6182 14.6573 13.5528 14.7215 13.5041C14.7858 13.4553 14.8617 13.4249 14.9414 13.416C15.8317 13.32 16.785 13.464 17.4863 12.76C18.2702 11.976 18.0456 10.624 17.0766 10.136C16.1941 9.68804 15.1147 10.268 14.3426 10.688C12.7038 11.576 11.6087 10.376 10.0723 10.028C7.63383 9.47204 7.06262 12.944 9.24898 13.24C9.7112 13.304 10.1839 13.344 10.6672 13.36C10.8352 13.3654 10.981 13.424 11.1044 13.536Z" fill="#302C2C" fill-opacity="0.5"/>
<path d="M11.5894 11.672C11.6093 11.6784 11.6261 11.6924 11.6363 11.7109C11.6466 11.7295 11.6495 11.7513 11.6445 11.772L11.6288 11.832C11.5639 12.0684 11.392 12.2642 11.1506 12.3767C10.9092 12.4891 10.6179 12.509 10.3406 12.432L10.1948 12.392C9.91709 12.3139 9.67644 12.1449 9.52575 11.9221C9.37506 11.6994 9.32666 11.4411 9.39119 11.204L9.40694 11.148C9.41251 11.127 9.42589 11.109 9.44426 11.0978C9.46263 11.0866 9.48456 11.0831 9.50543 11.088L11.5894 11.672Z" fill="#302C2C" fill-opacity="0.5"/>
<path d="M16.3257 11.1119C16.3409 11.1083 16.3568 11.1109 16.3701 11.1192C16.3834 11.1274 16.3929 11.1406 16.3966 11.1559L16.4045 11.1839C16.4382 11.3072 16.4438 11.4371 16.4212 11.566C16.3986 11.6949 16.3482 11.8204 16.2728 11.9353C16.1974 12.0501 16.0985 12.152 15.9819 12.2352C15.8652 12.3184 15.7331 12.3812 15.593 12.4199L15.4591 12.4559C15.1773 12.5342 14.8806 12.5107 14.6339 12.3907C14.3872 12.2707 14.2108 12.064 14.1433 11.8159L14.1315 11.7839C14.1291 11.7761 14.1284 11.7678 14.1293 11.7596C14.1302 11.7514 14.1328 11.7435 14.1369 11.7364C14.1409 11.7292 14.1464 11.723 14.1529 11.7182C14.1595 11.7133 14.1669 11.7098 14.1748 11.7079L16.3257 11.1119Z" fill="#302C2C" fill-opacity="0.5"/>
<path d="M11.635 16.1316C11.9391 16.3253 12.3149 16.273 12.4745 16.0148C12.634 15.7565 12.5168 15.3901 12.2127 15.1964C11.9086 15.0027 11.5328 15.0551 11.3732 15.3133C11.2137 15.5716 11.3309 15.9379 11.635 16.1316Z" fill="#302C2C" fill-opacity="0.5"/>
<path d="M14.1741 16.1549C14.4721 15.9724 14.5853 15.6081 14.4269 15.3414C14.2684 15.0747 13.8983 15.0065 13.6003 15.1891C13.3022 15.3716 13.189 15.7359 13.3475 16.0026C13.5059 16.2693 13.876 16.3375 14.1741 16.1549Z" fill="#302C2C" fill-opacity="0.5"/>
<path d="M14.5118 18.1863L11.2973 18.1976C11.0144 18.1987 10.786 18.4323 10.7869 18.7195L10.7871 18.7595C10.7881 19.0466 11.0182 19.2786 11.301 19.2776L14.5155 19.2662C14.7983 19.2652 15.0268 19.0316 15.0258 18.7444L15.0257 18.7044C15.0247 18.4172 14.7946 18.1853 14.5118 18.1863Z" fill="#302C2C" fill-opacity="0.5"/>
</svg>
