<svg width="1514" height="438" viewBox="0 0 1514 438" fill="none" xmlns="http://www.w3.org/2000/svg">
<path d="M212.301 0H224.99C226.964 0.195508 228.955 0.302721 230.961 0.321641C233.206 0.346868 235.2 0.447775 236.941 0.624363C238.291 0.756803 239.673 0.876631 241.086 0.983844C244.17 1.21089 247.113 1.85417 250.188 2.13797C251.759 2.28302 253.381 2.51637 255.052 2.83801C258.686 3.53806 262.278 4.21918 265.83 4.88138C268.432 5.3733 270.921 6.26255 273.551 6.73555C274.857 6.97521 276.119 7.29369 277.336 7.69102C278.674 8.12618 279.92 8.48251 281.074 8.76C283.541 9.35283 288.36 10.9421 295.533 13.5279C297.274 14.1522 298.76 14.9658 300.567 15.5334C301.829 15.9307 303.097 16.3943 304.371 16.924C323.359 24.9083 341.098 35.5635 357.588 48.8895C380.146 67.1159 398.532 89.265 412.745 115.337C419.88 128.417 425.671 142.481 430.118 157.529C431.436 161.987 432.439 166.055 433.127 169.732C433.14 169.789 433.171 169.833 433.222 169.865C433.285 169.909 433.351 169.959 433.42 170.016C433.471 170.054 433.502 170.104 433.515 170.167C433.931 172.349 434.357 174.557 434.792 176.789C439.24 199.702 440.063 222.469 437.262 245.091C437.224 245.381 437.145 245.665 437.026 245.942C436.78 246.491 437.092 247.144 436.988 247.853C433.316 274.795 425.213 299.767 412.679 322.767C392.795 359.239 364.723 388.029 328.462 409.137C321.328 413.287 313.874 416.999 306.102 420.272C298.86 423.318 291.77 425.923 284.831 428.086C284.181 428.288 283.547 428.502 282.929 428.729C282.311 428.956 281.677 429.133 281.027 429.259C279.778 429.505 278.57 429.827 277.403 430.224C276.286 430.602 275.125 430.93 273.92 431.208C270.463 431.996 267.01 432.791 263.559 433.592C262.228 433.901 261.244 434.024 260.607 433.961C260.512 433.948 260.424 433.957 260.342 433.989C260.209 434.039 260.086 434.109 259.973 434.197C259.824 434.315 259.647 434.39 259.462 434.415C257.311 434.667 255.267 435.023 253.33 435.484C252.245 435.742 251.128 435.89 249.98 435.928C247.094 436.004 244.199 436.742 241.284 437.007C238.925 437.215 236.55 437.413 234.159 437.603C233.225 437.678 231.677 437.71 229.513 437.697C227.942 437.691 226.39 437.792 224.857 438H213.143C212.064 437.893 209.43 437.779 205.242 437.659C201.797 437.565 196.826 437.004 190.329 435.976C188.843 435.739 187.499 436.032 186.052 435.616C185.055 435.326 184.024 435.108 182.957 434.963C181.639 434.787 180.314 434.569 178.983 434.311C151.794 429.152 126.829 419.509 104.088 405.382C73.8832 386.613 49.4952 361.903 30.9235 331.253C23.9086 319.68 17.739 306.55 12.4148 291.861C12.2508 291.401 12.0489 290.975 11.8092 290.584C11.6452 290.319 11.5758 290.032 11.601 289.723C11.6326 289.414 11.5916 289.115 11.478 288.825C10.8787 287.317 10.3267 285.744 9.82208 284.104C6.59852 273.597 4.14457 262.85 2.46025 251.864C2.17007 249.985 1.88935 248.023 1.61809 245.98C0.697071 238.973 0.157708 231.91 0 224.79V212.132C1.12288 181.702 7.8381 153.322 20.1457 126.992C37.3043 90.2677 63.1937 60.1312 97.8139 36.582C102.861 33.1511 108.251 29.8906 113.985 26.8003C134.834 15.5555 156.5 7.85499 178.983 3.69888C180.623 3.39616 182.267 3.09343 183.913 2.79071C185.547 2.48799 187.19 2.26726 188.843 2.12851C191.909 1.88255 194.927 1.20143 197.937 1.00276C199.324 0.908164 200.709 0.785184 202.091 0.633823C203.573 0.463542 205.273 0.365788 207.191 0.340562C208.9 0.315335 210.604 0.201814 212.301 0ZM254.437 139.176C274.75 139.025 295.801 139 317.59 139.1C317.915 139.104 318.23 138.985 318.472 138.765C318.714 138.546 318.865 138.244 318.896 137.918C319.142 135.187 319.501 132.302 319.974 129.262C320.599 125.232 320.981 122.344 321.119 120.597C321.889 111.124 321.75 101.673 320.703 92.2449C320.608 91.3556 320.23 90.5799 320.183 89.6907C320.038 86.9851 319.637 84.1975 318.981 81.328C318.861 80.7856 318.855 80.2495 318.962 79.7198C319.082 79.1206 318.836 78.8211 318.224 78.8211L120.921 78.8116C120.694 78.8116 120.559 78.9251 120.514 79.1522C120.149 81.0883 119.773 83.0213 119.388 84.9512C119.136 86.1936 118.94 87.4266 118.802 88.6501C118.657 89.8925 118.499 91.1318 118.329 92.3679C117.445 98.6115 117.042 105.243 117.117 112.262C117.117 112.584 117.193 112.89 117.344 113.18C117.49 113.476 117.508 113.795 117.401 114.135C117.326 114.394 117.294 114.656 117.307 114.921C117.767 121.82 118.578 128.363 119.738 134.55C119.937 135.648 120.467 136.896 120.202 137.909C120.166 138.045 120.161 138.187 120.189 138.325C120.217 138.464 120.276 138.593 120.362 138.705C120.448 138.817 120.558 138.907 120.685 138.969C120.812 139.031 120.951 139.063 121.092 139.063H184.954C185.069 139.063 185.18 139.108 185.262 139.19C185.343 139.272 185.389 139.382 185.389 139.498V355.225C185.389 355.546 185.547 355.732 185.862 355.783C189.37 356.388 192.884 356.981 196.404 357.561C198.296 357.873 200.113 357.694 201.93 358.053C203.273 358.318 204.636 358.51 206.018 358.63C215.291 359.431 224.564 359.412 233.837 358.573C234.702 358.492 235.537 358.353 236.345 358.157C238.417 357.665 240.527 357.892 242.656 357.552C246.101 356.997 249.719 356.426 253.51 355.84C253.737 355.808 253.85 355.679 253.85 355.452V139.772C253.85 139.381 254.046 139.182 254.437 139.176Z" fill="white"/>
<path d="M865.488 209.881C865.488 210.726 865.841 210.915 866.548 210.449C868.056 209.458 869.608 208.522 871.204 207.639C872.137 207.115 873.09 206.721 874.061 206.456C875.039 206.185 875.985 205.81 876.9 205.331C877.581 204.978 878.285 204.738 879.01 204.612C880.821 204.303 882.609 203.868 884.375 203.306C884.619 203.231 884.873 203.202 885.123 203.221C885.52 203.259 885.927 203.253 886.344 203.202C895.055 202.067 903.477 203.306 911.608 206.92C912.107 207.147 912.542 207.431 912.914 207.771C913.577 208.377 914.239 208.216 914.996 208.651C926.143 215.078 933.681 224.475 937.611 236.842C938.053 238.223 938.343 239.589 938.482 240.938C938.69 242.991 939.343 244.789 939.352 246.889C939.403 262.914 939.412 278.76 939.381 294.425C939.381 294.556 939.329 294.681 939.237 294.773C939.144 294.865 939.019 294.917 938.889 294.917H912.413C912.275 294.917 912.142 294.862 912.045 294.765C911.947 294.667 911.892 294.535 911.892 294.397C911.873 279.028 911.87 264.528 911.883 250.9C911.889 250.111 911.839 249.351 911.731 248.62C911.485 246.993 911.684 245.356 910.984 243.852C910.482 242.755 910.435 241.686 909.886 240.531C904.619 229.419 895.711 224.84 883.164 226.796C882.842 226.845 882.541 226.979 882.294 227.183C881.461 227.874 880.515 227.666 879.474 228.139C873.039 231.103 868.737 236.183 866.567 243.379C866.308 244.218 866.075 245.041 865.867 245.848C865.658 246.655 865.554 247.453 865.554 248.241C865.479 263.756 865.463 279.188 865.507 294.539C865.507 294.639 865.467 294.735 865.396 294.806C865.325 294.877 865.229 294.917 865.129 294.917H837.962C837.829 294.917 837.763 294.851 837.763 294.719L837.744 141.39C837.744 141.275 837.79 141.164 837.872 141.083C837.953 141.001 838.064 140.955 838.179 140.955H864.949C865.315 140.955 865.498 141.138 865.498 141.504L865.488 209.881Z" fill="white"/>
<path d="M1178.42 294.605L1178.38 141.267C1178.38 141.226 1178.39 141.186 1178.41 141.148C1178.42 141.11 1178.45 141.075 1178.48 141.047C1178.51 141.018 1178.54 140.995 1178.58 140.979C1178.62 140.963 1178.66 140.955 1178.7 140.955H1204.91C1204.95 140.955 1204.99 140.963 1205.03 140.979C1205.07 140.995 1205.1 141.018 1205.13 141.047C1205.16 141.075 1205.18 141.11 1205.2 141.148C1205.21 141.186 1205.22 141.226 1205.22 141.267V294.596C1205.22 294.637 1205.21 294.677 1205.2 294.715C1205.18 294.753 1205.16 294.787 1205.13 294.816C1205.1 294.845 1205.07 294.868 1205.03 294.884C1204.99 294.9 1204.95 294.908 1204.91 294.908L1178.73 294.917C1178.65 294.917 1178.57 294.884 1178.51 294.826C1178.46 294.767 1178.42 294.688 1178.42 294.605Z" fill="white"/>
<path d="M1247.83 140.955H1221.94C1221.7 140.955 1221.5 141.154 1221.5 141.4V294.463C1221.5 294.709 1221.7 294.908 1221.94 294.908H1247.83C1248.08 294.908 1248.28 294.709 1248.28 294.463V141.4C1248.28 141.154 1248.08 140.955 1247.83 140.955Z" fill="white"/>
<path d="M588.208 179.097V294.538C588.208 294.639 588.168 294.735 588.097 294.806C588.026 294.877 587.93 294.917 587.829 294.917L559.158 294.898C559.108 294.898 559.059 294.888 559.013 294.869C558.967 294.85 558.925 294.822 558.89 294.787C558.855 294.752 558.827 294.71 558.808 294.664C558.789 294.618 558.779 294.569 558.779 294.519V179.097C558.779 178.997 558.74 178.901 558.669 178.83C558.598 178.759 558.501 178.719 558.401 178.719L518.8 178.71C518.7 178.71 518.604 178.67 518.533 178.599C518.462 178.528 518.422 178.432 518.422 178.331V150.083C518.422 149.983 518.462 149.887 518.533 149.816C518.604 149.745 518.7 149.705 518.8 149.705H628.054C628.155 149.705 628.251 149.745 628.322 149.816C628.393 149.887 628.433 149.983 628.433 150.083L628.423 178.331C628.423 178.432 628.384 178.528 628.313 178.599C628.242 178.67 628.145 178.71 628.045 178.71L588.586 178.719C588.486 178.719 588.39 178.759 588.319 178.83C588.248 178.901 588.208 178.997 588.208 179.097Z" fill="white"/>
<path d="M1038.7 221.479C1039.06 221.586 1039.32 221.816 1039.46 222.169C1039.6 222.541 1039.81 222.879 1040.07 223.181C1042.45 225.887 1044.48 229.154 1046.16 232.982C1048.56 238.481 1049.8 244.192 1049.89 250.114C1049.98 255.891 1048.91 261.589 1046.69 267.208C1042.89 276.801 1036.2 284.218 1026.62 289.458C1024.49 290.619 1022.16 291.612 1019.62 292.438C1017.11 293.258 1014.63 293.819 1012.2 294.122C1006.84 294.791 1001.4 294.933 995.9 294.548C995.8 294.541 995.706 294.496 995.637 294.422C995.569 294.348 995.531 294.251 995.531 294.151V270.34C995.531 270.271 995.545 270.202 995.571 270.138C995.598 270.075 995.637 270.017 995.687 269.968C995.736 269.92 995.794 269.882 995.859 269.856C995.923 269.831 995.992 269.818 996.061 269.819C999.915 269.895 1003.76 269.864 1007.59 269.725C1008.37 269.7 1009.11 269.526 1009.8 269.204C1010.78 268.75 1011.58 268.968 1012.6 268.476C1015.32 267.158 1017.48 265.559 1019.07 263.68C1021.91 260.325 1023.29 256.437 1023.2 252.016C1023.12 247.935 1021.69 244.315 1018.88 241.155C1015.3 237.113 1010.65 235.092 1004.94 235.092C988.914 235.085 973.379 235.082 958.334 235.082C958.203 235.082 958.078 235.031 957.986 234.941C957.894 234.85 957.842 234.728 957.842 234.6V150.188C957.842 149.872 958 149.715 958.315 149.715C972.931 149.677 986.983 149.689 1000.47 149.752C1003.26 149.765 1006.14 150.229 1009.13 151.143C1022.31 155.179 1031.61 163.482 1037.03 176.051C1038.98 180.561 1040.02 185.571 1040.17 191.083C1040.2 192.477 1040.15 193.893 1040 195.331C1039.84 196.788 1039.65 198.191 1039.43 199.541C1038.4 205.595 1036.3 210.798 1033.13 215.15C1033.04 215.269 1032.98 215.405 1032.95 215.549C1032.92 215.693 1032.92 215.842 1032.95 215.987C1032.98 216.131 1033.04 216.268 1033.13 216.388C1033.22 216.507 1033.33 216.608 1033.46 216.682C1035.51 217.855 1037.01 219.249 1037.93 220.864C1038.11 221.173 1038.36 221.378 1038.7 221.479ZM1011.94 196.107C1012.39 195.217 1012.69 194.196 1012.82 193.042C1013.75 184.723 1010.45 178.826 1002.9 175.351C1001.4 174.664 999.833 174.317 998.199 174.311C998.086 174.311 997.979 174.279 997.878 174.216C997.802 174.166 997.726 174.115 997.65 174.065C997.423 173.907 997.174 173.828 996.903 173.828H984.337C984.021 173.828 983.864 173.986 983.864 174.301V206.428C983.864 206.711 984.006 206.844 984.289 206.825C987.873 206.661 991.225 206.639 994.348 206.759C997.584 206.885 1000.31 206.481 1002.52 205.548C1006.39 203.921 1009.37 201.262 1011.45 197.573C1011.72 197.081 1011.67 196.627 1011.94 196.107Z" fill="white"/>
<path d="M1291.5 149.705H1264.91C1264.77 149.705 1264.65 149.819 1264.65 149.961V178.454C1264.65 178.595 1264.77 178.71 1264.91 178.71H1291.5C1291.64 178.71 1291.75 178.595 1291.75 178.454V149.961C1291.75 149.819 1291.64 149.705 1291.5 149.705Z" fill="white"/>
<path d="M659.101 258.316C659.079 258.317 659.057 258.323 659.037 258.333C659.017 258.343 658.999 258.358 658.986 258.375C658.973 258.393 658.965 258.413 658.962 258.434C658.959 258.455 658.961 258.476 658.969 258.496C661.158 264.38 664.88 268.766 670.135 271.655C672.544 272.979 675.042 273.736 677.629 273.925C680.84 274.152 683.568 273.91 685.814 273.197C688.829 272.238 691.835 270.491 694.832 267.956C695.128 267.704 695.437 267.685 695.759 267.899L714.448 280.453C714.725 280.642 714.75 280.863 714.523 281.115C712.454 283.398 710.256 285.435 707.928 287.226C704.332 289.989 700.818 292.082 697.387 293.508C693.967 294.92 690.586 295.91 687.243 296.478C684.19 296.989 680.562 297.181 676.361 297.055C672.664 296.942 669.113 296.396 665.706 295.419C660.653 293.968 655.979 291.745 651.683 288.749C649.308 287.094 647.415 285.126 645.173 283.395C644.857 283.149 644.63 282.84 644.491 282.468C644.198 281.664 643.252 281.285 642.665 280.585C636.483 273.232 632.758 264.762 631.49 255.176C631.282 253.599 631.285 249.739 631.499 243.596C631.512 243.298 631.596 243.009 631.745 242.754C631.941 242.427 632.057 242.077 632.095 241.704C632.436 238.652 633.291 235.47 634.66 232.159C637.593 225.045 642.031 218.925 647.973 213.797C654.408 208.254 661.792 204.7 670.125 203.136C671.614 202.852 673.043 202.72 674.412 202.739C675.345 202.751 676.257 202.616 677.146 202.332C678.036 202.054 678.932 202.035 679.834 202.275C682.379 202.947 684.877 202.521 687.508 203.07C698.73 205.428 707.887 210.77 714.977 219.095C721.488 226.732 725.244 235.751 726.247 246.151C726.632 250.118 726.402 253.977 725.556 257.73C725.52 257.899 725.426 258.05 725.29 258.158C725.154 258.267 724.984 258.326 724.809 258.326L659.101 258.316ZM658.553 242.007C658.471 242.051 658.398 242.105 658.335 242.168C658.307 242.196 658.289 242.231 658.282 242.269C658.276 242.307 658.28 242.347 658.297 242.383C658.313 242.419 658.339 242.45 658.373 242.472C658.407 242.495 658.446 242.507 658.486 242.509H700.509C700.919 242.509 701.061 242.316 700.935 241.931C699.011 236.054 695.548 231.598 690.545 228.564C686.59 226.162 682.114 225.26 677.118 225.859C671.863 226.49 667.479 228.779 663.965 232.727C661.745 235.218 660.041 238.195 658.855 241.657C658.799 241.815 658.698 241.931 658.553 242.007Z" fill="white"/>
<path d="M777.799 230.598C774.178 232.881 771.424 235.769 769.538 239.263C767.665 242.725 766.788 246.538 766.907 250.7C767.103 257.53 769.964 263.251 775.49 267.861C781.041 272.496 787.621 274.517 795.229 273.925C797.777 273.723 800.124 273.102 802.269 272.061C804.717 270.875 806.805 269.453 808.533 267.795C808.609 267.722 808.701 267.668 808.801 267.636C808.901 267.604 809.008 267.596 809.112 267.611C809.216 267.627 809.315 267.666 809.402 267.725C809.488 267.785 809.56 267.864 809.612 267.955L820.617 287.604C820.743 287.831 820.702 288.023 820.494 288.181C818.582 289.631 816.478 290.89 814.182 291.955C811.148 293.362 808.085 294.522 804.994 295.437C802.004 296.32 798.869 296.837 795.588 296.988C790.258 297.234 785.769 297.051 782.123 296.44C776.793 295.544 771.819 293.816 767.201 291.255C753.392 283.593 745.137 272.272 742.437 257.294C741.737 253.415 741.693 248.569 742.305 242.754C742.475 241.114 742.999 239.049 743.876 236.557C743.989 236.223 744.03 235.883 743.999 235.536C743.967 235.252 744.059 235.015 744.273 234.826C744.582 234.561 744.791 234.23 744.898 233.833C745.04 233.313 745.002 232.792 745.229 232.3C751.462 218.628 761.741 209.477 776.067 204.847C776.61 204.671 777.165 204.567 777.733 204.535C778.565 204.488 778.925 203.911 779.748 203.75C785.35 202.659 790.999 202.35 796.695 202.823C798.787 202.993 800.717 203.495 802.77 203.722C803.458 203.797 804.105 203.99 804.71 204.299C805.533 204.715 806.622 204.706 807.539 205.037C811.917 206.607 815.961 208.654 819.67 211.176C819.845 211.294 820.046 211.369 820.257 211.394C820.528 211.419 820.774 211.504 820.995 211.649C821.273 211.832 821.33 212.069 821.165 212.359L809.413 233.076C809.218 233.429 808.981 233.458 808.703 233.161C804.969 229.138 800.2 226.899 794.396 226.445C788.46 225.978 782.928 227.362 777.799 230.598Z" fill="white"/>
<path d="M1393.88 220.22C1396.04 222.585 1397.87 225.212 1399.37 228.1C1399.67 228.687 1400 229.254 1400.35 229.803C1401.15 231.061 1401.45 232.603 1402.11 233.994C1402.46 234.751 1402.76 235.555 1403.01 236.406C1405.39 244.466 1405.63 252.624 1403.75 260.879C1403.65 261.359 1403.47 261.81 1403.23 262.232C1402.89 262.819 1403.1 263.528 1402.84 264.247C1398.77 275.984 1391.23 284.911 1380.24 291.028C1379.55 291.416 1379.31 291.918 1378.47 292.031C1378.15 292.075 1377.84 292.167 1377.55 292.306C1372.53 294.721 1367.79 296.178 1363.33 296.676C1359.08 297.149 1354.05 297.187 1348.25 296.79C1346.15 296.648 1344.47 296.004 1342.45 295.654C1341.71 295.522 1340.96 295.304 1340.21 295.002C1338.42 294.273 1336.51 293.876 1334.8 293.034C1332.76 292.044 1330.88 291.041 1329.17 290.026C1318.21 283.555 1311 274.149 1307.55 261.806C1306.03 256.42 1305.65 250.41 1306.41 243.776C1306.5 243.025 1306.66 242.297 1306.89 241.59C1307.05 241.111 1307.13 240.606 1307.12 240.077C1307.12 239.591 1307.19 239.102 1307.34 238.61C1311.11 225.663 1318.9 215.799 1330.7 209.019C1331.29 208.672 1331.93 208.392 1332.59 208.177C1333.53 207.875 1334.05 207.203 1335.03 206.815C1342.74 203.75 1350.64 202.416 1358.72 202.814C1360.9 202.918 1363.4 203.514 1365.71 203.731C1366.42 203.794 1367.14 203.999 1367.88 204.346C1368.68 204.724 1370.07 204.743 1371.04 205.065C1379.01 207.72 1385.93 211.939 1391.78 217.723C1392.58 218.508 1393.12 219.378 1393.88 220.22ZM1377.06 258.987C1377.12 258.792 1377.22 258.618 1377.35 258.467C1377.63 258.164 1377.79 257.808 1377.83 257.398C1378.09 254.399 1378.93 251.514 1378.7 248.477C1378.14 241.199 1375.2 235.309 1369.87 230.806C1369.04 230.101 1368.14 229.477 1367.18 228.942C1361.36 225.707 1355.44 224.972 1349.43 226.738C1346.6 227.57 1344.09 228.933 1341.9 230.825C1339.34 233.019 1337.38 235.217 1336 237.418C1334.93 239.127 1334.12 241.064 1333.55 243.227C1332.98 245.39 1332.61 247.329 1332.45 249.045C1332.3 250.659 1332.55 252.81 1333.19 255.496C1333.47 256.679 1334.04 257.313 1333.98 258.628C1333.96 259.012 1334.06 259.366 1334.28 259.687C1335.57 261.56 1336.28 263.462 1337.77 265.325C1342.26 270.964 1347.84 273.931 1354.54 274.227C1359.53 274.448 1364.08 273.237 1368.16 270.595C1372.36 267.87 1375.32 264.001 1377.06 258.987Z" fill="white"/>
<path d="M1514 247.247V294.926L1489.2 294.907C1488.85 294.907 1488.68 294.737 1488.68 294.396C1488.71 279.74 1488.7 265.322 1488.66 251.145C1488.65 248.124 1488.14 245.075 1487.13 241.997C1485.83 238.081 1483.82 234.776 1481.09 232.083C1478.36 229.384 1475.07 227.656 1471.24 226.899C1465.61 225.783 1460.49 226.789 1455.88 229.917C1451.46 232.919 1448.36 237.573 1446.58 243.88C1446.33 244.782 1446.19 245.743 1446.16 246.765C1446.13 248.193 1445.63 249.433 1445.63 250.871C1445.61 265.433 1445.6 279.954 1445.62 294.434C1445.62 294.562 1445.57 294.685 1445.48 294.775C1445.39 294.866 1445.27 294.917 1445.14 294.917H1419.88C1419.82 294.917 1419.76 294.905 1419.71 294.883C1419.65 294.86 1419.6 294.828 1419.56 294.786C1419.52 294.745 1419.49 294.696 1419.47 294.642C1419.44 294.588 1419.43 294.53 1419.43 294.472V205.727C1419.43 205.672 1419.45 205.619 1419.49 205.58C1419.53 205.541 1419.58 205.519 1419.64 205.519H1440.12C1440.32 205.52 1440.52 205.577 1440.7 205.683C1440.87 205.79 1441.01 205.943 1441.1 206.125L1444.49 212.813C1444.52 212.886 1444.58 212.95 1444.64 213C1444.71 213.05 1444.78 213.085 1444.86 213.101C1444.94 213.117 1445.03 213.115 1445.11 213.095C1445.18 213.075 1445.26 213.036 1445.32 212.983C1449.36 209.496 1453.75 206.881 1458.49 205.141C1464.32 203.003 1470.19 202.451 1476.13 203.485C1476.94 203.624 1477.75 203.693 1478.53 203.693C1478.88 203.693 1479.19 203.779 1479.48 203.949C1480.86 204.772 1482.33 204.63 1483.84 205.311C1485 205.828 1486.13 206.263 1487.24 206.617C1488.54 207.014 1489.1 207.979 1490.33 208.348C1490.79 208.487 1491.23 208.692 1491.66 208.963C1499.84 214.204 1505.9 221.295 1509.83 230.238C1512.21 235.649 1513.6 241.319 1514 247.247Z" fill="white"/>
<path d="M1157.99 267.208C1157.67 268.457 1157.29 269.504 1156.84 270.349C1149.54 284.155 1138.25 292.886 1122.97 296.544C1120.51 297.131 1116.81 297.301 1111.87 297.055C1107.99 296.853 1104.39 296.178 1101.09 295.03C1086.59 289.979 1076.47 280.251 1070.73 265.846C1069.82 263.557 1069.1 260.845 1068.57 257.711C1068.14 255.156 1067.92 252.262 1067.89 249.026C1067.8 235.032 1067.8 220.611 1067.88 205.765C1067.88 205.7 1067.91 205.638 1067.95 205.592C1068 205.545 1068.06 205.52 1068.13 205.52H1094.09C1094.4 205.52 1094.55 205.671 1094.55 205.974C1094.63 219.356 1094.61 232.802 1094.5 246.311C1094.47 249.37 1094.7 252.11 1095.18 254.532C1096.19 259.584 1098.58 264.597 1102.88 267.776C1107.1 270.892 1111.47 272.273 1116.01 271.92C1120.19 271.592 1123.9 270.034 1127.13 267.246C1130.29 264.509 1132.47 261.022 1133.65 256.784C1133.89 255.926 1134.14 255.04 1134.42 254.125C1134.69 253.255 1134.82 252.4 1134.83 251.562C1134.91 238.015 1134.92 222.876 1134.86 206.144C1134.86 205.728 1135.07 205.52 1135.48 205.52H1161.06C1161.44 205.52 1161.64 205.712 1161.65 206.097C1161.71 223.49 1161.7 239.005 1161.61 252.64C1161.59 255.837 1160.58 260.407 1158.58 266.348C1158.53 266.493 1158.45 266.619 1158.33 266.726C1158.27 266.789 1158.21 266.855 1158.14 266.925C1158.07 267.007 1158.02 267.101 1157.99 267.208Z" fill="white"/>
<path d="M1291.3 205.52H1265.11C1264.86 205.52 1264.66 205.719 1264.66 205.964V294.472C1264.66 294.718 1264.86 294.917 1265.11 294.917H1291.3C1291.55 294.917 1291.75 294.718 1291.75 294.472V205.964C1291.75 205.719 1291.55 205.52 1291.3 205.52Z" fill="white"/>
</svg>
