<svg width="1964" height="363" viewBox="0 0 1964 363" fill="none" xmlns="http://www.w3.org/2000/svg">
<path d="M169.035 164.406C169.295 159.177 169.122 153.924 169.122 148.667C169.122 147.717 169.093 146.763 169.122 145.812C169.757 123.521 165.888 128.225 188.583 128.4C193.928 128.428 199.412 129.931 204.494 131.72C213.505 134.897 215.641 140.814 214.659 151.356C213.824 160.247 206.514 167.321 197.913 167.985C189.796 168.649 181.654 168.446 173.54 168.852C170.104 169.027 168.862 167.897 169.035 164.406Z" fill="#FEFEFE"/>
<path d="M216.68 226.944C212.294 229.803 206.75 231.768 201.52 232.344C192.513 233.382 183.301 232.949 174.205 233.299C171 233.414 169.325 232.778 169.498 229.052C169.759 222.845 169.557 216.637 169.557 210.398H168.748C169.123 203.527 166.957 193.972 170.596 190.592C174.379 187.069 183.792 188.946 190.692 189.494C198.431 190.075 206.285 191.173 213.793 193.165C229.386 197.32 227.075 220.248 216.68 226.944Z" fill="#FEFEFE"/>
<path d="M178.535 51.337C106.576 53.0428 51.0773 113.965 51.6547 178.9C49.922 255.474 115.499 315.037 187.803 311.458C254.768 308.165 312.49 252.702 312.693 182.451C312.896 106.283 249.455 49.6629 178.535 51.337ZM264.268 211.642C263.719 228.737 257.885 243.489 240.761 249.986C231.177 253.625 220.548 254.81 210.299 256.309C205.42 257.001 203.05 257.983 203.396 263.443C203.861 270.835 203.312 278.283 203.599 285.703C203.714 289.254 202.473 289.977 199.125 290.093C183.329 290.641 183.329 290.757 183.329 274.787C183.329 270.95 183.271 267.109 183.329 263.296C183.386 259.657 184.137 255.963 178.217 256.369C173.569 256.687 168.804 255.617 169.122 262.862C169.439 270.517 169.353 278.195 168.948 285.846C168.862 287.289 166.61 289.687 165.195 289.83C148.937 291.421 148.937 291.333 148.937 274.875C148.937 270.803 148.389 266.703 148.822 262.691C149.428 257.176 146.599 256.337 142.094 256.424C132.738 256.655 123.382 256.627 113.998 256.715C113.045 256.715 111.283 256.83 111.283 256.77C110.764 250.825 110.157 244.849 110.186 238.868C110.215 237.858 112.814 236.157 114.373 235.982C132.016 233.989 132.738 234.077 133.258 216.581C134.095 189.784 133.893 162.991 133.98 136.17C133.98 129.788 130.399 126.901 123.931 126.785C107.703 126.439 107.905 126.32 108.165 110.414C108.251 106.08 109.811 105.245 113.622 105.448C118.647 105.734 123.729 105.531 128.753 105.531V105.13C135.221 105.13 144.577 107.671 147.378 104.466C150.785 100.597 148.822 91.9043 148.909 85.2915C149.024 72.9368 148.966 73.3384 161.47 72.7619C167.88 72.5034 169.814 74.2649 169.266 80.5874C168.66 87.4865 169.179 94.4731 169.093 101.404C169.006 108.709 174.521 104.752 177.467 105.36C180.239 105.965 183.733 106.689 183.444 101.289C182.982 93.4074 183.559 85.4665 183.213 77.5852C183.069 73.6287 184.513 72.9368 188.093 72.8493C203.511 72.5034 203.455 72.3881 203.543 87.8325C203.543 93.5784 201.837 100.625 204.553 104.637C206.832 108.017 214.427 107.699 219.625 109.23C223.928 110.53 228.231 111.941 232.418 113.647C257.83 124.069 262.216 152.942 240.992 170.442C238.077 172.836 236.864 173.906 241.573 175.81C257.599 182.28 264.845 193.625 264.268 211.642Z" fill="#FEFEFE"/>
<path d="M182.289 0.00241893C82.4946 -0.517298 -1.4762 82.7817 0.0250274 181.095C-1.64959 279.379 80.9354 362.737 181.019 362.999C280.67 363.258 360.336 283.105 363.661 190.538C367.673 79.8352 280.467 0.493108 182.289 0.00241893ZM178.94 347.607C92.2548 345.702 14.3477 273.435 15.3005 179.798C16.1957 92.1939 91.8213 11.3209 189.626 15.6806C273.885 19.4343 349.396 90.0307 348.008 181.675C350.374 274.214 267.503 349.571 178.94 347.607Z" fill="#FEFEFE"/>
<path d="M169.035 164.406C169.295 159.177 169.122 153.924 169.122 148.667C169.122 147.717 169.093 146.763 169.122 145.812C169.757 123.521 165.888 128.225 188.583 128.4C193.928 128.428 199.412 129.931 204.494 131.72C213.505 134.897 215.641 140.814 214.659 151.356C213.824 160.247 206.514 167.321 197.913 167.985C189.796 168.649 181.654 168.446 173.54 168.852C170.104 169.027 168.862 167.897 169.035 164.406Z" fill="white"/>
<path d="M216.68 226.944C212.294 229.803 206.75 231.768 201.52 232.344C192.513 233.382 183.301 232.949 174.205 233.299C171 233.414 169.325 232.778 169.498 229.052C169.759 222.845 169.557 216.637 169.557 210.398H168.748C169.123 203.527 166.957 193.972 170.596 190.592C174.379 187.069 183.792 188.946 190.692 189.494C198.431 190.075 206.285 191.173 213.793 193.165C229.386 197.32 227.075 220.248 216.68 226.944Z" fill="white"/>
<path d="M178.535 51.337C106.576 53.0428 51.0773 113.965 51.6547 178.9C49.922 255.474 115.499 315.037 187.803 311.458C254.768 308.165 312.49 252.702 312.693 182.451C312.896 106.283 249.455 49.6629 178.535 51.337ZM264.268 211.642C263.719 228.737 257.885 243.489 240.761 249.986C231.177 253.625 220.548 254.81 210.299 256.309C205.42 257.001 203.05 257.983 203.396 263.443C203.861 270.835 203.312 278.283 203.599 285.703C203.714 289.254 202.473 289.977 199.125 290.093C183.329 290.641 183.329 290.757 183.329 274.787C183.329 270.95 183.271 267.109 183.329 263.296C183.386 259.657 184.137 255.963 178.217 256.369C173.569 256.687 168.804 255.617 169.122 262.862C169.439 270.517 169.353 278.195 168.948 285.846C168.862 287.289 166.61 289.687 165.195 289.83C148.937 291.421 148.937 291.333 148.937 274.875C148.937 270.803 148.389 266.703 148.822 262.691C149.428 257.176 146.599 256.337 142.094 256.424C132.738 256.655 123.382 256.627 113.998 256.715C113.045 256.715 111.283 256.83 111.283 256.77C110.764 250.825 110.157 244.849 110.186 238.868C110.215 237.858 112.814 236.157 114.373 235.982C132.016 233.989 132.738 234.077 133.258 216.581C134.095 189.784 133.893 162.991 133.98 136.17C133.98 129.788 130.399 126.901 123.931 126.785C107.703 126.439 107.905 126.32 108.165 110.414C108.251 106.08 109.811 105.245 113.622 105.448C118.647 105.734 123.729 105.531 128.753 105.531V105.13C135.221 105.13 144.577 107.671 147.378 104.466C150.785 100.597 148.822 91.9043 148.909 85.2915C149.024 72.9368 148.966 73.3384 161.47 72.7619C167.88 72.5034 169.814 74.2649 169.266 80.5874C168.66 87.4865 169.179 94.4731 169.093 101.404C169.006 108.709 174.521 104.752 177.467 105.36C180.239 105.965 183.733 106.689 183.444 101.289C182.982 93.4074 183.559 85.4665 183.213 77.5852C183.069 73.6287 184.513 72.9368 188.093 72.8493C203.511 72.5034 203.455 72.3881 203.543 87.8325C203.543 93.5784 201.837 100.625 204.553 104.637C206.832 108.017 214.427 107.699 219.625 109.23C223.928 110.53 228.231 111.941 232.418 113.647C257.83 124.069 262.216 152.942 240.992 170.442C238.077 172.836 236.864 173.906 241.573 175.81C257.599 182.28 264.845 193.625 264.268 211.642Z" fill="white"/>
<path d="M182.289 0.00241893C82.4946 -0.517298 -1.4762 82.7817 0.0250274 181.095C-1.64959 279.379 80.9354 362.737 181.019 362.999C280.67 363.258 360.336 283.105 363.661 190.538C367.673 79.8352 280.467 0.493108 182.289 0.00241893ZM178.94 347.607C92.2548 345.702 14.3477 273.435 15.3005 179.798C16.1957 92.1939 91.8213 11.3209 189.626 15.6806C273.885 19.4343 349.396 90.0307 348.008 181.675C350.374 274.214 267.503 349.571 178.94 347.607Z" fill="white"/>
<path d="M570.929 184.678C570.297 184.36 569.66 184.041 569.024 183.723C569.601 183.377 570.177 183.059 570.758 182.713C587.822 172.693 593.425 159.702 588.832 140.675C585.512 126.845 573.267 116.764 554.875 115.524C532.382 113.965 509.77 114.196 487.218 113.416C482.398 113.245 483.178 116.16 483.178 118.959V187.938C483.178 210.719 483.321 233.472 483.062 256.225C483.003 260.989 484.359 262.23 489.04 262.114C502.004 261.796 514.996 262.345 527.964 261.884C538.964 261.51 550.138 261.192 560.852 259.025C578.727 255.386 591.346 241.874 593.163 226.573C595.819 204.166 590.94 194.984 570.929 184.678ZM515.286 157.014C515.286 139.545 515.286 139.462 532.613 139.895C536.653 140.011 540.753 140.472 544.71 141.339C552.739 143.068 556.752 147.777 556.982 154.994C557.241 162.732 553.519 168.191 545.633 170.152C540.352 171.452 534.808 171.627 529.376 172.291C519.983 172.001 515.286 167.15 515.286 157.737V157.014ZM545.374 234.081C536.423 235.349 527.24 235.031 518.145 235.059C517.191 235.059 515.517 232.78 515.429 231.508C515.111 226.255 515.314 220.998 515.314 215.745C515.199 215.745 515.083 215.745 514.968 215.713C515.314 209.824 513.469 201.713 516.587 198.679C519.76 195.649 527.849 197.466 533.766 197.525C537.58 197.581 541.417 198.046 545.144 198.794C555.165 200.786 560.16 206.647 560.132 215.888C560.1 225.706 555.193 232.665 545.374 234.081Z" fill="#FEFEFE"/>
<path d="M652.161 152.765C652.018 187.734 652.018 222.671 652.134 257.635C652.161 261.158 650.948 262.14 647.568 262.053C640.12 261.85 632.671 261.735 625.251 262.109C620.833 262.311 620.224 260.55 620.252 256.741C620.455 239.503 620.339 222.265 620.339 205.027C620.339 187.79 620.455 170.552 620.252 153.314C620.196 149.274 621.322 147.946 625.422 148.149C632.612 148.467 639.829 148.352 647.019 148.177C650.455 148.089 652.189 148.666 652.161 152.765Z" fill="#FEFEFE"/>
<path d="M653.43 119.19C653.49 129.008 647.194 134.782 636.25 134.869C625.048 134.985 619.099 129.672 619.071 119.509C619.011 109.174 624.73 103.889 635.992 103.83C647.051 103.774 653.374 109.345 653.43 119.19Z" fill="#FEFEFE"/>
<path d="M751.834 245.97C751.834 260.293 751.893 260.925 737.541 262.687C728.617 263.784 719.292 263.498 710.368 262.253C697.662 260.524 690.357 251.776 688.627 239.647C686.953 227.865 687.009 215.829 686.317 203.872C686.547 203.872 686.75 203.872 686.981 203.844C686.981 195.47 686.69 187.067 687.068 178.697C687.327 173.643 686.404 171.162 680.57 171.854C677.941 172.172 672.716 170.466 672.744 170.005C673.177 165.038 669.221 158.457 676.641 155.626C687.617 151.411 692.727 142.691 695.153 132.066C696.624 125.656 699.742 123.405 706.586 123.807C718.715 124.503 718.743 124.01 718.743 136.396C718.743 148.783 718.743 148.234 730.844 148.234H732.288C738.205 148.496 746.465 146.504 749.408 149.59C752.442 152.795 750.159 160.883 750.565 166.8C750.855 170.784 749.642 172.287 745.455 172.112C738.265 171.794 731.015 172.255 723.825 171.909C719.582 171.738 718.628 173.237 718.656 177.222C718.886 193.016 718.6 208.838 718.803 224.66C718.946 234.478 724.259 239.099 733.99 238.407C736.619 238.232 739.247 237.886 741.844 237.397C751.834 235.488 751.834 235.46 751.834 245.97Z" fill="#FEFEFE"/>
<path d="M799.714 199.08C799.368 205.923 799.773 213.029 801.129 219.753C803.671 232.402 812.074 239.071 824.839 237.687C833.21 236.788 841.7 234.307 849.411 230.899C855.329 228.303 855.675 229.746 855.361 234.828C855.098 238.896 854.78 243.055 855.416 247.04C856.601 254.46 852.935 258.042 846.524 260.034C829.516 265.347 812.364 265.836 795.673 259.629C776.991 252.698 770.174 236.935 767.78 218.628C767.232 214.385 767.259 210.023 767.057 205.923C767.605 182.308 772.803 161.169 797.057 150.894C812.881 144.194 829.456 144.798 845.828 148.957C859.461 152.421 859.401 152.651 854.521 165.444C851.249 174.009 845.232 176.888 836.475 174.076C814.702 167.149 800.871 176.359 799.714 199.08Z" fill="#FEFEFE"/>
<path d="M983.997 196.395C982.18 175.519 973.284 158.166 952.668 150.46C931.647 142.606 910.567 143.557 892.174 158.198C877.647 169.773 874.271 186.319 874.008 198.503C872.247 239.098 893.904 263.322 927.543 263.787C946.226 264.046 962.602 259.052 973.948 243.027C983.942 228.906 985.441 212.766 983.997 196.395ZM949.26 223.825C946.461 233.412 939.327 238.263 929.365 238.35C919.375 238.434 912.269 233.785 909.123 224.258C904.876 211.41 904.82 198.332 909.095 185.48C912.153 176.299 919.113 171.738 928.816 171.65C938.662 171.567 946.345 176.414 949.145 185.683C951.05 192.037 951.627 198.765 952.752 205.088C951.571 211.669 950.994 217.908 949.26 223.825Z" fill="#FEFEFE"/>
<path d="M1041.2 256.191C1041.26 260.867 1040.02 262.398 1035.23 262.112C1028.3 261.679 1021.31 261.822 1014.35 262.08C1010.77 262.196 1009.27 261.388 1009.3 257.404C1009.44 222.467 1009.41 187.558 1009.3 152.622C1009.3 149.158 1010.39 148.061 1013.83 148.148C1021.28 148.379 1028.73 148.494 1036.15 148.12C1040.6 147.89 1041.2 149.794 1041.15 153.548C1041 170.786 1041.09 188.024 1041.09 205.229C1041.09 222.439 1040.94 239.216 1041.2 256.191Z" fill="#FEFEFE"/>
<path d="M1042.41 118.932C1042.59 129.239 1036.58 134.755 1024.94 134.93C1014.35 135.073 1008.4 129.617 1008.31 119.74C1008.25 108.972 1013.77 103.918 1025.67 103.83C1036.43 103.747 1042.21 108.972 1042.41 118.932Z" fill="#FEFEFE"/>
<path d="M1177.24 179.273C1178.25 205.577 1177.82 231.969 1177.7 258.328C1177.67 259.541 1175.05 261.764 1173.51 261.824C1166.09 262.197 1158.61 261.736 1151.17 262.082C1146.83 262.285 1146.06 260.579 1146.08 256.71C1146.25 238.263 1146.17 219.813 1146.14 201.362C1146.11 197.291 1146.08 193.191 1145.71 189.147C1144.84 179.361 1140.19 173.5 1132.28 171.826C1123.01 169.861 1112.53 173.873 1109.24 182.391C1106.43 189.58 1104.82 197.581 1104.47 205.287C1103.75 222.036 1103.89 238.84 1104.3 255.585C1104.44 261.215 1102.71 262.516 1097.48 262.11C1091.51 261.649 1085.44 261.649 1079.46 262.11C1074.04 262.516 1072.07 261.128 1072.22 255.211C1072.68 238.434 1072.39 221.658 1072.39 204.885C1072.39 188.109 1072.54 170.843 1072.27 153.836C1072.22 149.562 1073.17 147.514 1077.79 148.178C1079.67 148.464 1081.63 148.234 1083.54 148.234C1095.75 148.234 1095.81 148.206 1100.08 159.379C1101.09 161.98 1101.73 162.958 1104.07 160.246C1118.13 144.019 1136.32 143.557 1154.89 148.87C1169.35 152.997 1176.69 164.923 1177.24 179.273Z" fill="#FEFEFE"/>
<path d="M1298.05 257.318C1298.05 261.215 1296.78 262.197 1293.09 262.082C1285.9 261.796 1278.65 261.676 1271.46 262.11C1266.7 262.372 1265.48 260.814 1265.54 256.133C1265.77 233.15 1265.63 210.17 1265.63 187.186C1265.63 164.203 1265.8 142.173 1265.51 119.679C1265.45 114.597 1266.9 113.098 1271.92 113.384C1279.11 113.79 1286.33 113.647 1293.52 113.412C1297.02 113.328 1298.03 114.597 1298.03 117.977C1297.94 164.433 1297.94 210.89 1298.05 257.318Z" fill="#FEFEFE"/>
<path d="M1437.38 257.35C1437.41 261.159 1436.25 262.229 1432.53 262.082C1425.34 261.796 1418.09 261.68 1410.93 262.114C1406.34 262.372 1405.36 260.841 1405.38 256.483C1405.64 236.848 1405.53 217.216 1405.47 197.58C1405.47 194.002 1405.41 190.363 1404.72 186.868C1402.84 177.253 1398.17 172.577 1390.05 171.622C1380.75 170.525 1371.54 174.426 1368.42 182.45C1365.88 188.976 1364.21 196.225 1363.95 203.239C1363.28 220.679 1363.49 238.176 1363.74 255.672C1363.8 260.408 1363.02 262.515 1357.65 262.114C1350.95 261.593 1344.17 261.621 1337.47 262.114C1332.41 262.487 1331.7 260.44 1331.75 256.077C1331.98 239.07 1331.87 222.063 1331.87 205.06C1331.87 188.053 1331.98 170.585 1331.75 153.347C1331.72 149.335 1332.73 147.744 1336.89 148.178C1339.98 148.496 1343.22 148.698 1346.25 148.15C1354.13 146.734 1358.26 149.796 1359.21 157.677C1359.39 159.208 1360.46 160.624 1361.12 162.095C1362.3 160.97 1363.57 159.9 1364.67 158.687C1380.61 140.901 1417.02 141.481 1429.61 160.624C1433.97 167.236 1436.54 176.128 1436.86 184.097C1437.78 208.464 1437.18 232.923 1437.38 257.35Z" fill="#FEFEFE"/>
<path d="M1547.98 234.856C1545.78 248.774 1535.44 258.997 1519.94 261.884C1512.89 263.18 1505.64 263.558 1495.71 264.655C1487.65 263.124 1477.08 261.22 1466.57 259.053C1464.9 258.707 1462.13 257.351 1462.1 256.337C1461.67 248.718 1461.78 241.035 1462.01 233.385C1462.01 233.182 1465.3 232.661 1466.92 233.007C1477.63 235.377 1488.29 238.033 1499 240.344C1501.28 240.833 1504.2 241.063 1506.11 240.081C1509.86 238.149 1514.6 236.013 1516.24 232.661C1518.7 227.639 1513.93 224.346 1509.8 222.267C1499.78 217.185 1489.5 212.624 1479.45 207.57C1465.77 200.731 1460.54 189.239 1461.87 174.395C1463.14 160.247 1473.39 150.516 1491.15 147.427C1508.82 144.309 1526.03 146.449 1542.78 152.974C1546.24 154.33 1547.77 155.658 1545.69 159.642C1542.83 165.13 1542.14 173.5 1537.81 175.926C1534.17 178.033 1526.75 173.214 1520.92 171.969C1515.78 170.904 1510.41 169.691 1505.3 170.18C1501.28 170.585 1495.33 172.578 1494.12 175.464C1491.87 180.864 1497.59 183.549 1501.86 185.716C1506.11 187.911 1510.61 189.613 1514.97 191.577C1519.76 193.74 1524.67 195.732 1529.32 198.158C1544.66 206.158 1550.63 218.111 1547.98 234.856Z" fill="#FEFEFE"/>
<path d="M1603.41 153C1603.27 187.734 1603.27 222.468 1603.41 257.202C1603.41 260.812 1602.66 262.256 1598.7 262.081C1591.51 261.763 1584.27 261.735 1577.08 262.081C1572.63 262.312 1571.39 260.956 1571.48 256.51C1571.74 239.272 1571.56 222.007 1571.56 204.769C1571.56 187.531 1571.74 170.755 1571.48 153.748C1571.39 149.33 1572.57 147.918 1577.05 148.149C1584.24 148.495 1591.49 148.467 1598.68 148.149C1602.61 147.974 1603.41 149.33 1603.41 153Z" fill="#FEFEFE"/>
<path d="M1604.72 118.756C1604.92 129.237 1599.14 134.637 1587.39 134.896C1576.94 135.154 1570.64 129.583 1570.41 119.909C1570.21 109.459 1576.1 103.999 1587.82 103.828C1598.62 103.685 1604.54 108.882 1604.72 118.756Z" fill="#FEFEFE"/>
<path d="M1735.03 182.999C1735.03 158.572 1734.94 134.172 1735.12 109.749C1735.18 105.3 1734.31 103.367 1729.29 103.713C1722.1 104.174 1714.88 103.972 1707.69 103.769C1704.25 103.653 1703.01 104.723 1703.13 108.218C1703.62 123.981 1703.93 139.775 1704.34 155.569C1704.37 156.985 1704.51 158.369 1704.63 159.784C1703.36 158.918 1701.91 158.226 1700.84 157.188C1682.88 139.401 1650.77 143.068 1637.98 164.811C1625.85 185.452 1625.85 208.034 1631.49 230.179C1640.61 265.923 1675.69 275.279 1701.97 249.755C1704.83 246.955 1705.52 248.514 1705.93 250.968C1707.74 261.68 1714.85 263.497 1724.09 262.026C1725.48 261.795 1726.98 261.795 1728.39 262.026C1733.7 262.921 1735.26 261.016 1735.18 255.528C1734.86 231.364 1735.03 207.167 1735.03 182.999ZM1702.58 225.383C1699.86 234.02 1693.28 237.857 1684.7 238.466C1676.07 239.07 1668.62 236.183 1665.24 227.924C1662.44 220.997 1661.26 213.402 1659.23 205.692C1661.23 197.898 1662.44 190.101 1665.24 182.883C1668.33 175.002 1675.2 171.535 1683.75 172.028C1692.64 172.549 1699.6 176.418 1702.4 185.194C1706.59 198.503 1706.77 211.987 1702.58 225.383Z" fill="#FEFEFE"/>
<path d="M1860.55 174.833C1853.74 154.446 1836.61 146.736 1816.05 146.187C1790.67 145.467 1770.89 155.862 1763.13 181.211C1758.42 196.572 1758.3 212.279 1762.78 227.843C1767.51 244.241 1778.37 255.332 1794.43 260.326C1812.47 265.925 1830.81 264.744 1849.06 259.92C1856.62 257.928 1859.86 254.262 1858.59 246.464C1858.04 243.204 1858.27 239.768 1858.59 236.42C1858.93 231.915 1857.81 231.74 1853.45 232.897C1842.19 235.899 1830.75 239.104 1819.23 239.939C1805.02 240.921 1795.06 232.002 1792.46 218.892C1791.71 215.11 1791.8 212.772 1797.05 213.003C1807.36 213.464 1817.7 213.146 1828.04 213.146C1838.37 213.146 1849.66 213.261 1860.47 213.003C1861.94 213.003 1864.65 211.038 1864.59 210.144C1863.61 198.306 1864.28 185.86 1860.58 174.833H1860.55ZM1831.16 191.753C1825.41 191.606 1819.64 191.693 1813.89 191.693C1808.14 191.693 1802.37 191.606 1796.62 191.753C1793.62 191.809 1792.52 191.26 1793.07 187.737C1794.86 176.392 1802.91 168.797 1813.83 168.769C1824.92 168.769 1832.97 176.217 1834.65 187.566C1835.14 190.826 1834.36 191.836 1831.16 191.753Z" fill="#FEFEFE"/>
<path d="M1963.82 151.99C1963.53 153.406 1963.58 154.877 1963.47 156.292C1962.98 162.269 1964.45 169.745 1961.36 173.701C1958.93 176.791 1950.82 175.232 1945.3 176.155C1930.52 178.64 1922.29 187.129 1921.63 202.343C1920.85 220.245 1921.11 238.234 1921.28 256.192C1921.34 260.84 1920.1 262.459 1915.3 262.113C1909.33 261.679 1903.26 261.592 1897.29 262.113C1891.22 262.661 1889.03 261.158 1889.26 254.518C1889.83 238.004 1889.46 221.458 1889.46 204.944C1889.46 188.426 1889.72 171.423 1889.32 154.674C1889.17 149.043 1890.99 147.341 1896.19 148.208C1897.14 148.351 1898.12 148.236 1899.08 148.236C1908.55 148.236 1914.54 152.761 1917.07 161.808C1917.47 163.251 1918.25 164.607 1918.86 165.995C1919.98 164.866 1921.25 163.828 1922.2 162.555C1931.41 150.201 1943.6 144.713 1959.08 146.216C1963.18 146.59 1964.54 148.149 1963.82 151.99Z" fill="#FEFEFE"/>
<path d="M570.929 184.678C570.297 184.36 569.66 184.041 569.024 183.723C569.601 183.377 570.177 183.059 570.758 182.713C587.822 172.693 593.425 159.702 588.832 140.675C585.512 126.845 573.267 116.764 554.875 115.524C532.382 113.965 509.77 114.196 487.218 113.416C482.398 113.245 483.178 116.16 483.178 118.959V187.938C483.178 210.719 483.321 233.472 483.062 256.225C483.003 260.989 484.359 262.23 489.04 262.114C502.004 261.796 514.996 262.345 527.964 261.884C538.964 261.51 550.138 261.192 560.852 259.025C578.727 255.386 591.346 241.874 593.163 226.573C595.819 204.166 590.94 194.984 570.929 184.678ZM515.286 157.014C515.286 139.545 515.286 139.462 532.613 139.895C536.653 140.011 540.753 140.472 544.71 141.339C552.739 143.068 556.752 147.777 556.982 154.994C557.241 162.732 553.519 168.191 545.633 170.152C540.352 171.452 534.808 171.627 529.376 172.291C519.983 172.001 515.286 167.15 515.286 157.737V157.014ZM545.374 234.081C536.423 235.349 527.24 235.031 518.145 235.059C517.191 235.059 515.517 232.78 515.429 231.508C515.111 226.255 515.314 220.998 515.314 215.745C515.199 215.745 515.083 215.745 514.968 215.713C515.314 209.824 513.469 201.713 516.587 198.679C519.76 195.649 527.849 197.466 533.766 197.525C537.58 197.581 541.417 198.046 545.144 198.794C555.165 200.786 560.16 206.647 560.132 215.888C560.1 225.706 555.193 232.665 545.374 234.081Z" fill="white"/>
<path d="M1735.03 182.999C1735.03 158.572 1734.94 134.172 1735.12 109.749C1735.18 105.3 1734.31 103.367 1729.29 103.713C1722.1 104.174 1714.88 103.972 1707.69 103.769C1704.25 103.653 1703.01 104.723 1703.13 108.218C1703.62 123.981 1703.93 139.775 1704.34 155.569C1704.37 156.985 1704.51 158.369 1704.63 159.784C1703.36 158.918 1701.91 158.226 1700.84 157.188C1682.88 139.401 1650.77 143.068 1637.98 164.811C1625.85 185.452 1625.85 208.034 1631.49 230.179C1640.61 265.923 1675.69 275.279 1701.97 249.755C1704.83 246.955 1705.52 248.514 1705.93 250.968C1707.74 261.68 1714.85 263.497 1724.09 262.026C1725.48 261.795 1726.98 261.795 1728.39 262.026C1733.7 262.921 1735.26 261.016 1735.18 255.528C1734.86 231.364 1735.03 207.167 1735.03 182.999ZM1702.58 225.383C1699.86 234.02 1693.28 237.857 1684.7 238.466C1676.07 239.07 1668.62 236.183 1665.24 227.924C1662.44 220.997 1661.26 213.402 1659.23 205.692C1661.23 197.898 1662.44 190.101 1665.24 182.883C1668.33 175.002 1675.2 171.535 1683.75 172.028C1692.64 172.549 1699.6 176.418 1702.4 185.194C1706.59 198.503 1706.77 211.987 1702.58 225.383Z" fill="white"/>
<path d="M1177.7 258.328C1177.67 259.541 1175.05 261.764 1173.51 261.824C1166.09 262.197 1158.61 261.736 1151.17 262.082C1146.83 262.285 1146.06 260.579 1146.08 256.71C1146.25 238.263 1146.17 219.813 1146.14 201.362C1146.11 197.291 1146.08 193.191 1145.71 189.147C1144.84 179.361 1140.19 173.5 1132.28 171.826C1123.01 169.861 1112.53 173.873 1109.24 182.391C1106.43 189.58 1104.82 197.581 1104.47 205.287C1103.75 222.036 1103.89 238.84 1104.3 255.585C1104.44 261.215 1102.71 262.516 1097.48 262.11C1091.51 261.649 1085.44 261.649 1079.46 262.11C1074.04 262.516 1072.07 261.128 1072.22 255.211C1072.68 238.434 1072.39 221.658 1072.39 204.885C1072.39 188.109 1072.54 170.843 1072.27 153.836C1072.22 149.562 1073.17 147.514 1077.79 148.178C1079.67 148.464 1081.63 148.234 1083.54 148.234C1095.75 148.234 1095.81 148.206 1100.08 159.379C1101.09 161.98 1101.73 162.958 1104.07 160.246C1118.13 144.019 1136.32 143.557 1154.89 148.87C1169.35 152.997 1176.69 164.923 1177.24 179.273C1178.25 205.577 1177.82 231.969 1177.7 258.328Z" fill="white"/>
<path d="M983.997 196.395C982.18 175.519 973.284 158.166 952.668 150.46C931.647 142.606 910.567 143.557 892.174 158.198C877.647 169.773 874.271 186.319 874.008 198.503C872.247 239.098 893.904 263.322 927.543 263.787C946.226 264.046 962.602 259.052 973.948 243.027C983.942 228.906 985.441 212.766 983.997 196.395ZM949.26 223.825C946.461 233.412 939.327 238.263 929.365 238.35C919.375 238.434 912.269 233.785 909.123 224.258C904.876 211.41 904.82 198.332 909.095 185.48C912.153 176.299 919.113 171.738 928.816 171.65C938.662 171.567 946.345 176.414 949.145 185.683C951.05 192.037 951.627 198.765 952.752 205.088C951.571 211.669 950.994 217.908 949.26 223.825Z" fill="white"/>
<path d="M1437.38 257.35C1437.41 261.159 1436.25 262.229 1432.53 262.082C1425.34 261.796 1418.09 261.68 1410.93 262.114C1406.34 262.372 1405.36 260.841 1405.38 256.483C1405.64 236.848 1405.53 217.216 1405.47 197.58C1405.47 194.002 1405.41 190.363 1404.72 186.868C1402.84 177.253 1398.17 172.577 1390.05 171.622C1380.75 170.525 1371.54 174.426 1368.42 182.45C1365.88 188.976 1364.21 196.225 1363.95 203.239C1363.28 220.679 1363.49 238.176 1363.74 255.672C1363.8 260.408 1363.02 262.515 1357.65 262.114C1350.95 261.593 1344.17 261.621 1337.47 262.114C1332.41 262.487 1331.7 260.44 1331.75 256.077C1331.98 239.07 1331.87 222.063 1331.87 205.06C1331.87 188.053 1331.98 170.585 1331.75 153.347C1331.72 149.335 1332.73 147.744 1336.89 148.178C1339.98 148.496 1343.22 148.698 1346.25 148.15C1354.13 146.734 1358.26 149.796 1359.21 157.677C1359.39 159.208 1360.46 160.624 1361.12 162.095C1362.3 160.97 1363.57 159.9 1364.67 158.687C1380.61 140.901 1417.02 141.481 1429.61 160.624C1433.97 167.236 1436.54 176.128 1436.86 184.097C1437.78 208.464 1437.18 232.923 1437.38 257.35Z" fill="white"/>
<path d="M1860.55 174.833C1853.74 154.446 1836.61 146.736 1816.05 146.187C1790.67 145.467 1770.89 155.862 1763.13 181.211C1758.42 196.572 1758.3 212.279 1762.78 227.843C1767.51 244.241 1778.37 255.332 1794.43 260.326C1812.47 265.925 1830.81 264.744 1849.06 259.92C1856.62 257.928 1859.86 254.262 1858.59 246.464C1858.04 243.204 1858.27 239.768 1858.59 236.42C1858.93 231.915 1857.81 231.74 1853.45 232.897C1842.19 235.899 1830.75 239.104 1819.23 239.939C1805.02 240.921 1795.06 232.002 1792.46 218.892C1791.71 215.11 1791.8 212.772 1797.05 213.003C1807.36 213.464 1817.7 213.146 1828.04 213.146C1838.37 213.146 1849.66 213.261 1860.47 213.003C1861.94 213.003 1864.65 211.038 1864.59 210.144C1863.61 198.306 1864.28 185.86 1860.58 174.833H1860.55ZM1831.16 191.753C1825.41 191.606 1819.64 191.693 1813.89 191.693C1808.14 191.693 1802.37 191.606 1796.62 191.753C1793.62 191.809 1792.52 191.26 1793.07 187.737C1794.86 176.392 1802.91 168.797 1813.83 168.769C1824.92 168.769 1832.97 176.217 1834.65 187.566C1835.14 190.826 1834.36 191.836 1831.16 191.753Z" fill="white"/>
<path d="M1547.98 234.856C1545.78 248.774 1535.44 258.997 1519.94 261.884C1512.89 263.18 1505.64 263.558 1495.71 264.655C1487.65 263.124 1477.08 261.22 1466.57 259.053C1464.9 258.707 1462.13 257.351 1462.1 256.337C1461.67 248.718 1461.78 241.035 1462.01 233.385C1462.01 233.182 1465.3 232.661 1466.92 233.007C1477.63 235.377 1488.29 238.033 1499 240.344C1501.28 240.833 1504.2 241.063 1506.11 240.081C1509.86 238.149 1514.6 236.013 1516.24 232.661C1518.7 227.639 1513.93 224.346 1509.8 222.267C1499.78 217.185 1489.5 212.624 1479.45 207.57C1465.77 200.731 1460.54 189.239 1461.87 174.395C1463.14 160.247 1473.39 150.516 1491.15 147.427C1508.82 144.309 1526.03 146.449 1542.78 152.974C1546.24 154.33 1547.77 155.658 1545.69 159.642C1542.83 165.13 1542.14 173.5 1537.81 175.926C1534.17 178.033 1526.75 173.214 1520.92 171.969C1515.78 170.904 1510.41 169.691 1505.3 170.18C1501.28 170.585 1495.33 172.578 1494.12 175.464C1491.87 180.864 1497.59 183.549 1501.86 185.716C1506.11 187.911 1510.61 189.613 1514.97 191.577C1519.76 193.74 1524.67 195.732 1529.32 198.158C1544.66 206.158 1550.63 218.111 1547.98 234.856Z" fill="white"/>
<path d="M855.416 247.04C856.601 254.46 852.935 258.042 846.524 260.034C829.516 265.347 812.364 265.836 795.673 259.629C776.991 252.698 770.174 236.935 767.78 218.628C767.232 214.385 767.259 210.023 767.057 205.923C767.605 182.308 772.803 161.169 797.057 150.894C812.881 144.194 829.456 144.798 845.828 148.957C859.461 152.421 859.401 152.651 854.521 165.444C851.249 174.009 845.232 176.888 836.475 174.076C814.702 167.149 800.871 176.359 799.714 199.08C799.368 205.923 799.773 213.029 801.129 219.753C803.671 232.402 812.074 239.071 824.839 237.687C833.21 236.788 841.7 234.307 849.411 230.899C855.329 228.303 855.675 229.746 855.361 234.828C855.098 238.896 854.78 243.055 855.416 247.04Z" fill="white"/>
<path d="M751.834 245.97C751.834 260.293 751.893 260.925 737.541 262.687C728.617 263.784 719.292 263.498 710.368 262.253C697.662 260.524 690.357 251.776 688.627 239.647C686.953 227.865 687.009 215.829 686.317 203.872C686.547 203.872 686.75 203.872 686.981 203.844C686.981 195.47 686.69 187.067 687.068 178.697C687.327 173.643 686.404 171.162 680.57 171.854C677.941 172.172 672.716 170.466 672.744 170.005C673.177 165.038 669.221 158.457 676.641 155.626C687.617 151.411 692.727 142.691 695.153 132.066C696.624 125.656 699.742 123.405 706.586 123.807C718.715 124.503 718.743 124.01 718.743 136.396C718.743 148.783 718.743 148.234 730.844 148.234H732.288C738.205 148.496 746.465 146.504 749.408 149.59C752.442 152.795 750.159 160.883 750.565 166.8C750.855 170.784 749.642 172.287 745.455 172.112C738.265 171.794 731.015 172.255 723.825 171.909C719.582 171.738 718.628 173.237 718.656 177.222C718.886 193.016 718.6 208.838 718.803 224.66C718.946 234.478 724.259 239.099 733.99 238.407C736.619 238.232 739.247 237.886 741.844 237.397C751.834 235.488 751.834 235.46 751.834 245.97Z" fill="white"/>
<path d="M1298.05 257.318C1298.05 261.215 1296.78 262.197 1293.09 262.082C1285.9 261.796 1278.65 261.676 1271.46 262.11C1266.7 262.372 1265.48 260.814 1265.54 256.133C1265.77 233.15 1265.63 210.17 1265.63 187.186C1265.63 164.203 1265.8 142.173 1265.51 119.679C1265.45 114.597 1266.9 113.098 1271.92 113.384C1279.11 113.79 1286.33 113.647 1293.52 113.412C1297.02 113.328 1298.03 114.597 1298.03 117.977C1297.94 164.433 1297.94 210.89 1298.05 257.318Z" fill="white"/>
<path d="M1963.82 151.99C1963.53 153.406 1963.58 154.877 1963.47 156.292C1962.98 162.269 1964.45 169.745 1961.36 173.701C1958.93 176.791 1950.82 175.232 1945.3 176.155C1930.52 178.64 1922.29 187.129 1921.63 202.343C1920.85 220.245 1921.11 238.234 1921.28 256.192C1921.34 260.84 1920.1 262.459 1915.3 262.113C1909.33 261.679 1903.26 261.592 1897.29 262.113C1891.22 262.661 1889.03 261.158 1889.26 254.518C1889.83 238.004 1889.46 221.458 1889.46 204.944C1889.46 188.426 1889.72 171.423 1889.32 154.674C1889.17 149.043 1890.99 147.341 1896.19 148.208C1897.14 148.351 1898.12 148.236 1899.08 148.236C1908.55 148.236 1914.54 152.761 1917.07 161.808C1917.47 163.251 1918.25 164.607 1918.86 165.995C1919.98 164.866 1921.25 163.828 1922.2 162.555C1931.41 150.201 1943.6 144.713 1959.08 146.216C1963.18 146.59 1964.54 148.149 1963.82 151.99Z" fill="white"/>
<path d="M1041.2 256.191C1041.26 260.867 1040.02 262.398 1035.23 262.112C1028.3 261.679 1021.31 261.822 1014.35 262.08C1010.77 262.196 1009.27 261.388 1009.3 257.404C1009.44 222.467 1009.41 187.558 1009.3 152.622C1009.3 149.158 1010.39 148.061 1013.83 148.148C1021.28 148.379 1028.73 148.494 1036.15 148.12C1040.6 147.89 1041.2 149.794 1041.15 153.548C1041 170.786 1041.09 188.024 1041.09 205.229C1041.09 222.439 1040.94 239.216 1041.2 256.191Z" fill="white"/>
<path d="M652.134 257.635C652.161 261.158 650.948 262.14 647.568 262.053C640.12 261.85 632.671 261.735 625.251 262.109C620.833 262.311 620.224 260.55 620.252 256.741C620.455 239.503 620.339 222.265 620.339 205.027C620.339 187.79 620.455 170.552 620.252 153.314C620.196 149.274 621.322 147.946 625.422 148.149C632.612 148.467 639.829 148.352 647.019 148.177C650.455 148.089 652.189 148.666 652.161 152.765C652.018 187.734 652.018 222.671 652.134 257.635Z" fill="white"/>
<path d="M1603.41 257.202C1603.41 260.812 1602.66 262.256 1598.7 262.081C1591.51 261.763 1584.27 261.735 1577.08 262.081C1572.63 262.312 1571.39 260.956 1571.48 256.51C1571.74 239.272 1571.56 222.007 1571.56 204.769C1571.56 187.531 1571.74 170.755 1571.48 153.748C1571.39 149.33 1572.57 147.918 1577.05 148.149C1584.24 148.495 1591.49 148.467 1598.68 148.149C1602.61 147.974 1603.41 149.33 1603.41 153C1603.27 187.734 1603.27 222.468 1603.41 257.202Z" fill="white"/>
<path d="M653.43 119.19C653.49 129.008 647.194 134.782 636.25 134.869C625.048 134.985 619.099 129.672 619.071 119.509C619.011 109.174 624.73 103.889 635.992 103.83C647.051 103.774 653.374 109.345 653.43 119.19Z" fill="white"/>
<path d="M1604.72 118.756C1604.92 129.237 1599.14 134.637 1587.39 134.896C1576.94 135.154 1570.64 129.583 1570.41 119.909C1570.21 109.459 1576.1 103.999 1587.82 103.828C1598.62 103.685 1604.54 108.882 1604.72 118.756Z" fill="white"/>
<path d="M1042.41 118.932C1042.59 129.239 1036.58 134.755 1024.94 134.93C1014.35 135.073 1008.4 129.617 1008.31 119.74C1008.25 108.972 1013.77 103.918 1025.67 103.83C1036.43 103.747 1042.21 108.972 1042.41 118.932Z" fill="white"/>
<path d="M169.035 164.406C169.295 159.177 169.122 153.924 169.122 148.667C169.122 147.717 169.093 146.763 169.122 145.812C169.757 123.521 165.888 128.225 188.583 128.4C193.928 128.428 199.412 129.931 204.494 131.72C213.505 134.897 215.641 140.814 214.659 151.356C213.824 160.247 206.514 167.321 197.913 167.985C189.796 168.649 181.654 168.446 173.54 168.852C170.104 169.027 168.862 167.897 169.035 164.406Z" fill="#FDFDFD"/>
<path d="M216.68 226.944C212.294 229.803 206.75 231.768 201.52 232.344C192.513 233.382 183.301 232.949 174.205 233.299C171 233.414 169.325 232.778 169.498 229.052C169.759 222.845 169.557 216.637 169.557 210.398H168.748C169.123 203.527 166.957 193.972 170.596 190.592C174.379 187.069 183.792 188.946 190.692 189.494C198.431 190.075 206.285 191.173 213.793 193.165C229.386 197.32 227.075 220.248 216.68 226.944Z" fill="#FDFDFD"/>
<path d="M178.535 51.337C106.576 53.0428 51.0773 113.965 51.6547 178.9C49.922 255.474 115.499 315.037 187.803 311.458C254.768 308.165 312.49 252.702 312.693 182.451C312.896 106.283 249.455 49.6629 178.535 51.337ZM264.268 211.642C263.719 228.737 257.885 243.489 240.761 249.986C231.177 253.625 220.548 254.81 210.299 256.309C205.42 257.001 203.05 257.983 203.396 263.443C203.861 270.835 203.312 278.283 203.599 285.703C203.714 289.254 202.473 289.977 199.125 290.093C183.329 290.641 183.329 290.757 183.329 274.787C183.329 270.95 183.271 267.109 183.329 263.296C183.386 259.657 184.137 255.963 178.217 256.369C173.569 256.687 168.804 255.617 169.122 262.862C169.439 270.517 169.353 278.195 168.948 285.846C168.862 287.289 166.61 289.687 165.195 289.83C148.937 291.421 148.937 291.333 148.937 274.875C148.937 270.803 148.389 266.703 148.822 262.691C149.428 257.176 146.599 256.337 142.094 256.424C132.738 256.655 123.382 256.627 113.998 256.715C113.045 256.715 111.283 256.83 111.283 256.77C110.764 250.825 110.157 244.849 110.186 238.868C110.215 237.858 112.814 236.157 114.373 235.982C132.016 233.989 132.738 234.077 133.258 216.581C134.095 189.784 133.893 162.991 133.98 136.17C133.98 129.788 130.399 126.901 123.931 126.785C107.703 126.439 107.905 126.32 108.165 110.414C108.251 106.08 109.811 105.245 113.622 105.448C118.647 105.734 123.729 105.531 128.753 105.531V105.13C135.221 105.13 144.577 107.671 147.378 104.466C150.785 100.597 148.822 91.9043 148.909 85.2915C149.024 72.9368 148.966 73.3384 161.47 72.7619C167.88 72.5034 169.814 74.2649 169.266 80.5874C168.66 87.4865 169.179 94.4731 169.093 101.404C169.006 108.709 174.521 104.752 177.467 105.36C180.239 105.965 183.733 106.689 183.444 101.289C182.982 93.4074 183.559 85.4665 183.213 77.5852C183.069 73.6287 184.513 72.9368 188.093 72.8493C203.511 72.5034 203.455 72.3881 203.543 87.8325C203.543 93.5784 201.837 100.625 204.553 104.637C206.832 108.017 214.427 107.699 219.625 109.23C223.928 110.53 228.231 111.941 232.418 113.647C257.83 124.069 262.216 152.942 240.992 170.442C238.077 172.836 236.864 173.906 241.573 175.81C257.599 182.28 264.845 193.625 264.268 211.642Z" fill="#FDFDFD"/>
<path d="M169.035 164.406C169.295 159.177 169.122 153.924 169.122 148.667C169.122 147.717 169.093 146.763 169.122 145.812C169.757 123.521 165.888 128.225 188.583 128.4C193.928 128.428 199.412 129.931 204.494 131.72C213.505 134.897 215.641 140.814 214.659 151.356C213.824 160.247 206.514 167.321 197.913 167.985C189.796 168.649 181.654 168.446 173.54 168.852C170.104 169.027 168.862 167.897 169.035 164.406Z" fill="white"/>
<path d="M216.68 226.944C212.294 229.803 206.75 231.768 201.52 232.344C192.513 233.382 183.301 232.949 174.205 233.299C171 233.414 169.325 232.778 169.498 229.052C169.759 222.845 169.557 216.637 169.557 210.398H168.748C169.123 203.527 166.957 193.972 170.596 190.592C174.379 187.069 183.792 188.946 190.692 189.494C198.431 190.075 206.285 191.173 213.793 193.165C229.386 197.32 227.075 220.248 216.68 226.944Z" fill="white"/>
<path d="M178.535 51.337C106.576 53.0428 51.0773 113.965 51.6547 178.9C49.922 255.474 115.499 315.037 187.803 311.458C254.768 308.165 312.49 252.702 312.693 182.451C312.896 106.283 249.455 49.6629 178.535 51.337ZM264.268 211.642C263.719 228.737 257.885 243.489 240.761 249.986C231.177 253.625 220.548 254.81 210.299 256.309C205.42 257.001 203.05 257.983 203.396 263.443C203.861 270.835 203.312 278.283 203.599 285.703C203.714 289.254 202.473 289.977 199.125 290.093C183.329 290.641 183.329 290.757 183.329 274.787C183.329 270.95 183.271 267.109 183.329 263.296C183.386 259.657 184.137 255.963 178.217 256.369C173.569 256.687 168.804 255.617 169.122 262.862C169.439 270.517 169.353 278.195 168.948 285.846C168.862 287.289 166.61 289.687 165.195 289.83C148.937 291.421 148.937 291.333 148.937 274.875C148.937 270.803 148.389 266.703 148.822 262.691C149.428 257.176 146.599 256.337 142.094 256.424C132.738 256.655 123.382 256.627 113.998 256.715C113.045 256.715 111.283 256.83 111.283 256.77C110.764 250.825 110.157 244.849 110.186 238.868C110.215 237.858 112.814 236.157 114.373 235.982C132.016 233.989 132.738 234.077 133.258 216.581C134.095 189.784 133.893 162.991 133.98 136.17C133.98 129.788 130.399 126.901 123.931 126.785C107.703 126.439 107.905 126.32 108.165 110.414C108.251 106.08 109.811 105.245 113.622 105.448C118.647 105.734 123.729 105.531 128.753 105.531V105.13C135.221 105.13 144.577 107.671 147.378 104.466C150.785 100.597 148.822 91.9043 148.909 85.2915C149.024 72.9368 148.966 73.3384 161.47 72.7619C167.88 72.5034 169.814 74.2649 169.266 80.5874C168.66 87.4865 169.179 94.4731 169.093 101.404C169.006 108.709 174.521 104.752 177.467 105.36C180.239 105.965 183.733 106.689 183.444 101.289C182.982 93.4074 183.559 85.4665 183.213 77.5852C183.069 73.6287 184.513 72.9368 188.093 72.8493C203.511 72.5034 203.455 72.3881 203.543 87.8325C203.543 93.5784 201.837 100.625 204.553 104.637C206.832 108.017 214.427 107.699 219.625 109.23C223.928 110.53 228.231 111.941 232.418 113.647C257.83 124.069 262.216 152.942 240.992 170.442C238.077 172.836 236.864 173.906 241.573 175.81C257.599 182.28 264.845 193.625 264.268 211.642Z" fill="white"/>
<path d="M169.035 164.406C169.295 159.177 169.122 153.924 169.122 148.667C169.122 147.717 169.093 146.763 169.122 145.812C169.757 123.521 165.888 128.225 188.583 128.4C193.928 128.428 199.412 129.931 204.494 131.72C213.505 134.897 215.641 140.814 214.659 151.356C213.824 160.247 206.514 167.321 197.913 167.985C189.796 168.649 181.654 168.446 173.54 168.852C170.104 169.027 168.862 167.897 169.035 164.406Z" fill="#FDFDFD"/>
<path d="M216.68 226.944C212.294 229.803 206.75 231.768 201.52 232.344C192.513 233.382 183.301 232.949 174.205 233.299C171 233.414 169.325 232.778 169.498 229.052C169.759 222.845 169.557 216.637 169.557 210.398H168.748C169.123 203.527 166.957 193.972 170.596 190.592C174.379 187.069 183.792 188.946 190.692 189.494C198.431 190.075 206.285 191.173 213.793 193.165C229.386 197.32 227.075 220.248 216.68 226.944Z" fill="#FDFDFD"/>
<path d="M216.68 226.944C212.294 229.803 206.75 231.768 201.52 232.344C192.513 233.382 183.301 232.949 174.205 233.299C171 233.414 169.325 232.778 169.498 229.052C169.759 222.845 169.557 216.637 169.557 210.398H168.748C169.123 203.527 166.957 193.972 170.596 190.592C174.379 187.069 183.792 188.946 190.692 189.494C198.431 190.075 206.285 191.173 213.793 193.165C229.386 197.32 227.075 220.248 216.68 226.944Z" fill="white"/>
<path d="M214.659 151.356C213.824 160.247 206.514 167.321 197.913 167.985C189.796 168.649 181.654 168.446 173.54 168.852C170.104 169.027 168.862 167.897 169.035 164.406C169.295 159.177 169.122 153.924 169.122 148.667C169.122 147.717 169.093 146.763 169.122 145.812C169.757 123.521 165.888 128.225 188.583 128.4C193.928 128.428 199.412 129.931 204.494 131.72C213.505 134.897 215.641 140.814 214.659 151.356Z" fill="white"/>
</svg>
