<svg width="14" height="13" viewBox="0 0 14 13" fill="none" xmlns="http://www.w3.org/2000/svg">
<path d="M10.1312 1.6666C9.31655 1.6266 8.34521 2.0066 7.53788 3.1066L7.00121 3.83327L6.46388 3.1066C5.65588 2.0066 4.68388 1.6266 3.86921 1.6666C3.04055 1.71327 2.30321 2.1866 1.92921 2.93994C1.56121 3.6866 1.50721 4.79327 2.24855 6.15327C2.96455 7.4666 4.41988 8.99994 7.00121 10.5599C9.58121 8.99994 11.0359 7.4666 11.7519 6.15327C12.4925 4.79327 12.4385 3.6866 12.0699 2.93994C11.6959 2.1866 10.9592 1.71327 10.1312 1.6666ZM12.9225 6.79327C12.0219 8.4466 10.2552 10.2066 7.33655 11.9066L7.00121 12.1066L6.66521 11.9066C3.74588 10.2066 1.97921 8.4466 1.07721 6.79327C0.170547 5.1266 0.137214 3.55327 0.734547 2.3466C1.32588 1.15327 2.49921 0.406603 3.80188 0.339937C4.90255 0.279937 6.04721 0.71327 7.00055 1.67994C7.95321 0.71327 9.09788 0.279937 10.1979 0.339937C11.5005 0.406603 12.6739 1.15327 13.2652 2.3466C13.8625 3.55327 13.8292 5.1266 12.9225 6.79327Z" fill="#536471"/>
</svg>
