<?xml version="1.0" encoding="UTF-8" standalone="no"?>
<!DOCTYPE svg PUBLIC "-//W3C//DTD SVG 1.1//EN" "http://www.w3.org/Graphics/SVG/1.1/DTD/svg11.dtd">
<svg width="86" height="86" viewBox="0 0 86 86" fill="none" xmlns="http://www.w3.org/2000/svg" xmlns:xlink="http://www.w3.org/1999/xlink">
<g stroke-width="2.00" fill="none" stroke-linecap="butt">
<path stroke="#88879c" vector-effect="non-scaling-stroke" d="
  M 17.55 29.38
  C 13.54 28.01 8.64 31.06 8.60 35.65
  C 8.55 40.54 8.41 45.95 12.45 49.18
  Q 12.85 49.50 12.73 50.01
  Q 9.80 62.05 18.73 70.14
  Q 25.40 76.20 39.06 81.93
  C 41.20 82.83 44.36 82.93 46.49 82.08
  Q 58.30 77.36 66.13 71.04
  Q 76.34 62.80 73.30 50.12
  Q 73.19 49.65 73.54 49.33
  Q 77.29 45.84 77.31 39.76
  C 77.32 37.16 77.92 33.97 76.14 31.92
  Q 72.75 28.01 68.37 29.35
  Q 67.83 29.51 67.72 28.96
  Q 66.65 23.49 64.84 19.16
  C 55.97 -2.01 30.02 -1.86 21.08 19.28
  Q 19.18 23.78 18.27 28.95
  Q 18.16 29.59 17.55 29.38"
/>
<path stroke="#88879c" vector-effect="non-scaling-stroke" d="
  M 48.38 77.37
  Q 55.28 74.03 61.30 70.12
  C 67.29 66.22 72.24 58.96 69.95 51.98
  C 68.58 47.83 67.22 43.92 66.36 39.58
  Q 64.39 29.68 62.09 22.44
  Q 59.58 14.55 53.34 10.29
  C 41.67 2.31 27.73 9.86 23.76 22.67
  Q 21.42 30.20 19.72 39.20
  C 19.07 42.66 17.99 46.21 16.76 49.59
  C 14.27 56.41 16.07 63.03 21.58 67.73
  Q 27.32 72.63 39.04 77.97
  C 42.27 79.44 45.30 78.86 48.38 77.37"
/>
<path stroke="#88879c" vector-effect="non-scaling-stroke" d="
  M 12.15 35.55
  A 0.98 0.98 0.0 0 0 12.02 36.15
  L 12.86 44.11
  A 0.98 0.98 0.0 0 0 14.79 44.22
  L 17.05 34.01
  A 0.98 0.98 0.0 0 0 16.02 32.82
  L 14.15 32.95
  A 0.98 0.98 0.0 0 0 13.37 33.44
  L 12.15 35.55"
/>
<path stroke="#88879c" vector-effect="non-scaling-stroke" d="
  M 70.77 32.85
  Q 68.65 32.33 69.04 34.48
  Q 69.91 39.28 71.27 44.00
  Q 72.02 46.62 72.86 44.03
  Q 74.11 40.15 73.71 35.68
  Q 73.51 33.52 71.41 33.01
  Q 71.25 32.97 70.77 32.85"
/>
<path stroke="#88879c" vector-effect="non-scaling-stroke" d="
  M 31.84 48.63
  C 28.43 54.50 25.79 62.44 30.30 68.53
  Q 32.56 71.59 36.18 72.90
  C 46.55 76.64 59.88 71.54 57.93 58.54
  Q 57.09 52.97 54.33 48.28
  A 0.32 0.32 0.0 0 1 54.59 47.79
  C 65.56 47.30 67.27 32.16 56.31 29.24
  C 52.82 28.31 48.81 30.72 45.76 32.23
  C 43.00 33.60 39.69 31.53 37.22 30.34
  Q 30.80 27.26 25.75 31.45
  C 18.53 37.44 22.98 46.51 31.44 47.79
  Q 32.26 47.91 31.84 48.63"
/>
<path stroke="#88879c" vector-effect="non-scaling-stroke" d="
  M 37.01 45.03
  Q 37.43 46.24 36.68 47.31
  Q 33.41 52.00 31.95 57.89
  C 27.85 74.39 56.54 74.38 54.34 59.58
  Q 53.31 52.72 49.12 46.89
  A 1.83 1.83 0.0 0 1 50.61 43.99
  Q 52.52 43.99 54.53 43.98
  C 61.65 43.95 61.92 33.42 54.74 32.88
  C 52.26 32.70 49.82 34.59 47.49 35.49
  C 44.28 36.72 40.94 36.34 37.96 34.76
  C 34.92 33.15 31.50 31.78 28.33 34.03
  C 25.33 36.15 25.16 40.58 28.19 42.77
  C 30.36 44.33 33.22 43.97 35.75 44.09
  A 1.40 1.39 81.7 0 1 37.01 45.03"
/>
<path stroke="#88879c" vector-effect="non-scaling-stroke" d="
  M 38.04 38.72
  C 35.89 37.71 33.83 36.72 31.40 36.99
  A 0.36 0.36 0.0 0 0 31.09 37.44
  Q 32.47 42.94 38.03 40.50
  A 0.98 0.97 45.5 0 0 38.04 38.72"
/>
<path stroke="#88879c" vector-effect="non-scaling-stroke" d="
  M 54.58 36.93
  C 52.11 36.90 50.43 37.85 48.21 38.60
  A 1.09 1.08 46.3 0 0 48.17 40.64
  Q 53.76 42.81 54.99 37.45
  A 0.43 0.43 0.0 0 0 54.58 36.93"
/>
<path stroke="#88879c" vector-effect="non-scaling-stroke" d="
  M 41.2893 53.4625
  A 2.16 1.77 47.5 0 0 41.1350 50.6742
  A 2.16 1.77 47.5 0 0 38.3707 50.2775
  A 2.16 1.77 47.5 0 0 38.5250 53.0658
  A 2.16 1.77 47.5 0 0 41.2893 53.4625"
/>
<path stroke="#88879c" vector-effect="non-scaling-stroke" d="
  M 44.6824 53.3844
  A 2.13 1.77 134.3 0 0 47.4368 53.0962
  A 2.13 1.77 134.3 0 0 47.6576 50.3356
  A 2.13 1.77 134.3 0 0 44.9032 50.6238
  A 2.13 1.77 134.3 0 0 44.6824 53.3844"
/>
<path stroke="#88879c" vector-effect="non-scaling-stroke" d="
  M 50.07 61.81
  A 1.80 1.80 0.0 0 0 48.27 60.01
  L 37.71 60.01
  A 1.80 1.80 0.0 0 0 35.91 61.81
  L 35.91 61.95
  A 1.80 1.80 0.0 0 0 37.71 63.75
  L 48.27 63.75
  A 1.80 1.80 0.0 0 0 50.07 61.95
  L 50.07 61.81"
/>
</g>
<path fill="#110e39" d="
  M 40.08 0.00
  L 46.03 0.00
  C 68.03 2.29 84.05 18.16 86.00 40.08
  L 86.00 46.04
  Q 85.04 56.58 80.18 64.70
  Q 68.83 83.71 45.91 86.00
  L 39.94 86.00
  C 18.10 84.01 2.02 67.76 0.00 45.92
  L 0.00 39.95
  C 2.00 18.12 18.24 2.00 40.08 0.00
  Z
  M 17.55 29.38
  C 13.54 28.01 8.64 31.06 8.60 35.65
  C 8.55 40.54 8.41 45.95 12.45 49.18
  Q 12.85 49.50 12.73 50.01
  Q 9.80 62.05 18.73 70.14
  Q 25.40 76.20 39.06 81.93
  C 41.20 82.83 44.36 82.93 46.49 82.08
  Q 58.30 77.36 66.13 71.04
  Q 76.34 62.80 73.30 50.12
  Q 73.19 49.65 73.54 49.33
  Q 77.29 45.84 77.31 39.76
  C 77.32 37.16 77.92 33.97 76.14 31.92
  Q 72.75 28.01 68.37 29.35
  Q 67.83 29.51 67.72 28.96
  Q 66.65 23.49 64.84 19.16
  C 55.97 -2.01 30.02 -1.86 21.08 19.28
  Q 19.18 23.78 18.27 28.95
  Q 18.16 29.59 17.55 29.38
  Z"
/>
<path fill="#ffffff" d="
  M 18.27 28.95
  Q 19.18 23.78 21.08 19.28
  C 30.02 -1.86 55.97 -2.01 64.84 19.16
  Q 66.65 23.49 67.72 28.96
  Q 67.83 29.51 68.37 29.35
  Q 72.75 28.01 76.14 31.92
  C 77.92 33.97 77.32 37.16 77.31 39.76
  Q 77.29 45.84 73.54 49.33
  Q 73.19 49.65 73.30 50.12
  Q 76.34 62.80 66.13 71.04
  Q 58.30 77.36 46.49 82.08
  C 44.36 82.93 41.20 82.83 39.06 81.93
  Q 25.40 76.20 18.73 70.14
  Q 9.80 62.05 12.73 50.01
  Q 12.85 49.50 12.45 49.18
  C 8.41 45.95 8.55 40.54 8.60 35.65
  C 8.64 31.06 13.54 28.01 17.55 29.38
  Q 18.16 29.59 18.27 28.95
  Z
  M 48.38 77.37
  Q 55.28 74.03 61.30 70.12
  C 67.29 66.22 72.24 58.96 69.95 51.98
  C 68.58 47.83 67.22 43.92 66.36 39.58
  Q 64.39 29.68 62.09 22.44
  Q 59.58 14.55 53.34 10.29
  C 41.67 2.31 27.73 9.86 23.76 22.67
  Q 21.42 30.20 19.72 39.20
  C 19.07 42.66 17.99 46.21 16.76 49.59
  C 14.27 56.41 16.07 63.03 21.58 67.73
  Q 27.32 72.63 39.04 77.97
  C 42.27 79.44 45.30 78.86 48.38 77.37
  Z
  M 12.15 35.55
  A 0.98 0.98 0.0 0 0 12.02 36.15
  L 12.86 44.11
  A 0.98 0.98 0.0 0 0 14.79 44.22
  L 17.05 34.01
  A 0.98 0.98 0.0 0 0 16.02 32.82
  L 14.15 32.95
  A 0.98 0.98 0.0 0 0 13.37 33.44
  L 12.15 35.55
  Z
  M 70.77 32.85
  Q 68.65 32.33 69.04 34.48
  Q 69.91 39.28 71.27 44.00
  Q 72.02 46.62 72.86 44.03
  Q 74.11 40.15 73.71 35.68
  Q 73.51 33.52 71.41 33.01
  Q 71.25 32.97 70.77 32.85
  Z"
/>
<path fill="#110e39" d="
  M 48.38 77.37
  C 45.30 78.86 42.27 79.44 39.04 77.97
  Q 27.32 72.63 21.58 67.73
  C 16.07 63.03 14.27 56.41 16.76 49.59
  C 17.99 46.21 19.07 42.66 19.72 39.20
  Q 21.42 30.20 23.76 22.67
  C 27.73 9.86 41.67 2.31 53.34 10.29
  Q 59.58 14.55 62.09 22.44
  Q 64.39 29.68 66.36 39.58
  C 67.22 43.92 68.58 47.83 69.95 51.98
  C 72.24 58.96 67.29 66.22 61.30 70.12
  Q 55.28 74.03 48.38 77.37
  Z
  M 31.84 48.63
  C 28.43 54.50 25.79 62.44 30.30 68.53
  Q 32.56 71.59 36.18 72.90
  C 46.55 76.64 59.88 71.54 57.93 58.54
  Q 57.09 52.97 54.33 48.28
  A 0.32 0.32 0.0 0 1 54.59 47.79
  C 65.56 47.30 67.27 32.16 56.31 29.24
  C 52.82 28.31 48.81 30.72 45.76 32.23
  C 43.00 33.60 39.69 31.53 37.22 30.34
  Q 30.80 27.26 25.75 31.45
  C 18.53 37.44 22.98 46.51 31.44 47.79
  Q 32.26 47.91 31.84 48.63
  Z"
/>
<path fill="#ffffff" d="
  M 31.44 47.79
  C 22.98 46.51 18.53 37.44 25.75 31.45
  Q 30.80 27.26 37.22 30.34
  C 39.69 31.53 43.00 33.60 45.76 32.23
  C 48.81 30.72 52.82 28.31 56.31 29.24
  C 67.27 32.16 65.56 47.30 54.59 47.79
  A 0.32 0.32 0.0 0 0 54.33 48.28
  Q 57.09 52.97 57.93 58.54
  C 59.88 71.54 46.55 76.64 36.18 72.90
  Q 32.56 71.59 30.30 68.53
  C 25.79 62.44 28.43 54.50 31.84 48.63
  Q 32.26 47.91 31.44 47.79
  Z
  M 37.01 45.03
  Q 37.43 46.24 36.68 47.31
  Q 33.41 52.00 31.95 57.89
  C 27.85 74.39 56.54 74.38 54.34 59.58
  Q 53.31 52.72 49.12 46.89
  A 1.83 1.83 0.0 0 1 50.61 43.99
  Q 52.52 43.99 54.53 43.98
  C 61.65 43.95 61.92 33.42 54.74 32.88
  C 52.26 32.70 49.82 34.59 47.49 35.49
  C 44.28 36.72 40.94 36.34 37.96 34.76
  C 34.92 33.15 31.50 31.78 28.33 34.03
  C 25.33 36.15 25.16 40.58 28.19 42.77
  C 30.36 44.33 33.22 43.97 35.75 44.09
  A 1.40 1.39 81.7 0 1 37.01 45.03
  Z"
/>
<path fill="#110e39" d="
  M 12.15 35.55
  L 13.37 33.44
  A 0.98 0.98 0.0 0 1 14.15 32.95
  L 16.02 32.82
  A 0.98 0.98 0.0 0 1 17.05 34.01
  L 14.79 44.22
  A 0.98 0.98 0.0 0 1 12.86 44.11
  L 12.02 36.15
  A 0.98 0.98 0.0 0 1 12.15 35.55
  Z"
/>
<path fill="#110e39" d="
  M 37.01 45.03
  A 1.40 1.39 81.7 0 0 35.75 44.09
  C 33.22 43.97 30.36 44.33 28.19 42.77
  C 25.16 40.58 25.33 36.15 28.33 34.03
  C 31.50 31.78 34.92 33.15 37.96 34.76
  C 40.94 36.34 44.28 36.72 47.49 35.49
  C 49.82 34.59 52.26 32.70 54.74 32.88
  C 61.92 33.42 61.65 43.95 54.53 43.98
  Q 52.52 43.99 50.61 43.99
  A 1.83 1.83 0.0 0 0 49.12 46.89
  Q 53.31 52.72 54.34 59.58
  C 56.54 74.38 27.85 74.39 31.95 57.89
  Q 33.41 52.00 36.68 47.31
  Q 37.43 46.24 37.01 45.03
  Z
  M 38.04 38.72
  C 35.89 37.71 33.83 36.72 31.40 36.99
  A 0.36 0.36 0.0 0 0 31.09 37.44
  Q 32.47 42.94 38.03 40.50
  A 0.98 0.97 45.5 0 0 38.04 38.72
  Z
  M 54.58 36.93
  C 52.11 36.90 50.43 37.85 48.21 38.60
  A 1.09 1.08 46.3 0 0 48.17 40.64
  Q 53.76 42.81 54.99 37.45
  A 0.43 0.43 0.0 0 0 54.58 36.93
  Z
  M 41.2893 53.4625
  A 2.16 1.77 47.5 0 0 41.1350 50.6742
  A 2.16 1.77 47.5 0 0 38.3707 50.2775
  A 2.16 1.77 47.5 0 0 38.5250 53.0658
  A 2.16 1.77 47.5 0 0 41.2893 53.4625
  Z
  M 44.6824 53.3844
  A 2.13 1.77 134.3 0 0 47.4368 53.0962
  A 2.13 1.77 134.3 0 0 47.6576 50.3356
  A 2.13 1.77 134.3 0 0 44.9032 50.6238
  A 2.13 1.77 134.3 0 0 44.6824 53.3844
  Z
  M 50.07 61.81
  A 1.80 1.80 0.0 0 0 48.27 60.01
  L 37.71 60.01
  A 1.80 1.80 0.0 0 0 35.91 61.81
  L 35.91 61.95
  A 1.80 1.80 0.0 0 0 37.71 63.75
  L 48.27 63.75
  A 1.80 1.80 0.0 0 0 50.07 61.95
  L 50.07 61.81
  Z"
/>
<path fill="#110e39" d="
  M 73.71 35.68
  Q 74.11 40.15 72.86 44.03
  Q 72.02 46.62 71.27 44.00
  Q 69.91 39.28 69.04 34.48
  Q 68.65 32.33 70.77 32.85
  Q 71.25 32.97 71.41 33.01
  Q 73.51 33.52 73.71 35.68
  Z"
/>
<path fill="#ffffff" d="
  M 31.40 36.99
  C 33.83 36.72 35.89 37.71 38.04 38.72
  A 0.98 0.97 45.5 0 1 38.03 40.50
  Q 32.47 42.94 31.09 37.44
  A 0.36 0.36 0.0 0 1 31.40 36.99
  Z"
/>
<path fill="#ffffff" d="
  M 48.21 38.60
  C 50.43 37.85 52.11 36.90 54.58 36.93
  A 0.43 0.43 0.0 0 1 54.99 37.45
  Q 53.76 42.81 48.17 40.64
  A 1.09 1.08 46.3 0 1 48.21 38.60
  Z"
/>
<ellipse fill="#ffffff" cx="0.00" cy="0.00" transform="translate(39.83,51.87) rotate(47.5)" rx="2.16" ry="1.77"/>
<ellipse fill="#ffffff" cx="0.00" cy="0.00" transform="translate(46.17,51.86) rotate(134.3)" rx="2.13" ry="1.77"/>
<rect fill="#ffffff" x="35.91" y="60.01" width="14.16" height="3.74" rx="1.80"/>
</svg>
