<svg width="1526" height="404" viewBox="0 0 1526 404" fill="none" xmlns="http://www.w3.org/2000/svg">
<path d="M380.43 327.09V75.5801C380.43 75.5138 380.457 75.4502 380.506 75.4033C380.555 75.3564 380.621 75.3301 380.69 75.3301C407.656 75.2567 435.013 75.2701 462.76 75.3701C468.55 75.3901 473.11 73.7301 475.5 68.3301C476.293 66.5501 476.67 63.6801 476.63 59.7201C476.47 44.0267 476.446 28.5201 476.56 13.2001C476.61 5.99006 471.36 0.990064 464.2 1.00006C413.553 1.08673 361.936 1.08673 309.35 1.00006C301.9 0.980064 296.77 5.67006 296.77 13.4901C296.756 138.363 296.76 263.967 296.78 390.3C296.78 397.54 302.38 402.07 309.26 402.07C365.72 402.01 417.653 402.02 465.06 402.1C471.94 402.11 476.6 396.13 476.56 389.62C476.46 374.233 476.466 358.157 476.58 341.39C476.61 335.67 474.83 331.13 469.52 328.74C468 328.06 465.64 327.723 462.44 327.73C433.906 327.817 406.796 327.83 381.11 327.77C380.656 327.77 380.43 327.543 380.43 327.09Z" stroke="#828282" stroke-width="2"/>
<path d="M729.631 76.0003V327.53C729.631 327.562 729.625 327.593 729.612 327.622C729.6 327.651 729.583 327.678 729.56 327.7C729.538 327.722 729.512 327.74 729.483 327.752C729.453 327.764 729.422 327.77 729.391 327.77C699.637 327.817 671.804 327.81 645.891 327.75C638.701 327.73 633.481 332.75 633.511 340.02C633.597 356.28 633.587 372.637 633.481 389.09C633.441 396.23 637.811 402.06 645.391 402.06C700.804 402.067 752.904 402.067 801.691 402.06C808.591 402.06 813.281 396.59 813.281 389.58C813.287 263.28 813.284 137.68 813.271 12.7803C813.271 6.62027 808.421 1.03027 801.931 1.03027C748.531 1.03694 696.277 1.04027 645.171 1.04027C639.201 1.04027 633.611 5.90028 633.601 12.1103C633.554 29.4236 633.544 46.6003 633.571 63.6403C633.581 68.3803 636.361 72.5703 640.701 74.4003C642.367 75.1003 645.651 75.4369 650.551 75.4103C677.631 75.2503 703.777 75.2336 728.991 75.3603C729.417 75.3603 729.631 75.5736 729.631 76.0003Z" stroke="#828282" stroke-width="2"/>
<path d="M19.65 152.85V79.9899C19.649 79.9219 19.6318 79.8552 19.6 79.7952C19.5682 79.7351 19.5227 79.6835 19.4671 79.6444C19.4114 79.6054 19.3474 79.5801 19.2801 79.5706C19.2128 79.5611 19.1442 79.5677 19.08 79.5899L1.6 85.7299C1.2 85.8699 1 86.1532 1 86.5798V256.56C1 256.98 1.18333 257.297 1.55 257.51C17.2367 266.35 33.82 270.673 51.3 270.48C79.77 270.17 104.99 253.8 112.43 225.92C116.25 211.58 115.807 197.067 111.1 182.38C104.8 162.75 89.14 148.57 68.8 144.22C50.4667 140.293 34.3167 143.29 20.35 153.21C19.8833 153.543 19.65 153.423 19.65 152.85Z" stroke="#828282" stroke-width="2"/>
<path d="M1325.53 159.92C1325.43 184.726 1325.4 208.353 1325.45 230.8C1325.46 235.893 1326.09 240.63 1327.33 245.01C1331.47 259.63 1343.15 263.46 1357.49 262.18C1366.65 261.366 1375.3 259.043 1383.43 255.21C1383.81 255.03 1384 254.73 1384 254.31V239.07C1384 239.023 1383.99 238.977 1383.97 238.936C1383.95 238.895 1383.91 238.86 1383.88 238.834C1383.84 238.809 1383.79 238.793 1383.75 238.788C1383.7 238.784 1383.65 238.792 1383.61 238.81C1375.32 242.283 1366.67 244.356 1357.66 245.03C1351.49 245.5 1346.69 244.12 1345.13 237.18C1344.5 234.38 1344.19 231.35 1344.2 228.09C1344.23 205.196 1344.24 182.346 1344.21 159.54C1344.21 159.474 1344.24 159.41 1344.29 159.363C1344.34 159.316 1344.4 159.29 1344.47 159.29H1382.83C1383.27 159.29 1383.49 159.07 1383.49 158.63V144.29C1383.49 144.131 1383.43 143.978 1383.31 143.866C1383.2 143.753 1383.05 143.69 1382.89 143.69H1344.55C1344.51 143.69 1344.46 143.681 1344.42 143.665C1344.38 143.648 1344.35 143.624 1344.32 143.593C1344.29 143.563 1344.26 143.526 1344.25 143.486C1344.23 143.446 1344.22 143.403 1344.22 143.36V115.81C1344.22 113.136 1343.34 112.806 1341.59 114.82C1328.95 129.286 1316.97 143.023 1305.65 156.03C1304.95 156.83 1304.73 157.753 1304.99 158.8C1305.07 159.126 1305.28 159.29 1305.61 159.29H1324.9C1325.33 159.29 1325.54 159.5 1325.53 159.92Z" stroke="#828282" stroke-width="2"/>
<path d="M451.97 226.85C440.704 226.83 429.604 226.83 418.67 226.85C415.62 226.85 413.4 229.15 413.4 232.14C413.4 241.8 413.41 250.95 413.43 259.59C413.43 263.55 416.04 265.07 419.58 265.07C456.754 265.03 495.73 265.024 536.51 265.05C537.188 265.05 537.86 264.916 538.486 264.656C539.112 264.396 539.681 264.015 540.159 263.535C540.638 263.054 541.016 262.484 541.274 261.857C541.532 261.23 541.663 260.558 541.66 259.88C541.634 251.927 541.644 242.894 541.69 232.78C541.7 229.63 539.98 226.9 536.54 226.88C525.734 226.82 514.714 226.814 503.48 226.86C503.094 226.86 502.9 226.667 502.9 226.28V173.33C502.9 173.004 503.06 172.84 503.38 172.84H536.68C537.989 172.843 539.245 172.325 540.173 171.401C541.101 170.477 541.625 169.221 541.63 167.91C541.664 158.344 541.667 149.07 541.64 140.09C541.63 136.76 539.38 134.7 536.25 134.7C496.684 134.714 457.407 134.72 418.42 134.72C415.62 134.72 413.4 137 413.41 139.83C413.41 149.217 413.41 158.554 413.41 167.84C413.41 169.166 413.937 170.438 414.875 171.376C415.813 172.313 417.084 172.84 418.41 172.84L452.34 172.85C452.401 172.85 452.46 172.873 452.503 172.915C452.546 172.956 452.57 173.012 452.57 173.07V226.25C452.57 226.65 452.37 226.85 451.97 226.85Z" stroke="#828282" stroke-width="2"/>
<path d="M648.6 193.64C648.6 194.18 648.44 194.234 648.12 193.8C634.713 175.367 621.49 157.107 608.45 139.02C606.83 136.77 604.36 134.8 601.5 134.78C591.013 134.694 580.67 134.677 570.47 134.73C569.131 134.736 567.849 135.27 566.905 136.216C565.96 137.163 565.43 138.444 565.43 139.78V259.83C565.43 261.21 565.978 262.534 566.955 263.511C567.932 264.488 569.257 265.038 570.64 265.04C582.566 265.06 593.993 265.054 604.92 265.02C608.26 265.01 610.21 262.63 610.2 259.56C610.153 243.254 610.153 226.784 610.2 210.15C610.2 209.617 610.363 209.56 610.69 209.98C623.63 226.52 637.113 243.687 651.14 261.48C653.04 263.887 655.54 265.084 658.64 265.07C667.926 265.024 677.6 265.027 687.66 265.08C690.79 265.1 693.34 263.1 693.34 259.81C693.346 219.117 693.346 179.097 693.34 139.75C693.34 138.418 692.81 137.14 691.867 136.197C690.924 135.254 689.645 134.723 688.31 134.72C677.683 134.714 666.88 134.707 655.9 134.7C655.4 134.7 654.903 134.69 654.41 134.67C650.6 134.53 648.52 136.97 648.54 140.67C648.64 159.477 648.66 177.134 648.6 193.64Z" stroke="#828282" stroke-width="2"/>
<path d="M870.63 209.52C865.95 178.83 888.4 154.15 919.73 156.16C929.736 156.8 939.396 158.9 948.71 162.46C949.143 162.627 949.36 162.48 949.36 162.02V145.29C949.36 144.883 949.166 144.617 948.78 144.49C936.513 140.35 923.836 138.667 910.75 139.44C874.25 141.6 849.1 168.21 850.85 204.82C852.096 230.993 864.08 249.097 886.8 259.13C905.67 267.47 929.33 265.98 948.77 259.87C949.163 259.743 949.36 259.477 949.36 259.07V242.26C949.359 242.191 949.342 242.123 949.31 242.062C949.277 242.001 949.231 241.948 949.174 241.909C949.117 241.87 949.051 241.845 948.983 241.836C948.914 241.828 948.844 241.836 948.78 241.86C939.28 245.507 929.533 247.617 919.54 248.19C894.78 249.62 874.43 234.45 870.63 209.52Z" stroke="#828282" stroke-width="2"/>
<path d="M1198.43 156.95L1198.42 144.25C1198.42 143.877 1198.23 143.69 1197.86 143.69H1180.53C1180.12 143.69 1179.92 143.897 1179.92 144.31V307.98C1179.92 308.427 1180.14 308.65 1180.59 308.65L1197.88 308.62C1198.25 308.62 1198.43 308.44 1198.43 308.08L1198.42 256.05C1198.42 255.483 1198.66 255.357 1199.13 255.67C1207.74 261.4 1217.55 263.8 1228.68 264.67C1242.73 265.777 1255.28 262.327 1266.32 254.32C1280.42 244.1 1288.79 229.833 1291.43 211.52C1293.88 194.52 1290.96 174.91 1280.71 160.7C1269.57 145.25 1251.07 136.93 1232.14 139.81C1219.27 141.763 1208.13 147.517 1198.71 157.07C1198.69 157.094 1198.66 157.109 1198.63 157.116C1198.6 157.122 1198.57 157.119 1198.54 157.106C1198.51 157.093 1198.48 157.071 1198.46 157.044C1198.44 157.016 1198.43 156.983 1198.43 156.95Z" stroke="#828282" stroke-width="2"/>
<path d="M1430.95 257.8C1437.61 261.207 1444.98 263.377 1453.05 264.31C1488.07 268.38 1519.29 248.64 1524.13 212.3C1527.13 189.81 1520.72 167 1502.68 152.67C1487.02 140.24 1465.57 136.78 1446.31 140.92C1420.97 146.35 1402.98 165.39 1399.55 191.15C1395.89 218.69 1405.51 244.78 1430.95 257.8Z" stroke="#828282" stroke-width="2"/>
<path d="M992.869 172.3L992.879 144.23C992.879 143.87 992.699 143.69 992.339 143.69H974.739C974.691 143.69 974.642 143.7 974.598 143.719C974.553 143.738 974.512 143.766 974.478 143.801C974.443 143.837 974.416 143.879 974.397 143.925C974.379 143.971 974.369 144.02 974.369 144.07V260.04C974.369 260.138 974.408 260.232 974.478 260.302C974.547 260.371 974.641 260.41 974.739 260.41H992.209C992.663 260.41 992.889 260.183 992.889 259.73C992.869 244.037 992.866 228.087 992.879 211.88C992.889 205.44 993.639 198.52 995.309 192.58C1001.2 171.6 1015.66 160.9 1038.69 160.48C1038.99 160.473 1039.14 160.32 1039.14 160.02V140.35C1039.14 139.963 1038.95 139.793 1038.57 139.84C1032.09 140.58 1026.09 141.917 1020.57 143.85C1006.67 148.71 999.129 159.34 993.229 172.37C992.989 172.903 992.869 172.88 992.869 172.3Z" stroke="#828282" stroke-width="2"/>
<path d="M151.86 207.06H251.14C251.506 207.06 251.69 206.877 251.69 206.51C251.96 172.82 230.95 142.29 194.82 142.63C165.62 142.9 141.22 158.28 134.03 187.54C131.503 197.807 131.11 208.557 132.85 219.79C135.93 239.69 146.98 255.55 164.84 263.98C187.88 274.86 218.05 271.16 241.09 261.24C241.483 261.067 241.68 260.767 241.68 260.34L241.69 243.09C241.69 242.657 241.496 242.544 241.11 242.75C229.223 249.27 215.896 252.94 201.13 253.76C171.25 255.43 151.14 238.16 151.19 207.72C151.19 207.28 151.413 207.06 151.86 207.06Z" stroke="#828282" stroke-width="2"/>
<path d="M1103.69 235.76C1103.67 235.816 1103.63 235.864 1103.58 235.897C1103.52 235.93 1103.47 235.948 1103.4 235.948C1103.34 235.948 1103.28 235.93 1103.23 235.897C1103.18 235.864 1103.14 235.816 1103.12 235.76L1064.71 143.88C1064.69 143.823 1064.65 143.775 1064.59 143.741C1064.54 143.707 1064.48 143.689 1064.42 143.69H1044.85C1044.8 143.69 1044.75 143.702 1044.7 143.725C1044.66 143.749 1044.62 143.784 1044.59 143.827C1044.56 143.87 1044.54 143.919 1044.54 143.97C1044.53 144.021 1044.54 144.073 1044.56 144.12L1093.58 258.78C1093.6 258.818 1093.6 258.859 1093.6 258.9C1093.6 258.941 1093.6 258.982 1093.58 259.02L1072.31 308.2C1072.29 308.247 1072.28 308.298 1072.29 308.348C1072.29 308.398 1072.31 308.447 1072.34 308.489C1072.36 308.532 1072.4 308.567 1072.44 308.591C1072.49 308.616 1072.54 308.629 1072.59 308.63L1090.45 308.62C1090.51 308.619 1090.57 308.601 1090.62 308.567C1090.67 308.533 1090.71 308.486 1090.73 308.43L1160.99 144.11C1161.01 144.063 1161.02 144.011 1161.01 143.96C1161.01 143.909 1160.99 143.859 1160.96 143.817C1160.93 143.774 1160.89 143.739 1160.85 143.715C1160.8 143.692 1160.75 143.68 1160.7 143.68L1142.87 143.7C1142.81 143.699 1142.75 143.717 1142.7 143.751C1142.64 143.785 1142.6 143.833 1142.58 143.89L1103.69 235.76Z" stroke="#828282" stroke-width="2"/>
<path d="M20.0504 247.65C34.5504 253.43 50.4404 255.58 65.5104 251.42C86.4104 245.66 95.5704 229.03 95.8204 208.14C96.0704 187.76 87.8504 168.56 67.2304 161.9C62.2504 160.287 56.7604 159.68 50.7604 160.08C39.1904 160.86 28.5304 163.89 20.0304 171.69C19.9106 171.8 19.8149 171.934 19.7495 172.082C19.6841 172.23 19.6504 172.389 19.6504 172.55V247.06C19.651 247.187 19.6894 247.311 19.7607 247.416C19.8319 247.521 19.9327 247.603 20.0504 247.65Z" stroke="#828282" stroke-width="2"/>
<path d="M1272.99 195.03C1271.42 172.96 1258.15 157.34 1235.18 156.82C1221.15 156.5 1208.11 163.66 1198.88 174.3C1198.57 174.653 1198.42 175.06 1198.42 175.52V237.86C1198.42 238.061 1198.47 238.259 1198.56 238.436C1198.65 238.614 1198.78 238.766 1198.94 238.88C1207.67 245.13 1217.34 247.86 1228.02 248.84C1237.72 249.72 1246.51 247.603 1254.39 242.49C1269.89 232.43 1274.27 213.09 1272.99 195.03Z" stroke="#828282" stroke-width="2"/>
<path d="M1489.19 163.94C1478.25 155.58 1463.28 153.15 1449.84 156.59C1431.51 161.29 1420.05 175.63 1417.75 194.6C1414.72 219.54 1426.7 243.35 1452.88 248.17C1461.99 249.85 1470.59 249.1 1478.7 245.92C1500.48 237.37 1508.8 215.82 1505.71 193.59C1503.95 180.883 1498.44 171 1489.19 163.94Z" stroke="#828282" stroke-width="2"/>
<path d="M211.11 161.62C209.023 160.72 206.95 160.053 204.89 159.62C192.816 157.087 181.48 158.843 170.88 164.89C160.766 170.663 154.47 179.783 151.99 192.25C151.89 192.743 152.093 192.99 152.6 192.99H231.71C232.216 192.99 232.443 192.743 232.39 192.25C230.99 178.38 224.01 167.17 211.11 161.62Z" stroke="#828282" stroke-width="2"/>
<path d="M381.11 327.77C406.796 327.83 433.906 327.817 462.44 327.73C465.64 327.723 468 328.06 469.52 328.74C474.83 331.13 476.61 335.67 476.58 341.39C476.466 358.157 476.46 374.233 476.56 389.62C476.6 396.13 471.94 402.11 465.06 402.1C417.653 402.02 365.72 402.01 309.26 402.07C302.38 402.07 296.78 397.54 296.78 390.3C296.76 263.967 296.756 138.363 296.77 13.4901C296.77 5.67006 301.9 0.980064 309.35 1.00006C361.936 1.08673 413.553 1.08673 464.2 1.00006C471.36 0.990064 476.61 5.99006 476.56 13.2001C476.446 28.5201 476.47 44.0267 476.63 59.7201C476.67 63.6801 476.293 66.5501 475.5 68.3301C473.11 73.7301 468.55 75.3901 462.76 75.3701C435.013 75.2701 407.656 75.2567 380.69 75.3301C380.621 75.3301 380.555 75.3564 380.506 75.4033C380.457 75.4502 380.43 75.5138 380.43 75.5801V327.09C380.43 327.543 380.656 327.77 381.11 327.77Z" fill="white"/>
<path d="M728.991 75.3603C703.777 75.2336 677.631 75.2503 650.551 75.4103C645.651 75.4369 642.367 75.1003 640.701 74.4003C636.361 72.5703 633.581 68.3803 633.571 63.6403C633.544 46.6003 633.554 29.4236 633.601 12.1103C633.611 5.90028 639.201 1.04027 645.171 1.04027C696.277 1.04027 748.531 1.03694 801.931 1.03027C808.421 1.03027 813.271 6.62027 813.271 12.7803C813.284 137.68 813.287 263.28 813.281 389.58C813.281 396.59 808.591 402.06 801.691 402.06C752.904 402.067 700.804 402.067 645.391 402.06C637.811 402.06 633.441 396.23 633.481 389.09C633.587 372.637 633.597 356.28 633.511 340.02C633.481 332.75 638.701 327.73 645.891 327.75C671.804 327.81 699.637 327.817 729.391 327.77C729.422 327.77 729.453 327.764 729.483 327.752C729.512 327.74 729.538 327.722 729.56 327.7C729.583 327.678 729.6 327.651 729.612 327.622C729.625 327.593 729.631 327.562 729.631 327.53V76.0003C729.631 75.5736 729.417 75.3603 728.991 75.3603Z" fill="white"/>
<path d="M20.35 153.21C34.3167 143.29 50.4667 140.294 68.8 144.22C89.14 148.57 104.8 162.75 111.1 182.38C115.807 197.067 116.25 211.58 112.43 225.92C104.99 253.8 79.77 270.17 51.3 270.48C33.82 270.674 17.2367 266.35 1.55 257.51C1.18333 257.297 1 256.98 1 256.56V86.5803C1 86.1537 1.2 85.8703 1.6 85.7303L19.08 79.5903C19.1442 79.5682 19.2128 79.5616 19.2801 79.5711C19.3474 79.5806 19.4114 79.6059 19.4671 79.6449C19.5227 79.6839 19.5682 79.7356 19.6 79.7956C19.6318 79.8557 19.649 79.9224 19.65 79.9903V152.85C19.65 153.424 19.8833 153.544 20.35 153.21ZM20.05 247.65C34.55 253.43 50.44 255.58 65.51 251.42C86.41 245.66 95.57 229.03 95.82 208.14C96.07 187.76 87.85 168.56 67.23 161.9C62.25 160.287 56.76 159.68 50.76 160.08C39.19 160.86 28.53 163.89 20.03 171.69C19.9102 171.801 19.8146 171.934 19.7491 172.082C19.6837 172.23 19.65 172.39 19.65 172.55V247.06C19.6507 247.187 19.689 247.311 19.7603 247.416C19.8315 247.521 19.9323 247.603 20.05 247.65Z" fill="white"/>
<path d="M1324.9 159.29H1305.61C1305.28 159.29 1305.07 159.127 1304.99 158.8C1304.73 157.754 1304.95 156.83 1305.65 156.03C1316.97 143.024 1328.95 129.287 1341.59 114.82C1343.34 112.807 1344.22 113.137 1344.22 115.81V143.36C1344.22 143.404 1344.23 143.447 1344.25 143.487C1344.26 143.527 1344.29 143.563 1344.32 143.594C1344.35 143.624 1344.38 143.649 1344.42 143.665C1344.46 143.682 1344.51 143.69 1344.55 143.69H1382.89C1383.05 143.69 1383.2 143.754 1383.31 143.866C1383.43 143.979 1383.49 144.131 1383.49 144.29V158.63C1383.49 159.07 1383.27 159.29 1382.83 159.29H1344.47C1344.4 159.29 1344.34 159.317 1344.29 159.364C1344.24 159.41 1344.21 159.474 1344.21 159.54C1344.24 182.347 1344.23 205.197 1344.2 228.09C1344.19 231.35 1344.5 234.38 1345.13 237.18C1346.69 244.12 1351.49 245.5 1357.66 245.03C1366.67 244.357 1375.32 242.284 1383.61 238.81C1383.65 238.792 1383.7 238.785 1383.75 238.789C1383.79 238.793 1383.84 238.809 1383.88 238.835C1383.91 238.861 1383.95 238.896 1383.97 238.937C1383.99 238.978 1384 239.024 1384 239.07V254.31C1384 254.73 1383.81 255.03 1383.43 255.21C1375.3 259.044 1366.65 261.367 1357.49 262.18C1343.15 263.46 1331.47 259.63 1327.33 245.01C1326.09 240.63 1325.46 235.894 1325.45 230.8C1325.4 208.354 1325.43 184.727 1325.53 159.92C1325.54 159.5 1325.33 159.29 1324.9 159.29Z" fill="white"/>
<path d="M452.57 226.25V173.07C452.57 173.012 452.546 172.956 452.503 172.915C452.46 172.873 452.401 172.85 452.34 172.85L418.41 172.84C417.084 172.84 415.813 172.313 414.875 171.376C413.937 170.438 413.41 169.166 413.41 167.84C413.41 158.554 413.41 149.217 413.41 139.83C413.4 137 415.62 134.72 418.42 134.72C457.407 134.72 496.684 134.714 536.25 134.7C539.38 134.7 541.63 136.76 541.64 140.09C541.667 149.07 541.664 158.344 541.63 167.91C541.625 169.221 541.101 170.477 540.173 171.401C539.245 172.325 537.989 172.843 536.68 172.84H503.38C503.06 172.84 502.9 173.004 502.9 173.33V226.28C502.9 226.667 503.094 226.86 503.48 226.86C514.714 226.814 525.734 226.82 536.54 226.88C539.98 226.9 541.7 229.63 541.69 232.78C541.644 242.894 541.634 251.927 541.66 259.88C541.663 260.558 541.532 261.23 541.274 261.857C541.016 262.484 540.638 263.054 540.159 263.535C539.681 264.015 539.112 264.396 538.486 264.656C537.86 264.916 537.188 265.05 536.51 265.05C495.73 265.024 456.754 265.03 419.58 265.07C416.04 265.07 413.43 263.55 413.43 259.59C413.41 250.95 413.4 241.8 413.4 232.14C413.4 229.15 415.62 226.85 418.67 226.85C429.604 226.83 440.704 226.83 451.97 226.85C452.37 226.85 452.57 226.65 452.57 226.25Z" fill="white"/>
<path d="M648.6 193.64C648.66 177.134 648.64 159.477 648.54 140.67C648.52 136.97 650.6 134.53 654.41 134.67C654.903 134.69 655.4 134.7 655.9 134.7C666.88 134.707 677.683 134.714 688.31 134.72C689.645 134.723 690.924 135.254 691.867 136.197C692.81 137.14 693.34 138.418 693.34 139.75C693.346 179.097 693.346 219.117 693.34 259.81C693.34 263.1 690.79 265.1 687.66 265.08C677.6 265.027 667.926 265.024 658.64 265.07C655.54 265.084 653.04 263.887 651.14 261.48C637.113 243.687 623.63 226.52 610.69 209.98C610.363 209.56 610.2 209.617 610.2 210.15C610.153 226.784 610.153 243.254 610.2 259.56C610.21 262.63 608.26 265.01 604.92 265.02C593.993 265.054 582.566 265.06 570.64 265.04C569.257 265.038 567.932 264.488 566.955 263.511C565.978 262.534 565.43 261.21 565.43 259.83V139.78C565.43 138.444 565.96 137.163 566.905 136.216C567.849 135.27 569.131 134.736 570.47 134.73C580.67 134.677 591.013 134.694 601.5 134.78C604.36 134.8 606.83 136.77 608.45 139.02C621.49 157.107 634.713 175.367 648.12 193.8C648.44 194.234 648.6 194.18 648.6 193.64Z" fill="white"/>
<path d="M919.73 156.16C888.4 154.15 865.95 178.83 870.63 209.52C874.43 234.45 894.78 249.62 919.54 248.19C929.533 247.617 939.28 245.507 948.78 241.86C948.844 241.836 948.914 241.828 948.983 241.837C949.051 241.845 949.117 241.87 949.174 241.909C949.231 241.949 949.277 242.001 949.31 242.062C949.342 242.123 949.359 242.191 949.36 242.26V259.07C949.36 259.477 949.163 259.744 948.77 259.87C929.33 265.98 905.67 267.47 886.8 259.13C864.08 249.097 852.096 230.994 850.85 204.82C849.1 168.21 874.25 141.6 910.75 139.44C923.836 138.667 936.513 140.35 948.78 144.49C949.166 144.617 949.36 144.884 949.36 145.29V162.02C949.36 162.48 949.143 162.627 948.71 162.46C939.396 158.9 929.736 156.8 919.73 156.16Z" fill="white"/>
<path d="M1198.43 156.95C1198.43 156.984 1198.44 157.016 1198.46 157.044C1198.48 157.072 1198.51 157.094 1198.54 157.106C1198.57 157.119 1198.6 157.123 1198.63 157.116C1198.66 157.11 1198.69 157.094 1198.71 157.071C1208.13 147.517 1219.27 141.764 1232.14 139.81C1251.07 136.93 1269.57 145.25 1280.71 160.7C1290.96 174.91 1293.88 194.521 1291.43 211.521C1288.79 229.834 1280.42 244.1 1266.32 254.32C1255.28 262.327 1242.73 265.777 1228.68 264.67C1217.55 263.8 1207.74 261.4 1199.13 255.67C1198.66 255.357 1198.42 255.484 1198.42 256.05L1198.43 308.08C1198.43 308.44 1198.25 308.62 1197.88 308.62L1180.59 308.65C1180.14 308.65 1179.92 308.427 1179.92 307.98V144.31C1179.92 143.897 1180.12 143.69 1180.53 143.69H1197.86C1198.23 143.69 1198.42 143.877 1198.42 144.25L1198.43 156.95ZM1272.99 195.03C1271.42 172.96 1258.15 157.341 1235.18 156.821C1221.15 156.501 1208.11 163.66 1198.88 174.3C1198.57 174.654 1198.42 175.06 1198.42 175.52V237.86C1198.42 238.062 1198.47 238.259 1198.56 238.437C1198.65 238.614 1198.78 238.766 1198.94 238.88C1207.67 245.13 1217.34 247.861 1228.02 248.841C1237.72 249.721 1246.51 247.604 1254.39 242.491C1269.89 232.431 1274.27 213.09 1272.99 195.03Z" fill="white"/>
<path d="M1430.95 257.8C1405.51 244.78 1395.89 218.69 1399.55 191.15C1402.98 165.39 1420.97 146.35 1446.31 140.92C1465.57 136.78 1487.02 140.24 1502.68 152.67C1520.72 167 1527.13 189.81 1524.13 212.3C1519.29 248.64 1488.07 268.38 1453.05 264.31C1444.98 263.377 1437.61 261.207 1430.95 257.8ZM1489.19 163.94C1478.25 155.58 1463.28 153.15 1449.84 156.59C1431.51 161.29 1420.05 175.63 1417.75 194.6C1414.72 219.54 1426.7 243.35 1452.88 248.17C1461.99 249.85 1470.59 249.1 1478.7 245.92C1500.48 237.37 1508.8 215.82 1505.71 193.59C1503.95 180.883 1498.44 171 1489.19 163.94Z" fill="white"/>
<path d="M992.871 172.3C992.871 172.88 992.991 172.903 993.231 172.37C999.131 159.34 1006.67 148.71 1020.57 143.85C1026.09 141.917 1032.09 140.58 1038.57 139.84C1038.95 139.793 1039.14 139.963 1039.14 140.35V160.02C1039.14 160.32 1038.99 160.473 1038.69 160.48C1015.66 160.9 1001.2 171.6 995.311 192.58C993.641 198.52 992.891 205.44 992.881 211.88C992.868 228.087 992.871 244.037 992.891 259.73C992.891 260.183 992.665 260.41 992.211 260.41H974.741C974.643 260.41 974.549 260.371 974.479 260.302C974.41 260.232 974.371 260.138 974.371 260.04V144.07C974.371 144.02 974.381 143.971 974.399 143.925C974.418 143.879 974.445 143.837 974.479 143.801C974.514 143.766 974.555 143.738 974.599 143.719C974.644 143.7 974.692 143.69 974.741 143.69H992.341C992.701 143.69 992.881 143.87 992.881 144.23L992.871 172.3Z" fill="white"/>
<path d="M151.19 207.72C151.14 238.16 171.25 255.43 201.13 253.76C215.896 252.94 229.223 249.27 241.11 242.75C241.496 242.544 241.69 242.657 241.69 243.09L241.68 260.34C241.68 260.767 241.483 261.067 241.09 261.24C218.05 271.16 187.88 274.86 164.84 263.98C146.98 255.55 135.93 239.69 132.85 219.79C131.11 208.557 131.503 197.807 134.03 187.54C141.22 158.28 165.62 142.9 194.82 142.63C230.95 142.29 251.96 172.82 251.69 206.51C251.69 206.877 251.506 207.06 251.14 207.06H151.86C151.413 207.06 151.19 207.28 151.19 207.72ZM211.11 161.62C209.023 160.72 206.95 160.054 204.89 159.62C192.816 157.087 181.48 158.844 170.88 164.89C160.766 170.664 154.47 179.784 151.99 192.25C151.89 192.744 152.093 192.99 152.6 192.99H231.71C232.216 192.99 232.443 192.744 232.39 192.25C230.99 178.38 224.01 167.17 211.11 161.62Z" fill="white"/>
<path d="M1103.69 235.76L1142.58 143.89C1142.6 143.833 1142.64 143.785 1142.7 143.751C1142.75 143.717 1142.81 143.699 1142.87 143.7L1160.7 143.68C1160.75 143.68 1160.8 143.692 1160.85 143.715C1160.89 143.739 1160.93 143.774 1160.96 143.817C1160.99 143.859 1161.01 143.909 1161.01 143.96C1161.02 144.011 1161.01 144.063 1160.99 144.11L1090.73 308.43C1090.71 308.486 1090.67 308.533 1090.62 308.567C1090.57 308.601 1090.51 308.619 1090.45 308.62L1072.59 308.63C1072.54 308.629 1072.49 308.616 1072.44 308.591C1072.4 308.567 1072.36 308.532 1072.34 308.489C1072.31 308.447 1072.29 308.398 1072.29 308.348C1072.28 308.298 1072.29 308.247 1072.31 308.2L1093.58 259.02C1093.6 258.982 1093.6 258.941 1093.6 258.9C1093.6 258.859 1093.6 258.818 1093.58 258.78L1044.56 144.12C1044.54 144.073 1044.53 144.021 1044.54 143.97C1044.54 143.919 1044.56 143.87 1044.59 143.827C1044.62 143.784 1044.66 143.749 1044.7 143.725C1044.75 143.702 1044.8 143.69 1044.85 143.69H1064.42C1064.48 143.689 1064.54 143.707 1064.59 143.741C1064.65 143.775 1064.69 143.823 1064.71 143.88L1103.12 235.76C1103.14 235.816 1103.18 235.864 1103.23 235.897C1103.28 235.93 1103.34 235.948 1103.4 235.948C1103.47 235.948 1103.52 235.93 1103.58 235.897C1103.63 235.864 1103.67 235.816 1103.69 235.76Z" fill="white"/>
</svg>
