<svg width="1520" height="629" viewBox="0 0 1520 629" fill="none" xmlns="http://www.w3.org/2000/svg">
<path d="M496.701 175.403C496.587 170.773 498.163 167.516 502.226 165.265C585.422 119.091 669.612 72.2999 754.795 24.893C758.726 22.7154 762.371 23.4474 766.093 25.5152C850.504 72.4463 934.536 119.158 1018.19 165.65C1019.65 166.462 1020.87 167.633 1021.72 169.047C1022.57 170.461 1023.01 172.066 1023.01 173.701L1023.03 192.934C1023.03 193.568 1023.36 193.885 1024.02 193.885H1045.27C1045.5 193.885 1045.72 193.798 1045.88 193.641C1046.05 193.484 1046.15 193.27 1046.16 193.044C1046.6 184.321 1046.51 176.605 1045.87 169.895C1044.85 158.842 1037.94 150.59 1028.16 145.155C943.1 97.9674 859.992 51.7988 778.835 6.6488C770.15 1.81784 762.042 0.0855249 754.51 1.45186C750.396 2.19602 744.085 4.93478 735.578 9.66815C656.408 53.647 576.542 98.0345 495.979 142.831C488.814 146.808 484.035 150.126 481.642 152.785C471.389 164.186 473.211 178.166 473.477 192.714C473.49 193.47 473.889 193.849 474.674 193.849L495.618 193.885C496.403 193.897 496.802 193.519 496.814 192.751C496.89 187.298 496.852 181.515 496.701 175.403Z" stroke="#7B7B7B" stroke-width="2"/>
<path d="M764.136 95.052C822.609 127.49 881.328 160.124 940.295 192.952C941.439 193.588 942.735 193.922 944.054 193.922L977.816 193.849C977.942 193.847 978.065 193.813 978.173 193.751C978.281 193.689 978.37 193.601 978.43 193.496C978.491 193.391 978.52 193.274 978.515 193.156C978.511 193.037 978.473 192.923 978.405 192.824C975.278 188.005 971.215 184.205 966.214 181.424C904.83 147.314 844.066 113.491 783.923 79.9553C775.96 75.5269 770.131 72.904 766.434 72.0867C758.699 70.3787 750.768 71.7878 742.641 76.3137C679.852 111.192 616.898 146.174 553.78 181.259C548.691 184.089 544.671 187.816 541.722 192.44C541.101 193.391 541.374 193.867 542.538 193.867L576.281 193.904C577.239 193.904 578.188 193.658 579.035 193.19C636.937 160.996 694.093 129.186 750.503 97.7603C755.269 95.1069 759.522 92.4718 764.136 95.052Z" stroke="#7B7B7B" stroke-width="2"/>
<path d="M765.522 166.126C778.903 173.494 795.271 182.601 814.627 193.446C815.149 193.745 815.753 193.903 816.374 193.904L859.82 193.885C861.377 193.885 861.478 193.513 860.124 192.769C832.236 177.264 805.088 162.161 778.681 147.461C766.199 140.507 754.078 140.299 742.318 146.838C714.86 162.088 687.339 177.367 659.755 192.678C658.173 193.568 658.299 194.001 660.135 193.977C673.452 193.843 687.004 193.837 700.79 193.959C703.182 193.983 705.543 193.336 707.872 192.019C722.405 183.809 737.007 175.659 751.679 167.571C756.503 164.918 760.091 163.125 765.522 166.126Z" stroke="#7B7B7B" stroke-width="2"/>
<path d="M149.967 243.549C170.341 240.585 189.52 243.988 205.603 255.938C208.889 258.372 213.807 260.092 216.864 256.212C219.535 252.821 222.225 249.216 224.934 245.397C225.605 244.458 225.497 243.61 224.611 242.854C212.762 232.771 198.274 225.104 182.665 222.432C124.009 212.404 71.6952 245.745 67.0809 304.375C61.916 370.179 106.084 416.695 175.772 407.107C195.255 404.423 211.895 395.859 225.694 381.415C226.099 380.988 226.105 380.555 225.713 380.115C222.358 376.297 219.092 372.9 215.914 369.923C213.205 367.398 210.49 367.41 207.768 369.959C197.337 379.719 184.406 385.19 168.974 386.374C141.327 388.496 120.692 380.201 107.071 361.487C94.6905 344.469 91.2345 322.492 94.0828 301.667C98.2224 271.4 118.161 248.161 149.967 243.549Z" stroke="#7B7B7B" stroke-width="2"/>
<path d="M249.316 324.193C253.323 376.583 294.073 410.491 348.133 408.094C393.668 406.081 427.943 377.461 435.254 334.33C440.836 301.374 433.032 266.734 407.454 243.713C381.857 220.693 343.006 215.533 310.84 225.506C266.368 239.285 245.993 280.458 249.316 324.193Z" stroke="#7B7B7B" stroke-width="2"/>
<path d="M664.618 289.993C652.484 343.957 680.208 399.952 741.294 407.272C759.207 409.419 775.607 407.906 790.494 402.733C834.32 387.509 853.612 346.482 849.321 303.04C845.144 260.677 816.869 228.654 772.132 221.902C758.245 219.803 744.497 220.34 730.889 223.512C696.348 231.564 672.081 256.853 664.618 289.993Z" stroke="#7B7B7B" stroke-width="2"/>
<path d="M27.0905 223.621C27.0905 223.378 26.9904 223.146 26.8124 222.974C26.6343 222.802 26.3928 222.706 26.141 222.706H1.94943C1.69763 222.706 1.45614 222.802 1.27808 222.974C1.10003 223.146 1 223.378 1 223.621V405.221C1 405.464 1.10003 405.697 1.27808 405.868C1.45614 406.04 1.69763 406.136 1.94943 406.136H26.141C26.3928 406.136 26.6343 406.04 26.8124 405.868C26.9904 405.697 27.0905 405.464 27.0905 405.221V223.621Z" stroke="#7B7B7B" stroke-width="2"/>
<path d="M599.049 322.802C599.367 322.802 599.671 322.924 599.895 323.14C600.12 323.356 600.246 323.649 600.246 323.955V405.13C600.246 405.436 600.372 405.729 600.596 405.945C600.82 406.161 601.125 406.283 601.442 406.283L625.406 406.155C625.723 406.155 626.027 406.033 626.251 405.817C626.476 405.601 626.602 405.307 626.602 405.002V223.895C626.602 223.59 626.476 223.296 626.251 223.08C626.027 222.864 625.723 222.743 625.406 222.743L601.461 222.633C601.144 222.633 600.839 222.754 600.615 222.97C600.391 223.187 600.265 223.48 600.265 223.786L600.303 303.295C600.303 303.601 600.176 303.894 599.952 304.11C599.728 304.327 599.424 304.448 599.106 304.448L499.245 304.466C499.088 304.466 498.932 304.437 498.787 304.379C498.642 304.321 498.51 304.236 498.399 304.129C498.288 304.022 498.2 303.895 498.139 303.755C498.079 303.615 498.048 303.465 498.048 303.314V223.822C498.048 223.516 497.922 223.223 497.698 223.007C497.474 222.791 497.169 222.669 496.852 222.669L473.116 222.706C472.799 222.706 472.495 222.827 472.27 223.044C472.046 223.26 471.92 223.553 471.92 223.859V405.203C471.92 405.509 472.046 405.802 472.27 406.018C472.495 406.234 472.799 406.356 473.116 406.356L496.928 406.301C497.245 406.301 497.55 406.179 497.774 405.963C497.998 405.747 498.124 405.454 498.124 405.148L498.276 323.973C498.276 323.668 498.402 323.374 498.627 323.158C498.851 322.942 499.155 322.82 499.473 322.82L599.049 322.802Z" stroke="#7B7B7B" stroke-width="2"/>
<path d="M911.794 385.203C911.689 385.203 911.585 385.183 911.489 385.144C911.392 385.106 911.304 385.049 911.23 384.978C911.156 384.906 911.097 384.822 911.057 384.728C911.017 384.635 910.996 384.535 910.996 384.434L910.977 223.457C910.977 223.253 910.893 223.058 910.744 222.914C910.594 222.769 910.391 222.688 910.18 222.688H885.684C885.473 222.688 885.27 222.769 885.12 222.914C884.971 223.058 884.887 223.253 884.887 223.457V405.387C884.887 405.488 884.907 405.588 884.947 405.681C884.988 405.774 885.046 405.859 885.12 405.93C885.194 406.002 885.282 406.058 885.379 406.097C885.476 406.135 885.58 406.155 885.684 406.155H992.591C992.802 406.155 993.005 406.074 993.155 405.93C993.304 405.786 993.388 405.591 993.388 405.387L993.217 385.935C993.217 385.731 993.133 385.535 992.984 385.391C992.834 385.247 992.631 385.166 992.42 385.166L911.794 385.203Z" stroke="#7B7B7B" stroke-width="2"/>
<path d="M1021.83 223.822L1021.19 404.874C1021.19 405.259 1021.34 405.629 1021.63 405.903C1021.91 406.177 1022.29 406.333 1022.69 406.338L1095.51 406.576C1107.45 406.617 1119.28 404.391 1130.33 400.025C1141.38 395.66 1151.43 389.241 1159.91 381.134C1168.38 373.027 1175.11 363.391 1179.72 352.776C1184.33 342.162 1186.73 330.777 1186.77 319.271L1186.81 310.524C1186.89 287.289 1177.39 264.976 1160.39 248.49C1143.4 232.005 1120.31 222.697 1096.19 222.615L1023.37 222.359C1023.17 222.356 1022.97 222.392 1022.78 222.465C1022.6 222.537 1022.43 222.645 1022.28 222.781C1022.14 222.917 1022.03 223.079 1021.95 223.258C1021.87 223.437 1021.83 223.629 1021.83 223.822Z" stroke="#7B7B7B" stroke-width="2"/>
<path d="M1248.9 304.009C1248.63 304.009 1248.38 303.907 1248.19 303.725C1248 303.543 1247.89 303.296 1247.89 303.039L1247.72 244.317C1247.72 244.06 1247.83 243.813 1248.02 243.632C1248.2 243.45 1248.46 243.347 1248.73 243.347L1338.26 243.183C1338.53 243.183 1338.78 243.081 1338.97 242.899C1339.16 242.717 1339.27 242.47 1339.27 242.213L1339.21 223.676C1339.21 223.419 1339.1 223.172 1338.91 222.99C1338.73 222.808 1338.47 222.706 1338.2 222.706L1222.45 222.743C1222.18 222.743 1221.92 222.845 1221.74 223.027C1221.55 223.209 1221.44 223.455 1221.44 223.713L1221.42 405.185C1221.42 405.442 1221.53 405.689 1221.72 405.871C1221.91 406.052 1222.16 406.155 1222.43 406.155H1338.26C1338.53 406.155 1338.78 406.052 1338.97 405.871C1339.16 405.689 1339.27 405.442 1339.27 405.185L1339.19 386.922C1339.19 386.665 1339.08 386.418 1338.9 386.236C1338.71 386.055 1338.45 385.952 1338.18 385.952H1248.61C1248.35 385.952 1248.09 385.85 1247.9 385.668C1247.71 385.486 1247.61 385.24 1247.61 384.983L1247.74 324.504C1247.74 324.247 1247.85 324 1248.04 323.818C1248.22 323.636 1248.48 323.534 1248.75 323.534L1320.62 323.552C1320.89 323.552 1321.14 323.45 1321.33 323.268C1321.52 323.087 1321.63 322.84 1321.63 322.583L1321.64 304.961C1321.64 304.703 1321.54 304.457 1321.35 304.275C1321.16 304.093 1320.9 303.991 1320.64 303.991L1248.9 304.009Z" stroke="#7B7B7B" stroke-width="2"/>
<path d="M1457.36 325.181C1488.94 318.392 1507.22 293.267 1501.28 261.994C1495.13 229.715 1460.6 222.779 1431.8 222.761C1414.9 222.749 1397.48 222.73 1379.54 222.706C1379.29 222.706 1379.06 222.799 1378.88 222.963C1378.71 223.128 1378.61 223.351 1378.61 223.584V405.203C1378.61 405.328 1378.64 405.452 1378.69 405.567C1378.73 405.683 1378.81 405.788 1378.89 405.876C1378.98 405.964 1379.09 406.034 1379.21 406.082C1379.33 406.13 1379.45 406.155 1379.58 406.155L1403.87 406.118C1404.33 406.118 1404.57 405.892 1404.57 405.441L1404.61 330.579C1404.61 330.374 1404.69 330.176 1404.83 330.029C1404.98 329.882 1405.18 329.797 1405.39 329.792C1412.16 329.609 1419.01 329.628 1425.93 329.847C1430.3 329.969 1433.71 331.653 1436.17 334.898C1453.32 357.613 1470.26 380.06 1487 402.239C1488.89 404.739 1491.47 406.014 1494.77 406.063C1501.9 406.161 1509.77 406.216 1518.35 406.228C1518.47 406.225 1518.59 406.192 1518.69 406.13C1518.79 406.068 1518.87 405.981 1518.93 405.878C1518.98 405.775 1519.01 405.659 1519 405.543C1518.99 405.428 1518.95 405.316 1518.88 405.221C1498.93 378.932 1480.5 354.795 1463.59 332.812C1461.8 330.506 1459.64 328.286 1457.11 326.151C1457.03 326.081 1456.97 325.991 1456.94 325.89C1456.9 325.79 1456.9 325.683 1456.93 325.583C1456.95 325.482 1457 325.391 1457.08 325.32C1457.16 325.249 1457.25 325.201 1457.36 325.181Z" stroke="#7B7B7B" stroke-width="2"/>
<path d="M755.212 604.389L501.257 463.248C499.918 462.509 498.805 461.442 498.028 460.154C497.252 458.866 496.839 457.403 496.833 455.91L496.757 436.019C496.757 435.877 496.728 435.737 496.67 435.606C496.613 435.475 496.529 435.356 496.423 435.256C496.317 435.155 496.192 435.076 496.054 435.022C495.915 434.967 495.767 434.939 495.618 434.939L474.711 434.976C473.876 434.976 473.452 435.379 473.439 436.184C473.198 445.675 473.357 453.501 473.914 459.662C474.483 466.017 477.243 471.733 482.193 476.808C484.75 479.431 489.7 482.779 497.042 486.854C577.82 531.76 658.604 576.654 739.395 621.535C748.49 626.604 755.573 629.239 765.96 627.428C769.732 626.769 773.201 625.555 776.366 623.786C862.157 576.16 946.935 529.04 1030.7 482.426C1040.59 476.918 1046.35 465.773 1046.33 454.812C1046.32 448.993 1046.33 442.82 1046.37 436.294C1046.37 435.934 1046.22 435.59 1045.95 435.336C1045.69 435.082 1045.33 434.939 1044.96 434.939L1023.96 434.958C1023.71 434.958 1023.48 435.052 1023.3 435.22C1023.13 435.389 1023.03 435.617 1023.03 435.854V455.489C1023.03 457.091 1022.59 458.664 1021.76 460.049C1020.93 461.433 1019.74 462.581 1018.3 463.376L764.555 604.389C763.134 605.179 761.523 605.595 759.883 605.595C758.243 605.595 756.632 605.179 755.212 604.389Z" stroke="#7B7B7B" stroke-width="2"/>
<path d="M763.948 534.176C762.712 534.861 761.31 535.222 759.884 535.222C758.458 535.222 757.057 534.861 755.821 534.176L579.397 436.111C578.003 435.343 576.425 434.94 574.82 434.939L541.837 434.958C541.733 434.959 541.63 434.985 541.54 435.035C541.449 435.085 541.373 435.157 541.32 435.244C541.267 435.33 541.237 435.428 541.235 435.529C541.232 435.629 541.256 435.729 541.305 435.818C544.204 440.807 548.249 444.748 553.439 447.639C613.089 480.797 676.397 515.974 743.364 553.17C753.884 559.026 766.15 558.898 777.031 552.841C841.15 517.243 904.42 482.078 966.842 447.346C971.526 444.723 975.343 441.027 978.292 436.257C978.373 436.126 978.416 435.976 978.417 435.823C978.418 435.67 978.377 435.52 978.298 435.388C978.218 435.255 978.104 435.146 977.966 435.07C977.828 434.995 977.672 434.956 977.514 434.958H944.435C943.119 434.958 941.891 435.275 940.752 435.909L763.948 534.176Z" stroke="#7B7B7B" stroke-width="2"/>
<path d="M780.809 480.595C808.748 464.846 835.37 450.048 860.676 436.202C860.819 436.121 860.926 435.993 860.979 435.842C861.031 435.69 861.024 435.525 860.96 435.378C860.796 435.024 860.498 434.854 860.068 434.866C846.13 434.951 832.104 434.976 817.989 434.939C816.596 434.939 815.226 435.299 814.02 435.982C798.057 444.936 781.885 453.921 765.504 462.937C761.782 464.986 758.156 465.041 754.624 463.101C738.053 454.025 721.761 444.955 705.747 435.891C704.665 435.279 703.433 434.957 702.177 434.957L659.908 434.921C658.06 434.921 657.933 435.366 659.528 436.257C686.783 451.408 714.254 466.706 741.939 482.151C754.946 489.397 767.498 488.098 780.809 480.595Z" stroke="#7B7B7B" stroke-width="2"/>
<path d="M408.971 331.019C416.814 281.593 390.192 236.285 332.675 243.202C302.217 246.862 282.032 267.613 277.095 296.342C270.278 335.96 284.994 380.335 332.257 385.825C372.57 390.491 402.876 369.484 408.971 331.019Z" stroke="#7B7B7B" stroke-width="2"/>
<path d="M822.926 306.077C819.698 265.179 790.93 238.389 747.199 243C700.98 247.868 684.251 287.705 689.302 327.926C694.6 370.124 728.78 393.016 771.865 384.928C811.381 377.517 825.698 341.267 822.926 306.077Z" stroke="#7B7B7B" stroke-width="2"/>
<path d="M1047.77 243.97L1047.51 385.092C1047.51 385.393 1047.63 385.682 1047.85 385.894C1048.07 386.107 1048.37 386.227 1048.68 386.227L1093.76 386.3C1111.28 386.329 1128.09 379.576 1140.49 367.527C1152.9 355.478 1159.89 339.12 1159.92 322.052L1159.96 307.376C1159.97 298.924 1158.28 290.552 1154.97 282.739C1151.67 274.925 1146.82 267.822 1140.69 261.835C1134.57 255.849 1127.3 251.096 1119.29 247.849C1111.29 244.601 1102.7 242.922 1094.03 242.908L1048.95 242.835C1048.64 242.835 1048.34 242.954 1048.12 243.167C1047.9 243.38 1047.77 243.669 1047.77 243.97Z" stroke="#7B7B7B" stroke-width="2"/>
<path d="M1404.63 243.311L1404.51 310.213C1404.51 310.324 1404.53 310.433 1404.58 310.535C1404.62 310.637 1404.69 310.73 1404.77 310.808C1404.85 310.886 1404.94 310.948 1405.05 310.991C1405.16 311.033 1405.27 311.055 1405.39 311.055L1438.9 311.11C1443.91 311.118 1448.86 310.296 1453.49 308.69C1458.12 307.084 1462.32 304.726 1465.87 301.751C1469.41 298.775 1472.23 295.24 1474.15 291.349C1476.07 287.457 1477.06 283.284 1477.07 279.068V274.676C1477.08 266.165 1473.08 257.997 1465.94 251.967C1458.81 245.938 1449.12 242.541 1439.01 242.525L1405.5 242.47C1405.27 242.47 1405.05 242.558 1404.88 242.716C1404.72 242.874 1404.63 243.088 1404.63 243.311Z" stroke="#7B7B7B" stroke-width="2"/>
<path d="M502.226 165.265C498.163 167.516 496.587 170.773 496.701 175.403C496.852 181.515 496.89 187.298 496.814 192.751C496.802 193.519 496.403 193.897 495.618 193.885L474.674 193.849C473.889 193.849 473.49 193.47 473.477 192.714C473.211 178.166 471.389 164.186 481.642 152.785C484.035 150.126 488.814 146.808 495.979 142.831C576.542 98.0345 656.408 53.647 735.578 9.66815C744.085 4.93478 750.396 2.19602 754.51 1.45186C762.042 0.0855249 770.15 1.81784 778.835 6.6488C859.992 51.7988 943.1 97.9674 1028.16 145.155C1037.94 150.59 1044.85 158.842 1045.87 169.895C1046.51 176.605 1046.6 184.321 1046.16 193.044C1046.15 193.27 1046.05 193.484 1045.88 193.641C1045.72 193.798 1045.5 193.885 1045.27 193.885H1024.02C1023.36 193.885 1023.03 193.568 1023.03 192.934L1023.01 173.701C1023.01 172.066 1022.57 170.461 1021.72 169.047C1020.87 167.633 1019.65 166.462 1018.19 165.65C934.536 119.158 850.504 72.4463 766.093 25.5152C762.371 23.4474 758.726 22.7154 754.795 24.893C669.612 72.2999 585.422 119.091 502.226 165.265Z" fill="white"/>
<path d="M764.138 95.052C759.524 92.4718 755.271 95.1069 750.505 97.7603C694.095 129.186 636.939 160.996 579.037 193.19C578.19 193.658 577.241 193.904 576.283 193.904L542.54 193.867C541.376 193.867 541.103 193.391 541.724 192.44C544.673 187.816 548.693 184.089 553.782 181.259C616.9 146.174 679.854 111.192 742.643 76.3137C750.77 71.7878 758.701 70.3787 766.436 72.0867C770.132 72.904 775.962 75.5269 783.925 79.9553C844.068 113.491 904.832 147.314 966.216 181.424C971.216 184.205 975.28 188.005 978.407 192.824C978.475 192.923 978.513 193.037 978.517 193.156C978.522 193.274 978.493 193.391 978.432 193.496C978.372 193.601 978.283 193.689 978.175 193.751C978.067 193.813 977.944 193.847 977.818 193.849L944.056 193.922C942.737 193.922 941.441 193.588 940.297 192.952C881.33 160.124 822.611 127.49 764.138 95.052Z" fill="white"/>
<path d="M765.524 166.125C760.093 163.124 756.504 164.917 751.681 167.57C737.009 175.658 722.407 183.808 707.874 192.018C705.545 193.335 703.184 193.982 700.792 193.958C687.006 193.836 673.454 193.842 660.137 193.976C658.301 194 658.175 193.567 659.757 192.677C687.341 177.366 714.862 162.087 742.32 146.837C754.08 140.299 766.201 140.506 778.683 147.46C805.09 162.16 832.238 177.263 860.126 192.768C861.48 193.512 861.379 193.884 859.822 193.884L816.376 193.903C815.755 193.902 815.151 193.744 814.629 193.445C795.273 182.6 778.905 173.493 765.524 166.125Z" fill="white"/>
<path d="M205.603 255.938C189.52 243.988 170.341 240.585 149.967 243.549C118.161 248.161 98.2224 271.4 94.0828 301.667C91.2345 322.492 94.6905 344.469 107.071 361.487C120.692 380.201 141.327 388.496 168.974 386.374C184.406 385.19 197.337 379.719 207.768 369.959C210.49 367.41 213.205 367.398 215.914 369.923C219.092 372.9 222.358 376.297 225.713 380.115C226.105 380.555 226.099 380.988 225.694 381.415C211.895 395.859 195.255 404.423 175.772 407.107C106.084 416.695 61.916 370.179 67.0809 304.375C71.6952 245.745 124.009 212.404 182.665 222.432C198.274 225.104 212.762 232.771 224.611 242.854C225.497 243.61 225.605 244.458 224.934 245.397C222.225 249.216 219.535 252.821 216.864 256.212C213.807 260.092 208.889 258.372 205.603 255.938Z" fill="white"/>
<path d="M348.131 408.095C294.071 410.492 253.321 376.584 249.314 324.194C245.991 280.459 266.366 239.286 310.838 225.507C343.004 215.534 381.855 220.694 407.452 243.714C433.03 266.735 440.834 301.375 435.252 334.331C427.941 377.462 393.666 406.082 348.131 408.095ZM408.971 331.019C416.814 281.593 390.191 236.285 332.675 243.202C302.217 246.862 282.032 267.613 277.095 296.343C270.278 335.96 284.994 380.335 332.257 385.825C372.57 390.491 402.876 369.484 408.971 331.019Z" fill="white"/>
<path d="M664.618 289.993C672.081 256.853 696.348 231.564 730.889 223.512C744.497 220.34 758.245 219.803 772.132 221.902C816.869 228.654 845.144 260.677 849.321 303.04C853.612 346.482 834.32 387.509 790.494 402.733C775.607 407.906 759.207 409.419 741.294 407.272C680.208 399.952 652.484 343.957 664.618 289.993ZM822.927 306.077C819.699 265.179 790.931 238.389 747.2 243C700.981 247.868 684.252 287.705 689.303 327.927C694.601 370.124 728.781 393.017 771.866 384.928C811.382 377.517 825.699 341.267 822.927 306.077Z" fill="white"/>
<path d="M26.141 222.707H1.94943C1.42508 222.707 1 223.117 1 223.622V405.222C1 405.728 1.42508 406.137 1.94943 406.137H26.141C26.6654 406.137 27.0905 405.728 27.0905 405.222V223.622C27.0905 223.117 26.6654 222.707 26.141 222.707Z" fill="white"/>
<path d="M599.049 322.802L499.473 322.82C499.155 322.82 498.851 322.942 498.627 323.158C498.402 323.374 498.276 323.668 498.276 323.973L498.124 405.148C498.124 405.454 497.998 405.747 497.774 405.963C497.55 406.179 497.245 406.301 496.928 406.301L473.116 406.356C472.799 406.356 472.495 406.234 472.27 406.018C472.046 405.802 471.92 405.509 471.92 405.203V223.859C471.92 223.553 472.046 223.26 472.27 223.044C472.495 222.827 472.799 222.706 473.116 222.706L496.852 222.669C497.169 222.669 497.474 222.791 497.698 223.007C497.922 223.223 498.048 223.516 498.048 223.822V303.314C498.048 303.465 498.079 303.615 498.139 303.755C498.2 303.895 498.288 304.022 498.399 304.129C498.51 304.236 498.642 304.321 498.787 304.379C498.932 304.437 499.088 304.466 499.245 304.466L599.106 304.448C599.424 304.448 599.728 304.327 599.952 304.11C600.176 303.894 600.303 303.601 600.303 303.295L600.265 223.786C600.265 223.48 600.391 223.187 600.615 222.97C600.839 222.754 601.144 222.633 601.461 222.633L625.406 222.743C625.723 222.743 626.027 222.864 626.251 223.08C626.476 223.296 626.602 223.59 626.602 223.895V405.002C626.602 405.307 626.476 405.601 626.251 405.817C626.027 406.033 625.723 406.155 625.406 406.155L601.442 406.283C601.125 406.283 600.82 406.161 600.596 405.945C600.372 405.729 600.246 405.436 600.246 405.13V323.955C600.246 323.649 600.12 323.356 599.895 323.14C599.671 322.924 599.367 322.802 599.049 322.802Z" fill="white"/>
<path d="M911.794 385.203L992.42 385.166C992.631 385.166 992.834 385.247 992.984 385.391C993.133 385.535 993.217 385.731 993.217 385.935L993.388 405.387C993.388 405.591 993.304 405.786 993.155 405.93C993.005 406.074 992.802 406.155 992.591 406.155H885.684C885.58 406.155 885.476 406.135 885.379 406.097C885.282 406.058 885.194 406.002 885.12 405.93C885.046 405.859 884.988 405.774 884.947 405.681C884.907 405.588 884.887 405.488 884.887 405.387V223.457C884.887 223.253 884.971 223.058 885.12 222.914C885.27 222.769 885.473 222.688 885.684 222.688H910.18C910.391 222.688 910.594 222.769 910.744 222.914C910.893 223.058 910.977 223.253 910.977 223.457L910.996 384.434C910.996 384.535 911.017 384.635 911.057 384.728C911.097 384.822 911.156 384.906 911.23 384.978C911.304 385.049 911.392 385.106 911.489 385.144C911.585 385.183 911.689 385.203 911.794 385.203Z" fill="white"/>
<path d="M1021.83 223.823C1021.83 223.63 1021.87 223.438 1021.95 223.259C1022.03 223.08 1022.14 222.918 1022.28 222.782C1022.43 222.646 1022.6 222.538 1022.78 222.466C1022.97 222.393 1023.17 222.357 1023.37 222.359L1096.19 222.616C1120.31 222.698 1143.4 232.006 1160.39 248.491C1177.39 264.977 1186.89 287.29 1186.81 310.525L1186.77 319.272C1186.73 330.777 1184.33 342.163 1179.72 352.777C1175.11 363.392 1168.38 373.028 1159.91 381.135C1151.43 389.242 1141.38 395.661 1130.33 400.026C1119.28 404.392 1107.45 406.617 1095.51 406.577L1022.69 406.339C1022.29 406.334 1021.91 406.178 1021.63 405.904C1021.34 405.63 1021.19 405.26 1021.19 404.875L1021.83 223.823ZM1047.77 243.971L1047.51 385.093C1047.51 385.394 1047.63 385.683 1047.85 385.896C1048.07 386.108 1048.37 386.228 1048.68 386.228L1093.76 386.301C1111.28 386.33 1128.09 379.577 1140.49 367.528C1152.9 355.48 1159.89 339.122 1159.92 322.053L1159.96 307.377C1159.97 298.925 1158.28 290.554 1154.97 282.74C1151.67 274.926 1146.82 267.823 1140.69 261.837C1134.57 255.85 1127.3 251.097 1119.29 247.85C1111.29 244.602 1102.7 242.924 1094.03 242.909L1048.95 242.836C1048.64 242.836 1048.34 242.956 1048.12 243.168C1047.9 243.381 1047.77 243.67 1047.77 243.971Z" fill="white"/>
<path d="M1248.9 304.01L1320.64 303.992C1320.9 303.992 1321.16 304.094 1321.35 304.276C1321.54 304.458 1321.64 304.704 1321.64 304.962L1321.63 322.584C1321.63 322.841 1321.52 323.087 1321.33 323.269C1321.14 323.451 1320.89 323.553 1320.62 323.553L1248.75 323.535C1248.48 323.535 1248.22 323.637 1248.04 323.819C1247.85 324.001 1247.74 324.248 1247.74 324.505L1247.61 384.984C1247.61 385.241 1247.71 385.487 1247.9 385.669C1248.09 385.851 1248.35 385.953 1248.61 385.953H1338.18C1338.45 385.953 1338.71 386.056 1338.9 386.237C1339.08 386.419 1339.19 386.666 1339.19 386.923L1339.27 405.186C1339.27 405.443 1339.16 405.69 1338.97 405.872C1338.78 406.053 1338.53 406.156 1338.26 406.156H1222.43C1222.16 406.156 1221.91 406.053 1221.72 405.872C1221.53 405.69 1221.42 405.443 1221.42 405.186L1221.44 223.713C1221.44 223.456 1221.55 223.21 1221.74 223.028C1221.92 222.846 1222.18 222.744 1222.45 222.744L1338.2 222.707C1338.47 222.707 1338.73 222.809 1338.91 222.991C1339.1 223.173 1339.21 223.42 1339.21 223.677L1339.27 242.214C1339.27 242.471 1339.16 242.718 1338.97 242.9C1338.78 243.082 1338.53 243.184 1338.26 243.184L1248.73 243.348C1248.46 243.348 1248.2 243.451 1248.02 243.633C1247.83 243.814 1247.72 244.061 1247.72 244.318L1247.89 303.04C1247.89 303.297 1248 303.544 1248.19 303.726C1248.38 303.908 1248.63 304.01 1248.9 304.01Z" fill="white"/>
<path d="M1457.36 325.182C1457.25 325.202 1457.16 325.25 1457.08 325.321C1457 325.392 1456.95 325.483 1456.93 325.584C1456.9 325.684 1456.9 325.791 1456.94 325.891C1456.97 325.992 1457.03 326.082 1457.11 326.152C1459.64 328.287 1461.8 330.507 1463.59 332.813C1480.5 354.796 1498.93 378.933 1518.88 405.222C1518.95 405.317 1518.99 405.429 1519 405.544C1519.01 405.66 1518.98 405.776 1518.93 405.879C1518.87 405.982 1518.79 406.069 1518.69 406.131C1518.59 406.193 1518.47 406.226 1518.35 406.229C1509.77 406.217 1501.9 406.162 1494.77 406.064C1491.47 406.015 1488.89 404.74 1487 402.24C1470.26 380.061 1453.32 357.614 1436.17 334.899C1433.71 331.654 1430.3 329.97 1425.93 329.848C1419.01 329.629 1412.16 329.61 1405.39 329.793C1405.18 329.798 1404.98 329.883 1404.83 330.03C1404.69 330.177 1404.61 330.375 1404.61 330.58L1404.57 405.442C1404.57 405.893 1404.33 406.119 1403.87 406.119L1379.58 406.156C1379.45 406.156 1379.33 406.131 1379.21 406.083C1379.09 406.035 1378.98 405.965 1378.89 405.877C1378.81 405.789 1378.73 405.684 1378.69 405.568C1378.64 405.453 1378.61 405.329 1378.61 405.204V223.585C1378.61 223.352 1378.71 223.129 1378.88 222.964C1379.06 222.8 1379.29 222.707 1379.54 222.707C1397.48 222.731 1414.9 222.75 1431.8 222.762C1460.6 222.78 1495.13 229.716 1501.28 261.995C1507.22 293.268 1488.94 318.393 1457.36 325.182ZM1404.63 243.312L1404.51 310.213C1404.51 310.324 1404.53 310.433 1404.58 310.536C1404.62 310.638 1404.69 310.73 1404.77 310.809C1404.85 310.887 1404.95 310.949 1405.05 310.991C1405.16 311.033 1405.27 311.055 1405.39 311.055L1438.9 311.11C1443.91 311.118 1448.86 310.296 1453.49 308.69C1458.12 307.084 1462.32 304.726 1465.87 301.751C1469.41 298.775 1472.23 295.241 1474.15 291.349C1476.07 287.457 1477.06 283.284 1477.07 279.068V274.677C1477.08 266.165 1473.08 257.997 1465.94 251.968C1458.81 245.938 1449.12 242.542 1439.01 242.525L1405.5 242.47C1405.27 242.47 1405.05 242.559 1404.88 242.717C1404.72 242.874 1404.63 243.089 1404.63 243.312Z" fill="white"/>
<path d="M755.212 604.389C756.632 605.179 758.243 605.595 759.883 605.595C761.523 605.595 763.134 605.179 764.555 604.389L1018.3 463.376C1019.74 462.581 1020.93 461.433 1021.76 460.049C1022.59 458.664 1023.03 457.091 1023.03 455.489V435.854C1023.03 435.617 1023.13 435.389 1023.3 435.22C1023.48 435.052 1023.71 434.958 1023.96 434.958L1044.96 434.939C1045.33 434.939 1045.69 435.082 1045.95 435.336C1046.22 435.59 1046.37 435.934 1046.37 436.294C1046.33 442.82 1046.32 448.993 1046.33 454.812C1046.35 465.773 1040.59 476.918 1030.7 482.426C946.935 529.04 862.157 576.16 776.366 623.786C773.201 625.555 769.732 626.769 765.96 627.428C755.573 629.239 748.49 626.604 739.395 621.535C658.604 576.654 577.82 531.76 497.042 486.854C489.7 482.779 484.75 479.431 482.193 476.808C477.243 471.733 474.483 466.017 473.914 459.662C473.357 453.501 473.198 445.675 473.439 436.184C473.452 435.379 473.876 434.976 474.711 434.976L495.618 434.939C495.767 434.939 495.915 434.967 496.054 435.022C496.192 435.076 496.317 435.155 496.423 435.256C496.529 435.356 496.613 435.475 496.67 435.606C496.728 435.737 496.757 435.877 496.757 436.019L496.833 455.91C496.839 457.403 497.252 458.866 498.028 460.154C498.805 461.442 499.918 462.509 501.257 463.248L755.212 604.389Z" fill="white"/>
<path d="M763.948 534.176L940.752 435.909C941.891 435.275 943.119 434.958 944.435 434.958H977.514C977.672 434.956 977.828 434.995 977.966 435.07C978.104 435.146 978.218 435.255 978.298 435.388C978.377 435.52 978.418 435.67 978.417 435.823C978.416 435.976 978.373 436.126 978.292 436.257C975.343 441.027 971.526 444.723 966.842 447.346C904.42 482.078 841.15 517.243 777.031 552.841C766.15 558.898 753.884 559.026 743.364 553.17C676.397 515.974 613.089 480.797 553.439 447.639C548.249 444.748 544.204 440.807 541.305 435.818C541.256 435.729 541.232 435.629 541.235 435.529C541.237 435.428 541.267 435.33 541.32 435.244C541.373 435.157 541.449 435.085 541.54 435.035C541.63 434.985 541.733 434.959 541.837 434.958L574.82 434.939C576.425 434.94 578.003 435.343 579.397 436.111L755.821 534.176C757.057 534.861 758.458 535.222 759.884 535.222C761.31 535.222 762.712 534.861 763.948 534.176Z" fill="white"/>
<path d="M780.809 480.596C767.498 488.099 754.946 489.398 741.939 482.152C714.254 466.707 686.783 451.409 659.528 436.258C657.933 435.367 658.06 434.922 659.908 434.922L702.177 434.958C703.433 434.958 704.665 435.28 705.747 435.892C721.761 444.956 738.053 454.026 754.624 463.102C758.156 465.042 761.782 464.987 765.504 462.938C781.885 453.922 798.057 444.937 814.02 435.983C815.226 435.3 816.596 434.94 817.989 434.94C832.104 434.977 846.13 434.952 860.068 434.867C860.498 434.855 860.796 435.025 860.96 435.379C861.024 435.526 861.031 435.691 860.979 435.842C860.926 435.994 860.819 436.122 860.676 436.203C835.37 450.049 808.748 464.847 780.809 480.596Z" fill="white"/>
</svg>
