<svg xmlns="http://www.w3.org/2000/svg" xml:space="preserve" style="shape-rendering:geometricprecision;text-rendering:geometricprecision;image-rendering:optimizequality;fill-rule:evenodd;clip-rule:evenodd" viewBox="-2 -2 8386 8386" width="20" height="20"><defs><style>.fil1{fill:#fff;fill-rule:nonzero}</style></defs><g id="Layer_x0020_1_0"><g id="_356766976"><path d="M4191-2c2316 0 4193 1877 4193 4193S6507 8384 4191 8384-2 6507-2 4191 1875-2 4191-2z" style="fill:#e60079"/><path class="fil1" d="M4191 1190c598 0 1082 282 1082 630s-485 630-1082 630c-598 0-1082-282-1082-630s485-630 1082-630zM4191 5933c598 0 1082 282 1082 630s-485 630-1082 630c-598 0-1082-282-1082-630s485-630 1082-630zM1592 2690c299-518 785-796 1087-622 301 174 303 735 4 1252-299 518-785 796-1087 622-301-174-303-735-4-1252zM5700 5062c299-518 785-796 1086-623 301 174 303 734 4 1252s-785 796-1086 623c-301-174-303-734-4-1252zM1596 4439c301-174 788 105 1087 622 299 518 297 1078-4 1252s-788-105-1087-622c-299-518-297-1078 4-1252zM5704 2068c301-174 787 105 1086 623s297 1078-4 1252-787-105-1086-623-297-1078 4-1252z"/></g></g></svg>