<svg width="1443" height="348" viewBox="0 0 1443 348" fill="none" xmlns="http://www.w3.org/2000/svg">
<path d="M195.966 143.975C201.652 131.011 200.555 118.808 192.675 107.364C179.471 88.1054 150.483 85.6373 134.774 103.4C119.7 120.453 122.356 143.975 140.085 158.186C140.564 158.575 140.935 159.082 141.164 159.657C141.394 160.233 141.473 160.859 141.394 161.477L139.412 177.071C139.187 178.667 138.34 179.764 136.868 180.362C102.382 194.448 65.1903 201.964 25.2929 202.912C22.7744 202.962 21.0662 201.815 20.1686 199.471C2.5389 153.574 -3.53298 103.513 1.95291 49.2882C2.10252 47.7923 2.87553 46.7577 4.27194 46.1843L41.1521 30.5527C42.5485 29.9544 43.9823 29.8796 45.4535 30.3283C86.5728 42.7688 120.685 33.1829 147.79 1.57064C148.688 0.523547 149.835 0 151.232 0L173.749 0.0373971C175.045 0.0373971 176.105 0.536019 176.928 1.53325C200.841 30.3782 232.011 40.8491 270.437 32.9461C272.033 32.622 272.669 33.2577 272.345 34.8533C262.62 83.2813 234.418 119.93 195.368 148.799C193.872 149.896 193.348 149.535 193.797 147.715C194.096 146.443 195.368 145.396 195.966 143.975Z" fill="white"/>
<path d="M185.081 172.621C236.586 142.629 277.469 93.5653 286.558 34.7037C286.807 33.0583 287.68 32.5597 289.176 33.2079L319.735 46.2218C321.131 46.8201 321.904 47.8797 322.054 49.4004C330.919 136.421 310.047 220.75 250.201 283.351C224.517 310.202 195.704 331.592 163.761 347.523C162.489 348.171 161.205 348.159 159.909 347.485C103.99 317.98 57.684 275.797 29.1823 219.217C28.4592 217.771 28.908 217.023 30.5288 216.973C67.4838 215.801 102.057 209.169 134.25 197.078C135.97 196.43 136.706 197.016 136.456 198.836C135.484 205.966 134.486 213.146 133.464 220.376C132.192 229.388 139 233.838 146.967 233.838C158.188 233.863 168.861 233.789 178.985 233.614C180.492 233.589 181.977 233.247 183.342 232.611C184.708 231.974 185.923 231.058 186.908 229.921C187.893 228.784 188.626 227.452 189.059 226.014C189.492 224.575 189.615 223.062 189.42 221.573L183.585 175.613C183.411 174.291 183.909 173.294 185.081 172.621Z" fill="white"/>
<path d="M465.199 109.01C433.031 99.8855 416.723 123.445 414.965 152.352C413.432 177.67 420.726 211.251 453.005 210.167C470.211 209.618 480.796 200.668 484.761 183.316C484.935 182.618 485.372 182.269 486.07 182.269L514.946 182.307C515.053 182.304 515.16 182.326 515.257 182.371C515.355 182.416 515.441 182.482 515.51 182.565C515.578 182.647 515.627 182.744 515.652 182.849C515.678 182.953 515.679 183.062 515.656 183.167C508.874 212.211 493.202 229.463 468.64 234.923C452.107 238.613 436.61 237.316 422.147 231.034C383.584 214.243 376.851 162.113 388.147 126.773C396.8 99.7733 415.19 84.553 443.318 81.1126C478.178 76.8494 510.158 95.024 515.656 131.485C515.781 132.308 515.432 132.719 514.609 132.719L486.332 132.645C485.926 132.647 485.53 132.511 485.211 132.26C484.892 132.009 484.667 131.656 484.574 131.261C481.407 119.169 474.949 111.753 465.199 109.01Z" fill="white"/>
<path d="M1275.64 82.6228L1249.46 82.6685C1248.69 82.6698 1248.08 83.2904 1248.08 84.0546L1248.12 108.138C1248.12 108.902 1248.74 109.52 1249.51 109.519L1275.69 109.473C1276.45 109.472 1277.07 108.851 1277.07 108.087L1277.03 84.004C1277.03 83.2399 1276.41 82.6215 1275.64 82.6228Z" fill="white"/>
<path d="M1006.92 85.5253C1006.92 84.9699 1007.14 84.4373 1007.53 84.0445C1007.92 83.6518 1008.46 83.4312 1009.01 83.4312L1072.94 83.5433C1080.81 83.5568 1088.6 85.2631 1095.87 88.565C1103.14 91.8669 1109.75 96.6996 1115.3 102.787C1120.86 108.875 1125.26 116.098 1128.26 124.044C1131.26 131.99 1132.8 140.504 1132.78 149.099V167.722C1132.75 185.077 1126.4 201.71 1115.14 213.961C1103.87 226.213 1088.61 233.081 1072.71 233.053L1008.79 232.941C1008.23 232.941 1007.7 232.721 1007.31 232.328C1006.91 231.935 1006.69 231.402 1006.69 230.847L1006.92 85.5253ZM1036.88 111.291L1037.03 205.231C1037.03 205.756 1037.24 206.26 1037.61 206.632C1037.98 207.004 1038.48 207.213 1039.01 207.213L1068.11 207.175C1076.89 207.158 1085.29 202.989 1091.49 195.584C1097.68 188.178 1101.15 178.144 1101.14 167.685V148.688C1101.13 143.504 1100.27 138.373 1098.6 133.586C1096.92 128.799 1094.48 124.452 1091.4 120.791C1088.32 117.131 1084.66 114.229 1080.64 112.253C1076.62 110.276 1072.31 109.263 1067.96 109.272L1038.86 109.309C1038.33 109.309 1037.83 109.518 1037.46 109.89C1037.09 110.262 1036.88 110.766 1036.88 111.291Z" fill="white"/>
<path d="M1322.61 84.2168H1296.05C1295.35 84.2168 1294.78 84.7861 1294.78 85.4883V231.707C1294.78 232.41 1295.35 232.979 1296.05 232.979H1322.61C1323.31 232.979 1323.88 232.41 1323.88 231.707V85.4883C1323.88 84.7861 1323.31 84.2168 1322.61 84.2168Z" fill="white"/>
<path d="M829.324 143.153H818.889C818.532 143.153 818.179 143.082 817.849 142.945C817.52 142.807 817.222 142.606 816.971 142.352C816.72 142.098 816.523 141.796 816.39 141.465C816.257 141.134 816.191 140.78 816.196 140.423L816.27 125.839C816.27 123.745 817.305 122.698 819.375 122.698H829.511C831.032 122.673 831.781 121.9 831.756 120.379L831.456 94.2765C831.456 93.969 831.575 93.6741 831.785 93.4567C831.995 93.2393 832.281 93.1172 832.578 93.1172L858.911 93.1546C859.759 93.1546 860.17 93.5784 860.145 94.426L860.033 120.79C860.008 122.037 860.631 122.66 861.903 122.66L874.583 122.698C876.802 122.722 877.924 123.832 877.949 126.026L878.099 139.713C878.124 142.006 876.989 143.153 874.695 143.153L861.903 143.191C860.656 143.191 860.033 143.801 860.033 145.023L860.07 206.951C860.07 208.696 860.868 209.918 862.464 210.616C866.778 212.561 871.765 213.047 877.426 212.074C877.85 212 878.061 212.174 878.061 212.598L877.912 232.755C877.912 233.328 877.625 233.64 877.052 233.689C860.369 235.223 831.344 237.354 831.569 212.299C831.768 189.138 831.768 166.838 831.569 145.397C831.544 143.901 830.796 143.153 829.324 143.153Z" fill="white"/>
<path d="M552.126 138.815C552.4 142.58 553.298 142.742 554.819 139.301C561.177 124.941 572.112 118.596 587.622 120.266C587.877 120.285 588.115 120.404 588.289 120.598C588.463 120.793 588.558 121.048 588.557 121.314L588.669 148.538C588.669 149.211 588.32 149.51 587.622 149.435C552.313 145.584 552.387 167.049 553.248 193.6C553.647 206.739 553.634 219.578 553.21 232.118C553.21 232.667 552.936 232.941 552.387 232.941H526.055C525.777 232.941 525.511 232.831 525.315 232.635C525.118 232.438 525.008 232.172 525.008 231.894L525.045 127.409C525.045 124.243 526.629 122.66 529.795 122.66L548.759 122.697C551.652 122.697 552.899 124.131 552.5 126.998C551.976 130.987 551.851 134.926 552.126 138.815Z" fill="white"/>
<path d="M737.46 137.244C746.761 122.61 760.95 117.362 780.026 121.5C826.032 131.448 825.546 216.001 786.833 232.193C774.041 237.528 761.735 237.254 749.916 231.37C745.54 229.201 741.986 224.714 738.844 220.937C737.548 219.391 736.899 219.628 736.899 221.647L737.198 275.199C737.223 275.747 736.949 276.021 736.376 276.021L709.108 275.984C708.709 275.984 708.51 275.772 708.51 275.348V126.437C708.51 124.018 709.732 122.809 712.175 122.809H732.56C734.73 122.809 735.79 123.906 735.74 126.1L735.44 136.608C735.366 139.251 736.039 139.463 737.46 137.244ZM760.666 212.822C767.431 212.834 773.926 209.224 778.721 202.787C783.516 196.351 786.219 187.614 786.235 178.499C786.243 173.986 785.591 169.516 784.316 165.344C783.041 161.172 781.169 157.38 778.806 154.185C776.442 150.989 773.635 148.453 770.543 146.721C767.451 144.988 764.135 144.093 760.785 144.088C754.02 144.076 747.525 147.685 742.73 154.122C737.935 160.559 735.232 169.296 735.216 178.41C735.208 182.923 735.86 187.394 737.135 191.565C738.41 195.737 740.282 199.529 742.645 202.725C745.008 205.92 747.816 208.456 750.908 210.189C754 211.921 757.316 212.816 760.666 212.822Z" fill="white"/>
<path d="M992.504 184.356C992.55 197.805 987.252 210.722 977.773 220.265C968.295 229.808 955.413 235.195 941.961 235.242L932.162 235.277C918.71 235.324 905.791 230.026 896.246 220.549C886.701 211.073 881.312 198.193 881.266 184.745L881.219 171.506C881.172 158.058 886.471 145.141 895.949 135.598C905.428 126.055 918.31 120.668 931.761 120.621L941.561 120.586C955.013 120.539 967.932 125.837 977.477 135.313C987.022 144.79 992.41 157.669 992.457 171.118L992.504 184.356ZM963.204 168.869C963.237 162.472 960.728 156.324 956.227 151.777C951.726 147.23 945.603 144.656 939.205 144.623L935.091 144.601C931.922 144.584 928.782 145.192 925.849 146.389C922.915 147.586 920.246 149.348 917.994 151.576C915.743 153.804 913.952 156.454 912.724 159.374C911.496 162.294 910.856 165.428 910.839 168.595L910.743 186.919C910.71 193.316 913.219 199.464 917.72 204.011C922.221 208.559 928.344 211.132 934.742 211.165L938.857 211.187C942.025 211.204 945.165 210.596 948.098 209.399C951.032 208.203 953.701 206.44 955.953 204.212C958.205 201.984 959.996 199.334 961.223 196.414C962.451 193.494 963.091 190.361 963.108 187.193L963.204 168.869Z" fill="white"/>
<path d="M1203.33 221.161C1185.45 241.392 1145.8 242.926 1137.2 213.383C1131.77 194.797 1141.27 174.752 1160.72 169.891C1165.31 168.744 1176.02 166.961 1192.85 164.543C1197.14 163.92 1200.1 162.898 1201.72 161.477C1208.41 155.643 1202.54 145.808 1194.98 143.938C1185.07 141.507 1169.18 142.33 1167.94 155.456C1167.77 157.226 1166.78 158.123 1164.99 158.148H1142.21C1140.16 158.148 1139.28 157.139 1139.55 155.119C1142.02 136.945 1152.38 124.342 1171.12 121.238C1190.38 118.022 1221.35 118.882 1230.11 139.45C1232.15 144.212 1233.09 150.358 1232.91 157.887C1232.41 179.551 1232.46 200.094 1233.06 219.516C1233.16 222.806 1234.74 225.649 1237.81 228.042C1242.05 231.308 1241.49 232.941 1236.13 232.941H1210.24C1209.37 232.931 1208.54 232.608 1207.88 232.031C1207.23 231.454 1206.81 230.662 1206.69 229.8L1205.68 221.872C1205.43 219.927 1204.65 219.69 1203.33 221.161ZM1178.6 215.065C1187.35 215.477 1196.89 210.653 1201.57 203.286C1205.76 196.741 1203.4 189.486 1204.78 182.232C1205.16 180.387 1204.46 179.788 1202.69 180.437C1195.13 183.154 1187.23 185.111 1178.98 186.308C1160.5 189 1158.48 214.205 1178.6 215.065Z" fill="white"/>
<path d="M650.535 200.07L671.705 123.632C671.855 123.059 672.241 122.772 672.865 122.772L701.441 122.884C702.04 122.884 702.239 123.171 702.04 123.744C689.497 158.772 676.431 196.343 662.841 236.456C659.05 247.6 654.986 257.124 650.647 265.027C642.717 279.387 624.015 278.078 609.839 276.657C609.216 276.583 608.904 276.233 608.904 275.61V254.93C608.906 254.779 608.942 254.631 609.008 254.496C609.075 254.361 609.171 254.242 609.289 254.149C609.407 254.056 609.545 253.99 609.692 253.957C609.839 253.924 609.992 253.924 610.139 253.958C620.836 256.376 628.117 253.322 631.982 244.796C633.703 241.031 633.479 236.195 631.309 230.286C618.143 194.186 605.501 158.61 593.382 123.557C593.359 123.475 593.355 123.389 593.371 123.306C593.386 123.222 593.42 123.143 593.471 123.075C593.521 123.006 593.586 122.95 593.662 122.911C593.737 122.871 593.82 122.849 593.905 122.847L624.202 122.772C624.651 122.772 624.938 122.984 625.063 123.408L647.355 200.107C648.453 203.822 649.512 203.81 650.535 200.07Z" fill="white"/>
<path d="M1275.66 122.734H1249.48C1248.72 122.734 1248.1 123.354 1248.1 124.118V231.595C1248.1 232.359 1248.72 232.978 1249.48 232.978H1275.66C1276.43 232.978 1277.05 232.359 1277.05 231.595V124.118C1277.05 123.354 1276.43 122.734 1275.66 122.734Z" fill="white"/>
<path d="M1391.09 200.182L1412.41 123.482C1412.56 122.934 1412.92 122.66 1413.5 122.66L1442.37 122.809C1442.47 122.811 1442.57 122.835 1442.66 122.881C1442.74 122.926 1442.82 122.991 1442.88 123.071C1442.94 123.151 1442.98 123.243 1442.99 123.34C1443.01 123.438 1443 123.538 1442.97 123.632C1428.33 164.992 1414.12 205.692 1400.33 245.731C1390.91 273.105 1381.7 279.948 1351.86 276.956C1350.14 276.782 1349.28 275.834 1349.28 274.114V256.351C1349.28 254.681 1350.11 253.97 1351.78 254.219C1366.29 256.351 1378.15 247.301 1372.5 231.931C1359.74 197.153 1346.88 161.016 1333.94 123.52C1333.91 123.436 1333.9 123.345 1333.91 123.257C1333.93 123.169 1333.96 123.084 1334.01 123.011C1334.06 122.938 1334.13 122.878 1334.21 122.836C1334.29 122.795 1334.37 122.773 1334.46 122.772L1364.91 122.697C1365.48 122.672 1365.85 122.934 1366 123.482L1388.25 200.182C1389.22 203.548 1390.17 203.548 1391.09 200.182Z" fill="white"/>
</svg>
