<svg width="16" height="12" viewBox="0 0 16 12" fill="none" xmlns="http://www.w3.org/2000/svg">
<path d="M2.99959 0.58667L5.95426 3.34667L5.04492 4.32L3.66626 3.03334V8.66667C3.66626 9.4 4.26359 10 4.99959 10H8.66626V11.3333H4.99959C3.52692 11.3333 2.33292 10.14 2.33292 8.66667V3.03334L0.954255 4.32L0.0449219 3.34667L2.99959 0.58667ZM10.9996 2H7.33292V0.66667H10.9996C12.4723 0.66667 13.6663 1.86 13.6663 3.33334V8.96667L15.0449 7.68L15.9543 8.65334L12.9996 11.4133L10.0449 8.65334L10.9543 7.68L12.3329 8.96667V3.33334C12.3329 2.6 11.7356 2 10.9996 2Z" fill="#536471"/>
</svg>
