<svg width="24" height="23" viewBox="0 0 24 23" fill="none" xmlns="http://www.w3.org/2000/svg">
<path d="M11.7578 1.07812C12.0048 1.07812 12.2369 1.12305 12.4541 1.21289C12.6712 1.30273 12.8621 1.43376 13.0268 1.60596C13.1915 1.77816 13.3188 1.96908 13.4087 2.17871C13.4985 2.38835 13.5472 2.62044 13.5546 2.875C13.5546 3.12207 13.5097 3.35417 13.4199 3.57129C13.33 3.78841 13.199 3.97933 13.0268 4.14404C12.8546 4.30876 12.6637 4.43604 12.4541 4.52588C12.2444 4.61572 12.0123 4.66439 11.7578 4.67188C11.5107 4.67188 11.2786 4.62695 11.0615 4.53711C10.8444 4.44727 10.6534 4.31624 10.4887 4.14404C10.324 3.97184 10.1967 3.78092 10.1069 3.57129C10.017 3.36165 9.96838 3.12956 9.9609 2.875C9.9609 2.62793 10.0058 2.39583 10.0957 2.17871C10.1855 1.96159 10.3165 1.77067 10.4887 1.60596C10.6609 1.44124 10.8518 1.31396 11.0615 1.22412C11.2711 1.13428 11.5032 1.08561 11.7578 1.07812ZM4.04244 5.40186C4.04244 5.17725 4.08362 4.96761 4.16597 4.77295C4.24833 4.57829 4.36064 4.40983 4.50289 4.26758C4.64514 4.12533 4.81734 4.00928 5.01949 3.91943C5.22164 3.82959 5.43502 3.78467 5.65963 3.78467C5.88424 3.78467 6.09387 3.82585 6.28853 3.9082C6.4832 3.99056 6.65165 4.10661 6.7939 4.25635C6.93616 4.40609 7.05221 4.57829 7.14205 4.77295C7.23189 4.96761 7.27681 5.17725 7.27681 5.40186C7.27681 5.62646 7.23564 5.8361 7.15328 6.03076C7.07092 6.22542 6.95487 6.39762 6.80514 6.54736C6.6554 6.6971 6.4832 6.81315 6.28853 6.89551C6.09387 6.97786 5.88424 7.01904 5.65963 7.01904C5.43502 7.01904 5.22538 6.97786 5.03072 6.89551C4.83606 6.81315 4.66386 6.70085 4.51412 6.55859C4.36438 6.41634 4.24833 6.24414 4.16597 6.04199C4.08362 5.83984 4.04244 5.62646 4.04244 5.40186ZM3.13277 10.0625C3.33492 10.0625 3.52209 10.0999 3.6943 10.1748C3.8665 10.2497 4.01624 10.3507 4.14351 10.478C4.27079 10.6053 4.37561 10.7588 4.45797 10.9385C4.54032 11.1182 4.57776 11.3053 4.57027 11.5C4.57027 11.7021 4.53284 11.8893 4.45797 12.0615C4.3831 12.2337 4.28202 12.3835 4.15474 12.5107C4.02747 12.638 3.87398 12.7428 3.6943 12.8252C3.51461 12.9076 3.32743 12.945 3.13277 12.9375C2.93062 12.9375 2.74345 12.9001 2.57125 12.8252C2.39905 12.7503 2.24931 12.6493 2.12203 12.522C1.99475 12.3947 1.88993 12.2412 1.80758 12.0615C1.72522 11.8818 1.68778 11.6947 1.69527 11.5C1.69527 11.2979 1.73271 11.1107 1.80758 10.9385C1.88245 10.7663 1.98352 10.6165 2.1108 10.4893C2.23808 10.362 2.39156 10.2572 2.57125 10.1748C2.75094 10.0924 2.93811 10.055 3.13277 10.0625ZM4.40181 17.5981C4.40181 17.4259 4.43551 17.265 4.50289 17.1152C4.57027 16.9655 4.66012 16.8307 4.77242 16.7109C4.88473 16.5911 5.01575 16.5013 5.16549 16.4414C5.31523 16.3815 5.47994 16.3478 5.65963 16.3403C5.83183 16.3403 5.9928 16.374 6.14254 16.4414C6.29228 16.5088 6.42704 16.5986 6.54683 16.7109C6.66663 16.8232 6.75647 16.9543 6.81637 17.104C6.87626 17.2537 6.90995 17.4185 6.91744 17.5981C6.91744 17.7703 6.88375 17.9313 6.81637 18.0811C6.74898 18.2308 6.65914 18.3656 6.54683 18.4854C6.43453 18.6051 6.30351 18.695 6.15377 18.7549C6.00403 18.8148 5.83931 18.8485 5.65963 18.856C5.48743 18.856 5.32646 18.8223 5.17672 18.7549C5.02698 18.6875 4.89221 18.5977 4.77242 18.4854C4.65263 18.373 4.56278 18.242 4.50289 18.0923C4.44299 17.9425 4.4093 17.7778 4.40181 17.5981ZM11.7578 19.0469C12.0573 19.0469 12.3118 19.1517 12.5214 19.3613C12.7311 19.571 12.8359 19.8255 12.8359 20.125C12.8359 20.4245 12.7311 20.679 12.5214 20.8887C12.3118 21.0983 12.0573 21.2031 11.7578 21.2031C11.4583 21.2031 11.2037 21.0983 10.9941 20.8887C10.7845 20.679 10.6796 20.4245 10.6796 20.125C10.6796 19.8255 10.7845 19.571 10.9941 19.3613C11.2037 19.1517 11.4583 19.0469 11.7578 19.0469ZM16.9575 17.5981C16.9575 17.3436 17.0436 17.1302 17.2158 16.958C17.388 16.7858 17.6014 16.6997 17.8559 16.6997C18.1105 16.6997 18.3239 16.7858 18.4961 16.958C18.6683 17.1302 18.7544 17.3436 18.7544 17.5981C18.7544 17.8527 18.6683 18.0661 18.4961 18.2383C18.3239 18.4105 18.1105 18.4966 17.8559 18.4966C17.6014 18.4966 17.388 18.4105 17.2158 18.2383C17.0436 18.0661 16.9575 17.8527 16.9575 17.5981ZM20.3828 10.7812C20.5774 10.7812 20.7459 10.8524 20.8881 10.9946C21.0304 11.1369 21.1015 11.3053 21.1015 11.5C21.1015 11.6947 21.0304 11.8631 20.8881 12.0054C20.7459 12.1476 20.5774 12.2188 20.3828 12.2188C20.1881 12.2188 20.0197 12.1476 19.8774 12.0054C19.7351 11.8631 19.664 11.6947 19.664 11.5C19.664 11.3053 19.7351 11.1369 19.8774 10.9946C20.0197 10.8524 20.1881 10.7812 20.3828 10.7812ZM17.8559 3.42529C18.1254 3.42529 18.38 3.4777 18.6196 3.58252C18.8592 3.68734 19.0688 3.82959 19.2485 4.00928C19.4282 4.18896 19.5704 4.3986 19.6753 4.63818C19.7801 4.87777 19.8325 5.13232 19.8325 5.40186C19.8325 5.67139 19.7801 5.92594 19.6753 6.16553C19.5704 6.40511 19.4282 6.61475 19.2485 6.79443C19.0688 6.97412 18.8592 7.11637 18.6196 7.22119C18.38 7.32601 18.1254 7.37842 17.8559 7.37842C17.5864 7.37842 17.3318 7.32601 17.0922 7.22119C16.8527 7.11637 16.643 6.97412 16.4633 6.79443C16.2837 6.61475 16.1414 6.40511 16.0366 6.16553C15.9318 5.92594 15.8794 5.67139 15.8794 5.40186C15.8794 5.13232 15.9318 4.87777 16.0366 4.63818C16.1414 4.3986 16.2837 4.18896 16.4633 4.00928C16.643 3.82959 16.8527 3.68734 17.0922 3.58252C17.3318 3.4777 17.5864 3.42529 17.8559 3.42529Z" fill="white"/>
</svg>
