<svg width="24" height="23" viewBox="0 0 24 23" fill="none" xmlns="http://www.w3.org/2000/svg">
<path d="M11.7581 19.167C13.7915 19.167 15.7415 18.3593 17.1793 16.9215C18.6171 15.4837 19.4248 13.5337 19.4248 11.5003C19.4248 9.467 18.6171 7.51695 17.1793 6.07917C15.7415 4.64139 13.7915 3.83366 11.7581 3.83366C9.72481 3.83366 7.77476 4.64139 6.33699 6.07917C4.89921 7.51695 4.09147 9.467 4.09147 11.5003C4.09147 13.5337 4.89921 15.4837 6.33699 16.9215C7.77476 18.3593 9.72481 19.167 11.7581 19.167ZM11.7581 1.91699C13.0166 1.91699 14.2628 2.16487 15.4255 2.64648C16.5882 3.12809 17.6447 3.83399 18.5346 4.72389C19.4245 5.61378 20.1304 6.67024 20.612 7.83294C21.0936 8.99565 21.3415 10.2418 21.3415 11.5003C21.3415 14.042 20.3318 16.4795 18.5346 18.2768C16.7374 20.074 14.2998 21.0837 11.7581 21.0837C6.45855 21.0837 2.1748 16.7712 2.1748 11.5003C2.1748 8.95867 3.18447 6.52111 4.9817 4.72389C6.77892 2.92666 9.21648 1.91699 11.7581 1.91699ZM12.2373 6.70866V11.7399L16.5498 14.2987L15.8311 15.4774L10.7998 12.4587V6.70866H12.2373Z" fill="white"/>
</svg>
