<svg width="93" height="20" viewBox="0 0 93 20" fill="none" xmlns="http://www.w3.org/2000/svg">
<path d="M5.1123 18.3333L6.46647 12.4792L1.9248 8.54167L7.9248 8.02083L10.2581 2.5L12.5915 8.02083L18.5915 8.54167L14.0498 12.4792L15.404 18.3333L10.2581 15.2292L5.1123 18.3333Z" fill="#EA5584"/>
<path d="M23.1123 18.3333L24.4665 12.4792L19.9248 8.54167L25.9248 8.02083L28.2581 2.5L30.5915 8.02083L36.5915 8.54167L32.0498 12.4792L33.404 18.3333L28.2581 15.2292L23.1123 18.3333Z" fill="#EA5584"/>
<path d="M41.1123 18.3333L42.4665 12.4792L37.9248 8.54167L43.9248 8.02083L46.2581 2.5L48.5915 8.02083L54.5915 8.54167L50.0498 12.4792L51.404 18.3333L46.2581 15.2292L41.1123 18.3333Z" fill="#EA5584"/>
<path d="M59.1123 18.3333L60.4665 12.4792L55.9248 8.54167L61.9248 8.02083L64.2581 2.5L66.5915 8.02083L72.5915 8.54167L68.0498 12.4792L69.404 18.3333L64.2581 15.2292L59.1123 18.3333Z" fill="#EA5584"/>
<path d="M77.1123 18.3333L78.4665 12.4792L73.9248 8.54167L79.9248 8.02083L82.2581 2.5L84.5915 8.02083L90.5915 8.54167L86.0498 12.4792L87.404 18.3333L82.2581 15.2292L77.1123 18.3333Z" fill="#EA5584"/>
</svg>
