<svg width="36" height="35" viewBox="0 0 36 35" fill="none" xmlns="http://www.w3.org/2000/svg">
<circle cx="17.5" cy="17.5" r="17.5" transform="matrix(1 -8.74228e-08 -8.74228e-08 -1 0.539062 35)" fill="#11AFAD"/>
<path fill-rule="evenodd" clip-rule="evenodd" d="M22.0571 17.5371C22.108 17.4863 22.1484 17.426 22.176 17.3595C22.2036 17.2931 22.2178 17.2219 22.2178 17.1499C22.2178 17.078 22.2036 17.0068 22.176 16.9403C22.1484 16.8739 22.108 16.8136 22.0571 16.7628L15.4946 10.2003C15.3919 10.0976 15.2526 10.0399 15.1074 10.0399C14.9622 10.0399 14.8229 10.0976 14.7202 10.2003C14.6175 10.3029 14.5599 10.4422 14.5599 10.5874C14.5599 10.7327 14.6175 10.8719 14.7202 10.9746L20.8966 17.1499L14.7202 23.3253C14.6175 23.4279 14.5599 23.5672 14.5599 23.7124C14.5599 23.8577 14.6175 23.9969 14.7202 24.0996C14.8229 24.2023 14.9622 24.26 15.1074 24.26C15.2526 24.26 15.3919 24.2023 15.4946 24.0996L22.0571 17.5371Z" fill="white"/>
</svg>
