<svg width="497" height="497" viewBox="0 0 497 497" fill="none" xmlns="http://www.w3.org/2000/svg">
<path d="M248.762 248.505V1.00146C385.454 1.00146 496.265 111.812 496.265 248.505C496.265 274.477 492.177 300.287 484.151 324.988L248.762 248.505Z" fill="#FF3543" stroke="white"/>
<path d="M248.765 248.505L484.154 324.987C441.914 454.989 302.284 526.135 172.282 483.894C96.9325 459.412 37.8575 400.337 13.375 324.987L248.765 248.505Z" fill="#8824AF" stroke="white"/>
<path d="M248.763 248.505L13.3734 324.987C-11.1091 249.638 1.96013 167.122 48.5286 103.026L248.763 248.505Z" fill="#EA5584" stroke="white"/>
<path d="M248.766 248.505L48.5312 103.026C79.2534 60.7407 122.574 29.2668 172.283 13.1152L248.766 248.505Z" fill="#1CBEC0" stroke="white"/>
<path d="M248.764 248.505L172.281 13.1151C196.982 5.08938 222.792 1.00146 248.764 1.00146V248.505Z" fill="#F56527" stroke="white"/>
<circle cx="248.351" cy="247.704" r="181.203" fill="#F7FCEB"/>
<circle cx="248.351" cy="247.704" r="193.703" stroke="#FBFFF3" stroke-opacity="0.45" stroke-width="25"/>
<path d="M315.43 212.505C324.182 210.828 330.734 213.251 335.087 219.776C340.096 227.289 338.161 239.178 336.814 247.69C335.801 253.962 333.049 259.246 328.558 263.542C327.544 264.507 327.199 265.667 327.521 267.023C332.864 290.824 325.022 310.088 303.996 324.815C292.711 332.695 279.849 340.035 265.409 346.836C254.561 351.936 244.036 352.304 233.834 347.939C217.068 340.748 202.294 332.35 189.512 322.747C170.789 308.641 163.822 290.296 168.612 267.712C169.338 264.369 167.334 262.371 164.95 260.475C163.799 259.556 162.958 258.419 162.429 257.063C155.83 240.108 152.169 209.472 180.945 212.332C182.465 212.493 183.398 211.827 183.743 210.334C184.941 204.958 186.334 199.616 187.923 194.309C207.579 128.074 288.865 128.625 308.21 194.343C309.753 199.628 311.078 204.958 312.183 210.334C312.552 212.126 313.634 212.849 315.43 212.505ZM179.874 264.645C163.81 305.792 210.516 326.607 239.189 339.53C244.67 342.011 249.921 342.241 254.941 340.219C272.11 333.258 294.599 322.058 308.003 308.239C321.545 294.213 321.925 278.671 315.119 260.854C306.69 238.627 305.032 214.503 297.398 192.931C280.919 146.166 226.13 139.998 202.225 185.108C189.685 208.748 189.65 239.523 179.874 264.645ZM174.036 251.584L180.15 225.393C180.956 221.947 179.644 220.626 176.212 221.43L173.518 222.051C170.086 222.855 168.244 225.014 167.99 228.529C167.553 234.962 167.91 241.395 169.061 247.828C169.361 249.574 170.144 251.079 171.41 252.342C172.746 253.652 173.621 253.399 174.036 251.584ZM321.821 250.688C321.985 251.313 322.363 251.862 322.89 252.237C323.418 252.613 324.06 252.791 324.706 252.742C325.352 252.693 325.96 252.419 326.424 251.968C326.888 251.517 327.179 250.917 327.245 250.275L328.834 229.598C328.878 229.032 328.745 228.466 328.454 227.978L325.759 223.463C325.532 223.081 325.216 222.759 324.837 222.525C324.458 222.291 324.028 222.152 323.583 222.119L318.609 221.775C318.176 221.742 317.741 221.811 317.34 221.977C316.938 222.143 316.582 222.401 316.299 222.73C316.017 223.058 315.816 223.449 315.713 223.87C315.61 224.291 315.608 224.73 315.707 225.152L321.821 250.688Z" fill="#2C2B2C"/>
<path d="M278.398 263.577C293.011 287.286 292.251 322.678 257.636 328.089C212.14 335.153 197.527 298.521 218.738 263.301C219.498 262.083 219.199 261.233 217.84 260.751C216.159 260.153 214.408 259.66 212.589 259.269C199.704 256.374 192.242 244.795 194.176 232.423C196.767 215.813 214.834 208.473 229.447 213.676C234.583 215.514 239.696 217.593 244.785 219.914C246.266 220.588 247.869 220.948 249.492 220.972C251.116 220.996 252.724 220.682 254.216 220.052C261.678 216.881 269.52 212.057 277.742 212.194C305.827 212.642 311.907 251.17 285.791 258.89C283.695 259.51 281.599 260.13 279.504 260.751C277.891 261.21 277.523 262.152 278.398 263.577ZM232.384 252.618C233.108 253.273 233.557 254.177 233.64 255.149C233.724 256.121 233.435 257.088 232.833 257.856C218.393 276.706 206.474 312.098 241.158 318.715C257.222 321.782 278.985 314.028 277.742 294.144C276.959 281.186 272.168 269.113 263.371 257.925C262.935 257.375 262.654 256.718 262.559 256.023C262.463 255.328 262.556 254.62 262.828 253.973C263.099 253.325 263.539 252.763 264.103 252.343C264.666 251.923 265.332 251.661 266.031 251.584C273.838 250.757 282.198 251.998 288.347 245.932C295.222 239.178 293.253 227.53 284.754 223.326C277.016 219.466 267.551 224.463 260.78 228.081C246.409 235.732 236.805 225.393 223.333 222.395C201.949 217.605 196.94 247.518 216.113 250.068C220.166 250.619 224.311 250.964 228.549 251.102C230.023 251.148 231.301 251.653 232.384 252.618Z" fill="#2C2B2C"/>
<path d="M236.632 236.559C236.807 236.615 236.955 236.735 237.044 236.894C237.134 237.054 237.16 237.242 237.116 237.42L236.978 237.937C236.409 239.974 234.902 241.661 232.784 242.63C230.667 243.599 228.114 243.77 225.681 243.106L224.403 242.762C221.968 242.089 219.857 240.633 218.536 238.714C217.215 236.795 216.79 234.569 217.356 232.527L217.494 232.044C217.543 231.863 217.66 231.708 217.821 231.612C217.983 231.516 218.175 231.485 218.358 231.527L236.632 236.559Z" fill="#2C2B2C"/>
<path d="M278.157 231.734C278.29 231.703 278.43 231.725 278.546 231.796C278.662 231.867 278.746 231.981 278.779 232.113L278.848 232.355C279.143 233.417 279.193 234.535 278.995 235.646C278.796 236.757 278.354 237.838 277.693 238.827C277.032 239.817 276.165 240.695 275.142 241.411C274.119 242.128 272.96 242.669 271.732 243.003L270.557 243.313C268.086 243.987 265.484 243.785 263.321 242.751C261.158 241.718 259.611 239.937 259.019 237.799L258.915 237.524C258.894 237.456 258.888 237.384 258.896 237.314C258.904 237.243 258.927 237.175 258.962 237.114C258.998 237.052 259.046 236.999 259.103 236.957C259.16 236.915 259.226 236.885 259.295 236.869L278.157 231.734Z" fill="#2C2B2C"/>
<path d="M237.035 274.98C239.702 276.649 242.998 276.198 244.397 273.973C245.796 271.748 244.769 268.592 242.102 266.923C239.435 265.254 236.139 265.705 234.74 267.93C233.341 270.155 234.369 273.311 237.035 274.98Z" fill="#2C2B2C"/>
<path d="M259.288 275.181C261.902 273.608 262.895 270.47 261.505 268.172C260.116 265.874 256.87 265.287 254.256 266.86C251.642 268.433 250.65 271.571 252.039 273.868C253.429 276.166 256.674 276.754 259.288 275.181Z" fill="#2C2B2C"/>
<path d="M262.248 292.682L234.059 292.78C231.579 292.789 229.575 294.802 229.584 297.276L229.585 297.62C229.594 300.095 231.612 302.093 234.092 302.085L262.281 301.987C264.761 301.978 266.765 299.965 266.756 297.491L266.755 297.146C266.746 294.672 264.728 292.673 262.248 292.682Z" fill="#2C2B2C"/>
</svg>
