<svg width="36" height="36" viewBox="0 0 36 36" fill="none" xmlns="http://www.w3.org/2000/svg">
<circle cx="18" cy="18" r="16" fill="#F56527" stroke="white" stroke-width="4"/>
<path d="M23.3536 13.8536C23.5488 13.6583 23.5488 13.3417 23.3536 13.1464L20.1716 9.96447C19.9763 9.7692 19.6597 9.7692 19.4645 9.96447C19.2692 10.1597 19.2692 10.4763 19.4645 10.6716L22.2929 13.5L19.4645 16.3284C19.2692 16.5237 19.2692 16.8403 19.4645 17.0355C19.6597 17.2308 19.9763 17.2308 20.1716 17.0355L23.3536 13.8536ZM13 14H23V13H13V14Z" fill="white"/>
<path d="M12.6464 21.8536C12.4512 21.6583 12.4512 21.3417 12.6464 21.1464L15.8284 17.9645C16.0237 17.7692 16.3403 17.7692 16.5355 17.9645C16.7308 18.1597 16.7308 18.4763 16.5355 18.6716L13.7071 21.5L16.5355 24.3284C16.7308 24.5237 16.7308 24.8403 16.5355 25.0355C16.3403 25.2308 16.0237 25.2308 15.8284 25.0355L12.6464 21.8536ZM23 22H13V21H23V22Z" fill="white"/>
</svg>
