<svg width="20" height="21" fill="none" xmlns="http://www.w3.org/2000/svg"><g clip-path="url('#clip0_842_16633')"><path d="M9.998 20.496A9.97 9.97 0 0 1 0 10.51 9.98 9.98 0 0 1 10.091.503 9.976 9.976 0 0 1 20 10.583a9.97 9.97 0 0 1-10.002 9.913Zm.672-6.192c.114-.029.218-.054.318-.082 1.047-.29 1.855-1.122 1.755-2.38-.058-.722-.383-1.251-1.055-1.548-.446-.2-.918-.275-1.393-.36a8.011 8.011 0 0 1-1.158-.272c-.386-.129-.522-.45-.511-.85.014-.386.19-.654.54-.808.3-.132.614-.129.929-.11.557.028.95.281 1.132.821.061.179.183.254.365.254h.536c.293-.004.41-.15.347-.436a2.063 2.063 0 0 0-1.69-1.587c-.13-.021-.169-.064-.165-.19.007-.256.004-.51.004-.767 0-.243-.14-.39-.383-.4-.168-.008-.332-.004-.5 0-.268 0-.407.132-.418.4-.007.171 0 .346 0 .518 0 .353 0 .353-.336.436-.976.246-1.612.907-1.69 1.815-.075.908.24 1.597 1.118 1.94.315.122.647.197.976.279.482.118.986.179 1.45.343.562.197.744.825.444 1.347-.226.39-.586.565-1.015.608-.793.082-1.669-.122-1.823-1.087-.025-.15-.146-.228-.3-.228-.19-.004-.382-.004-.572-.004-.35 0-.457.136-.385.482.214.997.868 1.548 1.826 1.787.117.029.239.054.364.082v.947c0 .229.132.361.365.368.16.004.321.004.482.004.322 0 .447-.125.447-.458 0-.285-.004-.571-.004-.864Zm1.215 2.873c0 .132-.01.264.004.393.021.207.193.303.385.232.033-.01.068-.025.1-.036 1.38-.457 2.548-1.232 3.452-2.369 1.476-1.854 2.026-3.963 1.523-6.282-.611-2.805-2.33-4.674-5.024-5.646-.276-.1-.436.022-.447.318-.007.19-.01.383-.004.572.01.229.125.39.343.472 2.641 1.004 4.295 3.662 3.96 6.457-.29 2.394-1.559 4.102-3.77 5.092-.526.236-.53.229-.522.797Zm-9.416-6.582c.022.314.025.632.068.943.3 2.13 1.304 3.852 3.037 5.135a7.533 7.533 0 0 0 2.123 1.079c.21.068.322.029.39-.182.042-.133.035-.279.039-.422.003-.55-.022-.586-.518-.793-.054-.022-.108-.05-.165-.075a6.208 6.208 0 0 1-2.798-8.83c.733-1.261 1.801-2.137 3.156-2.662.243-.093.325-.21.328-.472.004-.132 0-.26 0-.393 0-.479-.118-.568-.564-.418a7.5 7.5 0 0 0-5.096 7.09Z" fill="#0274D0"/><path d="M10.67 14.304v.861c0 .329-.126.457-.447.457-.161 0-.322.004-.483-.003-.228-.007-.36-.14-.364-.368-.004-.311 0-.618 0-.947l-.365-.082c-.957-.24-1.608-.79-1.826-1.787-.075-.347.033-.482.386-.482.19 0 .383 0 .572.003.157.004.279.079.3.229.154.965 1.033 1.168 1.823 1.086.428-.043.79-.218 1.014-.607.3-.522.118-1.147-.443-1.348-.468-.164-.968-.225-1.45-.343-.33-.078-.661-.153-.976-.278-.879-.347-1.193-1.037-1.118-1.94.075-.912.71-1.573 1.69-1.816.336-.086.336-.086.336-.436 0-.171-.004-.347 0-.518.01-.268.15-.4.418-.4.168 0 .332-.007.5 0 .243.01.379.157.382.4.004.257.008.511-.003.768-.004.125.032.172.164.19a2.068 2.068 0 0 1 1.69 1.586c.065.29-.053.433-.346.436h-.536c-.179 0-.304-.071-.365-.254-.182-.54-.575-.79-1.132-.821-.318-.018-.633-.022-.93.11-.35.154-.528.422-.539.808-.014.4.125.722.51.85a8.01 8.01 0 0 0 1.159.272c.475.086.95.16 1.393.36.672.301.997.83 1.054 1.548.1 1.258-.707 2.09-1.754 2.38-.097.032-.2.057-.315.086Z" fill="#FEFEFE"/><path d="M11.885 17.177c-.008-.572-.004-.561.525-.797 2.212-.99 3.48-2.698 3.77-5.092.336-2.795-1.319-5.45-3.96-6.457a.494.494 0 0 1-.343-.472 7.623 7.623 0 0 1 .004-.572c.01-.296.172-.414.447-.318 2.698.972 4.413 2.841 5.024 5.646.504 2.32-.047 4.428-1.522 6.282-.908 1.136-2.076 1.912-3.452 2.37-.032.01-.068.024-.1.035-.197.071-.365-.025-.386-.232-.018-.129-.007-.261-.007-.393ZM2.47 10.595a7.503 7.503 0 0 1 5.099-7.09c.447-.15.565-.06.565.418v.393c-.004.261-.086.375-.33.472C6.45 5.317 5.383 6.192 4.65 7.45a6.207 6.207 0 0 0 2.801 8.83l.164.075c.5.21.526.243.519.793 0 .14.003.29-.04.422-.068.21-.182.25-.39.182-.76-.25-1.479-.6-2.122-1.08-1.733-1.282-2.737-3.004-3.037-5.134-.05-.315-.054-.629-.075-.943Z" fill="#FEFEFE"/></g><defs><clipPath id="clip0_842_16633"><path fill="#fff" transform="translate(0 .504)" d="M0 0h20v19.993H0z"/></clipPath></defs></svg>