<svg width="20" height="19" fill="none" xmlns="http://www.w3.org/2000/svg"><path d="M10.04 18.2h-.08c-.033-.025-.068-.046-.097-.074-1.585-1.518-3.17-3.036-4.753-4.555L.073 8.746c-.086-.082-.093-.126-.039-.24C1.238 5.98 2.442 3.452 3.644.924 3.685.837 3.741.8 3.837.8h12.33c.091 0 .147.035.186.118l3.007 6.318.64 1.346v.07c-.032.039-.061.082-.097.117l-.977.937-3.595 3.445-5.01 4.799c-.09.087-.187.167-.28.25ZM5.262 3.172a.046.046 0 0 0-.005.01V5.49l.007.007H8.74v1.52l-.327.024c-.1.006-.202.01-.303.018l-.48.042c-.129.01-.258.018-.386.035-.328.043-.657.085-.985.137a8.953 8.953 0 0 0-1.436.34c-.258.086-.51.186-.738.34a.821.821 0 0 0-.249.241.34.34 0 0 0 0 .383.698.698 0 0 0 .09.113c.1.102.22.177.347.242.295.152.608.254.926.34.476.129.96.218 1.449.288.232.033.464.066.697.091.234.025.47.041.703.06.122.01.244.015.366.022l.329.02V14.628l.009.005.035.002h2.432a.536.536 0 0 0 .04-.002l.006-.007V9.753l.316-.023c.197-.014.393-.026.59-.042.172-.014.343-.03.514-.05.242-.028.484-.057.724-.091.481-.069.958-.16 1.427-.29a4.27 4.27 0 0 0 .949-.362c.136-.076.264-.163.357-.292.105-.147.107-.3-.003-.444a.991.991 0 0 0-.16-.162 1.936 1.936 0 0 0-.484-.268c-.507-.21-1.04-.329-1.577-.43a21.002 21.002 0 0 0-2.106-.251c-.144-.008-.29-.012-.433-.02-.037-.002-.074-.01-.111-.014v-1.52h3.477l.006-.008V3.18a.047.047 0 0 1-.005-.01l-.055-.001H5.314a.289.289 0 0 1-.052.004Z" fill="#0BB193"/><path d="M14.754 3.183v2.242l-.001.065c-.004.001-.006.003-.006.007l-3.405.001h-.072v1.52c.036.005.074.012.111.014.144.008.29.012.434.02.168.012.337.025.505.04.536.05 1.07.113 1.6.212.538.1 1.07.22 1.577.43.171.07.338.15.483.267a.987.987 0 0 1 .162.162c.109.143.108.297.003.444-.093.129-.222.216-.358.292-.299.166-.62.272-.948.363-.47.13-.947.22-1.428.289a29.1 29.1 0 0 1-.723.091c-.171.02-.343.036-.514.05-.196.016-.393.028-.59.042l-.316.023V14.632c-.004 0-.006.002-.007.005a.536.536 0 0 1-.04.002H8.754c-.001-.005-.004-.005-.008-.006l-.001-.065V9.756l-.328-.019c-.122-.007-.244-.014-.366-.023-.235-.018-.47-.034-.704-.059a18.193 18.193 0 0 1-.697-.09c-.488-.071-.972-.159-1.449-.29a4.625 4.625 0 0 1-.925-.34 1.345 1.345 0 0 1-.347-.241.613.613 0 0 1-.09-.113.34.34 0 0 1 0-.383.8.8 0 0 1 .249-.242c.227-.153.479-.253.737-.339.468-.157.95-.261 1.437-.34.327-.052.656-.094.984-.137.128-.017.257-.023.386-.035.16-.014.32-.03.48-.042.102-.008.203-.011.304-.018l.326-.023v-1.52H5.266c0-.005-.002-.007-.006-.008V3.186a.047.047 0 0 0 .004-.01l.055-.001h9.378l.055.001c-.002 0 0 .003.002.007Zm-3.49 4.029V8.89c-.003.003-.004.007-.006.01-.07.007-.14.017-.212.02-.187.008-.375.019-.562.02-.333 0-.665-.004-.999-.008a12.874 12.874 0 0 1-.393-.013c-.114-.005-.228-.013-.342-.02l-.007-.01V7.196l-.208.014c-.11.006-.22.009-.328.016-.175.013-.35.028-.526.043-.184.016-.37.028-.553.053-.369.051-.738.104-1.105.168a5.262 5.262 0 0 0-1.1.302c-.123.05-.238.12-.354.184a.49.49 0 0 0-.11.094c-.12.126-.12.26-.002.387.098.106.223.173.352.232.297.136.61.219.928.29.499.113 1.004.187 1.512.24.22.024.44.043.66.062.163.014.326.029.489.038.16.01.321.013.481.02.17.007.338.02.507.02.449.001.896-.004 1.344-.007.118-.001.236-.005.353-.011a33.911 33.911 0 0 0 1.13-.07c.175-.014.349-.03.523-.05.238-.028.477-.052.712-.092.34-.06.678-.125 1.014-.2.254-.055.502-.136.74-.248a1.09 1.09 0 0 0 .326-.212c.113-.117.13-.249.03-.372a.7.7 0 0 0-.14-.125 1.843 1.843 0 0 0-.434-.213 5.153 5.153 0 0 0-.74-.21 14.264 14.264 0 0 0-.948-.17c-.11-.017-.22-.027-.332-.04-.134-.016-.267-.035-.401-.048-.13-.013-.26-.02-.39-.03l-.399-.03-.183-.01-.322-.02-.006.01Z" fill="#FEFEFE"/><path d="M5.262 3.172a.049.049 0 0 0-.005.01c0-.003.003-.006.005-.01ZM14.754 3.183a.051.051 0 0 1-.005-.01l.005.01ZM5.259 5.49c.004.001.006.003.006.008L5.26 5.49ZM14.747 5.498c0-.005.002-.007.007-.008-.004.002-.005.006-.007.008Z" fill="#7ACDB9"/><path d="M8.744 14.628c.005 0 .007.003.01.007l-.01-.007ZM11.26 14.633c0-.003.001-.004.005-.005l-.006.005Z" fill="#90D4C4"/><path d="M8.752 8.899c.114.007.228.015.342.02.131.006.262.01.393.013.333.004.665.009.999.008.187-.001.375-.011.562-.02.071-.003.141-.013.212-.02l.005-.01V7.212l.006-.011.322.019.183.01.4.03c.13.01.26.017.389.03.134.013.267.032.4.048.112.013.223.024.333.04a14.365 14.365 0 0 1 .947.17c.252.053.5.12.74.21.153.056.302.12.435.213a.696.696 0 0 1 .14.125c.1.123.084.254-.03.372-.093.095-.209.156-.327.212a3.48 3.48 0 0 1-.74.249c-.336.074-.674.14-1.013.199-.236.04-.474.065-.712.092-.174.02-.348.036-.522.05a28.217 28.217 0 0 1-1.131.07c-.118.005-.235.01-.353.01-.448.005-.896.009-1.344.008-.169 0-.338-.013-.507-.02-.16-.007-.321-.01-.481-.02-.163-.01-.326-.024-.49-.038-.22-.02-.44-.037-.659-.061a13.327 13.327 0 0 1-1.513-.24 4.642 4.642 0 0 1-.927-.291 1.063 1.063 0 0 1-.352-.232c-.117-.128-.117-.26.002-.387a.518.518 0 0 1 .11-.094c.116-.065.231-.134.353-.184a5.246 5.246 0 0 1 1.1-.302c.368-.064.737-.117 1.106-.168.183-.025.37-.037.553-.053.175-.016.35-.031.526-.043.109-.008.219-.011.328-.016l.208-.014v1.693a.03.03 0 0 0 .007.01Z" fill="#0BB194"/><path d="m11.271 7.201-.006.011a.04.04 0 0 1 .006-.011Z" fill="#6FC8B3"/><path d="m8.752 8.9-.008-.011a.037.037 0 0 0 .008.01Z" fill="#A0DBCD"/><path d="M11.265 8.89c-.003.003-.004.007-.006.01.002-.003.003-.007.006-.01Z" fill="#6FC8B3"/></svg>