<svg width="31" height="30" viewBox="0 0 31 30" fill="none" xmlns="http://www.w3.org/2000/svg">
<path d="M24.0078 3.75C24.6709 3.75 25.3067 4.01339 25.7756 4.48223C26.2444 4.95107 26.5078 5.58696 26.5078 6.25V23.75C26.5078 24.413 26.2444 25.0489 25.7756 25.5178C25.3067 25.9866 24.6709 26.25 24.0078 26.25H6.50781C5.84477 26.25 5.20889 25.9866 4.74005 25.5178C4.2712 25.0489 4.00781 24.413 4.00781 23.75V6.25C4.00781 5.58696 4.2712 4.95107 4.74005 4.48223C5.20889 4.01339 5.84477 3.75 6.50781 3.75H24.0078ZM23.3828 23.125V16.5C23.3828 15.4192 22.9535 14.3828 22.1893 13.6185C21.4251 12.8543 20.3886 12.425 19.3078 12.425C18.2453 12.425 17.0078 13.075 16.4078 14.05V12.6625H12.9203V23.125H16.4078V16.9625C16.4078 16 17.1828 15.2125 18.1453 15.2125C18.6094 15.2125 19.0546 15.3969 19.3827 15.7251C19.7109 16.0533 19.8953 16.4984 19.8953 16.9625V23.125H23.3828ZM8.85781 10.7C9.41477 10.7 9.94891 10.4788 10.3427 10.0849C10.7366 9.6911 10.9578 9.15695 10.9578 8.6C10.9578 7.4375 10.0203 6.4875 8.85781 6.4875C8.29754 6.4875 7.76022 6.71007 7.36405 7.10624C6.96788 7.50241 6.74531 8.03973 6.74531 8.6C6.74531 9.7625 7.69531 10.7 8.85781 10.7ZM10.5953 23.125V12.6625H7.13281V23.125H10.5953Z" fill="white"/>
</svg>
